<svg xmlns="http://www.w3.org/2000/svg" xmlns:xlink="http://www.w3.org/1999/xlink" viewBox="0 0 646.333 129" enable-background="new 0 0 646.333 129"><g fill="#fff"><path d="M13.474 83.863c1.619.97 4.464 1.75 6.73 1.75 4.268 0 6.596-2.462 6.596-6.083 0-3.492-2.135-5.499-5.691-7.957-4.853-3.103-8.215-7.436-8.215-12.159 0-6.794 4.593-12.162 12.743-12.162 2.781 0 5.304.841 6.468 1.552l-1.228 5.95c-1.23-.776-3.039-1.488-5.37-1.488-3.944 0-5.821 2.652-5.821 5.303 0 3.363 1.747 4.919 6.21 7.764 5.499 3.621 7.697 7.826 7.697 12.484 0 7.829-5.563 12.809-13.389 12.809-3.237 0-6.534-.906-7.892-1.81l1.162-5.953zM44.394 77.333c.064 7.049 3.301 8.991 6.988 8.991 2.33 0 4.268-.519 5.627-1.101l1.036 4.916c-2.008.906-5.047 1.489-7.892 1.489-8.15 0-12.484-5.886-12.484-15.654 0-10.415 4.98-16.753 11.708-16.753 6.596 0 9.96 6.015 9.96 14.424 0 1.81-.064 2.845-.194 3.688h-14.749zm8.54-4.919c.064-5.042-1.619-8.019-4.075-8.019-2.975 0-4.333 4.333-4.464 8.019h8.539zM80.88 90.59c-.97.519-2.977 1.037-5.306 1.037-7.502 0-12.484-5.563-12.484-15.915 0-9.443 5.239-16.43 13.585-16.43 1.877 0 3.685.454 4.527.908l-1.036 5.499c-.71-.261-1.81-.714-3.362-.714-4.466 0-6.792 4.79-6.792 10.608 0 6.469 2.586 10.351 6.792 10.351 1.294 0 2.393-.261 3.362-.712l.714 5.368zM106.235 82.053c0 3.432.127 6.537.258 9.187h-6.016l-.389-3.301h-.13c-1.227 1.879-3.75 3.817-7.049 3.817-5.758 0-8.086-4.333-8.086-12.548v-19.471h6.921v18.628c0 4.53.777 7.634 3.623 7.634 2.133 0 3.233-1.811 3.558-3.105.258-.712.386-1.682.386-2.719v-20.438h6.923v22.316zM112.704 68.6c0-2.91-.131-6.211-.259-8.863h6.016l.386 4.72h.194c1.231-3.167 3.817-5.236 6.405-5.236.647 0 1.036.062 1.488.126v6.859c-.452-.067-.905-.067-1.488-.067-2.393 0-4.786 2.007-5.564 5.435-.127.714-.258 1.813-.258 2.977v16.69h-6.919v-22.641zM133.66 55.533c-2.005 0-3.622-1.617-3.622-4.011 0-2.458 1.682-4.01 3.686-4.01 2.201 0 3.752 1.552 3.752 4.01 0 2.394-1.55 4.011-3.752 4.011h-.064zm-3.298 35.707v-31.503h6.922v31.503h-6.922zM151.9 51.911v7.826h6.083v4.978h-6.083v16.368c0 3.883 1.489 4.852 3.235 4.852.778 0 1.425-.065 2.136-.194l.131 5.368c-1.036.326-2.589.519-4.528.519-2.199 0-4.205-.583-5.563-1.939-1.553-1.553-2.33-3.819-2.33-8.541v-16.433h-3.752v-4.978h3.752v-5.432l6.919-2.394zM167.234 59.737l3.557 17.142c.455 2.136.777 4.011 1.103 5.821h.127c.258-1.685.647-3.753 1.036-5.76l3.104-17.204h6.792l-5.885 22.513c-1.683 6.791-3.819 13.583-7.377 17.916-2.457 2.975-5.238 4.461-6.468 4.919l-2.263-5.95c1.486-.65 2.974-1.816 4.333-3.235 1.228-1.295 2.135-2.977 2.716-4.4.261-.648.388-1.037.388-1.489 0-.39-.064-.777-.194-1.163l-8.344-29.111h7.375zM194.441 47.64h17.917v6.015h-10.996v13.002h10.286v5.757h-10.286v18.826h-6.921v-43.6zM220.508 55.533c-2.005 0-3.622-1.617-3.622-4.011 0-2.458 1.681-4.01 3.685-4.01 2.203 0 3.753 1.552 3.753 4.01 0 2.394-1.55 4.011-3.753 4.011h-.063zm-3.299 35.707v-31.503h6.922v31.503h-6.922zM230.471 68.6c0-2.91-.13-6.211-.258-8.863h6.015l.388 4.72h.195c1.228-3.167 3.816-5.236 6.404-5.236.647 0 1.035.062 1.488.126v6.859c-.453-.067-.906-.067-1.488-.067-2.394 0-4.786 2.007-5.563 5.435-.13.714-.259 1.813-.259 2.977v16.69h-6.921v-22.641zM247.612 84.707c1.164.778 3.3 1.679 5.435 1.679 2.457 0 3.944-1.294 3.944-3.621 0-1.939-.905-3.235-3.817-5.109-4.721-2.783-6.405-5.821-6.405-8.992 0-5.435 3.948-9.443 9.639-9.443 2.523 0 4.531.71 6.016 1.55l-1.358 5.11c-1.23-.774-2.652-1.357-4.333-1.357-2.394 0-3.559 1.552-3.559 3.299 0 1.681.778 2.652 3.753 4.591 4.204 2.525 6.469 5.628 6.469 9.577 0 6.401-4.464 9.636-10.416 9.636-2.458 0-5.368-.711-6.726-1.81l1.358-5.11zM276.333 51.911v7.826h6.081v4.978h-6.081v16.368c0 3.883 1.488 4.852 3.235 4.852.775 0 1.423-.065 2.133-.194l.131 5.368c-1.036.326-2.588.519-4.528.519-2.199 0-4.205-.583-5.563-1.939-1.552-1.553-2.328-3.819-2.328-8.541v-16.433h-3.752v-4.978h3.752v-5.432l6.92-2.394z"/></g><g fill="#fff"><path d="M436.216 47.64v43.6h-4.98v-43.6h4.98zM443.72 68.016c0-3.688-.194-5.561-.258-8.086h4.333l.261 3.752h.128c1.357-2.522 3.881-4.268 7.181-4.268 4.333 0 7.568 3.167 7.568 10.799v21.027h-4.981v-20.182c0-3.753-.712-7.441-4.336-7.441-2.068 0-4.075 1.749-4.655 5.112-.194.712-.258 1.682-.258 2.78v19.731h-4.983v-23.224zM469.078 86.065c1.099.711 3.042 1.617 5.046 1.617 2.781 0 4.592-1.747 4.592-4.531 0-2.392-.841-4.074-4.01-6.143-4.075-2.652-6.275-5.37-6.275-8.927 0-5.11 3.753-8.666 8.602-8.666 2.459 0 4.27.776 5.563 1.617l-1.293 3.75c-1.228-.841-2.522-1.423-4.204-1.423-2.654 0-4.012 1.939-4.012 4.014 0 2.068.778 3.296 3.883 5.367 3.622 2.33 6.468 5.239 6.468 9.572 0 6.279-4.269 9.317-9.444 9.317-2.263 0-4.786-.711-6.144-1.81l1.228-3.754zM507.373 82.701c0 3.428.194 6.208.258 8.539h-4.333l-.389-3.301h-.13c-.905 1.553-3.299 3.817-6.663 3.817-5.435 0-7.632-4.272-7.632-12.032v-19.793h4.98v19.084c0 4.848.778 8.537 4.205 8.537 2.91 0 4.205-2.719 4.463-4.204.194-.841.261-1.75.261-2.784v-20.633h4.98v22.77zM514.294 68.016c0-2.651-.194-5.757-.258-8.086h4.463l.258 4.916h.13c1.035-2.974 3.688-5.432 6.597-5.432.39 0 .714 0 1.036.064v5.11c-.322-.064-.645-.064-1.036-.064-3.17 0-5.496 2.909-6.015 6.533-.13.841-.195 1.746-.195 2.845v17.338h-4.98v-23.224zM546.505 84.124c0 2.391 0 5.11.325 7.116h-4.463l-.326-3.301h-.193c-1.358 2.394-3.558 3.817-6.21 3.817-4.205 0-7.439-3.491-7.439-8.923 0-7.893 6.274-11.324 13.326-11.386v-.972c0-4.205-1.035-7.117-4.98-7.117-1.941 0-3.688.583-5.175 1.617l-1.099-3.493c1.357-.97 4.202-2.068 7.308-2.068 6.274 0 8.926 4.139 8.926 11.124v13.586zm-4.85-9.123c-2.588 0-8.605.521-8.605 7.31 0 4.143 2.072 5.563 3.817 5.563 2.2 0 4.011-1.617 4.594-4.723.128-.58.194-1.227.194-1.81v-6.34zM553.557 68.016c0-3.688-.195-5.561-.259-8.086h4.334l.258 3.752h.13c1.358-2.522 3.88-4.268 7.181-4.268 4.334 0 7.569 3.167 7.569 10.799v21.027h-4.981v-20.182c0-3.753-.712-7.441-4.336-7.441-2.068 0-4.075 1.749-4.657 5.112-.192.712-.258 1.682-.258 2.78v19.731h-4.981v-23.224zM595.022 90.462c-1.101.647-2.975 1.166-5.177 1.166-6.857 0-11.449-5.499-11.449-15.847 0-8.992 4.528-16.302 12.357-16.302 1.68 0 3.492.452 4.399 1.035l-.97 4.011c-.647-.325-1.939-.841-3.558-.841-5.047 0-7.246 5.95-7.246 12.097 0 7.309 2.781 11.704 7.375 11.704 1.294 0 2.457-.257 3.557-.837l.712 3.814zM602.396 76.038c.064 9.636 3.815 11.644 7.372 11.644 2.2 0 3.947-.516 5.177-1.167l.841 3.624c-1.747.97-4.397 1.489-6.921 1.489-7.439 0-11.322-6.081-11.322-15.718 0-10.157 4.27-16.495 10.544-16.495 6.341 0 8.928 6.724 8.928 13.776 0 1.23-.067 2.068-.13 2.848h-14.489zm9.831-3.689c.066-6.273-2.264-9.053-4.657-9.053-3.235 0-4.917 4.784-5.111 9.053h9.768z"/></g><defs><path id="a" d="M288.663 0h140.017v104.467h-140.017z"/></defs><clipPath id="b"><use xlink:href="#a" overflow="visible"/></clipPath><g clip-path="url(#b)"><radialGradient cx="356.724" cy="73.637" r="64.58" gradientUnits="userSpaceOnUse"><stop offset=".676" stop-color="#F6EB16"/><stop offset="1" stop-color="#E86F32"/></radialGradient><radialGradient id="c" cx="356.72" cy="73.631" r="66.766" gradientUnits="userSpaceOnUse"><stop offset=".676" stop-color="#F6EB13"/><stop offset="1" stop-color="#E86F32"/></radialGradient><path fill="url(#c)" d="M289.955 73.631c20.369-6.404 21.668-12.508 5.247-25.989 21.117 2.377 24.513-2.619 14.308-21.219 18.602 10.204 23.6 6.803 21.224-14.316 13.479 16.425 19.582 15.128 25.987-5.242 6.406 20.369 12.509 21.667 25.99 5.242-2.379 21.119 2.619 24.52 21.222 14.316-10.206 18.6-6.809 23.596 14.308 21.219-16.422 13.481-15.123 19.585 5.246 25.989-20.369 6.405-21.668 12.509-5.246 25.99-21.116-2.379-24.514 2.616-14.308 21.219-18.603-10.207-23.601-6.81-21.222 14.308-13.481-16.418-19.584-15.12-25.99 5.249-6.405-20.369-12.508-21.667-25.987-5.249 2.376-21.118-2.622-24.515-21.224-14.308 10.205-18.603 6.809-23.598-14.308-21.219 16.421-13.482 15.122-19.585-5.247-25.99z"/><radialGradient id="d" cx="413.209" cy="393.582" r="94.291" gradientTransform="matrix(.484 0 0 .5 156.855 -123.079)" gradientUnits="userSpaceOnUse"><stop offset=".934" stop-color="#2B71B9"/><stop offset=".941" stop-color="#5F87C5"/><stop offset=".948" stop-color="#859FD2"/><stop offset=".955" stop-color="#A7B8DF"/><stop offset=".963" stop-color="#C4CFEA"/><stop offset=".971" stop-color="#DCE1F2"/><stop offset=".979" stop-color="#EEF0F8"/><stop offset=".989" stop-color="#F9FAFD"/><stop offset="1" stop-color="#fff"/></radialGradient><path fill="url(#d)" d="M402.336 73.635c0 26.022-20.423 47.122-45.616 47.122-25.188 0-45.607-21.099-45.607-47.122 0-26.028 20.419-47.126 45.607-47.126 25.193.001 45.616 21.098 45.616 47.126z"/><linearGradient id="e" gradientUnits="userSpaceOnUse" x1="356.726" y1="116.362" x2="356.726" y2="30.897"><stop offset="0" stop-color="#F6EB13"/><stop offset=".2" stop-color="#FAAF42"/><stop offset="1" stop-color="#F6EB13"/></linearGradient><path fill="url(#e)" d="M356.72 116.362c-22.805 0-41.35-19.166-41.35-42.732 0-23.562 18.546-42.734 41.35-42.734 22.811 0 41.363 19.171 41.363 42.734 0 23.566-18.552 42.732-41.363 42.732z"/><linearGradient id="f" gradientUnits="userSpaceOnUse" x1="356.725" y1="83.529" x2="356.725" y2="35.308"><stop offset=".006" stop-color="#F6EB13"/><stop offset=".994" stop-color="#fff"/></linearGradient><path fill="url(#f)" d="M327.383 59.423c0 12.033 13.161 21.812 29.336 21.812 16.179 0 29.347-9.78 29.347-21.812 0-12.031-13.168-21.822-29.347-21.822-16.174 0-29.336 9.791-29.336 21.822z"/><path fill="#2B71B9" d="M370.641 41.14h7.426v23.484h-7.426z"/><linearGradient id="g" gradientUnits="userSpaceOnUse" x1="356.773" y1="111.171" x2="356.773" y2="40.374"><stop offset=".088" stop-color="#2B71B9"/><stop offset=".246" stop-color="#4F7FC0"/><stop offset=".604" stop-color="#88A1D3"/><stop offset=".865" stop-color="#ACBCE1"/><stop offset="1" stop-color="#BAC7E6"/></linearGradient><path fill="url(#g)" d="M392.343 73.169l-35.558-32.795-35.582 32.795 4.957-3.686v35.636c.726.254 10.106 6.052 30.625 6.052 21.543 0 29.735-5.79 30.628-6.052v-35.636l4.93 3.686z"/><linearGradient id="h" gradientUnits="userSpaceOnUse" x1="356.788" y1="107.902" x2="356.788" y2="47.75"><stop offset=".2" stop-color="#2B71B9"/><stop offset="1" stop-color="#6E90CA"/></linearGradient><path fill="url(#h)" d="M356.785 47.75l-27.96 25.798v31.601c1.03.487 9.745 2.753 27.546 2.753 18.768 0 27.038-2.32 28.379-2.876v-31.479l-27.965-25.797z"/><linearGradient id="i" gradientUnits="userSpaceOnUse" x1="356.228" y1="84.441" x2="356.228" y2="52.187"><stop offset=".006" stop-color="#2B71B9"/><stop offset="1" stop-color="#E5E9F5"/></linearGradient><path fill="url(#i)" d="M346.237 79.668v-10.633c0-1.037.849-1.886 1.886-1.886h17.328c1.037 0 1.886.849 1.886 1.886v5.802c0 2.797.67 2.725.67 2.725 1.031-.11 2.701-.395 3.71-.632l8.339-1.909c1.011-.229 1.215-.992.453-1.695l-22.342-20.612c-.762-.703-2.009-.703-2.772 0l-22.522 20.784c-.762.703-1.386 2.127-1.386 3.164v5.036c0 2.928 1.803 2.74 1.803 2.74 1.031-.108 2.717-.304 3.746-.436l4.594-.648c1.024-.161 2.603-.707 3.508-1.213-.001.001 1.099-.614 1.099-2.473z"/><path fill="#F6EB13" d="M364.676 84.316c0 1.037-.849 1.886-1.886 1.886h-12.006c-1.037 0-1.886-.849-1.886-1.886v-12.528c0-1.037.849-1.886 1.886-1.886h12.006c1.037 0 1.886.849 1.886 1.886v12.528z"/><linearGradient id="j" gradientUnits="userSpaceOnUse" x1="356.784" y1="84.822" x2="356.784" y2="71.276"><stop offset="0" stop-color="#fff"/><stop offset=".15" stop-color="#F6EB13"/><stop offset="1" stop-color="#fff"/></linearGradient><path fill="url(#j)" d="M363.34 82.936c0 1.037-.849 1.886-1.886 1.886h-9.341c-1.037 0-1.886-.849-1.886-1.886v-9.774c0-1.037.849-1.886 1.886-1.886h9.341c1.037 0 1.886.849 1.886 1.886v9.774z"/><linearGradient id="k" gradientUnits="userSpaceOnUse" x1="356.786" y1="80.731" x2="356.786" y2="72.653"><stop offset=".163" stop-color="#F6EB13"/><stop offset="1" stop-color="#fff"/></linearGradient><path fill="url(#k)" d="M351.812 80.731c.986-.323 2.622-.762 3.637-.975l2.595-.561c1.013-.223 2.552-.87 3.42-1.437 0 0 .543-.355.543-1.651v-1.569c0-1.037-.849-1.886-1.886-1.886h-6.674c-1.037 0-1.886.849-1.886 1.886v3.731c.002 2.544.251 2.462.251 2.462z"/><path fill="#2B71B9" d="M317.665 72.776l39.12-36.09 39.123 36.099-3.551 4.098-35.572-32.818-35.569 32.818-3.551-4.107z"/></g><path fill="#FCEE18" d="M356.785 107.076c45.794 0 87.893 3.055 121.152 8.169-29.717-7.322-72.98-11.936-121.152-11.936-48.175 0-91.436 4.614-121.152 11.936 33.26-5.114 75.357-8.169 121.152-8.169z"/><g fill="#fff"><path d="M619.358 65.524c.44.282 1.071.497 1.75.497 1.004 0 1.59-.53 1.59-1.298 0-.699-.406-1.117-1.433-1.5-1.242-.452-2.009-1.106-2.009-2.167 0-1.185.981-2.065 2.459-2.065.769 0 1.343.181 1.671.372l-.27.801c-.238-.146-.746-.361-1.434-.361-1.039 0-1.433.62-1.433 1.139 0 .711.462 1.061 1.512 1.467 1.287.497 1.93 1.117 1.93 2.235 0 1.173-.858 2.201-2.652 2.201-.734 0-1.534-.226-1.941-.497l.26-.824zM631.458 63.379c-.056-1.06-.124-2.346-.124-3.283h-.023c-.271.88-.576 1.839-.958 2.889l-1.343 3.69h-.744l-1.242-3.623c-.361-1.083-.655-2.054-.87-2.957h-.021c-.023.948-.079 2.212-.147 3.363l-.203 3.261h-.936l.529-7.606h1.252l1.298 3.679c.315.936.564 1.772.769 2.562h.021c.204-.767.474-1.603.813-2.562l1.354-3.679h1.254l.475 7.606h-.972l-.182-3.34z"/></g></svg>