<?xml version="1.0" encoding="utf-8"?>
<!-- Generator: Adobe Illustrator 20.1.0, SVG Export Plug-In . SVG Version: 6.00 Build 0)  -->
<!DOCTYPE svg PUBLIC "-//W3C//DTD SVG 1.1//EN" "http://www.w3.org/Graphics/SVG/1.1/DTD/svg11.dtd">
<svg version="1.1" xmlns="http://www.w3.org/2000/svg" xmlns:xlink="http://www.w3.org/1999/xlink" x="0px" y="0px"
	 viewBox="0 0 1920 726" style="enable-background:new 0 0 1920 726;" xml:space="preserve">
<style type="text/css">
	.st0{fill:#FFFFFF;stroke:#F4F4F4;stroke-width:3;stroke-linecap:round;stroke-linejoin:round;stroke-miterlimit:10;}
	.st1{fill:#FFFFFF;stroke:#ECECEC;stroke-width:3;stroke-miterlimit:10;}
	.st2{fill:#FFFFFF;stroke:#ECECEC;stroke-width:3;stroke-linecap:round;stroke-linejoin:round;stroke-miterlimit:10;}
	.st3{fill:none;stroke:#ECECEC;stroke-width:3;stroke-linecap:round;stroke-linejoin:round;stroke-miterlimit:10;}
	.st4{clip-path:url(#SVGID_2_);}
	.st5{fill:none;stroke:#00EF32;stroke-width:2;stroke-linecap:round;stroke-linejoin:round;stroke-miterlimit:10;}
	.st6{fill:none;stroke:#009857;stroke-width:2;stroke-linecap:round;stroke-linejoin:round;stroke-miterlimit:10;}
	.st7{fill:none;stroke:#02CB4F;stroke-width:2;stroke-linecap:round;stroke-linejoin:round;stroke-miterlimit:10;}
	.st8{fill:none;stroke:#ECECEC;stroke-width:2;stroke-linecap:round;stroke-linejoin:round;stroke-miterlimit:10;}
	.st9{fill:#FFFFFF;stroke:#00EF32;stroke-width:2;stroke-linecap:round;stroke-linejoin:round;stroke-miterlimit:10;}
	.st10{fill:none;stroke:#009B4B;stroke-width:2;stroke-linecap:round;stroke-linejoin:round;stroke-miterlimit:10;}
	.st11{fill:#FFFFFF;stroke:#009B4B;stroke-width:2;stroke-linecap:round;stroke-linejoin:round;stroke-miterlimit:10;}
	.st12{fill:#FFFFFF;stroke:#02CB4F;stroke-width:2;stroke-linecap:round;stroke-linejoin:round;stroke-miterlimit:10;}
	.st13{fill:#FFFFFF;}
	.st14{fill:#E4E5E7;}
	.st15{fill:none;stroke:#009B4B;stroke-width:6;stroke-miterlimit:10;}
	.st16{fill:none;stroke:#00EF32;stroke-width:3;stroke-linecap:round;stroke-linejoin:round;stroke-miterlimit:10;}
	.st17{fill:none;stroke:#009B4B;stroke-width:3;stroke-linecap:round;stroke-linejoin:round;stroke-miterlimit:10;}
	.st18{fill:none;stroke:#02CB4F;stroke-width:3;stroke-linecap:round;stroke-linejoin:round;stroke-miterlimit:10;}
	.st19{fill:#009857;}
	.st20{fill:#FFFFFF;stroke:#009857;stroke-width:3;stroke-linecap:round;stroke-linejoin:round;stroke-miterlimit:10;}
	.st21{fill:#FFFFFF;stroke:#BEC6C3;stroke-width:3;stroke-linecap:round;stroke-linejoin:round;stroke-miterlimit:10;}
	.st22{fill:#FFFFFF;stroke:#00EF32;stroke-width:3;stroke-linecap:round;stroke-linejoin:round;stroke-miterlimit:10;}
	.st23{fill:#FFFFFF;stroke:#009B4B;stroke-width:3;stroke-linecap:round;stroke-linejoin:round;stroke-miterlimit:10;}
	.st24{fill:#FFFFFF;stroke:#02CB4F;stroke-width:3;stroke-linecap:round;stroke-linejoin:round;stroke-miterlimit:10;}
	.st25{fill:#FFFFFF;stroke:#BEC6C3;stroke-width:3;stroke-miterlimit:10;}
	.st26{fill:none;stroke:#BEC6C3;stroke-width:3;stroke-linecap:round;stroke-linejoin:round;stroke-miterlimit:10;}
	.st27{fill:#BEC6C3;stroke:#BEC6C3;stroke-width:3;stroke-linecap:round;stroke-linejoin:round;stroke-miterlimit:10;}
	.st28{fill:none;stroke:#009857;stroke-width:3;stroke-linecap:round;stroke-linejoin:round;stroke-miterlimit:10;}
	.st29{fill:#FAFFFD;stroke:#ECECEC;stroke-width:3;stroke-linecap:round;stroke-linejoin:round;stroke-miterlimit:10;}
	.st30{fill:#F8FFFC;stroke:#ECECEC;stroke-width:3;stroke-linecap:round;stroke-linejoin:round;stroke-miterlimit:10;}
	.st31{fill:#BEC6C3;stroke:#ECECEC;stroke-width:3;stroke-linecap:round;stroke-linejoin:round;stroke-miterlimit:10;}
	.st32{fill:none;stroke:#ECECEC;stroke-width:2.9918;stroke-linecap:round;stroke-linejoin:round;stroke-miterlimit:10;}
	.st33{fill:#FFFFFF;stroke:#00EF32;stroke-width:4;stroke-linecap:round;stroke-linejoin:round;stroke-miterlimit:10;}
	.st34{fill:#FFFFFF;stroke:#009857;stroke-width:2;stroke-linecap:round;stroke-linejoin:round;stroke-miterlimit:10;}
</style>
<g id="Mountains">
	<path class="st0" d="M-11.4,830c0,0,0.6-260.3,1-260c0,0,699.5-172.2,726.5-172.2c24,0,236.9,51.2,236.9,51.2
		s194.5-112.5,214-112.5c18,0,757,127,757,127v370.3"/>
	<rect x="-13.4" y="667" class="st1" width="1936.4" height="206.8"/>
</g>
<g id="background">
	<rect x="456.1" y="477.8" class="st2" width="285.5" height="189.2"/>
	<path class="st2" d="M928.1,493H743.2c-1.1,0-2,0.9-2,2v170.1c0,1.1,0.9,2,2,2h184.9c1.1,0,2-0.9,2-2V495
		C930.1,493.9,929.2,493,928.1,493z"/>
	<g>
		<rect x="1242.5" y="302.7" class="st2" width="298.1" height="364.3"/>
		<path class="st2" d="M1544.3,292.5h-305.4c-1.1,0-2,0.9-2,2v8.2c0,1.1,0.9,2,2,2h305.4c1.1,0,2-0.9,2-2v-8.2
			C1546.3,293.4,1545.4,292.5,1544.3,292.5z"/>
	</g>
	<path class="st2" d="M912.6,511.6h-153c-1.1,0-2,0.9-2,2v151.7c0,1.1,0.9,2,2,2h153c1.1,0,2-0.9,2-2V513.6
		C914.6,512.5,913.7,511.6,912.6,511.6z"/>
	<line class="st2" x1="757.9" y1="544.2" x2="915" y2="544.2"/>
	<line class="st2" x1="757.9" y1="533" x2="915" y2="533"/>
	<line class="st2" x1="757.9" y1="521.8" x2="915" y2="521.8"/>
	<path class="st2" d="M513.6,556.4h49c1.1,0,2,0.9,2,2v106.2c0,1.1-0.9,2-2,2h-49c-1.1,0-2-0.9-2-2V558.4
		C511.6,557.3,512.5,556.4,513.6,556.4z"/>
	<path class="st2" d="M1372.7,556.5h48.3c1.1,0,2,0.9,2,2v106.1c0,1.1-0.9,2-2,2h-48.3c-1.1,0-2-0.9-2-2V558.5
		C1370.7,557.4,1371.6,556.5,1372.7,556.5z"/>
	<path class="st2" d="M434.8,476.3l171.6-105.8c0.7-0.4,1.5-0.4,2.2,0.1l149.2,105c1.6,1.1,0.8,3.6-1.2,3.6H446.3"/>
	<g>
		<g>
			<path class="st2" d="M716.3,617.9H590.5c-1.1,0-2-0.9-2-2v-57.9c0-1.1,0.9-2,2-2h125.8c1.1,0,2,0.9,2,2v57.9
				C718.3,617,717.4,617.9,716.3,617.9z"/>
			<path class="st2" d="M719,587.1"/>
			<path class="st2" d="M588.5,587.1"/>
			<path class="st2" d="M653.7,617.6"/>
			<path class="st2" d="M653.7,556.6"/>
		</g>
	</g>
	<g>
		<g>
			<path class="st2" d="M1328.4,402.1h-48c-1.1,0-2-0.9-2-2V351c0-1.1,0.9-2,2-2h48c1.1,0,2,0.9,2,2v49.1
				C1330.4,401.2,1329.5,402.1,1328.4,402.1z"/>
			<path class="st2" d="M1330.6,374.7"/>
			<path class="st2" d="M1278.4,374.7"/>
		</g>
		<polygon class="st2" points="1337.5,401.7 1337.5,408.4 1271.9,408.4 1271.9,401.7 		"/>
	</g>
	<g>
		<g>
			<path class="st2" d="M1417.8,402.1h-48c-1.1,0-2-0.9-2-2V351c0-1.1,0.9-2,2-2h48c1.1,0,2,0.9,2,2v49.1
				C1419.8,401.2,1418.9,402.1,1417.8,402.1z"/>
			<path class="st2" d="M1420.1,374.7"/>
			<path class="st2" d="M1367.8,374.7"/>
		</g>
		<polygon class="st2" points="1426.9,401.7 1426.9,408.4 1361.3,408.4 1361.3,401.7 		"/>
	</g>
	<g>
		<g>
			<path class="st2" d="M1507.2,402.1h-48c-1.1,0-2-0.9-2-2V351c0-1.1,0.9-2,2-2h48c1.1,0,2,0.9,2,2v49.1
				C1509.2,401.2,1508.3,402.1,1507.2,402.1z"/>
			<path class="st2" d="M1509.5,374.7"/>
			<path class="st2" d="M1457.2,374.7"/>
		</g>
		<polygon class="st2" points="1516.3,401.7 1516.3,408.4 1450.7,408.4 1450.7,401.7 		"/>
	</g>
	<g>
		<g>
			<path class="st2" d="M1328.4,505.7h-48c-1.1,0-2-0.9-2-2v-49.1c0-1.1,0.9-2,2-2h48c1.1,0,2,0.9,2,2v49.1
				C1330.4,504.8,1329.5,505.7,1328.4,505.7z"/>
			<path class="st2" d="M1330.6,478.4"/>
			<path class="st2" d="M1278.4,478.4"/>
		</g>
		<polygon class="st2" points="1337.5,505.3 1337.5,512 1271.9,512 1271.9,505.3 		"/>
	</g>
	<g>
		<g>
			<path class="st2" d="M1417.8,505.7h-48c-1.1,0-2-0.9-2-2v-49.1c0-1.1,0.9-2,2-2h48c1.1,0,2,0.9,2,2v49.1
				C1419.8,504.8,1418.9,505.7,1417.8,505.7z"/>
			<path class="st2" d="M1420.1,478.4"/>
			<path class="st2" d="M1367.8,478.4"/>
		</g>
		<polygon class="st2" points="1426.9,505.3 1426.9,512 1361.3,512 1361.3,505.3 		"/>
	</g>
	<g>
		<g>
			<path class="st2" d="M1507.2,505.7h-48c-1.1,0-2-0.9-2-2v-49.1c0-1.1,0.9-2,2-2h48c1.1,0,2,0.9,2,2v49.1
				C1509.2,504.8,1508.3,505.7,1507.2,505.7z"/>
			<path class="st2" d="M1509.5,478.4"/>
			<path class="st2" d="M1457.2,478.4"/>
		</g>
		<path class="st2" d="M1516.3,507.3v2.8c0,1.1-0.9,2-2,2h-61.6c-1.1,0-2-0.9-2-2v-2.7c0-1.1,0.9-2,2-2l61.6,0
			C1515.4,505.3,1516.3,506.2,1516.3,507.3z"/>
	</g>
	<g>
		<circle class="st2" cx="1633.6" cy="602.7" r="27"/>
		<line class="st3" x1="1633.8" y1="666.9" x2="1633.8" y2="595.6"/>
		<line class="st3" x1="1620.7" y1="600.1" x2="1633.8" y2="608"/>
	</g>
	<g>
		<circle class="st2" cx="1848.9" cy="602.7" r="27"/>
		<line class="st3" x1="1849.1" y1="666.9" x2="1849.1" y2="595.6"/>
		<line class="st3" x1="1836" y1="600.1" x2="1849.1" y2="608"/>
	</g>
	<g>
		<circle class="st2" cx="1798.1" cy="561" r="44.5"/>
		<line class="st3" x1="1798.5" y1="666.9" x2="1798.5" y2="549.3"/>
		<line class="st3" x1="1777" y1="556.7" x2="1798.5" y2="569.7"/>
	</g>
	<g>
		<polyline class="st2" points="1588.6,666.5 1588.6,519 1592.1,519 1594.9,495.7 1572.6,495.7 1580.5,519 1587.7,519 		"/>
		<polygon class="st2" points="1602.8,495.7 1594.9,495.7 1590.1,519 1595.9,519 		"/>
	</g>
	<g>
		<polyline class="st2" points="133.7,666.5 133.7,519 137.1,519 140,495.7 117.7,495.7 125.6,519 132.8,519 		"/>
		<polygon class="st2" points="147.9,495.7 140,495.7 135.1,519 141,519 		"/>
	</g>
	<g>
		<defs>
			<path id="SVGID_1_" d="M588,549.5h130.3v62H588V549.5z"/>
		</defs>
		<clipPath id="SVGID_2_">
			<use xlink:href="#SVGID_1_"  style="overflow:visible;"/>
		</clipPath>
		<g class="st4">
			<polyline class="st5" points="676.4,619.8 676.4,626 697.9,626 			"/>
			<line class="st6" x1="623.3" y1="620.3" x2="623.3" y2="626.5"/>
			<path class="st7" d="M672.2,619.8h7.3l0,0v-5.9v-10.5c0-0.5-0.5-1-1-1h-5.4c-0.5,0-0.9,0.4-0.9,1v8.5"/>
			<path class="st7" d="M627.5,611.8v-8.5c0-0.5-0.5-1-1-1h-5.2c-0.5,0-1,0.4-1,1v10.5v5.9h47.2"/>
			<line class="st6" x1="627.5" y1="607.6" x2="672.2" y2="607.6"/>
			<path class="st5" d="M672.2,611.8v-8.5c0-0.5,0.4-1,0.9-1h3.3v-11.1c0-0.9-0.8-1.7-1.7-1.7h-49.8c-0.9,0-1.7,0.8-1.7,1.7v11.1
				h3.1c0.5,0,1,0.5,1,1v8.5"/>
			<line class="st7" x1="685.1" y1="577.4" x2="685.1" y2="585.8"/>
			<line class="st6" x1="679.6" y1="574" x2="679.6" y2="563.4"/>
			<path class="st6" d="M700.2,574c0,1.9-4.6,3.4-10.3,3.4"/>
			<path class="st5" d="M689.9,577.4c-5.7,0-10.3-1.5-10.3-3.4"/>
			<line class="st6" x1="700.2" y1="563.4" x2="700.2" y2="574"/>
			<ellipse class="st7" cx="689.9" cy="563.4" rx="10.3" ry="3.4"/>
			<line class="st5" x1="689.9" y1="626" x2="689.9" y2="577.4"/>
		</g>
	</g>
	<path class="st2" d="M716.3,617.9h-16.7c-1.1,0-2-0.9-2-2v-58c0-1.1,0.9-2,2-2h16.7c1.1,0,2,0.9,2,2v58
		C718.3,617,717.4,617.9,716.3,617.9z"/>
	<path class="st2" d="M607,618h-16.7c-1.1,0-2-0.9-2-2v-58c0-1.1,0.9-2,2-2H607c1.1,0,2,0.9,2,2v58C609,617.1,608.1,618,607,618z"/>
	<g>
		<line class="st8" x1="602.2" y1="565.3" x2="602.2" y2="607.9"/>
		<line class="st8" x1="595" y1="565.3" x2="595" y2="607.9"/>
	</g>
	<line class="st8" x1="712" y1="565.3" x2="712" y2="607.9"/>
	<line class="st8" x1="705" y1="565.3" x2="705" y2="607.9"/>
	<g>
		<path class="st9" d="M1285.7,482.6h16.6c3,0,5.5,2.5,5.5,5.5v8.8c0,3-2.5,5.5-5.5,5.5h-21.2c-3,0-5.5-2.5-5.5-5.5v-8.8
			c0-3,3.4-5.5,6.4-5.5"/>
		<line class="st10" x1="1300.5" y1="482.6" x2="1305.4" y2="469.4"/>
		<line class="st7" x1="1300" y1="482.6" x2="1296.3" y2="472.8"/>
		<circle class="st11" cx="1297.8" cy="492.9" r="5.1"/>
		<line class="st12" x1="1288.4" y1="490.6" x2="1281.4" y2="490.6"/>
		<line class="st9" x1="1288.4" y1="495.5" x2="1281.4" y2="495.5"/>
		<polyline class="st5" points="1315.6,475.7 1315.6,466.2 1320.5,465 1320.5,468.8 1315.8,470 		"/>
		<polyline class="st7" points="1320.3,465 1320.3,468.8 1315.6,470 		"/>
		<circle class="st5" cx="1313.1" cy="476.9" r="2.7"/>
		<path class="st10" d="M1313.1,474.2c1.5,0,2.7,1.2,2.7,2.7s-1.2,2.7-2.7,2.7"/>
	</g>
	<polyline class="st13" points="456.9,646.1 460.1,650.8 462,656.7 456.9,659.1 453.6,658.9 447.7,659.5 447.5,651.7 445.3,649 
		452.2,646.7 	"/>
</g>
<g id="Foreground">
	<path class="st14" d="M744.1,687"/>
	<path class="st15" d="M1265.6,1775.9"/>
	<g>
		<circle class="st2" cx="294.1" cy="586.9" r="35"/>
		<line class="st3" x1="294.4" y1="667.4" x2="294.4" y2="573.6"/>
		<line class="st3" x1="277.5" y1="583.5" x2="294.4" y2="593.7"/>
	</g>
	<g>
		<path class="st16" d="M1461.9,92.6c0,3.6-2.9,6.5-6.5,6.5c-3.6,0-6.5-2.9-6.5-6.5c0-3.6,2.9-6.5,6.5-6.5
			C1459,86,1461.9,88.9,1461.9,92.6z"/>
		<circle class="st17" cx="1486.8" cy="92" r="4.8"/>
		<line class="st18" x1="1486.8" y1="67" x2="1486.8" y2="54.3"/>
		<line class="st16" x1="1468.3" y1="86" x2="1425" y2="86"/>
		<line class="st17" x1="1476.7" y1="70" x2="1466.3" y2="70"/>
		<path class="st18" d="M1511.6,92.6c0,3.6,2.9,6.5,6.5,6.5s6.5-2.9,6.5-6.5c0-3.6-2.9-6.5-6.5-6.5S1511.6,88.9,1511.6,92.6z"/>
		<line class="st17" x1="1505.2" y1="86" x2="1548.6" y2="86"/>
		<line class="st17" x1="1496.9" y1="70" x2="1507.3" y2="70"/>
		<path class="st18" d="M1504.3,89.3c0,10-7.9,18.1-17.5,18.1l0,0c-9.7,0-17.5-8.1-17.5-18.1v-4.1c0-10,7.9-18.1,17.5-18.1l0,0
			c9.7,0,17.5,8.1,17.5,18.1V89.3z"/>
		<line class="st16" x1="1478" y1="77.5" x2="1495.6" y2="77.5"/>
	</g>
	<path class="st3" d="M315.8,166.4c-10.1,0-18.3-8.7-18.3-19.4c0-8,4.7-15.2,11.7-18.1c0.7-0.3,1.1-1.1,1.1-1.9c0-9.9,8.1-18,18-18
		c4.2,0,8.2,1.5,11.4,4.1c0.4,0.3,0.9,0.5,1.5,0.4c0.5-0.1,1-0.4,1.2-0.9c4.4-7.7,12.6-12.5,21.5-12.5c13.6,0,24.7,11.1,24.7,24.7
		c0,0.7,0,1.3-0.1,2c-0.1,0.8,0.4,1.5,1.2,1.8c7.4,2.7,12.4,10.1,12.4,18.4c0,10.7-8.2,19.4-18.3,19.4h-43.2"/>
	<path class="st3" d="M516.9,67.3h-15.2c0-8.3-6.7-17-15-17c-5.4,0-10.3,2.9-13,7.6c-0.1,0.3-0.4,0.5-0.7,0.5
		c-0.3,0.1-0.7,0-0.9-0.2c-1.9-1.6-4.4-2.5-6.9-2.5c-6,0-10.9,5.9-10.9,11.9H490"/>
	<path class="st3" d="M1712.7,36.7h-15.2c0-8.3-6.7-17-15-17c-5.4,0-10.3,2.9-13,7.6c-0.1,0.3-0.4,0.5-0.7,0.5
		c-0.3,0.1-0.7,0-0.9-0.2c-1.9-1.6-4.4-2.5-6.9-2.5c-6,0-10.9,5.9-10.9,11.9h35.8"/>
	<path class="st3" d="M1895.2,105.9H1880c0-13.4-25.7-20-34-20c-15.5,0-27.4,5.9-30,10.6c-0.1,0.3-0.4,0.5-0.7,0.5
		c-0.3,0.1-0.7,0-0.9-0.2c-1.9-1.6-4.4-2.5-6.9-2.5c-6,0-10.9,5.9-10.9,11.9h70"/>
	<path class="st2" d="M1581.2,165.2h-10.8c-8.6,0-15.7-7.5-15.6-16.6c0-7.1,4.3-13.4,10.6-15.7c0.7-0.2,1.1-0.9,1-1.6
		c-0.1-0.6-0.1-1.1-0.1-1.7c0-11.6,9.5-21.1,21.1-21.1c7.6,0,14.6,4.1,18.3,10.6c0.2,0.4,0.6,0.7,1.1,0.7c0.5,0.1,0.9,0,1.3-0.3
		c2.7-2.3,6.2-3.5,9.8-3.5c8.5,0,15.4,6.9,15.4,15.4c0,0.6,0.4,1.4,0.9,1.6c6,2.5,33.1-7,33.1,17.5c0,9.1-7,14.6-15.7,14.6h-46.3"/>
	<path class="st2" d="M237.7,56.1h-9c-7.2,0-13-6.2-13-13.7c0-5.9,3.5-11.1,8.8-13c0.5-0.2,0.9-0.7,0.8-1.3c0-0.5-0.1-0.9-0.1-1.4
		c0-9.7,7.9-17.5,17.5-17.5c6.3,0,12.1,3.4,15.2,8.8c0.2,0.3,0.5,0.6,0.9,0.6c0.4,0.1,0.8,0,1-0.3c2.3-1.9,5.2-2.9,8.1-2.9
		c7,0,12.8,5.7,12.8,12.8c0,0.5,0.3,1.1,0.8,1.3c5,2,27.4-5.8,27.4,14.5c0,7.6-5.8,12.1-13,12.1h-38.5"/>
	<path class="st2" d="M1407,75.9c0,9.1-7,16.6-15.6,16.6h-58.1c-8.6,0-15.7-7.5-15.7-16.6c0-6.8,4-13,10-15.5c0.6-0.2,0.9-1,0.9-1.6
		c0-8.5,6.9-15.4,15.4-15.4c3.6,0,7,1.2,9.8,3.5c0.3,0.3,0.8,0.4,1.3,0.3c0.4-0.1,0.8-0.4,1.1-0.7c3.8-6.6,10.8-10.6,18.3-10.6
		c11.6,0,21.1,9.5,21.1,21.1c0,0.6,0,1.1-0.1,1.7"/>
	<g>
		<g>
			<ellipse class="st2" cx="343.5" cy="527.5" rx="58.4" ry="57.8"/>
			<line class="st3" x1="343.1" y1="667.3" x2="343.1" y2="512.4"/>
			<line class="st3" x1="371.3" y1="522" x2="343.1" y2="538.8"/>
			<line class="st3" x1="343.1" y1="564.2" x2="307.4" y2="540.6"/>
		</g>
		<g>
			<path class="st6" d="M355.7,501v-6c0-2.9,2.4-5.3,5.3-5.3h0c2.9,0,5.3,2.4,5.3,5.3v2.3"/>
			<line class="st6" x1="366.2" y1="493.7" x2="370.7" y2="493.7"/>
			<line class="st5" x1="367.2" y1="516.3" x2="367.2" y2="522.2"/>
			<line class="st5" x1="372.9" y1="516.3" x2="372.9" y2="522.2"/>
			<path class="st5" d="M355.7,503.1c0,7.3,5.9,13.2,13.2,13.2"/>
			<path class="st7" d="M376.9,506c0-3.9-3.1-7-7-7c-3.9,0-7,3.1-7,7c0,3.9,3.1,7,7,7h7V506z"/>
			<polyline class="st7" points="368.3,516.3 384.7,516.3 375.6,501.9 			"/>
			<circle class="st19" cx="360.9" cy="494.4" r="1.3"/>
		</g>
	</g>
	<g>
		<g>
			<ellipse class="st2" cx="19.6" cy="527.5" rx="58.4" ry="57.8"/>
			<line class="st3" x1="19.1" y1="667.3" x2="19.1" y2="512.4"/>
			<line class="st3" x1="47.3" y1="522" x2="19.1" y2="538.8"/>
			<line class="st3" x1="19.1" y1="564.2" x2="-16.6" y2="540.6"/>
		</g>
	</g>
	<g>
		<circle class="st20" cx="815.9" cy="645.6" r="19.6"/>
		<circle class="st16" cx="892.9" cy="645.6" r="19.6"/>
		<polyline class="st18" points="815.9,645.6 833.8,602 844.9,602 		"/>
		<line class="st18" x1="866.8" y1="605.9" x2="877.8" y2="605.9"/>
		<polyline class="st16" points="855.9,645.6 892.9,645.6 873.3,613.2 829.2,613.2 855.9,645.6 		"/>
		<path class="st16" d="M877.8,605.9"/>
		<line class="st18" x1="877.8" y1="605.9" x2="855.9" y2="645.6"/>
		<polyline class="st18" points="860.3,657 855.9,657 855.9,645.6 		"/>
	</g>
	<g>
		<g>
			<polyline class="st21" points="1316.1,699.4 1329.2,682.5 1333.4,665.7 1342.9,665.7 1351.5,676.5 1351.5,699.4 			"/>
			<polyline class="st21" points="1343.8,639.3 1352.2,654.5 1368.7,659.2 			"/>
			<polyline class="st21" points="1316.4,660.6 1323.8,645.8 1332.2,639.9 			"/>
			<circle class="st21" cx="1341.4" cy="624.1" r="8.1"/>
			<path class="st21" d="M1335.2,665.2h6c2.3,0,4.3-1.9,4.3-4.3v-18.5c0-2.3-1.9-4.3-4.3-4.3h-6c-2.3,0-4.3,1.9-4.3,4.3v18.5
				C1330.9,663.2,1332.8,665.2,1335.2,665.2z"/>
		</g>
		<g>
			<path class="st17" d="M1316.5,660.9c-10.6-7.6-10.7-19.7-10.7-19.7"/>
			<circle class="st22" cx="1305.8" cy="623.4" r="13.3"/>
			<line class="st18" x1="1301.8" y1="639.6" x2="1309.8" y2="639.6"/>
		</g>
		<polyline class="st23" points="1421.9,659.4 1401.8,633.2 1412.7,620.3 1437.9,652.3 		"/>
		<g>
			<path class="st24" d="M1455.3,684.5c-36.5,0-34.1-26.5-34.1-26.5h68.3C1489.4,658,1491.7,684.5,1455.3,684.5z"/>
			<path class="st22" d="M1489.4,658c-12.8,0-33.1,0-33.1,0v-34.1C1456.4,623.9,1489.4,621.6,1489.4,658z"/>
			<line class="st24" x1="1456.4" y1="658" x2="1472.9" y2="627.3"/>
			<line class="st24" x1="1456.4" y1="658" x2="1486.1" y2="640.8"/>
			<g>
				<circle class="st23" cx="1443.5" cy="691.3" r="7.8"/>
				<circle class="st23" cx="1467" cy="691.3" r="7.8"/>
			</g>
		</g>
		<g>
			<circle class="st21" cx="1381.8" cy="577.9" r="10"/>
			<path class="st25" d="M1381.8,665.4h6c2.4,0,4.3-1.9,4.3-4.3v-63.6c0-2.4-1.9-4.3-4.3-4.3h-11.2c-2.4,0-4.3,1.9-4.3,4.3v52.6
				L1381.8,665.4z"/>
			<line class="st26" x1="1407.4" y1="700" x2="1391" y2="665.4"/>
			<line class="st26" x1="1365" y1="700" x2="1381.8" y2="665.4"/>
			<path class="st26" d="M1374.3,593.2c0,0-8.7-0.4-8.7,8.7v21.5c0,0,0.9,10,9.1,10h27.4"/>
			<line class="st26" x1="1412.7" y1="620.2" x2="1392.1" y2="620.2"/>
		</g>
	</g>
	<g>
		<path class="st14" d="M491.1,684.5"/>
		<line class="st27" x1="473" y1="671.8" x2="506.4" y2="644.3"/>
		<g>
			<polyline class="st26" points="518.2,700 531.3,652 539.9,651.9 548.7,699.8 			"/>
			<line class="st26" x1="525.8" y1="595.5" x2="509.1" y2="640.7"/>
			<line class="st26" x1="557.3" y1="642.6" x2="545.9" y2="596.5"/>
			<circle class="st21" cx="530.9" cy="576.9" r="10.4"/>
			<path class="st21" d="M541.8,651.6h-12.9c-2.3,0-4.2-1.9-4.2-4.2v-49.5c0-2.3,1.9-4.2,4.2-4.2h12.9c2.3,0,4.2,1.9,4.2,4.2v49.5
				C546,649.7,544.1,651.6,541.8,651.6z"/>
		</g>
		<g>
			<g>
				<polyline class="st24" points="470.9,676.6 473.2,678.9 491.8,678.9 				"/>
				<path class="st18" d="M461.6,685.9"/>
				<line class="st22" x1="490.7" y1="692.7" x2="467.3" y2="692.7"/>
				<polyline class="st16" points="454.7,668.6 454.7,660.4 468.6,674.4 				"/>
				<line class="st16" x1="460.6" y1="682.3" x2="457.7" y2="679.4"/>
				<line class="st28" x1="468.6" y1="674.4" x2="460.6" y2="682.3"/>
			</g>
			<path class="st16" d="M490.7,692.7v4.7c0,1.6,1.3,2.8,2.8,2.8l0,0c1.6,0,2.8-1.3,2.8-2.8v-4.7v-13.7v-7.2c0-1.3-1-2.3-2.3-2.3
				l0,0c-1.3,0-2.3,1-2.3,2.3v7.2"/>
			<path class="st24" d="M461.7,685.9v11.5c0,1.6,1.3,2.8,2.8,2.8h0c1.6,0,2.8-1.3,2.8-2.8v-4.7"/>
			<path class="st22" d="M454.7,668.6l-6.8,6.8c-1.9,1.9-1.9,5,0,7v0c1.9,1.9,5,1.9,7,0l2.9-2.9"/>
		</g>
	</g>
	<path class="st29" d="M1370,92c0-11.3,9.2-23.2,20.5-23.2c7.3,0,14.1,4,17.8,10.3c0.2,0.4,0.6,0.6,1,0.7c0.4,0.1,0.9,0,1.2-0.3
		c2.7-2.2,6-3.4,9.5-3.4c8.2,0,14.9,8.1,14.9,16.3L1370,92z"/>
	<path class="st2" d="M39.5,127.9c0,9.1,7,16.6,15.6,16.6h58.1c8.6,0,15.7-7.5,15.7-16.6c0-6.8-4-13-10-15.5c-0.6-0.2-0.9-1-0.9-1.6
		c0-8.5-6.9-15.4-15.4-15.4c-3.6,0-7,1.2-9.8,3.5c-0.3,0.3-0.8,0.4-1.3,0.3c-0.4-0.1-0.8-0.4-1.1-0.7c-3.8-6.6-10.8-10.6-18.3-10.6
		c-11.6,0-21.1,9.5-21.1,21.1c0,0.6,0,1.1,0.1,1.7"/>
	<path class="st29" d="M76.5,144c0-11.3-9.2-23.2-20.5-23.2c-7.3,0-14.1,4-17.8,10.3c-0.2,0.4-0.6,0.6-1,0.7c-0.4,0.1-0.9,0-1.2-0.3
		c-2.7-2.2-6-3.4-9.5-3.4c-8.2,0-14.9,8.1-14.9,16.3L76.5,144z"/>
	<g>
		<g>
			<line class="st3" x1="1026.1" y1="640.7" x2="1026.1" y2="658.4"/>
			<line class="st3" x1="1120.9" y1="640.7" x2="1120.9" y2="657.7"/>
			<path class="st2" d="M1139.2,638.4v-24.5c0-1.1-0.9-2-2-2h-129.8c-1.1,0-2,0.9-2,2v24.5c0,1.1,0.9,2,2,2h129.8
				C1138.3,640.4,1139.2,639.5,1139.2,638.4z"/>
		</g>
		<g>
			<path class="st30" d="M1162.5,578.1h-10c-2.7,0-4.8-2.2-4.8-4.8v-11.9c0-2.7,2.2-4.8,4.8-4.8h10c2.7,0,4.8,2.2,4.8,4.8v11.9
				C1167.3,576,1165.2,578.1,1162.5,578.1z"/>
			<line class="st31" x1="1157.5" y1="578.2" x2="1157.5" y2="666.4"/>
		</g>
		<line class="st32" x1="1006.1" y1="635.9" x2="1139.2" y2="635.9"/>
		<g>
			<circle class="st21" cx="1097" cy="581.8" r="10.6"/>
			<path class="st21" d="M1105.5,635.2h-16.9c-1.3,0-2.4-1.1-2.4-2.4v-32.2c0-1.3,1.1-2.4,2.4-2.4h16.9c1.3,0,2.4,1.1,2.4,2.4v32.2
				C1108,634.1,1106.9,635.2,1105.5,635.2z"/>
			<polyline class="st26" points="1091.2,635.1 1082.4,646.8 1082.4,666.4 			"/>
			<polyline class="st26" points="1102.1,635.1 1110.8,646.8 1110.8,666.4 			"/>
		</g>
		<polyline class="st26" points="1086.8,598.4 1072.3,619.9 1085.7,635.2 		"/>
		<polyline class="st26" points="1106.8,598.4 1121.3,619.9 1107.9,635.2 		"/>
		<g>
			<polyline class="st22" points="1114.4,619.8 1078.1,619.8 1078.8,639.8 1113.5,639.8 			"/>
			<line class="st18" x1="1113.7" y1="639.8" x2="1114.4" y2="619.8"/>
			<line class="st23" x1="1078.8" y1="642.3" x2="1113.8" y2="642.3"/>
		</g>
		<path class="st33" d="M1103.8,639.8"/>
		<g>
			<polyline class="st22" points="1058.8,616.2 1028.7,616.2 1028.7,635.6 			"/>
			<polyline class="st22" points="1046.8,615.6 1046.8,613.1 1040.7,613.1 1040.7,615.6 			"/>
			<polyline class="st20" points="1028.7,635.6 1058.8,635.6 1058.8,616.2 			"/>
			<line class="st22" x1="1028.7" y1="621.8" x2="1054.3" y2="621.8"/>
		</g>
	</g>
	<g>
		<polygon class="st13" points="1501.3,364 1501.8,375.1 1509.2,378.6 1515.2,374.9 1515.4,363.1 1509.7,365.6 		"/>
		<g>
			<path class="st12" d="M1508.6,367.3c-1.3-2.2-4.1-3.7-6.4-3.7"/>
			<path class="st12" d="M1508.6,367.3c1.3-2.2,4.1-3.7,6.4-3.7"/>
			<line class="st9" x1="1502.2" y1="363.6" x2="1502.2" y2="373.3"/>
			<path class="st5" d="M1497.1,378.4c2.8,0,5.1-2.3,5.1-5.1"/>
			<path class="st5" d="M1497.1,378.4c-2.8,0-5.1,2.3-5.1,5.1v11.8"/>
			<path class="st7" d="M1495.4,407.2c-1.8,0-3.3-1.5-3.3-3.3"/>
			<path class="st7" d="M1498.7,403.9c0,1.8-1.5,3.3-3.3,3.3"/>
			<line class="st7" x1="1492" y1="392" x2="1492" y2="403.9"/>
			<path class="st9" d="M1513.5,376.9c-2.6,2.6-6.8,2.6-9.4,0c-1-1-1.6-2.3-1.9-3.6"/>
			<path class="st34" d="M1515,363.6v9.8c0,2.8-2.2,4.8-5.1,5.4v0.3v19.4"/>
			<line class="st6" x1="1509.9" y1="398.4" x2="1484.2" y2="398.4"/>
		</g>
	</g>
	<g>
		<line class="st18" x1="461.7" y1="291.5" x2="451.3" y2="318.7"/>
		<line class="st18" x1="421.2" y1="291.5" x2="431.6" y2="318.7"/>
		<line class="st18" x1="441.4" y1="305" x2="441.4" y2="318.6"/>
		<polygon class="st28" points="446.9,332 436,332 431.6,318.7 451.3,318.7 		"/>
		<circle class="st16" cx="441.4" cy="283.1" r="21.9"/>
	</g>
	<polyline class="st8" points="1242.4,662.1 1233.2,646.4 1234.9,662.4 1228.6,658 1231.5,667.4 	"/>
	<polyline class="st8" points="930.6,663.4 936.7,651.4 936.4,663.6 942,660.2 937.3,667.4 	"/>
</g>
</svg>
