<svg id="Layer_1" data-name="Layer 1" xmlns="http://www.w3.org/2000/svg" viewBox="0 0 690 690"><defs><style>.cls-1{fill:#fff;}.cls-2{fill:#02cb4f;}</style></defs><title>pinterest</title><circle class="cls-1" cx="345" cy="345" r="345"/><path class="cls-2" d="M347.4,524.07a170.69,170.69,0,0,1-49.51-7.27C304.48,506.36,312,493,315.6,479.55c0,0,2-7.72,12.26-47.92,5.91,11.58,23.62,21.8,42.47,21.8,56.1,0,94.26-51.1,94.26-119.7,0-51.56-43.83-99.94-110.61-99.94-82.67,0-124.47,59.51-124.47,109,0,30,11.36,56.78,35.66,66.77,3.86,1.59,7.5,0,8.63-4.54.91-3,2.73-10.67,3.63-13.85,1.14-4.54.68-5.91-2.5-9.77-7-8.4-11.58-19.08-11.58-34.3,0-44.06,32.93-83.58,85.85-83.58,46.79,0,72.68,28.62,72.68,67,0,50.19-22.26,92.67-55.42,92.67-18.17,0-31.8-15-27.48-33.62,5.22-22,15.44-45.88,15.44-61.78,0-14.31-7.72-26.35-23.62-26.35-18.62,0-33.62,19.31-33.62,45.2,0,0,0,16.58,5.68,27.71-19.08,80.86-22.49,94.94-22.49,94.94-3.18,13.17-3.41,27.94-3,40.2A174.47,174.47,0,0,1,173,349.64c0-96.3,78.13-174.43,174.43-174.43s174.43,78.13,174.43,174.43S443.7,524.07,347.4,524.07Z" transform="translate(-5 -5)"/></svg>