<?xml version="1.0" encoding="utf-8"?>
<!-- Generator: Adobe Illustrator 21.0.0, SVG Export Plug-In . SVG Version: 6.00 Build 0)  -->
<svg version="1.1" id="Layer_1" xmlns="http://www.w3.org/2000/svg" xmlns:xlink="http://www.w3.org/1999/xlink" x="0px" y="0px"
	 viewBox="0 0 384 158" style="enable-background:new 0 0 384 158;" xml:space="preserve">
<style type="text/css">
	.st0{fill:#02CB4F;}
</style>
<title>quilt-logo</title>
<path class="st0" d="M131.5,129.9h-21.8c10.4-11.6,16.1-26.7,16-42.2c0-33.8-26-61.2-57.9-61.2S10,53.9,10,87.7s26,61.2,57.9,61.2
	h63.6c5.2,0,9.5-4.3,9.5-9.5S136.7,129.9,131.5,129.9z M30.5,87.6c0-22.8,16.8-41.2,37.4-41.2s37.4,18.5,37.4,41.3
	s-16.8,41.2-37.4,41.2S30.4,110.4,30.5,87.6L30.5,87.6z"/>
<circle class="st0" cx="252.5" cy="30.1" r="12.6"/>
<path class="st0" d="M291.2,7c-5.5,0-10,4.5-10,10v121.9c0,5.5,4.5,10,10,10s10-4.5,10-10V17C301.2,11.5,296.8,7,291.2,7z"/>
<path class="st0" d="M252.5,56.5c-5.5,0-10,4.5-10,10v72.4c0,5.5,4.5,10,10,10c5.5,0,10-4.5,10-10V66.5
	C262.5,61,258,56.5,252.5,56.5z"/>
<path class="st0" d="M365.5,130h-7.4c-4.7,0-8.5-3.8-8.5-8.5V76.9h15.7c5.2,0,9.4-4.2,9.4-9.4s-4.2-9.4-9.4-9.4c0,0,0,0,0,0h-15.7
	V38.7c0-5.5-4.5-10-10-10s-10,4.5-10,10V58h-8.5c-5.2,0-9.4,4.2-9.4,9.4c0,5.2,4.2,9.4,9.4,9.4h8.5v43.5c0,15.7,12.8,28.5,28.5,28.5
	h7.4c5.5,0,10-4.5,10-10C375.5,133.4,371,130,365.5,130z"/>
<path class="st0" d="M214.5,57.2c-5.5,0-10,4.5-10,10c0,0,0,0,0,0v42.1c0,11.5-9.3,20.8-20.8,20.8s-20.8-9.3-20.8-20.8V67.2
	c0-5.5-4.5-10-10-10s-10,4.5-10,10v42.1c0.4,22.5,18.9,40.4,41.4,40.1c22-0.3,39.8-18.1,40.1-40.1V67.2
	C224.5,61.7,220,57.3,214.5,57.2z"/>
</svg>
