<?xml version="1.0" encoding="UTF-8"?>
<svg width="165px" height="246px" viewBox="0 0 165 246" version="1.1" xmlns="http://www.w3.org/2000/svg" xmlns:xlink="http://www.w3.org/1999/xlink">
    <!-- Generator: sketchtool 42 (36781) - http://www.bohemiancoding.com/sketch -->
    <title>714004CD-ECDF-4561-A088-FC5C2DCCBEC2</title>
    <desc>Created with sketchtool.</desc>
    <defs></defs>
    <g id="Designs---Flows" stroke="none" stroke-width="1" fill="none" fill-rule="evenodd">
        <g id="403-Error-Page" transform="translate(-638.000000, -213.000000)">
            <g id="403-error-illustration" transform="translate(638.000000, 213.000000)">
                <rect id="Rectangle" fill="#9DB4E3" x="33" y="0" width="99" height="246" rx="11.9"></rect>
                <rect id="Rectangle-Copy-2" fill="#9DB4E3" x="33" y="67.7897727" width="99" height="178.210227" rx="11.9"></rect>
                <rect id="Rectangle-Copy" fill="#F8F8F8" x="37.9148936" y="4.89204545" width="89.1702128" height="236.215909" rx="11.9"></rect>
                <path d="M82.8510638,77.2244318 C68.6972983,77.2244318 57.2234043,65.8038772 57.2234043,51.7159091 C57.2234043,37.627941 68.6972983,26.2073864 82.8510638,26.2073864 C97.0048294,26.2073864 108.478723,37.627941 108.478723,51.7159091 C108.478723,65.8038772 97.0048294,77.2244318 82.8510638,77.2244318 Z M82.8510638,72.3323864 C94.2904086,72.3323864 103.56383,63.1020751 103.56383,51.7159091 C103.56383,40.3297431 94.2904086,31.0994318 82.8510638,31.0994318 C71.4117191,31.0994318 62.1382979,40.3297431 62.1382979,51.7159091 C62.1382979,63.1020751 71.4117191,72.3323864 82.8510638,72.3323864 Z" id="Oval" fill="#9DB4E3" fill-rule="nonzero"></path>
                <path d="M82.8510638,144.315341 C68.6972983,144.315341 57.2234043,132.894786 57.2234043,118.806818 C57.2234043,104.71885 68.6972983,93.2982955 82.8510638,93.2982955 C97.0048294,93.2982955 108.478723,104.71885 108.478723,118.806818 C108.478723,132.894786 97.0048294,144.315341 82.8510638,144.315341 Z M82.8510638,139.423295 C94.2904086,139.423295 103.56383,130.192984 103.56383,118.806818 C103.56383,107.420652 94.2904086,98.1903409 82.8510638,98.1903409 C71.4117191,98.1903409 62.1382979,107.420652 62.1382979,118.806818 C62.1382979,130.192984 71.4117191,139.423295 82.8510638,139.423295 Z" id="Oval-Copy" fill="#9DB4E3" fill-rule="nonzero"></path>
                <path d="M82.8510638,211.40625 C68.6972983,211.40625 57.2234043,199.985695 57.2234043,185.897727 C57.2234043,171.809759 68.6972983,160.389205 82.8510638,160.389205 C97.0048294,160.389205 108.478723,171.809759 108.478723,185.897727 C108.478723,199.985695 97.0048294,211.40625 82.8510638,211.40625 Z M82.8510638,206.514205 C94.2904086,206.514205 103.56383,197.283893 103.56383,185.897727 C103.56383,174.511561 94.2904086,165.28125 82.8510638,165.28125 C71.4117191,165.28125 62.1382979,174.511561 62.1382979,185.897727 C62.1382979,197.283893 71.4117191,206.514205 82.8510638,206.514205 Z" id="Oval-Copy-2" fill="#9DB4E3" fill-rule="nonzero"></path>
                <path d="M82.8510638,139.423295 C94.2904086,139.423295 103.56383,130.192984 103.56383,118.806818 C103.56383,107.420652 94.2904086,98.1903409 82.8510638,98.1903409 C71.4117191,98.1903409 62.1382979,107.420652 62.1382979,118.806818 C62.1382979,130.192984 71.4117191,139.423295 82.8510638,139.423295 Z" id="Path" fill="#FFFFFF"></path>
                <path d="M82.8510638,206.514205 C94.2904086,206.514205 103.56383,197.283893 103.56383,185.897727 C103.56383,174.511561 94.2904086,165.28125 82.8510638,165.28125 C71.4117191,165.28125 62.1382979,174.511561 62.1382979,185.897727 C62.1382979,197.283893 71.4117191,206.514205 82.8510638,206.514205 Z" id="Path" fill="#FFFFFF"></path>
                <path d="M82.8510638,72.3323864 C94.2904086,72.3323864 103.56383,63.1020751 103.56383,51.7159091 C103.56383,40.3297431 94.2904086,31.0994318 82.8510638,31.0994318 C71.4117191,31.0994318 62.1382979,40.3297431 62.1382979,51.7159091 C62.1382979,63.1020751 71.4117191,72.3323864 82.8510638,72.3323864 Z" id="Oval" fill="#F9D3D3" fill-rule="nonzero"></path>
                <path d="M127.43617,76.1761364 L127.43617,26.5568182 C127.43617,25.2059171 128.536407,24.1107955 129.893617,24.1107955 L162.191489,24.1107955 C163.635328,24.1107955 164.768049,25.3438551 164.639119,26.7752407 C162.748821,47.7613114 156.841576,61.9027662 148.065452,70.3361113 C144.293684,73.9605612 140.223,76.2938192 136.114679,77.5735654 C134.623587,78.0380417 133.215199,78.3340366 131.919163,78.4934497 C131.057907,78.5993846 130.368235,78.631956 129.878541,78.6225293 C128.480389,78.5705047 127.43617,77.4909211 127.43617,76.1761364 Z M134.646741,72.9048122 C138.045277,71.8461651 141.446612,69.8965681 144.651753,66.8166131 C152.148007,59.6131492 157.453086,47.400471 159.477615,29.0028409 L132.351064,29.0028409 L132.351064,73.4780839 C133.074245,73.3437158 133.842267,73.1554066 134.646741,72.9048122 Z" id="Path-26" fill="#9DB4E3" fill-rule="nonzero"></path>
                <path d="M127.43617,143.267045 L127.43617,93.6477273 C127.43617,92.2968262 128.536407,91.2017045 129.893617,91.2017045 L162.191489,91.2017045 C163.635328,91.2017045 164.768049,92.4347642 164.639119,93.8661498 C162.748821,114.852221 156.841576,128.993675 148.065452,137.42702 C144.293684,141.05147 140.223,143.384728 136.114679,144.664474 C134.623587,145.128951 133.215199,145.424946 131.919163,145.584359 C131.057907,145.690294 130.368235,145.722865 129.878541,145.713438 C128.480389,145.661414 127.43617,144.58183 127.43617,143.267045 Z M134.646741,139.995721 C138.045277,138.937074 141.446612,136.987477 144.651753,133.907522 C152.148007,126.704058 157.453086,114.49138 159.477615,96.09375 L132.351064,96.09375 L132.351064,140.568993 C133.074245,140.434625 133.842267,140.246316 134.646741,139.995721 Z" id="Path-26-Copy" fill="#9DB4E3" fill-rule="nonzero"></path>
                <path d="M127.43617,210.357955 L127.43617,160.738636 C127.43617,159.387735 128.536407,158.292614 129.893617,158.292614 L162.191489,158.292614 C163.635328,158.292614 164.768049,159.525673 164.639119,160.957059 C162.748821,181.94313 156.841576,196.084584 148.065452,204.517929 C144.293684,208.142379 140.223,210.475637 136.114679,211.755384 C134.623587,212.21986 133.215199,212.515855 131.919163,212.675268 C131.057907,212.781203 130.368235,212.813774 129.878541,212.804348 C128.480389,212.752323 127.43617,211.672739 127.43617,210.357955 Z M134.646741,207.08663 C138.045277,206.027983 141.446612,204.078386 144.651753,200.998431 C152.148007,193.794967 157.453086,181.582289 159.477615,163.184659 L132.351064,163.184659 L132.351064,207.659902 C133.074245,207.525534 133.842267,207.337225 134.646741,207.08663 Z" id="Path-26-Copy-2" fill="#9DB4E3" fill-rule="nonzero"></path>
                <path d="M134.646741,207.08663 C138.045277,206.027983 141.446612,204.078386 144.651753,200.998431 C152.148007,193.794967 157.453086,181.582289 159.477615,163.184659 L132.351064,163.184659 L132.351064,207.659902 C133.074245,207.525534 133.842267,207.337225 134.646741,207.08663 Z" id="Path" fill="#F8F8F8"></path>
                <path d="M134.646741,72.9048122 C138.045277,71.8461651 141.446612,69.8965681 144.651753,66.8166131 C152.148007,59.6131492 157.453086,47.400471 159.477615,29.0028409 L132.351064,29.0028409 L132.351064,73.4780839 C133.074245,73.3437158 133.842267,73.1554066 134.646741,72.9048122 Z" id="Path" fill="#F8F8F8"></path>
                <path d="M134.646741,139.995721 C138.045277,138.937074 141.446612,136.987477 144.651753,133.907522 C152.148007,126.704058 157.453086,114.49138 159.477615,96.09375 L132.351064,96.09375 L132.351064,140.568993 C133.074245,140.434625 133.842267,140.246316 134.646741,139.995721 Z" id="Path" fill="#F8F8F8"></path>
                <path d="M32.6489362,29.0028409 L5.5223848,29.0028409 C7.54691351,47.400471 12.8519933,59.6131492 20.3482467,66.8166131 C23.5533884,69.8965681 26.9547235,71.8461651 30.3532589,72.9048122 C31.157733,73.1554066 31.9257551,73.3437158 32.6489362,73.4780839 L32.6489362,29.0028409 Z M33.0808369,78.4934497 C31.7848009,78.3340366 30.3764128,78.0380417 28.8853214,77.5735654 C24.7769997,76.2938192 20.7063163,73.9605612 16.9345483,70.3361113 C8.15842447,61.9027662 2.25117855,47.7613114 0.360881225,26.7752407 C0.231950734,25.3438551 1.36467171,24.1107955 2.80851064,24.1107955 L35.106383,24.1107955 C36.4635934,24.1107955 37.5638298,25.2059171 37.5638298,26.5568182 L37.5638298,76.1761364 C37.5638298,77.4909211 36.5196105,78.5705047 35.1996365,78.6203973 C34.6317652,78.631956 33.942093,78.5993846 33.0808369,78.4934497 Z" id="Path-26" fill="#9DB4E3" fill-rule="nonzero"></path>
                <path d="M32.6489362,96.09375 L5.5223848,96.09375 C7.54691351,114.49138 12.8519933,126.704058 20.3482467,133.907522 C23.5533884,136.987477 26.9547235,138.937074 30.3532589,139.995721 C31.157733,140.246316 31.9257551,140.434625 32.6489362,140.568993 L32.6489362,96.09375 Z M33.0808369,145.584359 C31.7848009,145.424946 30.3764128,145.128951 28.8853214,144.664474 C24.7769997,143.384728 20.7063163,141.05147 16.9345483,137.42702 C8.15842447,128.993675 2.25117855,114.852221 0.360881225,93.8661498 C0.231950734,92.4347642 1.36467171,91.2017045 2.80851064,91.2017045 L35.106383,91.2017045 C36.4635934,91.2017045 37.5638298,92.2968262 37.5638298,93.6477273 L37.5638298,143.267045 C37.5638298,144.58183 36.5196105,145.661414 35.1996365,145.711306 C34.6317652,145.722865 33.942093,145.690294 33.0808369,145.584359 Z" id="Path-26-Copy" fill="#9DB4E3" fill-rule="nonzero"></path>
                <path d="M32.6489362,163.184659 L5.5223848,163.184659 C7.54691351,181.582289 12.8519933,193.794967 20.3482467,200.998431 C23.5533884,204.078386 26.9547235,206.027983 30.3532589,207.08663 C31.157733,207.337225 31.9257551,207.525534 32.6489362,207.659902 L32.6489362,163.184659 Z M33.0808369,212.675268 C31.7848009,212.515855 30.3764128,212.21986 28.8853214,211.755384 C24.7769997,210.475637 20.7063163,208.142379 16.9345483,204.517929 C8.15842447,196.084584 2.25117855,181.94313 0.360881225,160.957059 C0.231950734,159.525673 1.36467171,158.292614 2.80851064,158.292614 L35.106383,158.292614 C36.4635934,158.292614 37.5638298,159.387735 37.5638298,160.738636 L37.5638298,210.357955 C37.5638298,211.672739 36.5196105,212.752323 35.1996365,212.802216 C34.6317652,212.813774 33.942093,212.781203 33.0808369,212.675268 Z" id="Path-26-Copy-2" fill="#9DB4E3" fill-rule="nonzero"></path>
                <path d="M7.5616347,207.08663 C10.9601701,206.027983 14.3615052,204.078386 17.5666469,200.998431 C25.0629003,193.794967 30.3679801,181.582289 32.3925088,163.184659 L5.26595745,163.184659 L5.26595745,207.659902 C5.98913854,207.525534 6.75716063,207.337225 7.5616347,207.08663 Z" id="Path" fill="#F8F8F8" transform="translate(18.829233, 185.422281) scale(-1, 1) translate(-18.829233, -185.422281) "></path>
                <path d="M7.5616347,72.9048122 C10.9601701,71.8461651 14.3615052,69.8965681 17.5666469,66.8166131 C25.0629003,59.6131492 30.3679801,47.400471 32.3925088,29.0028409 L5.26595745,29.0028409 L5.26595745,73.4780839 C5.98913854,73.3437158 6.75716063,73.1554066 7.5616347,72.9048122 Z" id="Path" fill="#F8F8F8" transform="translate(18.829233, 51.240462) scale(-1, 1) translate(-18.829233, -51.240462) "></path>
                <path d="M7.5616347,139.995721 C10.9601701,138.937074 14.3615052,136.987477 17.5666469,133.907522 C25.0629003,126.704058 30.3679801,114.49138 32.3925088,96.09375 L5.26595745,96.09375 L5.26595745,140.568993 C5.98913854,140.434625 6.75716063,140.246316 7.5616347,139.995721 Z" id="Path" fill="#F8F8F8" transform="translate(18.829233, 118.331371) scale(-1, 1) translate(-18.829233, -118.331371) "></path>
            </g>
        </g>
    </g>
</svg>