<?xml version="1.0" encoding="UTF-8"?>
<svg width="403px" height="272px" viewBox="0 0 403 272" version="1.1" xmlns="http://www.w3.org/2000/svg" xmlns:xlink="http://www.w3.org/1999/xlink">
    <!-- Generator: sketchtool 42 (36781) - http://www.bohemiancoding.com/sketch -->
    <title>E489D4BA-FB35-4296-82B3-B9C09B0DB9E5</title>
    <desc>Created with sketchtool.</desc>
    <defs></defs>
    <g id="Designs---Flows" stroke="none" stroke-width="1" fill="none" fill-rule="evenodd">
        <g id="404-Error-Page" transform="translate(-514.000000, -184.000000)">
            <g id="404-error-illustration" transform="translate(514.000000, 176.000000)">
                <g id="Group-7" transform="translate(343.333333, 0.000000)"></g>
                <g id="Group-8" transform="translate(0.000000, 7.636364)" fill="#9DB4E3">
                    <path d="M384.574454,69.4498602 C384.38738,70.1273711 383.68698,70.5248153 383.010066,70.3375765 C382.333153,70.1503377 381.936059,69.4493195 382.123133,68.7718086 C382.494552,67.4266679 382.87005,66.0627563 383.249318,64.6812799 C383.435395,64.0034942 384.135211,63.6050193 384.812399,63.7912612 C385.489587,63.9775032 385.88771,64.6779359 385.701632,65.3557216 C385.322038,66.7383881 384.946209,68.1035024 384.574454,69.4498602 Z M386.82236,61.2625966 C387.191766,59.9099467 387.563923,58.5438412 387.938478,57.1656375 C388.122811,56.4873743 387.722885,55.7879705 387.04522,55.6034755 C386.367555,55.4189805 385.668768,55.8192588 385.484436,56.4975221 C385.110152,57.8747233 384.738272,59.239817 384.369145,60.591445 C384.183975,61.2694797 384.583036,61.9693778 385.260472,62.1547112 C385.937909,62.3400445 386.63719,61.9406312 386.82236,61.2625966 Z M389.047849,53.0742419 C389.415142,51.7165972 389.783868,50.3506725 390.153598,48.9781215 C390.336415,48.2994476 389.934929,47.6009402 389.256854,47.4179616 C388.578778,47.2349831 387.880887,47.6368235 387.69807,48.3154975 C387.328577,49.687167 386.960091,51.0522033 386.59304,52.4089523 C386.409488,53.0874273 386.810216,53.7863702 387.488093,53.9700849 C388.16597,54.1537995 388.864296,53.752717 389.047849,53.0742419 Z M391.254648,44.8822044 C391.62066,43.517848 391.986593,42.1510303 392.351873,40.7839588 C392.533312,40.1049147 392.13041,39.4072248 391.451964,39.2256249 C390.773519,39.044025 390.076444,39.4472832 389.895005,40.1263273 C389.529942,41.4925864 389.164228,42.8585868 388.798437,44.2221206 C388.616321,44.9009832 389.018528,45.599075 389.696792,45.7813521 C390.375056,45.9636292 391.072532,45.5610671 391.254648,44.8822044 Z M393.445677,36.6823193 C393.811128,35.3092329 394.17445,33.9414568 394.53479,32.582268 C394.714908,31.9028714 394.310648,31.2059685 393.631851,31.0256919 C392.953053,30.8454153 392.256765,31.250032 392.076647,31.9294287 C391.716517,33.2878238 391.353407,34.6548031 390.988168,36.0270898 C390.807391,36.706311 391.210974,37.4036067 391.889597,37.5845433 C392.568219,37.7654799 393.2649,37.3615405 393.445677,36.6823193 Z M395.621424,28.4753739 C395.987771,27.0879896 396.34862,25.7185633 396.702523,24.3726704 C396.881266,23.6929102 396.475598,22.9968277 395.796437,22.8179267 C395.117277,22.6390256 394.421808,23.0450522 394.243065,23.7248123 C393.889385,25.069856 393.528759,26.4384335 393.162636,27.8249696 C392.98319,28.5045443 393.388139,29.2010464 394.067115,29.3806506 C394.74609,29.5602548 395.441978,29.1549486 395.621424,28.4753739 Z M397.778973,20.2697096 C398.150006,18.8521801 398.508377,17.4794304 398.851103,16.1630073 C399.028189,15.4828128 398.620825,14.7877229 397.94123,14.6104806 C397.261635,14.4332384 396.567158,14.8409618 396.390073,15.5211564 C396.047631,16.8364906 395.68954,18.2081642 395.318786,19.6246286 C395.140809,20.3045901 395.547262,21.0002142 396.226624,21.1783483 C396.905986,21.3564825 397.600996,20.9496711 397.778973,20.2697096 Z M399.91756,12.0531742 C400.311427,10.5296903 400.666986,9.14725879 400.975188,7.94127359 C401.14922,7.26028997 400.738742,6.567038 400.058359,6.39285198 C399.377975,6.21866596 398.685335,6.62950659 398.511302,7.31049021 C398.203719,8.51405439 397.848744,9.89421921 397.455442,11.4155171 C397.279513,12.0960123 397.688058,12.7904072 398.367953,12.9664913 C399.047849,13.1425755 399.741631,12.7336695 399.91756,12.0531742 Z M398.794401,1.97017487 L398.784931,2.27491368 L398.839939,2.49946867 C398.749973,2.28182556 398.760888,2.20525855 398.794401,1.97017487 Z M398.839939,2.49946867 L398.876286,2.64784097 L399.007069,2.85937892 C398.930764,2.70185015 398.876858,2.58878104 398.839939,2.49946867 Z M399.075278,2.96970562 L399.092418,2.99743028 L399.366752,3.23415468 L399.425175,3.26304997 C399.344046,3.2043223 399.241469,3.11513204 399.075278,2.96970562 Z M401.089273,1.45337177 C401.077927,1.42994815 401.066098,1.4055674 401.053769,1.38015683 C401.046566,1.37385399 401.039479,1.36765151 401.032503,1.36154751 L401.089273,1.45337177 Z M400.039336,0.897549148 C399.935417,0.89211242 399.907462,0.895946739 399.850368,0.908443491 C399.89214,0.90501842 399.950315,0.901877476 400.039336,0.897549148 Z M398.781291,4.29026083 C398.164898,4.62711115 397.392382,4.40005599 397.055829,3.78311894 C396.719276,3.16618189 396.946131,2.39298445 397.562524,2.05613413 C398.174144,1.72189175 398.648447,1.46407773 398.97015,1.2909902 C399.13316,1.20328521 399.257381,1.13711885 399.34335,1.09224504 C399.406482,1.05944191 399.406482,1.05944191 399.462838,1.03130985 C399.493095,1.01651328 399.493095,1.01651328 399.548278,0.992041128 C399.588266,0.974767184 399.588266,0.974767184 399.701821,0.937712099 C399.739901,0.925822292 399.762094,0.918893121 399.800673,0.913636385 C399.824592,0.906344634 399.850147,0.898784669 399.876058,0.891484872 C400.081205,0.833690634 400.280448,0.797955045 400.502602,0.795715451 C401.491294,0.785748149 402.251029,1.51149363 402.251029,2.62681611 C402.251029,2.83377685 402.228728,2.93212924 402.014128,3.81410121 C401.847954,4.49704847 401.160094,4.91585723 400.477749,4.74953674 C400.019308,4.63779245 399.679993,4.29035225 399.557067,3.86724526 C399.33115,3.99008479 399.071943,4.13142367 398.781291,4.29026083 Z M400.488094,3.36559459 C400.499214,3.35974846 400.509637,3.3542869 400.519357,3.34921333 C400.525391,3.3460854 400.530658,3.34335523 400.535283,3.34095785 C400.567035,3.32450249 400.568593,3.32372559 400.580843,3.31761613 C400.578178,3.3190589 400.578178,3.3190589 400.540403,3.33581764 C400.535904,3.33777967 400.532015,3.33947583 400.52838,3.34103093 C400.505186,3.35095454 400.492359,3.35514061 400.397869,3.38597677 C400.312466,3.41272545 400.308426,3.4139908 400.053981,3.43111717 C400.041347,3.43196757 400.028095,3.43285707 400.014185,3.43379075 C399.90974,3.42624274 399.893639,3.42507917 399.842872,3.41674863 C399.83362,3.41523038 399.823216,3.41347407 399.810916,3.41139768 L399.616122,3.35748992 L399.425175,3.26304997 C399.459975,3.28824078 399.490828,3.30782673 399.521063,3.3238419 C399.60198,3.36670242 399.678469,3.3839881 399.814317,3.41468865 C399.824096,3.41539436 399.833612,3.41608101 399.842872,3.41674863 C399.935681,3.42343959 400.002904,3.42821913 400.053981,3.43111717 C400.186509,3.43863663 400.210341,3.43348916 400.290396,3.4161974 C400.427729,3.38509947 400.427729,3.38509947 400.473226,3.37032123 C400.478525,3.36863621 400.483471,3.36706392 400.488094,3.36559459 C400.538061,3.34971639 400.550443,3.34586329 400.565126,3.34172684 C400.572317,3.33970092 400.567457,3.34052512 400.535283,3.34095785 C400.533109,3.34098709 400.530811,3.34101454 400.528382,3.34103921 C400.122857,3.34512743 399.707819,2.94865739 399.707819,2.62681611 C399.707819,2.51672041 399.708424,2.51297933 399.719679,2.45666526 C399.713667,2.48674567 399.703061,2.53562214 399.68837,2.60041547 C399.656473,2.74109142 399.60775,2.94625878 399.543138,3.21180147 C399.535056,3.24501959 399.528356,3.27825078 399.523003,3.3114343 C399.522335,3.31557095 399.521689,3.31970686 399.521063,3.3238419 C399.492852,3.51031765 399.507039,3.69504799 399.557067,3.86724526 C399.803097,3.73346987 400.009643,3.62163428 400.174322,3.53303141 C400.308633,3.46076737 400.413877,3.40461489 400.488094,3.36559459 Z M393.844271,4.09805988 C392.719863,4.71747624 391.47364,5.40523461 390.131498,6.14709718 C389.516729,6.48690774 389.293588,7.26118716 389.633099,7.87649866 C389.97261,8.49181016 390.746206,8.71514781 391.360975,8.37533724 C392.70209,7.6340424 393.947258,6.94686633 395.070569,6.32805425 C395.685822,5.98912236 395.910067,5.21516254 395.571434,4.5993666 C395.232801,3.98357065 394.459523,3.75912799 393.844271,4.09805988 Z M386.421117,8.20050897 C385.223964,8.86378872 383.98512,9.55083891 382.712177,10.2574747 C382.098026,10.5984022 381.87629,11.373086 382.216917,11.9877793 C382.557544,12.6024726 383.331545,12.8244036 383.945696,12.4834761 C385.218035,11.7771758 386.456271,11.0904626 387.652813,10.4275216 C388.267243,10.087098 388.489613,9.31259645 388.149489,8.69762389 C387.809366,8.08265132 387.035547,7.86008539 386.421117,8.20050897 Z M379.005239,12.3170674 C377.7881,12.9938893 376.552099,13.6817499 375.300675,14.3787546 C374.687005,14.7205495 374.466362,15.4955459 374.807856,16.1097573 C375.14935,16.7239687 375.923662,16.9448058 376.537332,16.6030108 C377.788251,15.9062877 379.023747,15.2187081 380.240382,14.5421666 C380.854284,14.2007903 381.075454,13.4259446 380.734379,12.8115004 C380.393303,12.1970563 379.619141,11.9756911 379.005239,12.3170674 Z M371.597538,16.4428846 C370.371209,17.126966 369.136368,17.8163125 367.894972,18.5098465 C367.281747,18.8524391 367.062111,19.6277216 367.404401,20.2414885 C367.746691,20.8552554 368.52129,21.0750856 369.134516,20.732493 C370.375433,20.0392263 371.609797,19.3501457 372.835652,18.6663292 C373.449098,18.3241317 373.669233,17.5489909 373.327337,16.9350036 C372.985441,16.3210163 372.210984,16.1006871 371.597538,16.4428846 Z M364.189442,20.5815883 C362.95819,21.2704948 361.724418,21.9613304 360.489418,22.6533847 C359.876635,22.9967689 359.657998,23.7723345 360.00108,24.3856588 C360.344161,24.9989831 361.119043,25.2178127 361.731826,24.8744284 C362.966344,24.1826441 364.199637,23.4920769 365.430413,22.8034371 C366.043418,22.4604502 366.262557,21.6850265 365.919872,21.0714799 C365.577188,20.4579333 364.802448,20.2386014 364.189442,20.5815883 Z M356.791726,24.7270514 C355.557397,25.4198009 354.32464,26.1122116 353.094403,26.8037627 C352.482079,27.1479673 352.264479,27.923825 352.60838,28.5366893 C352.952281,29.1495536 353.727455,29.3673454 354.339779,29.0231408 C355.569511,28.3318731 356.801767,27.6397439 358.035598,26.9472741 C358.648155,26.6034852 358.86628,25.8277755 358.522794,25.2146779 C358.179308,24.6015803 357.404283,24.3832625 356.791726,24.7270514 Z M349.402849,28.8805821 C348.166389,29.576773 346.934689,30.2708679 345.708507,30.9624526 C345.096676,31.3075341 344.880186,32.0837027 345.224963,32.6960737 C345.569741,33.3084447 346.345225,33.5251255 346.957056,33.180044 C348.182694,32.4887658 349.413854,31.794975 350.649779,31.0990861 C351.261862,30.7544521 351.478918,29.978442 351.134588,29.3658191 C350.790258,28.7531961 350.014932,28.5359481 349.402849,28.8805821 Z M342.013618,33.0482752 C340.775489,33.7478493 339.544909,34.4438032 338.322523,35.1357852 C337.711235,35.4818297 337.495965,36.2583382 337.841704,36.8701656 C338.187444,37.4819929 338.963268,37.6974525 339.574555,37.3514081 C340.796342,36.6597658 342.026326,35.9641486 343.263864,35.2649086 C343.87543,34.919358 344.091326,34.1430236 343.74608,33.5309172 C343.400834,32.9188108 342.625184,32.7027246 342.013618,33.0482752 Z M334.648537,41.1974086 C334.461897,41.8750395 333.761752,42.2729331 333.084719,42.0861288 C332.774091,42.0004216 332.684848,41.9754488 332.631984,41.957791 C331.302035,41.5135579 330.995202,39.2917005 332.40989,38.4882426 C333.147881,38.0691087 333.88967,37.6480868 334.635129,37.2252467 C335.246121,36.8786793 336.022129,37.0934749 336.36839,37.7050062 C336.714652,38.3165375 336.500046,39.0932299 335.889054,39.4397973 C335.43139,39.699394 334.975111,39.9583043 334.520248,40.2165117 C334.687316,40.5024027 334.743426,40.8528953 334.648537,41.1974086 Z M337.177202,43.2048932 C336.499599,43.0201701 336.099908,42.3206317 336.284469,41.6424306 C336.469029,40.9642294 337.16795,40.5641864 337.845554,40.7489095 C339.022982,41.0698914 340.397621,41.4443088 341.935609,41.8629724 C342.613281,42.0474447 343.013229,42.7468351 342.82892,43.4251045 C342.64461,44.1033739 341.945836,44.5036756 341.268165,44.3192033 C339.729896,43.9004635 338.354967,43.5259669 337.177202,43.2048932 Z M345.358818,45.4323057 C346.74989,45.810703 348.130971,46.1862739 349.449316,46.5447036 C350.127045,46.7289636 350.825693,46.328443 351.009791,45.6501159 C351.193888,44.9717887 350.793721,44.2725237 350.115992,44.0882637 C348.797747,43.7298614 347.416771,43.354319 346.025813,42.9759527 C345.348108,42.7916043 344.649408,43.1920338 344.465222,43.870337 C344.281036,44.5486401 344.681113,45.2479573 345.358818,45.4323057 Z M350.527639,48.0149774 L350.527639,52.2574016 C350.527639,52.9603095 351.096956,53.5301289 351.799244,53.5301289 C352.501532,53.5301289 353.070849,52.9603095 353.070849,52.2574016 L353.070849,48.0149774 C353.070849,47.3120695 352.501532,46.7422501 351.799244,46.7422501 C351.096956,46.7422501 350.527639,47.3120695 350.527639,48.0149774 Z M350.527639,56.4998259 L350.527639,60.7422501 C350.527639,61.445158 351.096956,62.0149774 351.799244,62.0149774 C352.501532,62.0149774 353.070849,61.445158 353.070849,60.7422501 L353.070849,56.4998259 C353.070849,55.796918 352.501532,55.2270986 351.799244,55.2270986 C351.096956,55.2270986 350.527639,55.796918 350.527639,56.4998259 Z M351.799244,63.7119471 C351.096956,63.7119471 350.527639,64.2817665 350.527639,64.9846743 L350.527639,67.2511416 C350.527639,68.4267013 351.983804,68.9738292 352.756715,68.0886766 L354.055873,66.6008548 C354.518023,66.0715915 354.463995,65.2675615 353.935198,64.8050037 C353.66019,64.5644436 353.310932,64.4636161 352.974027,64.4966912 C352.782763,64.0359451 352.328807,63.7119471 351.799244,63.7119471 Z M356.845194,63.4064679 L359.634516,60.2120809 C360.096666,59.6828176 360.042638,58.8787876 359.513842,58.4162298 C358.985045,57.9536719 358.181724,58.0077474 357.719574,58.5370108 L354.930252,61.7313977 C354.468103,62.2606611 354.52213,63.064691 355.050927,63.5272489 C355.579724,63.9898067 356.383045,63.9357312 356.845194,63.4064679 Z M362.423838,57.017694 L365.21316,53.823307 C365.675309,53.2940437 365.621282,52.4900137 365.092485,52.0274559 C364.563688,51.564898 363.760367,51.6189735 363.298217,52.1482369 L360.508896,55.3426238 C360.046746,55.8718872 360.100774,56.6759171 360.62957,57.138475 C361.158367,57.6010328 361.961688,57.5469573 362.423838,57.017694 Z M366.298704,55.7119991 C367.24718,56.6639002 368.256049,57.6678669 369.313702,58.7104058 C369.814073,59.203626 370.619185,59.1974712 371.111971,58.6966587 C371.604756,58.1958461 371.598607,57.3900233 371.098236,56.896803 C370.046184,55.8597862 369.042707,54.8611851 368.099472,53.9145432 C367.603556,53.416836 366.798421,53.4157388 366.301153,53.9120926 C365.803884,54.4084463 365.802788,55.2142919 366.298704,55.7119991 Z M372.354293,61.6809567 C373.378745,62.6727423 374.40361,63.6556111 375.424572,64.6245404 C375.934189,65.1081844 376.73904,65.0867648 377.222258,64.5766983 C377.705476,64.0666318 377.684075,63.2610702 377.174458,62.7774261 C376.159778,61.8144589 375.140982,60.8374109 374.12244,59.8513468 C373.617653,59.3626554 372.812629,59.3760649 372.324368,59.8812977 C371.836108,60.3865305 371.849506,61.1922653 372.354293,61.6809567 Z M383.27208,68.4285498 C383.252303,68.410714 383.229176,68.3931895 383.202705,68.3766235 C383.217248,68.3857247 383.231544,68.395072 383.24559,68.4046566 C383.254422,68.4126237 383.263252,68.4205881 383.27208,68.4285498 Z M383.606751,70.1305131 C383.234429,70.7265088 382.449878,70.9075657 381.854408,70.5349151 C381.753865,70.4719944 381.658727,70.3999033 381.569651,70.3195691 C380.577417,69.4247125 379.5625,68.4958916 378.527979,67.5367043 C378.01278,67.0590218 377.982025,66.2537636 378.459287,65.7381098 C378.936548,65.2224559 379.741096,65.191674 380.256295,65.6693565 C381.27326,66.6122664 382.270722,67.5252224 383.24559,68.4046566 C383.806681,68.787517 383.96998,69.5490732 383.606751,70.1305131 Z" id="Path-3" fill-rule="nonzero"></path>
                    <polygon id="Path-4" points="355.66561 45.6089664 381.647592 23.7575758 355.201646 59.0917393"></polygon>
                    <path d="M345.452675,71.6969697 C345.452675,71.78362 345.44866,71.9686622 345.436245,72.2453266 C345.415065,72.7173129 345.376726,73.2674934 345.316858,73.8890952 C345.144716,75.6764413 344.834132,77.6690503 344.35044,79.8127909 L346.831179,80.3735081 C347.339274,78.1216131 347.666267,76.0237328 347.848334,74.1333363 C347.91244,73.4677283 347.953797,72.8742357 347.976894,72.3595361 C347.991044,72.0441889 347.995885,71.8211067 347.995885,71.6969697 L345.452675,71.6969697 Z M341.899937,87.7279883 C340.888813,90.2695259 339.671629,92.751657 338.231746,95.1487096 L340.411357,96.4602905 C341.923973,93.9421566 343.2018,91.3363578 344.26272,88.6696572 L341.899937,87.7279883 Z M333.405349,101.84127 C331.634178,103.904872 329.671953,105.841826 327.509537,107.639387 L329.134434,109.597545 C331.407393,107.708093 333.47122,105.670846 335.33448,103.49995 L333.405349,101.84127 Z M320.721987,112.415908 C318.410087,113.787266 315.937311,115.026434 313.298431,116.126222 L314.276047,118.476099 C317.024423,117.330676 319.603822,116.038076 322.018615,114.605686 L320.721987,112.415908 Z M305.434936,118.844877 C302.846216,119.573116 300.132221,120.186829 297.290215,120.681987 L297.726364,123.18973 C300.652485,122.679917 303.450574,122.047188 306.123077,121.29538 L305.434936,118.844877 Z M288.983928,121.756055 C286.288969,121.991761 283.497838,122.133479 280.60904,122.178905 L280.648992,124.724046 C283.597739,124.677677 286.449366,124.532888 289.205322,124.291846 L288.983928,121.756055 Z M272.210745,122.050089 C269.48965,121.928278 266.693072,121.729293 263.820117,121.45173 L263.575764,123.985408 C266.491786,124.267132 269.331932,124.469217 272.097111,124.593001 L272.210745,122.050089 Z M255.464041,120.452248 C253.764646,120.21155 252.04127,119.945571 250.293767,119.654083 C249.213148,119.473821 248.142306,119.310687 247.078873,119.164238 L246.732214,121.685935 C247.771693,121.829085 248.81872,121.98859 249.87568,122.164906 C251.643619,122.459803 253.38757,122.728957 255.107695,122.972592 L255.464041,120.452248 Z M238.525099,118.336482 C235.593823,118.17731 232.72817,118.154542 229.928893,118.266263 L230.030224,120.809696 C232.749157,120.701182 235.535041,120.723316 238.387323,120.878199 L238.525099,118.336482 Z M221.343749,119.059128 C218.445141,119.48616 215.62932,120.070338 212.897659,120.808484 L213.560542,123.265952 C216.195528,122.553929 218.913667,121.990017 221.714102,121.577448 L221.343749,119.059128 Z M204.713408,123.581426 C202.026218,124.687935 199.437826,125.959517 196.950263,127.391084 L198.21795,129.597771 C200.608988,128.221754 203.09715,126.999411 205.681019,125.935446 L204.713408,123.581426 Z M189.756054,132.188618 C187.478746,133.932924 185.30852,135.828271 183.247723,137.867558 L185.035787,139.677674 C187.020888,137.713294 189.11022,135.888594 191.301653,134.210064 L189.756054,132.188618 Z M177.490405,144.291804 C175.719484,146.516719 174.056004,148.863327 172.502355,151.322685 L174.651923,152.683029 C176.156758,150.300943 177.766801,148.029714 179.479562,145.87787 L177.490405,144.291804 Z M168.258747,158.859473 C166.990256,161.395995 165.826484,164.019913 164.769616,166.720295 L167.137626,167.648717 C168.166719,165.019301 169.299277,162.465758 170.532978,159.998804 L168.258747,158.859473 Z M161.974809,174.862581 C161.164119,177.586592 160.456506,180.363158 159.853572,183.178922 L162.340312,183.712344 C162.929419,180.961155 163.620604,178.249049 164.412185,175.589246 L161.974809,174.862581 Z M158.375558,191.621049 C157.987374,194.455665 157.703752,197.305881 157.525145,200.15534 L160.063365,200.314719 C160.238075,197.527421 160.515514,194.73934 160.89521,191.96671 L158.375558,191.621049 Z M157.305477,208.727726 C157.339326,211.620601 157.483423,214.484332 157.736214,217.299019 L160.269211,217.071125 C160.022363,214.322619 159.881591,211.524962 159.848512,208.697918 L157.305477,208.727726 Z M158.858573,225.800971 C159.369909,228.701662 160.003508,231.509324 160.754478,234.200046 L163.203916,233.51521 C162.47557,230.905552 161.86023,228.178801 161.363099,225.358691 L158.858573,225.800971 Z M163.560628,242.402668 C164.716484,245.202357 166.01798,247.79808 167.454775,250.161373 L169.62737,248.838183 C168.260741,246.590301 167.018056,244.111871 165.911076,241.430569 L163.560628,242.402668 Z M172.750017,257.159981 C174.898931,259.414926 177.229118,261.251285 179.720139,262.635053 L180.954308,260.409412 C178.695063,259.154397 176.567064,257.477376 174.590328,255.403106 L172.750017,257.159981 Z M188.099975,265.525336 C190.957713,266.122292 193.768631,266.620135 196.527515,267.018201 L196.890388,264.49879 C194.1846,264.108386 191.425916,263.619793 188.619564,263.033572 L188.099975,265.525336 Z M205.047312,267.941833 C207.985683,268.150329 210.849648,268.234437 213.632226,268.194011 L213.595314,265.648824 C210.886091,265.688185 208.094384,265.606199 205.227158,265.402751 L205.047312,267.941833 Z M222.224721,267.642383 C225.180529,267.295333 228.017523,266.787799 230.726334,266.120892 L230.118859,263.649119 C227.5143,264.290359 224.781148,264.779316 221.92841,265.114264 L222.224721,267.642383 Z M238.990588,263.425463 C241.750937,262.277562 244.326549,260.926564 246.70558,259.376438 L245.318056,257.243197 C243.07133,258.707116 240.633616,259.985782 238.014792,261.074829 L238.990588,263.425463 Z M253.481339,253.893881 C255.54825,251.823351 257.376202,249.541055 258.955176,247.054879 L256.808886,245.68936 C255.32955,248.018652 253.61804,250.155562 251.682239,252.094753 L253.481339,253.893881 Z M262.860178,239.193569 C263.854158,236.553697 264.628544,233.75396 265.179281,230.800796 L262.679249,230.333741 C262.155522,233.14207 261.420987,235.797731 260.480354,238.295921 L262.860178,239.193569 Z M266.134049,222.127395 C266.170865,221.207708 266.1893,220.276309 266.1893,219.333333 C266.1893,217.379427 266.149127,215.468386 266.068996,213.599611 L263.528125,213.708752 C263.606681,215.540816 263.646091,217.415481 263.646091,219.333333 C263.646091,220.24251 263.628327,221.139937 263.592878,222.02549 L266.134049,222.127395 Z M265.387912,205.031619 C265.037612,202.08226 264.572949,199.25161 263.994809,196.536666 L261.507467,197.067273 C262.069166,199.70501 262.521232,202.458916 262.862484,205.332098 L265.387912,205.031619 Z M261.744733,188.198764 C260.80889,185.381268 259.726499,182.709731 258.498579,180.179647 L256.210979,181.291844 C257.389772,183.720704 258.430312,186.288945 259.331392,189.001781 L261.744733,188.198764 Z M254.156199,172.681079 C252.506763,170.271408 250.690073,168.020604 248.706864,165.9224 L246.859377,167.671715 C248.751265,169.673303 250.484143,171.820267 252.05815,174.119743 L254.156199,172.681079 Z M242.295935,160.10863 C240.058401,158.36715 237.665698,156.76239 235.11632,155.287182 L233.843405,157.490852 C236.293943,158.908866 238.59029,160.449001 240.734756,162.118047 L242.295935,160.10863 Z M227.381304,151.408578 C224.827816,150.302777 222.145836,149.294696 219.33034,148.378044 L218.543642,150.798654 C221.285129,151.691211 223.892725,152.671333 226.371403,153.744737 L227.381304,151.408578 Z M211.050496,146.034691 C208.373488,145.380243 205.588774,144.79008 202.686918,144.259081 L202.229538,146.763032 C205.083619,147.28529 207.81974,147.865154 210.447046,148.507451 L211.050496,146.034691 Z M194.259791,142.924381 C191.544891,142.555405 188.730904,142.226672 185.799978,141.933705 L185.547247,144.46656 C188.449128,144.756624 191.233391,145.081884 193.917593,145.446688 L194.259791,142.924381 Z M177.319603,141.206556 C174.613175,141.009329 171.800555,140.83435 168.838653,140.676947 L168.703809,143.218821 C171.649697,143.375373 174.445811,143.549325 177.134923,143.74529 L177.319603,141.206556 Z M160.373599,140.288095 C157.753398,140.184068 154.998727,140.087409 151.88688,139.988516 L151.806171,142.532689 C154.911761,142.631382 157.65992,142.727813 160.272797,142.83155 L160.373599,140.288095 Z M143.395423,139.734124 C143.2101,139.728757 143.2101,139.728757 143.024754,139.72339 C138.78992,139.600777 137.158792,139.552765 134.926568,139.48354 L134.847806,142.027774 C137.082395,142.097072 138.714576,142.145115 142.951215,142.26778 C143.136551,142.273146 143.136551,142.273146 143.321856,142.278513 L143.395423,139.734124 Z M126.449633,139.195034 C123.462014,139.081917 120.672475,138.961653 117.992505,138.828718 L117.866619,141.371052 C120.557075,141.504507 123.356419,141.625194 126.353496,141.738669 L126.449633,139.195034 Z M109.534866,138.341348 C106.625327,138.147719 103.826623,137.931901 101.113163,137.690111 L100.887635,140.225538 C103.620638,140.469069 106.438203,140.686341 109.366138,140.881194 L109.534866,138.341348 Z M92.7070525,136.824254 C89.8351084,136.485221 87.054654,136.109182 84.3541455,135.692556 L83.9667089,138.2083 C86.697743,138.629635 89.5079823,139.009703 92.4091562,139.352186 L92.7070525,136.824254 Z M76.0655539,134.234658 C73.2421979,133.672377 70.5092947,133.055985 67.8607279,132.38174 L67.2338346,134.848651 C69.9265965,135.534146 72.7029772,136.160345 75.5692415,136.731171 L76.0655539,134.234658 Z M59.7864953,130.060724 C57.0635037,129.181234 54.4381538,128.227589 51.9071531,127.195744 L50.9477779,129.553139 C53.5384804,130.609324 56.2232701,131.58456 59.0054574,132.483169 L59.7864953,130.060724 Z M44.297443,123.709751 C41.7780609,122.416938 39.3661438,121.028756 37.0601481,119.540849 L35.6821543,121.680269 C38.0595699,123.214259 40.5441496,124.644262 43.1371599,125.974857 L44.297443,123.709751 Z M30.3220512,114.662879 C28.1555911,112.905127 26.101877,111.035624 24.1605694,109.049948 L22.3428308,110.83021 C24.3527893,112.886105 26.4787352,114.821361 28.7205456,116.640248 L30.3220512,114.662879 Z M18.6829589,102.751811 C17.0021118,100.5765 15.4289293,98.2855564 13.9638906,95.8751476 L11.7911347,97.1980737 C13.3053179,99.6893394 14.932224,102.058518 16.6711854,104.309039 L18.6829589,102.751811 Z M10.0068256,88.5208573 C8.83765398,86.0553254 7.76302466,83.482944 6.78371316,80.8009255 L4.39502491,81.6746708 C5.40112463,84.4300536 6.506103,87.0750827 7.70926764,89.6122986 L10.0068256,88.5208573 Z M4.23795009,72.8087662 C3.77087063,71.1112577 3.33690017,69.3752174 2.93622807,67.6001359 L0.455537206,68.1610673 C0.86485027,69.9744305 1.30839844,71.7487851 1.78602354,73.4846197 L4.23795009,72.8087662 Z" id="Path-8" fill-rule="nonzero"></path>
                </g>
                <g id="Group-6" transform="translate(49.234568, 161.212121)" fill="#9DB4E3">
                    <polygon id="Path-Copy-3" points="287.555556 70.5939394 287.555556 48.8727273 306.544856 48.8727273 306.544856 70.5939394 320.786831 70.5939394 320.786831 88.7515152 306.544856 88.7515152 306.544856 118.618182 287.555556 118.618182 287.555556 88.7515152 236.691358 88.7515152 236.691358 71.1030303 280.265021 0 302.136626 0 259.241152 70.5939394"></polygon>
                    <polygon id="Path-Copy-4" points="50.8641975 70.5939394 50.8641975 48.8727273 69.8534979 48.8727273 69.8534979 70.5939394 84.0954733 70.5939394 84.0954733 88.7515152 69.8534979 88.7515152 69.8534979 118.618182 50.8641975 118.618182 50.8641975 88.7515152 0 88.7515152 0 71.1030303 43.5736626 0 65.4452675 0 22.5497942 70.5939394"></polygon>
                </g>
            </g>
        </g>
    </g>
</svg>