<?xml version="1.0" encoding="UTF-8"?>
<svg width="320px" height="310px" viewBox="0 0 320 310" version="1.1" xmlns="http://www.w3.org/2000/svg" xmlns:xlink="http://www.w3.org/1999/xlink">
    <!-- Generator: sketchtool 42 (36781) - http://www.bohemiancoding.com/sketch -->
    <title>FF9A9D3A-4624-4BCC-92E8-50D5A17C6840</title>
    <desc>Created with sketchtool.</desc>
    <defs></defs>
    <g id="Designs---Flows" stroke="none" stroke-width="1" fill="none" fill-rule="evenodd">
        <g id="500-Error-Page" transform="translate(-560.000000, -179.000000)">
            <g id="500-error-illustration" transform="translate(537.000000, 179.000000)">
                <g id="Group" transform="translate(148.672132, 260.899471)"></g>
                <g id="Group-2-Copy" transform="translate(234.834391, 147.460317)"></g>
                <g id="Group-2-Copy-2" transform="translate(104.746275, 147.460317)"></g>
                <g id="Group-7">
                    <path d="M207.803094,297.301587 L199.017922,290.698413 C198.167093,290.058906 197.666358,289.055263 197.666358,287.989418 L197.666358,260.05291 L168.945605,260.05291 L168.945605,287.989418 C168.945605,289.109131 168.393293,290.156449 167.470158,290.787225 L157.936446,297.301587 L207.803094,297.301587 Z M146.982676,300.687831 L165.566693,287.989418 L165.566693,256.666667 L201.04527,256.666667 L201.04527,287.989418 L217.93983,300.687831 L146.982676,300.687831 Z" id="Path-2" fill="#B8C7E4" fill-rule="nonzero"></path>
                    <path d="M207.803094,297.301587 L199.017922,290.698413 C198.167093,290.058906 197.666358,289.055263 197.666358,287.989418 L197.666358,260.05291 L168.945605,260.05291 L168.945605,287.989418 C168.945605,289.109131 168.393293,290.156449 167.470158,290.787225 L157.936446,297.301587 L207.803094,297.301587 Z" id="Path" fill="#F8F8F8"></path>
                    <path d="M128.39866,304.074074 C128.39866,305.472721 129.536655,306.613757 130.934476,306.613757 L233.988031,306.613757 C235.391666,306.613757 236.523847,305.478745 236.523847,304.074074 C236.523847,302.675427 235.385851,301.534392 233.988031,301.534392 L130.934476,301.534392 C129.530841,301.534392 128.39866,302.669403 128.39866,304.074074 Z M125.019748,304.074074 C125.019748,300.801276 127.662681,298.148148 130.934476,298.148148 L233.988031,298.148148 C237.254645,298.148148 239.902759,300.807935 239.902759,304.074074 C239.902759,307.346873 237.259826,310 233.988031,310 L130.934476,310 C127.667861,310 125.019748,307.340213 125.019748,304.074074 Z" id="Rectangle-44" fill="#B8C7E4" fill-rule="nonzero"></path>
                    <path d="M27.0312968,74.6432112 L27.0312968,250.753614 C27.0312968,254.486811 30.0525247,257.513228 33.7805224,257.513228 L332.83144,257.513228 C336.553263,257.513228 339.580666,254.482581 339.580666,250.753614 L339.580666,74.6432112 C339.580666,70.9100146 336.559438,67.8835979 332.83144,67.8835979 L33.7805224,67.8835979 C30.0586993,67.8835979 27.0312968,70.9142444 27.0312968,74.6432112 Z M23.6523847,74.6432112 C23.6523847,69.0398092 28.1968358,64.4973545 33.7805224,64.4973545 L332.83144,64.4973545 C338.425056,64.4973545 342.959578,69.0393395 342.959578,74.6432112 L342.959578,250.753614 C342.959578,256.357016 338.415127,260.899471 332.83144,260.899471 L33.7805224,260.899471 C28.1869064,260.899471 23.6523847,256.357486 23.6523847,250.753614 L23.6523847,74.6432112 Z" id="Rectangle" fill="#B8C7E4" fill-rule="nonzero"></path>
                    <path d="M27.0312968,74.6432112 L27.0312968,250.753614 C27.0312968,254.486811 30.0525247,257.513228 33.7805224,257.513228 L332.83144,257.513228 C336.553263,257.513228 339.580666,254.482581 339.580666,250.753614 L339.580666,74.6432112 C339.580666,70.9100146 336.559438,67.8835979 332.83144,67.8835979 L33.7805224,67.8835979 C30.0586993,67.8835979 27.0312968,70.9142444 27.0312968,74.6432112 Z" id="Rectangle" fill="#F8F8F8" fill-rule="nonzero"></path>
                    <path d="M43.9258572,93.2748243 L43.9258572,233.815123 C43.9258572,237.546016 46.9570859,240.582011 50.6903581,240.582011 L314.232148,240.582011 C317.967184,240.582011 320.996649,237.550262 320.996649,233.815123 L320.996649,93.2748243 C320.996649,89.5439307 317.96542,86.5079365 314.232148,86.5079365 L50.6903581,86.5079365 C46.9553225,86.5079365 43.9258572,89.5396849 43.9258572,93.2748243 Z M40.5469451,93.2748243 C40.5469451,87.6674048 45.0913056,83.1216931 50.6903581,83.1216931 L314.232148,83.1216931 C319.834201,83.1216931 324.375561,87.6764222 324.375561,93.2748243 L324.375561,233.815123 C324.375561,239.422542 319.831201,243.968254 314.232148,243.968254 L50.6903581,243.968254 C45.0883058,243.968254 40.5469451,239.413525 40.5469451,233.815123 L40.5469451,93.2748243 Z" id="Rectangle-Copy" fill="#B8C7E4" fill-rule="nonzero"></path>
                    <path d="M43.9258572,93.2748243 L43.9258572,233.815123 C43.9258572,237.546016 46.9570859,240.582011 50.6903581,240.582011 L314.232148,240.582011 C317.967184,240.582011 320.996649,237.550262 320.996649,233.815123 L320.996649,93.2748243 C320.996649,89.5439307 317.96542,86.5079365 314.232148,86.5079365 L50.6903581,86.5079365 C46.9553225,86.5079365 43.9258572,89.5396849 43.9258572,93.2748243 Z" id="Path" fill="#FFFFFF"></path>
                    <path d="M154.789,215.021932 C154.850699,214.969291 155.014709,214.835312 155.276216,214.631596 C155.739195,214.270932 156.290431,213.863327 156.925015,213.420342 C158.763569,212.136899 160.879826,210.847194 163.233096,209.64251 C179.212296,201.462452 195.930437,201.462452 211.822962,215.021932 C213.599116,216.537344 216.264799,216.322847 217.77693,214.542838 C219.289061,212.76283 219.075028,210.091364 217.298874,208.575952 C198.463692,192.505802 178.138944,192.505802 159.390437,202.103522 C156.679249,203.49143 154.237494,204.979503 152.096832,206.473838 C150.78628,207.388697 149.847213,208.120237 149.313088,208.575952 C147.536934,210.091364 147.322901,212.76283 148.835032,214.542838 C150.347164,216.322847 153.012846,216.537344 154.789,215.021932 Z" id="Path-18" fill="#9DB4E3" fill-rule="nonzero"></path>
                    <path d="M110.206991,147.067119 L138.424054,175.345405 C140.073488,176.998418 142.747749,176.998418 144.397183,175.345405 C146.046617,173.692392 146.046617,171.012329 144.397183,169.359316 L116.18012,141.081029 C114.530686,139.428017 111.856425,139.428017 110.206991,141.081029 C108.557557,142.734042 108.557557,145.414106 110.206991,147.067119 Z" id="Line" fill="#9DB4E3" fill-rule="nonzero"></path>
                    <path d="M138.424054,141.081029 L110.206991,169.359316 C108.557557,171.012329 108.557557,173.692392 110.206991,175.345405 C111.856425,176.998418 114.530686,176.998418 116.18012,175.345405 L144.397183,147.067119 C146.046617,145.414106 146.046617,142.734042 144.397183,141.081029 C142.747749,139.428017 140.073488,139.428017 138.424054,141.081029 Z" id="Line-Copy-8" fill="#9DB4E3" fill-rule="nonzero"></path>
                    <path d="M221.71109,147.067119 L249.928153,175.345405 C251.577587,176.998418 254.251848,176.998418 255.901282,175.345405 C257.550716,173.692392 257.550716,171.012329 255.901282,169.359316 L227.684219,141.081029 C226.034785,139.428017 223.360524,139.428017 221.71109,141.081029 C220.061656,142.734042 220.061656,145.414106 221.71109,147.067119 Z" id="Line" fill="#9DB4E3" fill-rule="nonzero"></path>
                    <path d="M249.928153,141.081029 L221.71109,169.359316 C220.061656,171.012329 220.061656,173.692392 221.71109,175.345405 C223.360524,176.998418 226.034785,176.998418 227.684219,175.345405 L255.901282,147.067119 C257.550716,145.414106 257.550716,142.734042 255.901282,141.081029 C254.251848,139.428017 251.577587,139.428017 249.928153,141.081029 Z" id="Line-Copy-8" fill="#9DB4E3" fill-rule="nonzero"></path>
                    <path d="M197.897239,18.7401947 C190.094232,19.3514123 182.933416,20.4757807 177.465353,21.8892052 C173.346548,22.9538635 170.452577,24.1600547 169.461738,24.9678648 C170.371624,25.4371695 172.102301,25.8659193 174.581053,26.183041 C180.321799,26.9174893 189.551297,27.0123067 202.019522,26.3666464 C208.095222,26.0520196 213.452899,25.2497371 217.979597,24.1170217 C215.524212,20.1942687 208.694805,17.8944103 197.897239,18.7401947 Z M207.002458,37.1583041 C206.300519,36.1786023 203.307691,35.6490055 197.929531,36.1745001 C192.07066,36.7469644 187.760332,37.5386326 185.238605,38.4352487 C184.821264,38.583637 184.469902,38.72984 184.188037,38.8654954 C185.085879,39.2157635 186.650251,39.5967451 188.68687,39.8638134 C192.194608,40.3237944 196.795535,40.4521645 202.022935,40.1920902 C203.540801,40.1165732 204.996243,39.9110213 206.372127,39.5948325 C207.121707,38.408753 207.292232,37.5627428 207.002458,37.1583041 Z M202.190473,43.5741685 C191.183143,44.1218065 182.90495,43.0362605 180.836057,40.6317081 C178.922921,38.4081818 180.707355,36.4533158 184.108811,35.2439065 C186.939566,34.2374133 191.492852,33.4011218 197.60165,32.8042373 C204.110031,32.16831 208.091779,32.8729017 209.747114,35.1832631 C210.40855,36.106435 210.63804,37.1268511 210.497461,38.2222833 C210.324614,39.5691592 209.592312,41.0294419 208.415574,42.5618147 C208.157389,42.8980289 207.877808,43.2377135 207.578048,43.5804322 C203.053085,48.753859 193.899672,54.498058 187.953764,55.8737575 C187.044617,56.084106 186.137456,55.5160191 185.927563,54.6049 C185.71767,53.6937808 186.284527,52.7846518 187.193674,52.5743034 C191.618173,51.5506108 198.411504,47.5575317 202.865088,43.5327483 C203.676183,42.7997476 204.409672,42.0656954 205.037113,41.3483371 C205.600842,40.7038207 206.04248,40.1164414 206.372127,39.5948325 C207.845482,39.2562441 209.227607,38.7907879 210.497461,38.2222833 C215.561605,35.9551022 218.840199,32.0490467 218.998725,28.0148495 C219.008038,27.7778454 219.006183,27.5437466 218.993208,27.3127418 C218.92864,26.1631282 218.588705,25.0901395 217.979597,24.1170217 C219.159578,23.821755 220.283095,23.5040356 221.348145,23.1666481 C231.67435,19.8955071 236.504629,14.7755214 234.015467,10.3447855 C229.655658,2.58427982 208.538593,0.751043668 179.872466,9.08642781 C178.976362,9.34699217 178.039154,8.83020934 177.779154,7.93216105 C177.519154,7.03411277 178.034818,6.09487165 178.930922,5.8343073 C208.957361,-2.89662096 231.556332,-0.93473604 236.959798,8.68349122 C240.826084,15.5655227 234.736921,22.3799093 222.303688,26.3597927 C221.245417,26.6985455 220.141185,27.016763 218.993219,27.312739 C214.123708,28.5682268 208.467275,29.4235141 202.193886,29.7483781 C189.541939,30.4035523 180.131572,30.3068768 174.153177,29.5420246 C167.76395,28.7246122 164.460353,27.009407 166.127674,23.7787364 C168.050974,20.0520696 181.209321,16.6508053 197.633942,15.3642478 C210.095564,14.3881161 218.530717,17.5232215 221.348145,23.1666481 C221.842426,24.1567133 222.163805,25.2239799 222.303688,26.3597927 C222.374957,26.9384828 222.399113,27.5349665 222.37502,28.148099 C222.12399,34.536374 216.471037,40.2763995 208.415574,42.5618147 C206.668248,43.0575484 204.807882,43.3907401 202.865088,43.5327483 C202.641295,43.5491065 202.416407,43.5629278 202.190473,43.5741685 Z" id="Path-25" fill="#DEE5F3" fill-rule="nonzero"></path>
                </g>
            </g>
        </g>
    </g>
</svg>