<svg width="16" height="14" viewBox="0 0 16 14" xmlns="http://www.w3.org/2000/svg"><title>5679701E-925A-4270-ABF8-6F06E33441B9</title><g fill="#FFF" fill-rule="evenodd"><path d="M2.133.553v2.026h-.53c-.216.018-.355.178-.354.368v.61L.083 5.113a.379.379 0 0 0-.072.23v6.632a.372.372 0 0 0 .175.323c.11.067.247.067.357 0a.372.372 0 0 0 .175-.323V5.71h14.146v7.368H.364a.351.351 0 0 0-.31.183.382.382 0 0 0 0 .371.351.351 0 0 0 .31.183h14.853a.361.361 0 0 0 .354-.369V5.342a.379.379 0 0 0-.072-.23l-1.16-1.549c-.002-.002-.006-.616-.006-.616a.361.361 0 0 0-.353-.368h-.53V.553a.361.361 0 0 0-.355-.369H2.486c-.215.018-.354.178-.353.369zM2.84.92h9.902V2.58H2.84V.92zm-.884 2.395h11.67v1.658H1.956V3.316zm-.707 1.439v.219h-.16l.16-.22zm13.084 0l.16.219h-.16v-.22zm-8.31 1.692c-.68 0-1.238.582-1.238 1.29 0 .708.558 1.29 1.238 1.29h3.536c.68 0 1.238-.582 1.238-1.29 0-.708-.558-1.29-1.238-1.29H6.023zm0 .737h3.536c.3 0 .53.24.53.553 0 .312-.23.552-.53.552H6.023c-.3 0-.53-.24-.53-.552 0-.313.23-.553.53-.553z"/><path d="M14.873 5.636v7.455H.7V5.636h14.173zM.35 4.91a.357.357 0 0 0-.35.364v8.182c0 .2.157.363.35.363h14.873c.193 0 .35-.163.35-.363V5.273c0-.201-.157-.364-.35-.364H.35z" fill-rule="nonzero"/></g></svg>