<svg width="22" height="19" viewBox="0 0 22 19" xmlns="http://www.w3.org/2000/svg"><title>1A734D93-2DF6-466E-A5F3-369E8181AF0C</title><g fill="#9F9F9F" fill-rule="evenodd"><path d="M3.046.562V3.35H2.3c-.303.025-.499.244-.498.507v.839L.162 6.832a.513.513 0 0 0-.101.317v9.12a.509.509 0 0 0 .247.444.49.49 0 0 0 .501 0 .509.509 0 0 0 .247-.445V7.655h19.901v10.133H.558a.496.496 0 0 0-.436.251.515.515 0 0 0 0 .511c.09.158.257.254.436.251h20.897a.502.502 0 0 0 .497-.506V7.149a.513.513 0 0 0-.1-.317l-1.633-2.13a94.236 94.236 0 0 1-.008-.846.502.502 0 0 0-.498-.507h-.746V.562a.502.502 0 0 0-.498-.506H3.544c-.304.024-.5.244-.498.506zm.995.507h13.93v2.28H4.042v-2.28zM2.797 4.362h16.419v2.28H2.797v-2.28zm-.995 1.98v.3h-.225l.225-.3zm18.409 0l.225.3h-.225v-.3zM8.519 8.668c-.956 0-1.742.8-1.742 1.773 0 .973.786 1.773 1.742 1.773h4.975c.956 0 1.741-.8 1.741-1.773 0-.974-.785-1.773-1.74-1.773H8.518zm0 1.013h4.975a.74.74 0 0 1 .746.76.74.74 0 0 1-.746.76H8.52a.74.74 0 0 1-.746-.76c0-.43.324-.76.746-.76z"/><path d="M20.97 7.553v10.251H1.03V7.554h19.94zm-20.432-1a.496.496 0 0 0-.493.5v11.252c0 .276.22.5.493.5h20.924a.496.496 0 0 0 .493-.5V7.053c0-.276-.22-.5-.493-.5H.538z"/></g></svg>