<svg width="25" height="28" viewBox="0 0 25 28" xmlns="http://www.w3.org/2000/svg"><title>DA273705-042A-411F-ACD6-3193F9159588</title><g fill="none" fill-rule="evenodd"><path d="M8.5 2h11.747L23 5.42V21.5H8.5V2zm16 21V4.891L20.966.5H7V23h17.5z" fill="#898989" fill-rule="nonzero"/><path fill="#FFF" d="M8.5 2h11.747L23 5.42V21.5H8.5z"/><path fill="#898989" fill-rule="nonzero" d="M20.5 5.5h3.25V7H19V1.25h1.5zM11 17.5h10V19H11zM11 13.5h10V15H11zM11 9.5h10V11H11z"/><path d="M1.5 7h11.747L16 10.42V26.5H1.5V7zm16 21V9.891L13.966 5.5H0V28h17.5z" fill="#898989" fill-rule="nonzero"/><path fill="#FFF" d="M1.5 7h11.747L16 10.42V26.5H1.5z"/><path fill="#898989" fill-rule="nonzero" d="M13.5 10.5h3.25V12H12V6.25h1.5zM4 22.5h10V24H4zM4 18.5h10V20H4zM4 14.5h10V16H4z"/></g></svg>