<svg width="84" height="84" viewBox="0 0 84 84" xmlns="http://www.w3.org/2000/svg"><title>1C84D9DD-BCCA-4DF0-860B-FEF9D9FC45C1</title><path d="M41.989 83.44C18.845 83.71.253 64.184.619 41.364.976 18.946 19.678.522 42.147.588c22.197.065 41.5 18.511 41.213 41.986C83.084 65.148 64.8 83.44 41.989 83.44zM20.498 44.71c.049-.288-.117-.334-.347-.309h-8.686c9.54-7.231 19.108-14.145 28.695-21.032 1.23-.885 2.888-.79 4.066.043 3.702 2.614 7.406 5.225 11.123 7.817.34.237.677.794 1.14.5.404-.256.206-.84.153-1.246-.145-1.106.217-1.485 1.367-1.398 1.488.113 2.994.08 4.487.008.884-.044 1.067.286 1.053 1.099-.037 2.142.017 4.286.033 6.43-.033.204.051.335.246.399l10 7.097-.069.29h-9.913c-.224-.039-.286.078-.263.275v10.198c-.029.205.024.362.244.424 3.642 1.473 7.31 2.912 10.646 5.01 1.024.645 1.367.387 1.836-.561 4.023-8.144 5.207-16.635 3.45-25.576C75.356 11.762 51.4-2.066 29.8 5.392 12.148 11.487 1.593 28.235 3.724 46.842c.532 4.646 1.948 9.041 4.125 13.185.24.456.353 1.065 1.156.565 3.52-2.188 7.342-3.754 11.172-5.294.227-.061.367-.184.31-.443.16-3.382.145-6.764.01-10.146zm21.615 36.028c-13.188-.41-23.673-5.687-31.493-16.184-.64-.86-.724-1.257.354-1.856 12.188-6.78 25.17-9.374 39.023-7.631 8.155 1.025 15.784 3.574 22.95 7.59 1.105.618 1.06 1.036.38 1.947-7.833 10.49-18.334 15.732-31.214 16.134zm-.99-36.097c-.236.106-3.74 0-5.342 0-.003-.22.002-3.822 0-5.323.09-.093 3.742 0 5.341 0 .092.094.002 3.822 0 5.323zm6.285 0c-.236.106-3.74 0-5.341 0-.003-.22.001-3.822 0-5.323.09-.093 3.742 0 5.34 0 .092.094.003 3.822 0 5.323zm-6.286 6.286c-.235.106-3.74-.001-5.341 0-.003-.221.002-3.822 0-5.323.09-.094 3.742 0 5.341 0 .092.094.002 3.822 0 5.323zm6.286 0c-.236.106-3.74-.001-5.341 0-.003-.221.001-3.822 0-5.323.09-.094 3.742 0 5.34 0 .092.094.003 3.822 0 5.323z" fill="#FFF" fill-rule="evenodd"/></svg>