<?xml version="1.0" encoding="UTF-8"?>
<svg width="30px" height="22px" viewBox="0 0 30 22" version="1.1" xmlns="http://www.w3.org/2000/svg" xmlns:xlink="http://www.w3.org/1999/xlink">
    <!-- Generator: sketchtool 41.2 (35397) - http://www.bohemiancoding.com/sketch -->
    <title>A692FE06-A212-4E13-8CBB-797834CCD27D</title>
    <desc>Created with sketchtool.</desc>
    <defs></defs>
    <g id="Designs---Flows" stroke="none" stroke-width="1" fill="none" fill-rule="evenodd">
        <g id="Apply-Payment" transform="translate(-550.000000, -522.000000)" fill="#3EC19D">
            <g id="Group-2" transform="translate(543.000000, 413.000000)">
                <g id="credit-card-icon" transform="translate(7.000000, 109.000000)">
                    <rect id="Rectangle-path" x="15.296725" y="12.009008" width="11.684325" height="1.411696"></rect>
                    <rect id="Rectangle-path" x="20.467625" y="14.406832" width="6.513425" height="1.411696"></rect>
                    <path d="M29.479525,3.29472 L29.479525,2.912624 C29.479525,1.308736 28.305075,0 26.8422,0 L2.653925,0 C1.1952,-2.03215222e-15 0.0083,1.299584 0.006225,2.912624 L0.006225,3.605888 L0,3.605888 L0,9.303008 L0.006225,9.303008 L0.006225,18.25824 C0.0083,19.868992 1.1952,21.170864 2.653925,21.170864 L26.840125,21.170864 C28.300925,21.170864 29.47745,19.862128 29.479525,18.25824 L29.479525,8.99184 L29.483675,8.99184 L29.483675,3.29472 L29.479525,3.29472 L29.479525,3.29472 Z M28.19925,18.25824 C28.19925,19.084208 27.591275,19.75688 26.8422,19.759168 L2.653925,19.759168 C1.906925,19.75688 1.288575,19.077344 1.2865,18.25824 L1.2865,9.303008 L1.292725,9.303008 L1.292725,8.561696 L28.1951,8.561696 L28.1951,8.99184 L28.19925,8.99184 L28.19925,18.25824 Z M1.292725,7.147712 L1.292725,4.971824 L28.1951,4.971824 L28.1951,7.147712 L1.292725,7.147712 L1.292725,7.147712 Z M28.19925,3.29472 L28.1951,3.29472 L28.1951,3.55784 L1.2865,3.55784 L1.288575,2.912624 C1.288575,2.09352 1.90485,1.413984 2.653925,1.413984 L26.840125,1.413984 C27.5892,1.413984 28.197175,2.088944 28.197175,2.912624 L28.197175,3.29472 L28.19925,3.29472 Z" id="Shape"></path>
                </g>
            </g>
        </g>
    </g>
</svg>