<svg width="224" height="117" viewBox="0 0 224 117" xmlns="http://www.w3.org/2000/svg"><title>B3998BEB-D0F9-45F2-9714-278E87389C8A</title><g fill="none" fill-rule="evenodd"><path d="M1 64.503c7.951 24.306 31.51 31.355 53.82 24.306 15.62-4.934 31.886-29.56 21.485-40.687-12.885-13.785-32.125-5.8-36.938 13.389-5.513 21.984 21.376 44.687 34.813 49.763 15.105 5.707 27.518 5.964 40.507 2.278 40.702-11.551 59.914-51.113 64.07-58.229 2.727-4.667 3.936-10.069 5.903-15.103" stroke="#3EC19D" stroke-dasharray="4"/><path d="M205 73c9.324-33.698 19-71 19-71.5 0-.983-1.012-.452-1-.5.023-.091-36.152 19.816-72.222 40.26-.54.306-.248 1.158 0 1.24C151.025 42.582 171 48 171 48v23l14-16s9.377 9.623 19 18.283c.377.34.864.208 1-.283z" fill="#3EC19D"/><path fill="#329E80" d="M174 49.5L202 26l-28.5 38z"/></g></svg>