<svg width="67" height="67" viewBox="0 0 67 67" xmlns="http://www.w3.org/2000/svg"><title>A4B6C62B-BC3C-4B7C-9D16-07FF41BF70C5</title><g fill="none" fill-rule="evenodd"><path d="M33.446 65.892c17.923 0 32.446-14.53 32.446-32.446C65.892 15.531 51.37 1 33.446 1S1 15.53 1 33.446c0 17.916 14.523 32.446 32.446 32.446z" stroke="#3EC19D" stroke-width="2" fill="#FFF" fill-rule="nonzero"/><path d="M29.215 14h7.517v6.949L35.12 40.395h-4.295l-1.611-19.446V14zm.966 37.815c-.787-.79-1.181-1.733-1.181-2.828 0-1.095.394-2.038 1.181-2.828.788-.79 1.727-1.185 2.819-1.185 1.092 0 2.031.395 2.819 1.185.787.79 1.181 1.733 1.181 2.828 0 1.095-.394 2.038-1.181 2.828C35.03 52.605 34.092 53 33 53c-1.092 0-2.031-.395-2.819-1.185z" fill="#3EC19D"/></g></svg>