<svg xmlns="http://www.w3.org/2000/svg" width="65" height="65" viewBox="0 0 65 65"><g fill="none" fill-rule="evenodd"><path fill="#E4E4E4" fill-rule="nonzero" d="M32.446 64.892c17.923 0 32.446-14.53 32.446-32.446C64.892 14.531 50.37 0 32.446 0S0 14.53 0 32.446c0 17.916 14.523 32.446 32.446 32.446z"/><path fill="#FFF" d="M28.215 13h7.517v6.949L34.12 39.395h-4.295l-1.611-19.446V13zm.966 37.815c-.787-.79-1.181-1.733-1.181-2.828 0-1.095.394-2.038 1.181-2.828.788-.79 1.727-1.185 2.819-1.185 1.092 0 2.031.395 2.819 1.185.787.79 1.181 1.733 1.181 2.828 0 1.095-.394 2.038-1.181 2.828C34.03 51.605 33.092 52 32 52c-1.092 0-2.031-.395-2.819-1.185z"/></g></svg>