<?xml version="1.0" encoding="UTF-8"?>
<svg width="26px" height="26px" viewBox="0 0 26 26" version="1.1" xmlns="http://www.w3.org/2000/svg" xmlns:xlink="http://www.w3.org/1999/xlink">
    <!-- Generator: sketchtool 42 (36781) - http://www.bohemiancoding.com/sketch -->
    <title>84967551-E8B6-4362-BEE2-7664A6EF7DEB</title>
    <desc>Created with sketchtool.</desc>
    <defs></defs>
    <g id="Page-1" stroke="none" stroke-width="1" fill="none" fill-rule="evenodd">
        <g id="Dash-Applicants-Group" transform="translate(-514.000000, -133.000000)" fill="#FFFFFF">
            <g id="group-icon-white" transform="translate(514.000000, 133.000000)">
                <g id="Group-icon">
                    <g id="Group-Icon-v.2" transform="translate(0.272727, 0.314286)">
                        <path d="M15.4017595,4.3323871 L14.8829511,4.70866574 C14.6622049,4.43809397 14.5027145,4.22781567 14.379251,4.04902655 C14.2969509,3.92847433 14.179801,3.74450264 14.1848772,3.75204626 C14.1542317,3.70975358 14.1423987,3.69597477 14.1247404,3.67762088 C13.8189273,3.35976111 13.4744087,3.12473488 13.0955857,2.96122395 C12.393382,2.65813254 11.6305191,2.61595199 10.9351586,2.72949398 C10.8326925,2.74622516 10.603944,2.79767217 10.5630981,2.80079097 C8.31342358,2.97256607 7.22860072,4.04810578 6.9369685,5.8220869 C6.82688894,6.4916942 6.84246614,7.22172754 6.95264995,7.94618136 C7.0266842,8.43295334 7.14828578,8.90337399 7.19868965,9.0142625 C7.32683051,9.29617238 7.2159504,9.62403045 6.93838018,9.78396377 C6.71149754,9.91469139 6.65268372,10.1841736 6.78594168,10.5611033 C6.84924922,10.7401732 6.94995768,10.9061236 7.05147511,11.0102679 C7.13252205,11.0269107 7.21902254,11.0489131 7.36440291,11.0858923 C7.58376463,11.2401228 7.58376463,11.2401228 7.64665834,11.3494357 C7.70512866,11.485814 7.70512866,11.485814 7.71282363,11.536133 C7.72102119,11.5991869 7.72102119,11.5991869 7.72157264,11.6229587 C7.72134107,11.697068 7.71708672,11.7765306 7.7070226,11.9378159 C7.70409407,11.9847479 7.70516206,12.0341359 7.71029861,12.0859807 C7.74100913,12.395952 7.91260152,12.7677739 8.19082579,13.1660427 C8.35623734,13.4028238 8.78289294,13.9111279 8.77218072,13.8959778 C8.84386109,13.9973543 8.88211144,14.1164677 8.88211144,14.2383071 L8.88211144,16.2060859 C8.88211144,16.2676056 8.87235536,16.3287796 8.85316679,16.3875789 C8.79708034,16.5594438 8.65958262,16.7913877 8.40904502,17.0556418 C8.03838012,17.4466001 7.49396161,17.8232311 6.74708292,18.1640227 C6.20090249,18.4132382 5.55918569,18.6368426 4.81432548,18.8303326 C3.75397257,19.105777 2.93049562,19.6881351 2.3046595,20.4962168 C2.02903159,20.8521085 1.8074054,21.2321867 1.63509962,21.6153106 C2.30613107,21.6194418 3.05178103,21.6240299 3.8539461,21.6289624 C6.19778205,21.6433748 8.54569403,21.6577872 10.7427839,21.6712388 L10.8419035,21.6718456 C11.6555042,21.6768264 12.4340635,21.6815874 13.1728805,21.6860994 C13.5343684,21.688307 13.8255142,21.9663952 13.8231727,22.3072266 C13.8208313,22.648058 13.5258894,22.9225669 13.1644015,22.9203592 C12.4255773,22.9158472 11.6470111,22.9110862 10.8334039,22.9061053 L10.7342835,22.9054985 C8.53717987,22.8920469 6.18925608,22.8776344 3.84540874,22.8632219 C3.02506232,22.8581775 2.26382156,22.8534935 1.58104859,22.8492898 C0.878912985,22.8449661 0.878912985,22.8449661 0.722994744,22.8440053 C0.308122552,22.8414486 0.000409060798,22.4802661 0.0872147132,22.0977506 C0.0977222634,22.0514483 0.117525304,21.9762763 0.148054432,21.8762311 C0.196919414,21.7160986 0.259353502,21.5393759 0.336871627,21.3500516 C0.557362951,20.8115406 0.856297614,20.273362 1.24743249,19.7683274 C2.03834889,18.7470935 3.10204817,17.9948515 4.46661294,17.640383 C5.13718342,17.466191 5.70455115,17.2684933 6.17682663,17.0529998 C6.77462801,16.7802303 7.18045943,16.4994744 7.43305866,16.2330458 C7.49412229,16.168639 7.53999125,16.1114171 7.57302053,16.0624169 L7.57302053,14.4556055 C7.44126244,14.2969709 7.226183,14.0290776 7.09757574,13.8449806 C6.71192088,13.2929285 6.46127781,12.7498125 6.40688225,12.2007804 C6.40379207,12.1695901 6.40137115,12.1384734 6.3996315,12.1074344 C6.395077,12.026173 6.39519198,11.9454444 6.40019148,11.8653236 C6.40256068,11.8273553 6.40457837,11.7942006 6.40625981,11.7658355 C6.40946903,11.7116975 6.41145334,11.6750071 6.41231882,11.6555974 C6.41334491,11.6767377 6.41334491,11.6767377 6.42115165,11.7368143 C6.42862161,11.7860311 6.42862161,11.7860311 6.48682891,11.921801 C6.54958425,12.0308983 6.54958425,12.0308983 6.76879866,12.1850286 C7.00403088,12.2448592 7.08504599,12.2654651 7.19148806,12.2406069 C7.24740543,12.2275481 7.31033996,12.2019423 7.40633598,12.1628852 C7.63856943,11.9589558 7.63856943,11.9589558 7.66504368,11.8848741 C7.68628443,11.8347013 7.68628443,11.8347013 7.69398295,11.8101073 C7.6905061,11.8363106 7.6905061,11.8363106 7.67579215,11.880886 C7.66408004,11.9123531 7.66408004,11.9123531 7.63517139,11.9694812 C7.5928878,12.0505672 7.5928878,12.0505672 7.38881435,12.2133842 C7.19890873,12.2986291 7.19890873,12.2986291 6.92418157,12.286748 C6.68440059,12.2035725 6.67953489,12.1989871 6.56643076,12.0923987 C6.44734038,11.9262407 6.44734038,11.9262407 6.42624449,11.8530875 C6.41446146,11.8038134 6.40911821,11.781469 6.40625981,11.7658355 C6.39968902,11.7034769 6.39906158,11.6816428 6.39906158,11.6555974 L7.05360704,11.6555974 L7.19559788,12.2580443 C7.09320903,12.2794972 6.99262351,12.2850388 6.89456554,12.2764853 C6.7202431,12.2612794 6.55390874,12.2015276 6.3996315,12.1074344 C6.02265074,11.8775151 5.71766097,11.4425491 5.544029,10.9514187 C5.29790209,10.2552312 5.37259481,9.55301027 5.83929996,9.05654109 C5.60132874,8.21176943 5.45071746,6.80465172 5.6433253,5.63302988 C6.02050736,3.33865422 7.54720468,1.81198289 10.3987661,1.57520749 C10.5222024,1.54717184 10.6121363,1.52958054 10.7117738,1.51331123 C11.6450554,1.36092029 12.6634531,1.41722998 13.6404884,1.83894663 C14.1783465,2.07110175 14.6678152,2.40501105 15.0943381,2.84833561 C15.1455252,2.90153907 15.189291,2.95250202 15.2299437,3.00614264 C15.2507219,3.03355917 15.2702817,3.06111392 15.2902555,3.0907962 C15.2981583,3.10254033 15.4213872,3.29603836 15.4763013,3.37556006 C15.5799086,3.52559515 15.7197018,3.70990393 15.920568,3.95610846 C16.1123631,4.19119448 16.0899213,4.48346148 15.9354007,4.68998169 C15.8113876,4.85572804 15.6023006,4.96624368 15.3506111,4.94764281 C15.2604784,4.95940257 15.2040984,4.96693988 15.1670601,4.97453644 C15.1832261,4.96713086 15.2029963,4.95842315 15.2267485,4.94524914 C15.2742784,4.918887 15.3215693,4.88384041 15.3682438,4.83246601 C15.5444093,4.6385613 15.5665028,4.35205773 15.4181078,4.13573636 C15.3621598,4.05992529 15.3171235,4.02023531 15.2716846,3.99025565 C15.2510867,3.97666563 15.2355943,3.96846231 15.2239235,3.96328398 C15.2949362,3.99479216 15.3613703,4.0309497 15.4234331,4.07167908 C15.6480788,4.21910514 15.8154538,4.42643097 15.9354007,4.68998169 C16.1800515,5.22753545 16.2273912,5.99899662 16.1609378,6.97318223 C16.1153504,7.6414785 15.9950431,8.44072281 15.8839198,8.97249626 C16.3399757,9.39117481 16.3735578,10.0780083 16.1098491,10.794956 C15.9197879,11.3116772 15.6161125,11.7830381 15.2499941,12.0483262 C15.136461,12.1305918 15.0169233,12.1930411 14.8929069,12.2308818 C14.8631643,12.2399571 14.8331641,12.2476169 14.8029273,12.2537952 C14.742467,12.266149 14.6810609,12.2725793 14.6188772,12.2725576 L14.6191202,11.6554147 L15.2736657,11.6554147 C15.2731102,11.7207605 15.2733961,11.7292084 15.2640919,11.7650678 C15.2572329,11.7915029 15.2451621,11.8328347 15.2241929,11.9046359 C15.1870068,11.9870144 15.1870068,11.9870144 15.0651019,12.1223327 C14.9893866,12.1738577 14.9391334,12.2080556 14.8929069,12.2308818 C14.8451811,12.2544484 14.8017475,12.2658938 14.7390165,12.2717722 C14.7044908,12.2750076 14.6641197,12.2765566 14.6139703,12.277512 C14.5810524,12.2781392 14.5439215,12.2785105 14.5014655,12.2789351 C14.4806638,12.2720067 14.4616037,12.2656582 14.4440817,12.2597895 C14.4215607,12.2522391 14.4051513,12.2466945 14.3901762,12.2415515 C14.4284316,12.2568678 14.4340877,12.2575914 14.4396381,12.2583004 C14.513392,12.267722 14.5684766,12.2745679 14.6139703,12.277512 C14.6630055,12.2806853 14.7008984,12.2793256 14.7390165,12.2717722 C14.7596528,12.267683 14.7803552,12.2617785 14.8029273,12.2537952 C14.8502098,12.2370723 14.9056966,12.2112278 14.9859668,12.1738399 C15.1417099,12.0418673 15.1417099,12.0418673 15.194186,11.9513239 C15.2468722,11.8313209 15.2468722,11.8313209 15.255619,11.7846457 C15.261678,11.754569 15.2635338,11.7366099 15.2645811,11.7187728 C15.2640847,11.8651539 15.2593093,11.9569249 15.2499941,12.0483262 C15.1905952,12.6311518 14.9466089,13.1989451 14.5791599,13.7419876 C14.4354816,13.9543257 14.2821527,14.148201 14.1282293,14.3209266 C14.1185261,14.3318151 14.0997067,16.1444122 14.0997067,16.1444122 C14.1244984,16.2074102 14.1713348,16.2844305 14.251158,16.3767729 C14.4795413,16.640975 14.4375239,17.0297148 14.1573096,17.2450476 C13.8770952,17.4603804 13.4647954,17.420764 13.2364122,17.1565619 C12.9323589,16.8048219 12.8050246,16.4814395 12.7915118,16.2381821 C12.7909146,16.2274317 12.7906158,14.1151382 12.7906158,14.1151382 C12.7906158,13.9516246 12.8594399,13.7947943 12.9819756,13.6790847 C13.005698,13.6566837 13.0567764,13.6045573 13.1259614,13.5269211 C13.2449391,13.3934099 13.3645113,13.242218 13.4755406,13.0781309 C13.7782029,12.6308349 13.9549938,12.1808971 13.9549938,11.7730507 C13.9549938,11.7193552 13.9556852,11.6813131 13.9574915,11.650549 C13.9593923,11.6181743 13.962271,11.5903161 13.9695225,11.5543202 C13.9759878,11.5203941 13.9780981,11.5093202 13.9951577,11.468427 C14.0034246,11.4486106 14.0152019,11.421792 14.0326864,11.3819775 C14.0856058,11.2907248 14.0856058,11.2907248 14.2417957,11.1583831 C14.3350746,11.1149342 14.3949439,11.0870473 14.4473272,11.0709347 C14.5326782,11.04737 14.5939757,11.0499864 14.7149203,11.0645062 C14.3958602,11.0677589 14.3915878,11.0706664 14.1710143,11.2207688 C14.0493236,11.3558541 14.0493236,11.3558541 14.0123393,11.4378217 C13.9833326,11.5371158 13.9716132,11.5772329 13.9672337,11.5994095 C13.9715503,11.5541638 13.9810461,11.510326 13.9951577,11.468427 C14.0639746,11.2641024 14.2425626,11.1058846 14.4655986,11.055341 C14.5149157,11.044165 14.566406,11.0382534 14.6193633,11.0382719 C14.5550955,11.0382494 14.5028317,11.0498536 14.4619431,11.066632 C14.490921,11.0324067 14.5228519,10.9986154 14.5575656,10.9559989 C14.6786296,10.807374 14.7963652,10.5989474 14.8730248,10.390532 C14.9490509,10.1838392 14.9756413,10.0017275 14.9552767,9.88932292 C14.5886574,9.72973111 14.4075939,9.38468648 14.5190108,9.06481001 C14.5436402,8.99409913 14.61383,8.67853702 14.6755215,8.32767497 C14.7587136,7.85453155 14.8229958,7.35647769 14.8545461,6.8939611 C14.8921461,6.34275672 14.8811724,5.87111079 14.8169615,5.52194618 C14.7857563,5.35225942 14.7434659,5.22105006 14.6961973,5.13507481 C14.6801981,5.10597456 14.6659322,5.08619551 14.6550604,5.07494653 C14.52724,5.01689441 14.4226679,4.94615254 14.3338882,4.82702424 C14.1509186,4.58150785 14.1691102,4.25969017 14.3693954,4.03466329 C14.5221149,3.8665128 14.6666183,3.81402613 14.8888,3.76845655 C15.0680378,3.7316948 15.3320443,3.70819907 15.4529079,3.71713138 L15.4017595,4.3323871 Z" id="Path-Copy-6" fill-rule="nonzero"></path>
                        <path d="M21.3835289,10.261195 C21.3827151,10.2806217 21.3827151,10.2806217 21.3827566,10.2839862 C21.3827566,10.2752273 21.3829501,10.2665111 21.3833334,10.2578411 C21.3833935,10.2589203 21.3834598,10.2600337 21.3835289,10.261195 Z M21.3265288,13.1797632 L21.5178886,12.7437097 L21.5178886,12.9812671 C21.4364875,13.0712479 21.3705464,13.1381977 21.3265288,13.1797632 Z M21.4656216,10.6025486 C21.4376034,10.5519766 21.4376034,10.5519766 21.4322282,10.5393661 C21.4308694,10.5393104 21.4308382,10.5393091 21.4781964,10.6225451 C21.4745744,10.6169449 21.4706374,10.6106141 21.4656216,10.6025486 Z M21.572995,10.7364935 C21.5095188,10.6693554 21.5095188,10.6693554 21.4816199,10.6285622 C21.4804521,10.6265096 21.4793111,10.6245043 21.4781964,10.6225451 C21.4914139,10.6429814 21.500438,10.6536904 21.5423924,10.7034785 C21.6198954,10.7831077 21.6239798,10.7873042 21.808358,10.8701229 C21.6680539,10.8219367 21.6536539,10.8089933 21.572995,10.7364935 Z M21.8408477,10.8847015 C21.8294307,10.879581 21.8186154,10.8747303 21.808358,10.8701229 C21.8233331,10.875266 21.8397425,10.8808105 21.8578199,10.8868718 C21.8522695,10.8861628 21.8466134,10.8854392 21.8408477,10.8847015 Z M22.1645685,9.69694309 C22.1605737,9.69561221 22.1565117,9.69425921 22.152381,9.69288332 C22.1458291,9.69294898 22.1394042,9.69301336 22.1331021,9.69307761 C22.1431646,9.69428566 22.1536401,9.6955761 22.1645685,9.69694309 Z M22.1219361,9.69175156 L22.1331021,9.69307761 C22.1293226,9.69262386 22.1256013,9.69218175 22.1219361,9.69175156 Z M22.0375451,9.66684336 C21.9732773,9.66682086 21.9210135,9.67842508 21.8801249,9.69520343 C21.9776949,14.2967217 21.9555933,13.2593043 21.9384752,12.4557831 C21.8883383,10.1023583 21.8809514,9.75538865 21.8798631,9.70423428 C21.9091028,9.6609781 21.9410337,9.62718682 21.9757474,9.58457038 C22.0968114,9.43594548 22.214547,9.22751884 22.2912067,9.01910341 C22.3672327,8.81241067 22.3938231,8.63029893 22.3734585,8.51789435 C22.364999,8.47120153 22.3701038,8.47737445 22.3441279,8.46885998 C22.0068392,8.35830254 21.8257757,8.01325791 21.9371926,7.69338144 C21.961822,7.62267056 22.0320118,7.30710845 22.0937033,6.9562464 C22.1768955,6.48310298 22.2411776,5.98504912 22.2727279,5.52253253 C22.310328,4.97132815 22.2993542,4.49968222 22.2351433,4.15051761 C22.2039381,3.98083085 22.1616477,3.84962149 22.1143791,3.76364624 C22.09838,3.73454599 22.084114,3.71476694 22.0732422,3.70351796 C21.9454219,3.64546583 21.8408497,3.57472397 21.7520701,3.45559567 C21.5691004,3.21007928 21.587292,2.88826159 21.7875772,2.66323472 C21.9402967,2.49508423 22.0848001,2.44259755 22.3069818,2.39702798 C22.4862196,2.36026623 22.7502261,2.3367705 22.8710897,2.34570281 L22.8362908,2.76429358 L22.8199413,2.96095853 L22.3011329,3.33723717 C22.0803867,3.0666654 21.9208963,2.8563871 21.7974328,2.67759798 C21.7151327,2.55704575 21.5979828,2.37307406 21.603059,2.38061769 C21.5953254,2.36912505 21.5889611,2.36015939 21.5830149,2.35231344 C21.5724135,2.33832501 21.5605806,2.3245462 21.5429223,2.30619231 C21.2371091,1.98833254 20.8925905,1.75330631 20.5137675,1.58979538 C19.8115639,1.28670397 19.0487009,1.24452342 18.3533404,1.3580654 C18.2508743,1.37479659 18.0221258,1.42624359 17.9812799,1.4293624 C17.138885,1.49368392 16.4599064,1.688577 15.925964,1.99675689 C15.6176502,2.17470883 15.2147111,2.08331186 15.0259742,1.79261605 C14.8372373,1.50192024 14.9341735,1.12200619 15.2424872,0.944054251 C15.9460957,0.537946835 16.8034153,0.28800921 17.8169351,0.203781982 C17.8305496,0.200541965 17.8449255,0.19721255 17.8602083,0.193775347 C17.9403843,0.17574327 18.0303181,0.158151972 18.1299557,0.141882654 C19.0632372,-0.0105082829 20.081635,0.0458014076 21.0586702,0.467518056 C21.5965283,0.699673184 22.085997,1.03358248 22.5125199,1.47690704 C22.563707,1.5301105 22.6074729,1.58107345 22.6481255,1.63471407 C22.6689038,1.6621306 22.6884635,1.68968535 22.7084373,1.71936763 C22.7163402,1.73111176 22.839569,1.92460978 22.8944831,2.00413148 C22.9980904,2.15416658 23.1378836,2.33847536 23.3387498,2.58467988 C23.5305449,2.81976591 23.5081031,3.11203291 23.3535825,3.31855312 C23.2295694,3.48429947 23.0204824,3.59481511 22.768793,3.57621424 C22.7975008,3.57833587 22.7987295,3.57831582 22.8016799,3.578174 C22.7844517,3.57900213 22.7616477,3.58058838 22.7371885,3.58276517 C22.6786602,3.587974 22.6222802,3.59551131 22.5852419,3.60310787 C22.6014079,3.59570229 22.6211781,3.58699458 22.6449303,3.57382057 C22.6924602,3.54745843 22.7397512,3.51241184 22.7864256,3.46103744 C22.9625912,3.26713273 22.9846847,2.98062916 22.8362896,2.76430779 C22.7803417,2.68849671 22.7353054,2.64880674 22.6898664,2.61882708 C22.6692686,2.60523706 22.6537761,2.59703373 22.6421053,2.59185541 C22.713118,2.62336359 22.7795521,2.65952112 22.8416149,2.70025051 C23.0662606,2.84767657 23.2336356,3.0550024 23.3535825,3.31855312 C23.5982333,3.85610688 23.645573,4.62756805 23.5791196,5.60175366 C23.5335322,6.27004993 23.4132249,7.06929424 23.3021017,7.60106769 C23.7581575,8.01974624 23.7917397,8.70657972 23.5280309,9.4235274 C23.3379697,9.94024861 23.0342943,10.4116095 22.6681759,10.6768976 C22.5546428,10.7591632 22.4351051,10.8216126 22.3110887,10.8594532 C22.2813461,10.8685285 22.2513459,10.8761883 22.2211091,10.8823666 C22.1606488,10.8947205 22.0992427,10.9011508 22.037059,10.901129 L22.0373021,10.2839862 L22.6918475,10.2839862 C22.6918079,10.3013314 22.6918079,10.3013314 22.6906182,10.3294243 C22.691292,10.3493319 22.6915779,10.3577799 22.6822737,10.3936392 C22.6754147,10.4200743 22.6633439,10.4614061 22.6423747,10.5332073 C22.6051886,10.6155859 22.6051886,10.6155859 22.4832837,10.7509041 C22.4075684,10.8024292 22.3573152,10.836627 22.3110887,10.8594532 C22.2633629,10.8830198 22.2199293,10.8944652 22.1571983,10.9003437 C22.1778346,10.8962544 22.198537,10.8903499 22.2211091,10.8823666 C22.2683916,10.8656437 22.3238784,10.8397993 22.4041486,10.8024114 C22.5598918,10.6704387 22.5598918,10.6704387 22.6123679,10.5798954 C22.665054,10.4598923 22.665054,10.4598923 22.6738008,10.4132172 C22.6798599,10.3831405 22.6817156,10.3651813 22.6827629,10.3473443 C22.6826268,10.3496621 22.6823239,10.3658909 22.6822737,10.3936392 C22.6822665,10.4937253 22.6774911,10.5854963 22.6681759,10.6768976 C22.608777,11.2597232 22.3647908,11.8275166 21.9973418,12.370559 C21.977889,12.3993077 21.9582593,12.427718 21.9384752,12.4557831 C21.8121338,12.6350074 21.6794947,12.800158 21.5464111,12.949498 C21.5367079,12.9603866 21.5271971,12.9709774 21.5178886,12.9812671 L21.5178886,13.5771429 C21.5178886,13.9179814 21.2248386,14.1942857 20.8633431,14.1942857 C20.5018476,14.1942857 20.2087977,13.9179814 20.2087977,13.5771429 L20.2087977,12.7437097 C20.2087977,12.580196 20.2776218,12.4233657 20.4001574,12.3076561 C20.4238798,12.2852552 20.4749582,12.2331287 20.5441432,12.1554925 C20.6631209,12.0219813 20.7826931,11.8707894 20.8937224,11.7067023 C21.1963847,11.2594063 21.3731756,10.8094685 21.3731756,10.4016221 C21.3731756,10.3479266 21.373867,10.3098845 21.3756733,10.2791204 C21.3775742,10.2467457 21.3804528,10.2188875 21.3877044,10.1828917 C21.3941696,10.1489655 21.3962799,10.1378917 21.4133396,10.0969984 C21.4216064,10.0771821 21.4333838,10.0503634 21.4508682,10.0105489 C21.5037876,9.91929625 21.5037876,9.91929625 21.6599775,9.78695453 C21.7532564,9.74350563 21.8131258,9.71561875 21.865509,9.69950611 C21.9152675,9.68566485 21.9483882,9.68145722 21.9877287,9.68149544 C22.007399,9.68151454 22.0286243,9.68259511 22.052491,9.68457839 C22.0644244,9.68557003 22.0770181,9.68678734 22.090408,9.6882105 C22.114662,9.69090312 22.118271,9.69132137 22.1219361,9.69175156 C22.014067,9.69429115 21.9388469,9.69545663 21.8798631,9.70423561 C21.7807474,9.71898771 21.727478,9.75523807 21.5891961,9.8493402 C21.4675054,9.98442552 21.4675054,9.98442552 21.4305211,10.0663932 C21.4015144,10.1656873 21.389795,10.2058043 21.3854155,10.2279809 C21.3897321,10.1827352 21.3992279,10.1388974 21.4133396,10.0969984 C21.4821564,9.89267383 21.6607444,9.73445605 21.8837804,9.68391245 C21.9330975,9.67273639 21.9845878,9.66682482 22.0375451,9.66684336 Z" id="Path-Copy-10" fill-rule="nonzero"></path>
                        <g id="Group-14" transform="translate(13.818182, 14.400000)">
                            <path d="M5.67272727,10.8957765 C2.53706932,10.8957765 0,8.45418772 0,5.44788824 C0,2.44158875 2.53706932,0 5.67272727,0 C8.80838522,0 11.3454545,2.44158875 11.3454545,5.44788824 C11.3454545,8.45418772 8.80838522,10.8957765 5.67272727,10.8957765 Z M5.67272727,9.79863361 C8.16033223,9.79863361 10.1818182,7.85322466 10.1818182,5.44788824 C10.1818182,3.04255181 8.16033223,1.09714286 5.67272727,1.09714286 C3.18512232,1.09714286 1.16363636,3.04255181 1.16363636,5.44788824 C1.16363636,7.85322466 3.18512232,9.79863361 5.67272727,9.79863361 Z" id="Oval-6-Copy-4" fill-rule="nonzero"></path>
                            <g id="Group-18" transform="translate(2.618182, 1.468571)">
                                <polyline id="Combined-Shape-Copy-2" points="6.10909091 3.46857143 0 3.46857143 0 4.42857143 6.10909091 4.42857143"></polyline>
                                <polyline id="Combined-Shape-Copy-2" transform="translate(3.054545, 3.948571) rotate(90.000000) translate(-3.054545, -3.948571) " points="6.10909091 3.46857143 0 3.46857143 0 4.42857143 6.10909091 4.42857143"></polyline>
                            </g>
                        </g>
                    </g>
                </g>
            </g>
        </g>
    </g>
</svg>