<svg width="120" height="137" viewBox="0 0 120 137" xmlns="http://www.w3.org/2000/svg" xmlns:xlink="http://www.w3.org/1999/xlink"><title>DE69937F-E10C-4CDA-BA1F-DD8E342BEA13</title><defs><rect id="a" width="100" height="113.836" rx="3"/></defs><g fill="none" fill-rule="evenodd"><g transform="translate(3 3.753)"><mask id="b" fill="#fff"><use xlink:href="#a"/></mask><use stroke="#E4E4E4" stroke-width="6" xlink:href="#a"/><path d="M85.919 99.261C72.4 92.858 61.017 90.012 61.017 77.917V76.85c3.558-2.846 3.914-6.047 6.76-13.162 0 0 10.671-11.028 3.201-11.74-1.067-4.624.356-11.027 1.067-13.873.356-.711-.356-1.778-1.067-2.134C66.709 33.45 63.863 21 51.768 21c-13.517 0-15.652 10.316-15.652 10.316-10.316 0-6.759 20.633-6.759 20.633-7.114.711 2.846 11.74 2.846 11.74 2.846 7.114 3.913 10.671 7.47 13.161v1.067c0 12.095-11.383 14.941-24.9 21.344C3.743 104.597 3.743 118.115 4.1 122.74c0 1.067.356 1.779 1.067 2.49 11.74 9.96 45.178 9.605 45.178 9.605s33.44.356 45.179-9.605c.711-.711 1.067-1.423 1.067-2.49.356-4.625.356-18.143-10.672-23.479z" fill="#E4E4E4" mask="url(#b)"/><rect stroke="#E4E4E4" stroke-width="6" mask="url(#b)" width="100" height="113.836" rx="3"/></g><path d="M100.366 133.847c16.244-7.574 23.265-26.881 15.694-43.118-7.572-16.237-26.875-23.269-43.119-15.694-16.244 7.575-23.265 26.881-15.694 43.118 7.572 16.237 26.875 23.269 43.119 15.694z" fill="#94C959"/><path fill="#FFF" d="M77.236 108.025l-2.557 4.517 13.983 7.916 11.624-31.18-4.864-1.814-9.498 25.478z"/></g></svg>