<svg width="23" height="21" viewBox="0 0 23 21" xmlns="http://www.w3.org/2000/svg"><title>F9A653AA-D0FB-4468-9A17-80456D75D373</title><g fill="none" fill-rule="evenodd"><path d="M11.62 17.97c-1.308 0-2.52-.276-3.677-.622l-6.226 2.869 2.563-4.662C2.314 14.015 1 11.859 1 9.485 1 4.8 5.755 1 11.62 1c5.867 0 10.621 3.8 10.621 8.485 0 4.686-4.754 8.485-10.62 8.485z" stroke="#FFF" stroke-width="1.232" stroke-linejoin="round"/><path d="M10.834 11.442v-.343c0-.495.077-.902.229-1.222.152-.32.436-.657.85-1.012.576-.487.939-.853 1.09-1.098.15-.246.225-.542.225-.89 0-.43-.139-.764-.416-.999-.277-.235-.676-.352-1.197-.352-.334 0-.66.039-.977.117a5.3 5.3 0 0 0-1.092.429l-.375-.857a5.333 5.333 0 0 1 2.508-.629c.808 0 1.436.2 1.885.597.449.398.673.959.673 1.682 0 .31-.041.581-.124.816a2.395 2.395 0 0 1-.365.666c-.16.21-.508.547-1.041 1.013-.427.364-.71.666-.847.908-.138.24-.207.562-.207.964v.21h-.819zm-.31 1.885c0-.575.253-.863.761-.863.246 0 .435.074.568.222.134.148.2.362.2.641 0 .271-.067.482-.203.632-.135.15-.324.225-.565.225a.772.772 0 0 1-.546-.2c-.144-.133-.216-.352-.216-.657z" fill="#FFF"/></g></svg>