<svg width="47" height="62" viewBox="0 0 47 62" xmlns="http://www.w3.org/2000/svg"><title>6F1D0DF5-C698-451B-9DD5-B52369E4A2D3</title><g fill="none" fill-rule="evenodd"><path d="M0 0h47v7c0 1.657-1.343 3-2.994 3H2.994A3 3 0 0 1 0 7V0zm0 62h47v-7c0-1.657-1.343-3-2.994-3H2.994A3 3 0 0 0 0 55v7z" fill="#D8D8D8"/><path d="M14.009 32.118c-2.044 1.415-3.39 2.773-3.983 4.357-.616 1.642-1.156 3.7-1.63 6.085a92.677 92.677 0 0 0-1.064 6.774 103.918 103.918 0 0 0-.329 3.083 1 1 0 0 0 1.994.166 101.927 101.927 0 0 1 .32-3.008 90.736 90.736 0 0 1 1.04-6.625c.455-2.287.97-4.248 1.542-5.773.413-1.103 1.512-2.213 3.248-3.414.681-.471 2.782-1.78 2.898-1.858.48-.318.792-.561 1.013-.816.495-.571.575-1.366-.122-1.889.191.144-3.032-1.827-4.299-2.837-1.973-1.572-3.313-3.273-3.839-5.135a49.984 49.984 0 0 1-1.575-8.026 39.541 39.541 0 0 1-.196-2.37A18.55 18.55 0 0 1 9 10a1 1 0 1 0-2 0c0 .173.008.488.03.933.037.733.103 1.567.206 2.49.292 2.63.818 5.45 1.637 8.349.658 2.33 2.247 4.345 4.518 6.155.87.694 2.472 1.734 3.474 2.359-.392.247-2.196 1.375-2.856 1.832zm20.034-4.191c2.27-1.81 3.859-3.825 4.517-6.155a51.972 51.972 0 0 0 1.638-8.349 41.53 41.53 0 0 0 .205-2.49c.023-.445.03-.76.03-.933a1 1 0 0 0-2 0c0 .14-.006.422-.027.833a39.541 39.541 0 0 1-.196 2.369 49.984 49.984 0 0 1-1.575 8.026c-.526 1.862-1.866 3.563-3.839 5.135-1.267 1.01-4.49 2.98-4.298 2.837-.698.523-.617 1.318-.123 1.889.22.255.534.498 1.013.816.116.077 2.217 1.387 2.898 1.858 1.736 1.2 2.835 2.31 3.249 3.414.571 1.525 1.086 3.486 1.541 5.773a90.736 90.736 0 0 1 1.04 6.626 101.928 101.928 0 0 1 .32 3.007 1 1 0 0 0 1.994-.166 103.918 103.918 0 0 0-.329-3.083 92.677 92.677 0 0 0-1.063-6.774c-.475-2.385-1.015-4.443-1.63-6.085-.594-1.584-1.94-2.942-3.984-4.357-.66-.457-2.463-1.585-2.856-1.832 1.002-.625 2.604-1.665 3.475-2.359z" fill-rule="nonzero" fill="#CFCFD2"/><path d="M13 49s5-10 11-10 11 10 11 10H13z" fill="#D8D8D8"/></g></svg>