<?xml version="1.0" encoding="UTF-8"?>
<svg width="23px" height="24px" viewBox="0 0 23 24" version="1.1" xmlns="http://www.w3.org/2000/svg" xmlns:xlink="http://www.w3.org/1999/xlink">
    <!-- Generator: sketchtool 41.2 (35397) - http://www.bohemiancoding.com/sketch -->
    <title>EFD19FBE-4F9C-43DE-9AC6-5BE5D510B29E</title>
    <desc>Created with sketchtool.</desc>
    <defs></defs>
    <g id="Designs---Flows" stroke="none" stroke-width="1" fill="none" fill-rule="evenodd">
        <g id="Apply-Payment" transform="translate(-550.000000, -446.000000)" fill="#3EC19D">
            <g id="Group-2" transform="translate(543.000000, 413.000000)">
                <path d="M7.96646899,50.4842333 L7.90859244,50.5999864 L7.87965417,50.7157395 L7.18513564,52.6546037 C6.83787638,53.638505 6.98256774,54.7381593 7.59027145,55.6063075 C8.19797516,56.4744556 9.18187641,56.9664062 10.2236542,56.9664062 L26.7763458,56.9664062 C27.8181236,56.9664062 28.8020248,56.4455174 29.4097285,55.6063075 C30.0174323,54.7381593 30.1621236,53.638505 29.8148644,52.6546037 L29.1203458,50.7157395 L29.0914076,50.5999864 L29.0045927,50.4842333 C28.0496298,48.7189987 26.4290865,47.3588999 24.4902223,46.7801345 L22.8407408,46.2881839 L24.02721,44.4071962 C24.8664198,43.0760357 25.1847408,41.513369 24.9242964,39.9507023 L24.779605,39.0536159 C24.4902223,37.4041344 23.5931359,35.9572208 22.2330371,35.0022578 C21.162321,34.2209244 19.8890371,33.8157886 18.5578765,33.8157886 L18.5578765,33.8157886 C17.1977778,33.8157886 15.837679,34.278801 14.7380246,35.1180109 L14.7380246,35.1180109 C13.5804938,36.0150973 12.7412839,37.2883813 12.4229629,38.7352949 L12.1914567,39.7481344 C11.8152592,41.3686776 12.1335802,43.1339122 13.0306666,44.5229493 L14.1303209,46.2592456 L12.4808394,46.7511962 C10.5419752,47.3588999 8.89249369,48.7189987 7.96646899,50.4842333 Z M15.2589135,47.7640357 C15.9244938,47.5614678 16.3006913,46.838011 16.0691852,46.1724308 C16.0113086,46.0277394 15.9534321,45.9119863 15.8666172,45.7962333 L14.4775802,43.6258629 C13.8119999,42.5840851 13.609432,41.3397394 13.8698765,40.1532702 L14.1013827,39.1404307 C14.3328888,38.0986529 14.9405925,37.1726282 15.7798024,36.5359862 L15.7798024,36.5359862 C16.590074,35.8993442 17.5739753,35.6099615 18.5578765,35.6099615 C19.4839012,35.6099615 20.409926,35.8993442 21.2201976,36.4781097 C22.2040988,37.1726282 22.8696791,38.2433443 23.072247,39.4298134 L23.2169383,40.3268998 C23.4195062,41.4554925 23.1880001,42.5840851 22.5802964,43.539048 L21.1044445,45.8541098 C21.0176297,45.9698629 20.9308148,46.085616 20.9018766,46.2303073 C20.6703704,46.8958876 21.0465679,47.6193444 21.7121482,47.8219123 L23.9982717,48.5164308 C25.5030618,48.9505049 26.7474075,49.9922827 27.4708643,51.3813198 L28.1653829,53.320184 C28.5126421,54.3040852 27.7891853,55.3169247 26.7474075,55.3169247 L10.1947159,55.3169247 C9.15293814,55.3169247 8.42948134,54.3040852 8.7767406,53.320184 L9.47125913,51.3813198 C10.1947159,49.9922827 11.4679999,48.9794432 12.9438518,48.5164308 L15.2589135,47.7640357 Z" id="Shape"></path>
            </g>
        </g>
    </g>
</svg>