<?xml version="1.0" encoding="UTF-8"?>
<svg width="22px" height="19px" viewBox="0 0 22 19" version="1.1" xmlns="http://www.w3.org/2000/svg" xmlns:xlink="http://www.w3.org/1999/xlink">
    <!-- Generator: sketchtool 41.2 (35397) - http://www.bohemiancoding.com/sketch -->
    <title>80BFFDC3-BCAD-4E26-B20F-E5873E8597B7</title>
    <desc>Created with sketchtool.</desc>
    <defs></defs>
    <g id="Designs---Flows" stroke="none" stroke-width="1" fill="none" fill-rule="evenodd">
        <g id="Apply-Payment" transform="translate(-550.000000, -599.000000)" fill="#3EC19D">
            <g id="Group-2" transform="translate(543.000000, 413.000000)">
                <path d="M8.19565278,186.483572 C7.54567234,186.483572 7.00000059,187.036578 7.00000059,187.695347 L7.00000059,203.690794 C7.00000059,204.34954 7.54567234,204.90257 8.19565278,204.90257 L27.8043478,204.90257 C28.4543283,204.90257 29,204.34954 29,203.690794 L29,187.695347 C29,187.036602 28.4543283,186.483572 27.8043478,186.483572 L8.19565278,186.483572 L8.19565278,186.483572 Z M8.43478322,187.937703 L27.5652174,187.937703 L27.5652174,191.815385 L8.43478322,191.815385 L8.43478322,187.937703 L8.43478322,187.937703 Z M12.5000007,188.907123 C11.9717376,188.907123 11.5434789,189.341133 11.5434789,189.876544 C11.5434789,190.411931 11.9717376,190.845965 12.5000007,190.845965 C13.0282637,190.845965 13.4565224,190.411931 13.4565224,189.876544 C13.4565224,189.341133 13.0282637,188.907123 12.5000007,188.907123 Z M23.5000009,188.907123 C22.9717378,188.907123 22.5434791,189.341133 22.5434791,189.876544 C22.5434791,190.411931 22.9717378,190.845965 23.5000009,190.845965 C24.0282639,190.845965 24.4565226,190.411931 24.4565226,189.876544 C24.4565226,189.341133 24.0282639,188.907123 23.5000009,188.907123 Z M8.43478322,193.269517 L27.5652174,193.269517 L27.5652174,203.448439 L8.43478322,203.448439 L8.43478322,193.269517 L8.43478322,193.269517 Z" id="Shape"></path>
            </g>
        </g>
    </g>
</svg>