<?xml version="1.0" encoding="UTF-8"?>
<svg width="18px" height="20px" viewBox="0 0 18 20" version="1.1" xmlns="http://www.w3.org/2000/svg" xmlns:xlink="http://www.w3.org/1999/xlink">
    <!-- Generator: sketchtool 41.2 (35397) - http://www.bohemiancoding.com/sketch -->
    <title>C4287FE8-4A24-4020-A135-D39E036C2C94</title>
    <desc>Created with sketchtool.</desc>
    <defs></defs>
    <g id="Designs---Flows" stroke="none" stroke-width="1" fill="none" fill-rule="evenodd">
        <g id="View-Application-Order-Reports-(m)" transform="translate(-283.000000, -313.000000)" fill="#3EC19D">
            <path d="M298.604483,320.800767 L296.792609,320.800767 L296.792609,316.931502 C296.792609,314.763691 294.616398,313 291.941544,313 C289.26669,313 287.090829,314.763691 287.090829,316.931502 L287.090829,320.800767 L285.279306,320.800767 C284.022532,320.800767 283,321.629469 283,322.64801 L283,330.905757 C283,331.924298 284.022532,332.753 285.279306,332.753 L298.604483,332.753 C299.861257,332.753 300.883789,331.924298 300.883789,330.905757 L300.883789,322.64801 C300.883789,321.629469 299.861257,320.800767 298.604483,320.800767 Z M288.844142,316.931502 C288.844142,315.547207 290.233817,314.420956 291.941544,314.420956 C293.649621,314.420956 295.039297,315.547207 295.039297,316.931502 L295.039297,320.800767 L288.844142,320.800767 L288.844142,316.931502 Z M299.130476,330.905757 C299.130476,331.140783 298.894481,331.332044 298.604483,331.332044 L285.279306,331.332044 C284.989309,331.332044 284.753313,331.140783 284.753313,330.905757 L284.753313,322.64801 C284.753313,322.412984 284.989309,322.221723 285.279306,322.221723 L298.604483,322.221723 C298.894481,322.221723 299.130476,322.412984 299.130476,322.64801 L299.130476,330.905757 Z M292.246878,324.274437 C291.514517,324.274437 290.920557,324.868397 290.920557,325.601042 C290.920557,326.040117 291.136543,326.426049 291.465352,326.667612 L291.465352,328.714358 C291.465352,329.146328 291.815191,329.495884 292.246878,329.495884 C292.678565,329.495884 293.028404,329.146328 293.028404,328.714358 L293.028404,326.667612 C293.357213,326.426049 293.573199,326.040117 293.573199,325.601042 C293.573199,324.868397 292.979239,324.274437 292.246878,324.274437 Z" id="Shape"></path>
        </g>
    </g>
</svg>