<svg xmlns="http://www.w3.org/2000/svg" width="109" height="181" viewBox="0 0 109 181">
    <g fill="none" fill-rule="evenodd">
        <g transform="translate(0 58)">
            <path fill="#9DB4E3" fill-rule="nonzero" d="M5 118h99V5H5v113zM0 3.502A3.496 3.496 0 0 1 3.496 0h102.008A3.5 3.5 0 0 1 109 3.502v115.996a3.496 3.496 0 0 1-3.496 3.502H3.496A3.5 3.5 0 0 1 0 119.498V3.502z" opacity=".782"/>
            <rect width="64.946" height="5" x="16" y="61" fill="#9DB4E3" opacity=".5" rx="1.4"/>
            <rect width="81.182" height="5" x="16" y="92" fill="#9DB4E3" opacity=".5" rx="1.4"/>
            <rect width="81.182" height="5" x="16" y="71" fill="#9DB4E3" opacity=".5" rx="1.4"/>
            <rect width="56.827" height="5" x="16" y="102" fill="#9DB4E3" opacity=".5" rx="1.4"/>
            <rect width="56.827" height="5" x="16" y="51" fill="#9DB4E3" rx="1.4"/>
            <rect width="56.827" height="5" x="16" y="82" fill="#9DB4E3" rx="1.4"/>
            <path fill="#CED9F1" fill-rule="nonzero" d="M62.448 26.262c6.013 7.396 12.81 7.396 19.03.028a2 2 0 1 0-3.056-2.58c-4.614 5.465-8.45 5.465-12.87.028a2 2 0 0 0-3.104 2.524zM27.448 26.262c6.013 7.396 12.81 7.396 19.03.028a2 2 0 1 0-3.056-2.58c-4.614 5.465-8.45 5.465-12.87.028a2 2 0 0 0-3.104 2.524zM49 41h10.633a2 2 0 1 0 0-4H49a2 2 0 1 0 0 4z"/>
        </g>
        <g fill="#9DB4E3" fill-opacity=".486">
            <path d="M72.021 51.69l4.329-2.933-2.77-.794c-.193-.056-.327-.14-.401-.254a.443.443 0 0 1-.051-.38.474.474 0 0 1 .249-.311c.124-.062.283-.065.477-.01l3.57 1.024c.462.133.631.414.508.845-.06.206-.145.359-.257.46-.112.1-.324.254-.637.46l-4.042 2.723 3.322.952c.197.057.332.14.406.249.073.109.09.236.048.382a.481.481 0 0 1-.249.318c-.122.06-.282.062-.479.006l-4.074-1.169c-.277-.079-.468-.2-.572-.365a.66.66 0 0 1-.067-.559.57.57 0 0 1 .091-.187.75.75 0 0 1 .14-.142c.054-.042.127-.094.219-.156l.24-.16zM72.106 38.495l7.274-1.964-3.4-2.382c-.24-.166-.382-.345-.43-.534a.64.64 0 0 1 .11-.543.683.683 0 0 1 .485-.306c.198-.026.417.044.655.211l4.384 3.07c.567.397.666.86.295 1.39-.176.252-.365.42-.565.505-.2.084-.561.194-1.084.33l-6.785 1.813 4.079 2.856c.242.17.387.346.436.53.05.182.012.363-.114.542-.13.186-.292.291-.487.317-.196.025-.414-.047-.656-.217L71.3 40.61c-.34-.238-.542-.494-.607-.766-.065-.273-.008-.537.17-.793a.823.823 0 0 1 .212-.213c.08-.054.166-.096.259-.128.092-.032.216-.068.37-.11l.403-.105zM83 30.608l8.6-4.79-5.063-1.943c-.355-.136-.593-.317-.712-.543a.835.835 0 0 1-.033-.722.892.892 0 0 1 .518-.542c.243-.095.542-.074.896.062l6.528 2.505c.845.325 1.116.881.814 1.669-.144.375-.33.648-.557.819-.227.17-.65.423-1.27.76l-8.028 4.443 6.073 2.332c.36.138.6.315.72.532.121.217.13.458.028.724-.106.277-.279.462-.518.556-.24.093-.54.071-.9-.067l-7.45-2.86c-.506-.194-.844-.454-1.012-.78-.169-.324-.18-.677-.034-1.058.05-.13.117-.242.201-.336.084-.094.18-.175.287-.245.108-.07.253-.154.435-.255l.477-.261zM86.585 11.486L98.59 9.774l-4.966-4.47c-.348-.314-.54-.626-.58-.939a1.029 1.029 0 0 1 .282-.845c.235-.26.513-.392.835-.394.322-.003.656.153 1.004.466l6.4 5.763c.83.747.896 1.506.2 2.279-.331.368-.665.6-1.001.696-.337.095-.936.2-1.797.313L87.773 14.21l5.956 5.362c.353.318.55.628.593.93.043.303-.053.584-.288.845-.245.271-.525.408-.842.41-.316.002-.651-.156-1.004-.474l-7.306-6.578c-.497-.447-.77-.895-.82-1.343-.05-.448.092-.86.429-1.233.115-.128.241-.227.379-.297a1.74 1.74 0 0 1 .438-.155 9.34 9.34 0 0 1 .612-.102l.665-.09z"/>
        </g>
    </g>
</svg>
