<?xml version="1.0" encoding="UTF-8"?>
<svg width="60px" height="60px" viewBox="0 0 60 60" version="1.1" xmlns="http://www.w3.org/2000/svg" xmlns:xlink="http://www.w3.org/1999/xlink">
    <!-- Generator: sketchtool 42 (36781) - http://www.bohemiancoding.com/sketch -->
    <title>9D3387DA-7905-4C46-994A-035EAB393E8D</title>
    <desc>Created with sketchtool.</desc>
    <defs></defs>
    <g id="onboarding" stroke="none" stroke-width="1" fill="none" fill-rule="evenodd">
        <g id="Initial-Onboarding-2" transform="translate(-383.000000, -198.000000)" fill="#FFFFFF">
            <g id="tip-(lightbulb)-copy" transform="translate(383.000000, 198.000000)">
                <path d="M27.2727273,36.8181818 C27.2727273,35.4945672 27.304669,35.5472035 24.4236362,31.3862037 C22.6688178,28.8517657 21.8526514,27.0969794 21.8180668,25.2147469 C21.7393993,20.9333584 25.2377059,17.7272727 29.6584355,17.7272727 C34.629459,17.7272727 37.5298353,20.8296614 37.5000157,25.2226446 C37.4968171,25.6938552 37.429443,26.1879194 37.3003001,26.7089304 C36.9789425,28.0054075 36.3587486,29.2922974 35.2079497,31.2472322 C32.944215,35.0927814 32.7272727,35.5203636 32.7272727,36.8181818 L34.0909091,36.8181818 C34.0909091,35.9018476 34.3443028,35.4024215 36.3830945,31.9389972 C37.5968397,29.8771315 38.2620198,28.4968963 38.6238824,27.0370066 C38.777827,26.4159362 38.8596567,25.8158673 38.8636207,25.2319008 C38.8984555,20.1000836 35.4053074,16.3636364 29.6584355,16.3636364 C24.5052667,16.3636364 20.3613486,20.1614043 20.4546605,25.2397985 C20.4955776,27.4666617 21.4049838,29.4219169 23.302508,32.1624612 C25.8441008,35.8332167 25.9090909,35.9403129 25.9090909,36.8181818 L27.2727273,36.8181818 Z" id="Path-12" fill-rule="nonzero"></path>
                <path d="M33.4090909,37.5 L33.4090909,40.6266726 L31.081218,42.9545455 L28.918782,42.9545455 L26.5909091,40.6266726 L26.5909091,37.5 L33.4090909,37.5 Z M34.7727273,36.1363636 L25.2272727,36.1363636 L25.2272727,41.1915092 L28.3539453,44.3181818 L31.6460547,44.3181818 L34.7727273,41.1915092 L34.7727273,36.1363636 Z M25.9090909,41.5909091 L34.0909091,41.5909091 L34.0909091,40.2272727 L25.9090909,40.2272727 L25.9090909,41.5909091 Z" id="Path-13" fill-rule="nonzero"></path>
                <circle id="Oval-7" cx="42.2727273" cy="34.0909091" r="1.36363636"></circle>
                <ellipse id="Oval-7-Copy" cx="45" cy="25.9090909" rx="1.36363636" ry="1.36363636"></ellipse>
                <ellipse id="Oval-7-Copy-2" cx="42.2727273" cy="19.0909091" rx="1.36363636" ry="1.36363636"></ellipse>
                <circle id="Oval-7" transform="translate(17.727273, 34.090909) scale(-1, 1) translate(-17.727273, -34.090909) " cx="17.7272727" cy="34.0909091" r="1.36363636"></circle>
                <ellipse id="Oval-7-Copy" transform="translate(15.000000, 25.909091) scale(-1, 1) translate(-15.000000, -25.909091) " cx="15" cy="25.9090909" rx="1.36363636" ry="1.36363636"></ellipse>
                <ellipse id="Oval-7-Copy-2" transform="translate(17.727273, 19.090909) scale(-1, 1) translate(-17.727273, -19.090909) " cx="17.7272727" cy="19.0909091" rx="1.36363636" ry="1.36363636"></ellipse>
                <path d="M30,59.6590909 C46.3802636,59.6590909 59.6590909,46.3802636 59.6590909,30 C59.6590909,13.6197364 46.3802636,0.340909091 30,0.340909091 C13.6197364,0.340909091 0.340909091,13.6197364 0.340909091,30 C0.340909091,46.3802636 13.6197364,59.6590909 30,59.6590909 Z M30,57.6136364 C14.7494097,57.6136364 2.38636364,45.2505903 2.38636364,30 C2.38636364,14.7494097 14.7494097,2.38636364 30,2.38636364 C45.2505903,2.38636364 57.6136364,14.7494097 57.6136364,30 C57.6136364,45.2505903 45.2505903,57.6136364 30,57.6136364 Z" id="Oval-8" fill-rule="nonzero"></path>
            </g>
        </g>
    </g>
</svg>