<?xml version="1.0" encoding="UTF-8" standalone="no"?>
<svg width="11px" height="11px" viewBox="0 0 11 11" version="1.1" xmlns="http://www.w3.org/2000/svg" xmlns:xlink="http://www.w3.org/1999/xlink">
    <!-- Generator: sketchtool 41.2 (35397) - http://www.bohemiancoding.com/sketch -->
    <title>C721FDF2-A4E2-4B42-9D1B-28C729AFCF92</title>
    <desc>Created with sketchtool.</desc>
    <defs></defs>
    <g id="Design" stroke="none" stroke-width="1" fill="none" fill-rule="evenodd">
        <g id="Dash-Forms-Send" transform="translate(-40.000000, -165.000000)" fill="#3EC19D">
            <g id="noun_709935_cc" transform="translate(40.000000, 165.000000)">
                <g id="link">
                    <path d="M10.25955,0.738646947 C9.33458322,-0.186319816 7.82913819,-0.186319816 6.90417143,0.738646947 L4.26282358,3.37979276 C3.33785681,4.30496156 3.33785681,5.81020455 4.26282358,6.73537336 C4.36142204,6.83397182 4.49073151,6.88327106 4.62004097,6.88327106 C4.74935044,6.88327106 4.87845785,6.83397182 4.97725837,6.73537336 C5.17465735,6.53817642 5.17465735,6.21833754 4.97725837,6.02114061 C4.44607933,5.48975953 4.44607933,4.62540658 4.97725837,4.0940255 L7.61840418,1.45287969 C8.14978526,0.921700657 9.01413821,0.921700657 9.54531724,1.45287969 C9.80272389,1.71028634 9.94456021,2.05255233 9.94456021,2.41643725 C9.94456021,2.78052421 9.80272389,3.12258815 9.54531724,3.3799948 L8.45790546,4.46760862 C8.26070853,4.6650076 8.26070853,4.98484648 8.45790546,5.18184137 C8.65530444,5.37924035 8.97494127,5.37924035 9.17234025,5.18184137 L10.259752,4.09422755 C10.7078901,3.64608943 10.9547904,3.05025567 10.9547904,2.41643725 C10.9547904,1.78261883 10.7076881,1.18678506 10.25955,0.738646947 Z" id="Shape"></path>
                    <path d="M6.04951669,4.2344475 C5.85211771,4.43164443 5.85211771,4.75148331 6.04951669,4.94868024 C6.30692334,5.20608689 6.44875966,5.54835288 6.44875966,5.9122378 C6.44875966,6.27632476 6.30692334,6.6183887 6.04951669,6.87579535 L3.40837088,9.51694116 C2.87719185,10.0481202 2.0128389,10.0481202 1.48145782,9.51694116 C0.950278782,8.98556008 0.950278782,8.12120713 1.48145782,7.58982605 L2.56907164,6.50221223 C2.76647062,6.30481325 2.76647062,5.98517642 2.56907164,5.78797948 C2.37187471,5.5905805 2.05183378,5.5905805 1.85483889,5.78797948 L0.767225072,6.87559331 C-0.157741691,7.80076211 -0.157741691,9.3060051 0.767225072,10.2311739 C1.22970845,10.6936573 1.83726089,10.925 2.44501537,10.925 C3.05276985,10.925 3.66032229,10.6936573 4.12280567,10.2311739 L6.76395148,7.58982605 C7.21208959,7.14168794 7.45898985,6.54585417 7.45898985,5.91203575 C7.45898985,5.27821733 7.21208959,4.68238356 6.76415353,4.23424545 C6.5665525,4.03684647 6.24671362,4.03684647 6.04951669,4.2344475 Z" id="Shape"></path>
                </g>
            </g>
        </g>
    </g>
</svg>