<svg width="26" height="26" viewBox="0 0 26 26" xmlns="http://www.w3.org/2000/svg"><title>0720014B-7FFF-4937-9F85-52F1616B8A7B</title><g fill="#FFFFFF" fill-rule="evenodd"><path d="M12.757 25.75C5.846 25.75.25 20.038.25 13S5.846.25 12.757.25c6.91 0 12.506 5.712 12.506 12.75s-5.595 12.75-12.506 12.75zm0-1.5c6.075 0 11.006-5.033 11.006-11.25S18.833 1.75 12.757 1.75C6.68 1.75 1.75 6.783 1.75 13s4.931 11.25 11.007 11.25z" fill-rule="nonzero"/><path d="M13.5 12V7H12v5H7v1.5h5V19h1.5v-5.5H19V12h-5.5z"/></g></svg>