<?xml version="1.0" encoding="UTF-8"?>
<svg width="79px" height="80px" viewBox="0 0 79 80" version="1.1" xmlns="http://www.w3.org/2000/svg" xmlns:xlink="http://www.w3.org/1999/xlink">
    <!-- Generator: sketchtool 42 (36781) - http://www.bohemiancoding.com/sketch -->
    <title>ED3D1FC3-5D9A-4F75-A1C0-D31BA4881DBF</title>
    <desc>Created with sketchtool.</desc>
    <defs></defs>
    <g id="Customer-Service-Walkthrough" stroke="none" stroke-width="1" fill="none" fill-rule="evenodd">
        <g id="CSWalkthrough-1-(m)" transform="translate(-134.000000, -26.000000)" fill-rule="nonzero" fill="#9DB4E3">
            <g id="noun_688691_cc" transform="translate(134.000000, 26.000000)">
                <g id="Group">
                    <path d="M70.7010101,37.2 C70.2222222,35.76 69.1050505,34.64 67.6686869,34.16 L67.6686869,28.56 C67.5888889,12.8 54.8212121,0 39.1808081,0 C23.540404,0 10.7727273,12.8 10.7727273,28.48 L10.7727273,34.08 C9.33636364,34.56 8.21919192,35.68 7.74040404,37.12 C3.35151515,37.76 0,41.52 0,46.08 L0,50.56 C0,55.12 3.35151515,58.88 7.74040404,59.52 C8.45858586,61.52 10.2939394,62.88 12.4484848,62.88 C15.2414141,62.88 17.4757576,60.64 17.4757576,57.84 L17.4757576,38.64 C17.4757576,37.36 16.9969697,36.16 16.1191919,35.28 C15.5606061,34.64 14.8424242,34.16 14.0444444,33.92 L14.0444444,28.32 C14.0444444,14.48 25.2959596,3.12 39.1808081,3.12 C52.9858586,3.12 64.3171717,14.4 64.3171717,28.32 L64.3171717,33.92 C63.5191919,34.24 62.8010101,34.64 62.2424242,35.28 C61.4444444,36.16 60.8858586,37.36 60.8858586,38.64 L60.8858586,57.84 C60.8858586,60 62.2424242,61.84 64.1575758,62.56 L64.1575758,62.56 C63.4393939,68.96 58.0929293,73.92 51.469697,73.92 L49.7141414,73.92 L47.6393939,73.92 L47.559596,73.92 C46.9212121,72.48 45.4848485,71.44 43.8090909,71.44 L35.510101,71.44 C33.1959596,71.44 31.3606061,73.28 31.3606061,75.6 C31.3606061,77.92 33.1959596,79.76 35.510101,79.76 L43.8090909,79.76 C45.4848485,79.76 46.9212121,78.72 47.559596,77.28 L47.6393939,77.28 L51.469697,77.28 C59.8484848,77.28 66.7909091,70.8 67.4292929,62.56 C68.8656566,62.08 70.0626263,60.96 70.5414141,59.44 C74.930303,58.8 78.2818182,55.04 78.2818182,50.48 L78.2818182,46 C78.4414141,41.68 75.010101,37.84 70.7010101,37.2 Z M75.089899,50.72 C75.089899,53.36 73.3343434,55.52 71.020202,56.24 L71.020202,40.64 C73.4141414,41.36 75.089899,43.6 75.089899,46.16 L75.089899,50.72 Z M67.6686869,38.88 L67.6686869,58.08 C67.6686869,59.04 66.8707071,59.76 65.9929293,59.76 C65.1151515,59.76 64.3171717,58.96 64.3171717,58.08 L64.3171717,38.88 C64.3171717,37.92 65.1151515,37.2 65.9929293,37.2 C66.8707071,37.2 67.6686869,37.92 67.6686869,38.88 Z M14.1242424,38.88 L14.1242424,58.08 C14.1242424,59.04 13.3262626,59.76 12.4484848,59.76 C11.5707071,59.76 10.7727273,58.96 10.7727273,58.08 L10.7727273,38.88 C10.7727273,37.92 11.5707071,37.2 12.4484848,37.2 C13.3262626,37.2 14.1242424,37.92 14.1242424,38.88 Z M3.27171717,46.24 C3.27171717,43.6 5.02727273,41.44 7.34141414,40.72 L7.34141414,56.32 C4.94747475,55.6 3.27171717,53.36 3.27171717,50.8 L3.27171717,46.24 L3.27171717,46.24 Z M43.8090909,76.64 L35.510101,76.64 C35.0313131,76.64 34.7121212,76.24 34.7121212,75.84 C34.7121212,75.36 35.1111111,75.04 35.510101,75.04 L43.8090909,75.04 C44.2878788,75.04 44.6070707,75.44 44.6070707,75.84 C44.6070707,76.32 44.2878788,76.64 43.8090909,76.64 Z" id="Shape"></path>
                </g>
            </g>
        </g>
    </g>
</svg>