<?xml version="1.0" encoding="UTF-8"?>
<svg width="102px" height="91px" viewBox="0 0 102 91" version="1.1" xmlns="http://www.w3.org/2000/svg" xmlns:xlink="http://www.w3.org/1999/xlink">
    <!-- Generator: sketchtool 42 (36781) - http://www.bohemiancoding.com/sketch -->
    <title>AC4DC02D-C508-4BD8-8C0A-D09E3165C849</title>
    <desc>Created with sketchtool.</desc>
    <defs></defs>
    <g id="Customer-Service-Walkthrough" stroke="none" stroke-width="1" fill="none" fill-rule="evenodd">
        <g id="CSWalkthrough-4" transform="translate(-276.000000, -46.000000)" fill="#9DB4E3">
            <g id="noun_855461_cc" transform="translate(276.000000, 46.000000)">
                <g id="Group">
                    <path d="M29.7499959,0 C26.2550084,0 23.3749959,2.86819387 23.3749959,6.34883721 L23.3749959,8.46511628 L8.49999595,8.46511628 C3.8307547,8.46511628 -4.05311584e-06,12.2801527 -4.05311584e-06,16.9302326 L-4.05311584e-06,82.5348837 C-4.05311584e-06,87.1849626 3.8307547,91 8.49999595,91 L93.4999959,91 C98.1692372,91 101.999996,87.1849626 101.999996,82.5348837 L101.999996,16.9302326 C101.999996,12.2801527 98.1692372,8.46511628 93.4999959,8.46511628 L78.6249959,8.46511628 L78.6249959,6.34883721 C78.6249959,2.86819387 75.7449834,0 72.2499959,0 C68.7550084,0 65.8749959,2.86819387 65.8749959,6.34883721 L65.8749959,8.46511628 L36.1249959,8.46511628 L36.1249959,6.34883721 C36.1249959,2.86819387 33.2449834,0 29.7499959,0 Z M29.7499959,4.23255814 C30.9640084,4.23255814 31.8749959,5.13980698 31.8749959,6.34883721 L31.8749959,14.8139535 C31.8749959,16.0229848 30.9640084,16.9302326 29.7499959,16.9302326 C28.5359834,16.9302326 27.6249959,16.0229848 27.6249959,14.8139535 L27.6249959,6.34883721 C27.6249959,5.13980698 28.5359834,4.23255814 29.7499959,4.23255814 Z M72.2499959,4.23255814 C73.4640084,4.23255814 74.3749959,5.13980698 74.3749959,6.34883721 L74.3749959,14.8139535 C74.3749959,16.0229848 73.4640084,16.9302326 72.2499959,16.9302326 C71.0359834,16.9302326 70.1249959,16.0229848 70.1249959,14.8139535 L70.1249959,6.34883721 C70.1249959,5.13980698 71.0359834,4.23255814 72.2499959,4.23255814 Z M8.49999595,12.6976744 L23.3749959,12.6976744 L23.3749959,14.8139535 C23.3749959,18.2945998 26.2550084,21.1627907 29.7499959,21.1627907 C33.2449834,21.1627907 36.1249959,18.2945998 36.1249959,14.8139535 L36.1249959,12.6976744 L65.8749959,12.6976744 L65.8749959,14.8139535 C65.8749959,18.2945998 68.7550084,21.1627907 72.2499959,21.1627907 C75.7449834,21.1627907 78.6249959,18.2945998 78.6249959,14.8139535 L78.6249959,12.6976744 L93.4999959,12.6976744 C95.8723672,12.6976744 97.7499959,14.5675964 97.7499959,16.9302326 L97.7499959,27.5116279 L4.24999595,27.5116279 L4.24999595,16.9302326 C4.24999595,14.5675964 6.1276247,12.6976744 8.49999595,12.6976744 Z M4.24999595,31.744186 L97.7499959,31.744186 L97.7499959,82.5348837 C97.7499959,84.8975188 95.8723672,86.7674419 93.4999959,86.7674419 L8.49999595,86.7674419 C6.1276247,86.7674419 4.24999595,84.8975188 4.24999595,82.5348837 L4.24999595,31.744186 Z M65.3894824,42.0012899 C64.5800392,42.0281418 63.8255665,42.4676207 63.3403521,43.1958737 L49.0016198,64.6750495 L40.4990217,57.5133829 C39.3244991,56.5246965 37.6587328,56.7934898 36.7794611,58.1135882 C35.8992863,59.4329109 36.1385787,61.3040398 37.3137918,62.2917119 L47.9381483,71.2423406 C49.112724,72.230848 50.7783575,71.9620845 51.6577089,70.6421353 L67.5942435,46.773792 C68.4744183,45.4544693 68.2351259,43.5833404 67.0599128,42.5956684 C66.5789747,42.1909806 65.9901304,41.9814494 65.3894824,42.0012899 Z" id="Shape"></path>
                </g>
            </g>
        </g>
    </g>
</svg>