<svg width="45" height="45" viewBox="0 0 45 45" xmlns="http://www.w3.org/2000/svg"><title>89C72CF1-0D07-455A-B899-787B1B07BF6B</title><path d="M37.264 38.13A21.44 21.44 0 0 0 44 22.5C44 10.626 34.374 1 22.5 1S1 10.626 1 22.5a21.44 21.44 0 0 0 6.736 15.63c.387-.32.827-.607 1.327-.849 5.106-2.419 9.406-3.493 9.406-8.062v-.403c-1.344-.941-1.747-2.285-2.822-4.972 0 0-3.763-4.166-1.075-4.435 0 0-1.344-7.793 2.553-7.793 0 0 .806-3.897 5.912-3.897 4.57 0 5.644 4.703 7.257 5.644.268.134.537.537.403.806-.269 1.075-.806 3.494-.403 5.24 2.822.27-1.21 4.435-1.21 4.435-1.075 2.687-1.209 3.897-2.553 4.972v.403c0 4.569 4.3 5.643 9.407 8.062.5.242.94.528 1.326.848zM22.5 44C34.374 44 44 34.374 44 22.5S34.374 1 22.5 1 1 10.626 1 22.5 10.626 44 22.5 44z" stroke="#FFF" stroke-width="2" fill="#FFF" fill-rule="evenodd"/></svg>