<svg width="17" height="26" viewBox="0 0 17 26" xmlns="http://www.w3.org/2000/svg"><title>0AEF6E81-B299-4A68-AD39-E9029D68E306</title><g fill="#898989"><path d="M8.148.37C6.237.37 0 .985 0 8.887c0 7.858 7.462 15.05 7.78 15.352a.533.533 0 0 0 .368.147.533.533 0 0 0 .37-.147c.317-.302 7.779-7.494 7.779-15.352 0-6.737-5.33-8.517-8.149-8.517zm0 22.768c-1.506-1.56-7.094-7.786-7.094-14.251 0-6.764 4.961-7.495 7.094-7.495 2.635 0 7.095 1.579 7.095 7.495 0 6.458-5.59 12.69-7.095 14.251z"/><path d="M7.96 4.352C5.777 4.352 4 6.075 4 8.192c0 2.119 1.777 3.842 3.96 3.842a4.048 4.048 0 0 0 2.022-.542l.002-.001.001-.001a3.99 3.99 0 0 0 .992-.811l.067-.079.002-.002c.564-.68.875-1.534.875-2.405 0-2.118-1.777-3.841-3.96-3.841zm2.897 4.082c-.002.026-.007.051-.01.078-.006.053-.012.106-.021.158-.01.06-.025.12-.04.18l-.01.051c-.1.37-.278.717-.528 1.026l-.02.028-.053.061c-.092.104-.192.2-.298.29l-.025.023a2.964 2.964 0 0 1-.327.232l-.045.029a.544.544 0 0 0-.085.047c-.06.034-.122.062-.185.091-.049.023-.097.048-.146.068-.07.028-.141.05-.213.072-.048.015-.096.034-.145.046-.08.021-.162.035-.244.049-.042.007-.083.018-.125.024a2.96 2.96 0 0 1-.377.025c-1.602 0-2.907-1.265-2.907-2.82 0-1.554 1.305-2.818 2.907-2.818 1.603 0 2.907 1.264 2.907 2.819a2.8 2.8 0 0 1-.01.24z"/></g></svg>