<svg width="17" height="23" viewBox="0 0 17 23" xmlns="http://www.w3.org/2000/svg"><title>1F77EAB2-98A1-4FB9-8D17-0846D95ACA2D</title><path d="M8.394.81a.603.603 0 0 0-.538.611v3.013h-.907a.604.604 0 0 0-.595.48l-.519 2.533H4.778a.603.603 0 0 0-.548.603v4.82H.604a.604.604 0 0 0-.604.603v8.437c0 .333.27.602.604.602h15.712c.333 0 .604-.27.604-.602V11.063a.604.604 0 0 0-.604-.603H12.69V8.05a.604.604 0 0 0-.604-.603h-1.001l-.52-2.533a.604.604 0 0 0-.594-.48h-.907V1.421a.602.602 0 0 0-.67-.612zM7.44 5.64h2.04l.368 1.807H7.072L7.44 5.64zm-2 3.011h6.042v12.656H5.44V8.652zm7.251 3.014h3.021v9.641H12.69v-9.641zM1.21 14.075h3.02v7.231H1.209v-7.231z" fill="#898989"/></svg>