<svg width="21" height="16" viewBox="0 0 21 16" xmlns="http://www.w3.org/2000/svg"><title>51E5A2A0-A474-45A1-9F19-5A9564F21EAF</title><path d="M1.488.972C.678.972 0 1.663 0 2.517v11.326c0 .854.678 1.545 1.488 1.545h18.024c.81 0 1.488-.69 1.488-1.545V2.517c0-.854-.678-1.545-1.488-1.545H1.488zm.252 1.03h17.52l-8.333 7.851c-.207.196-.647.196-.854 0L1.74 2.002zm-.763.66l6.097 5.743-6.097 5.326V2.66zm19.046 0V13.73l-6.097-5.326 6.097-5.743zM7.814 9.105l1.61 1.513c.61.575 1.541.575 2.152 0l1.61-1.513 6.02 5.253H1.794l6.021-5.253z" fill="#898989"/></svg>