<svg width="21" height="24" viewBox="0 0 21 24" xmlns="http://www.w3.org/2000/svg"><title>3058E153-9BB3-45D2-9C00-5E95099DB8FF</title><path d="M20.32 23.299l-.18.18H.6l-.182-.18c-.275-.274-.414-.585-.412-.93-.114-1.478 1.4-3.397 3.764-4.536 3.067-1.446 3.74-2.151 3.753-4.223-.382-.331-.659-.742-.931-1.332-.092-.2-.184-.419-.308-.727l-.306-.771a9.214 9.214 0 0 1-.561-.716 6.053 6.053 0 0 1-.375-.596c-.235-.433-.358-.818-.321-1.185a1.02 1.02 0 0 1 .491-.796 10.193 10.193 0 0 1-.043-1.87c.115-1.484.639-2.536 1.732-2.762.122-.294.314-.623.598-.952C8.223 1.068 9.31.57 10.781.57c1.488 0 2.5.672 3.426 1.919.097.13.724 1.049.872 1.22.085.099.154.16.168.17.42.21.728.73.546 1.21-.218.877-.333 1.687-.275 2.323.372.16.61.464.646.88.033.374-.104.76-.36 1.196-.112.19-.247.387-.399.588a9.536 9.536 0 0 1-.6.714c-.174.445-.504 1.349-.565 1.498-.23.571-.465.96-.822 1.303.01 2.098.667 2.802 3.726 4.245 2.315 1.114 3.693 2.996 3.59 4.512-.005.38-.144.683-.413.952zM14.14 4.51c-.202-.233-.869-1.209-.93-1.29-.715-.963-1.4-1.418-2.43-1.418-1.108 0-1.854.341-2.342.905-.286.33-.426.657-.464.843l-.102.491h-.505c-.555 0-.876.553-.963 1.67-.04.522-.02 1.09.04 1.643.023.209.045.364.06.445l.112.652-.644.064c.026.09.08.217.16.366.08.147.181.307.299.474.204.29.41.539.542.684l.116.184.346.87c.116.29.201.493.283.67.247.534.457.816.78 1.041l.264.184v.553c0 2.709-.976 3.761-4.457 5.403-1.896.913-3.069 2.36-3.065 3.301H19.5c.05-.955-1.009-2.393-2.89-3.299-3.464-1.633-4.431-2.689-4.431-5.405v-.528l.232-.185c.308-.245.476-.497.68-1.002.055-.138.441-1.193.606-1.603l.13-.2c.144-.147.367-.4.59-.692.124-.165.232-.323.318-.469.082-.14.138-.26.168-.345l-.436-.042-.1-.433c-.208-.894-.09-1.953.196-3.14-.148-.102-.285-.231-.424-.392z" fill-rule="nonzero" fill="#898989"/></svg>