<svg width="23" height="22" viewBox="0 0 23 22" xmlns="http://www.w3.org/2000/svg"><title>D5E2FD27-FD79-4497-863D-560400D464B1</title><g fill-rule="nonzero" fill="#898989"><path d="M22.508 5.55c-1.278-2.541-1.623-3.064-1.807-3.251-.432-.436-3.321-1.128-9.238-1.128-5.914 0-8.803.692-9.235 1.129-.109.11-.362.369-1.808 3.25-.518 1.038-.495 1.446-.263 1.876.014.026.028.051.036.07.122.316.294.676.631 1.367.403.823.863.927 1.344.934h2.16l-1.51 3.843a1.37 1.37 0 0 0 .024 1.058.856.856 0 0 0-.512.785v3.526c0 .472.38.855.846.855h1.847l.18.515h2.684l.179-.515h6.801l.175.515h2.688l.178-.515h1.844a.853.853 0 0 0 .848-.855v-3.526a.855.855 0 0 0-.512-.784 1.365 1.365 0 0 0 .025-1.058l-1.51-3.844h2.187c.447 0 .915-.115 1.315-.932.353-.715.513-1.06.632-1.364.011-.029.026-.054.04-.08.228-.431.25-.839-.269-1.872zM2.144 8.918c-.215-.001-.323 0-.54-.444a28.339 28.339 0 0 1-.517-1.092h4.189l-.604 1.536H2.144zM19.73 18.986H3.199v-3.48h16.532v3.48zm-.427-5.02a.48.48 0 0 1-.444.66v.002H4.07v-.002a.48.48 0 0 1-.444-.661l3.091-7.87c.19-.513.647-1.066 1.198-1.066h7.1c.552 0 1.008.553 1.201 1.074l3.088 7.862zm2.023-5.492c-.219.446-.346.444-.565.445h-2.505l-.59-1.502h4.162c-.105.24-.253.551-.502 1.057zm-4.005-1.935l-.295-.752c-.302-.814-1.041-1.636-2.012-1.636h-7.1c-.97 0-1.71.822-2.009 1.628l-.311.793H.927a4.56 4.56 0 0 1 .269-.625c1.21-2.415 1.55-2.913 1.636-3.014.313-.189 2.684-.883 8.631-.883 5.951 0 8.322.694 8.635.883.114.133.478.714 1.635 3.014.13.259.21.449.26.592h-4.671z"/><path d="M11.45 14.012A3.442 3.442 0 0 1 8 10.578a3.442 3.442 0 0 1 3.45-3.434 3.442 3.442 0 0 1 3.45 3.434 3.442 3.442 0 0 1-3.45 3.434zm0-.718a2.723 2.723 0 0 0 2.73-2.716c0-1.5-1.223-2.717-2.73-2.717a2.723 2.723 0 0 0-2.73 2.717c0 1.5 1.223 2.716 2.73 2.716z"/></g></svg>