<?xml version="1.0" encoding="UTF-8"?>
<svg width="70px" height="70px" viewBox="0 0 70 70" version="1.1" xmlns="http://www.w3.org/2000/svg" xmlns:xlink="http://www.w3.org/1999/xlink">
    <!-- Generator: sketchtool 42 (36781) - http://www.bohemiancoding.com/sketch -->
    <title>8A97AAEF-B8F3-421B-B605-8B5739DF9030</title>
    <desc>Created with sketchtool.</desc>
    <defs></defs>
    <g id="onboarding-v.2" stroke="none" stroke-width="1" fill="none" fill-rule="evenodd">
        <g id="Initial-Onboarding-1" transform="translate(-710.000000, -259.000000)">
            <g id="tooltip-copy-3" transform="translate(460.000000, 218.000000)">
                <g id="rent-app-logo-copy" transform="translate(250.000000, 41.000000)">
                    <path d="M34.9357143,69.7654762 C53.3545238,70.2930952 69.6038095,54.3738095 69.8461905,35.4669048 C70.092619,16.2245238 53.9380952,0.675714286 36.1109524,0.150952381 C16.1830952,-0.435714286 0.310952381,16.33 0.125714286,34.5278571 C-0.0754761905,54.3078571 16.7564286,70.2988095 34.9357143,69.7654762 Z" id="Shape" fill="#FFFFFF"></path>
                    <path d="M34.9357143,69.7654762 C16.7564286,70.2988095 -0.0757142857,54.3078571 0.12547619,34.5278571 C0.310714286,16.33 16.1828571,-0.435714286 36.1107143,0.150952381 C53.9378571,0.675714286 70.092619,16.2245238 69.8459524,35.4669048 C69.6040476,54.3738095 53.3547619,70.2928571 34.9357143,69.7654762 Z M34.9911905,67.9635714 C53.1369048,67.9638095 67.6807143,53.4135714 67.9002381,35.4564286 C68.1283333,16.7830952 52.7740476,2.11047619 35.117381,2.05857143 C17.2445238,2.00595238 2.36809524,16.6616667 2.08238095,34.4942857 C1.79190476,52.6461905 16.5809524,68.1790476 34.9911905,67.9635714 Z" id="Shape" fill="#08AEEB"></path>
                    <path d="M34.9911905,67.9635714 C16.5809524,68.1788095 1.79190476,52.6461905 2.08261905,34.4942857 C2.36833333,16.6616667 17.2447619,2.00595238 35.117619,2.05857143 C52.7740476,2.11071429 68.1285714,16.7833333 67.9004762,35.4564286 C67.6807143,53.4135714 53.1369048,67.9638095 34.9911905,67.9635714 Z M17.8959524,37.1552381 C17.935,36.9266667 17.8030952,36.8897619 17.6204762,36.9102381 L10.7104762,36.9102381 C18.2997619,31.157619 25.9104762,25.6580952 33.5361905,20.1795238 C34.5152381,19.4761905 35.8333333,19.5519048 36.7707143,20.2140476 C39.7152381,22.2933333 42.6616667,24.3704762 45.6188095,26.4321429 C45.8895238,26.6207143 46.157381,27.0635714 46.5252381,26.8302381 C46.8469048,26.6261905 46.6895238,26.1621429 46.6471429,25.8388095 C46.5319048,24.9592857 46.82,24.6578571 47.7347619,24.7269048 C48.9183333,24.8164286 50.1159524,24.7909524 51.3033333,24.7328571 C52.0066667,24.6983333 52.152381,24.9602381 52.1414286,25.6069048 C52.1121429,27.3114286 52.1545238,29.0169048 52.1678571,30.7219048 C52.1411905,30.8842857 52.2083333,30.9885714 52.3628571,31.0392857 C55.0142857,32.9209524 57.6657143,34.8030952 60.317381,36.6847619 C60.2992857,36.7614286 60.2809524,36.8385714 60.2628571,36.9152381 L52.377619,36.9152381 C52.1990476,36.8845238 52.1502381,36.977619 52.1680952,37.1345238 L52.1680952,45.2459524 C52.1452381,45.4090476 52.187619,45.5345238 52.362619,45.5838095 C55.2597619,46.7554762 58.1764286,47.8995238 60.8304762,49.5692857 C61.6452381,50.0819048 61.9180952,49.8766667 62.2909524,49.122381 C65.4911905,42.6445238 66.4328571,35.8902381 65.0357143,28.7783333 C61.5330952,10.947381 42.477381,-0.0523809524 25.2954762,5.88 C11.2538095,10.7280952 2.85833333,24.0504762 4.55309524,38.8521429 C4.97619048,42.547619 6.10261905,46.0435714 7.8347619,49.3392857 C8.02547619,49.7021429 8.115,50.1869048 8.75428571,49.7892857 C11.5542857,48.0483333 14.5942857,46.8033333 17.6411905,45.5778571 C17.8216667,45.5290476 17.932619,45.4316667 17.8880952,45.2254762 C18.0142857,42.5352381 18.0028571,39.8454762 17.8959524,37.1552381 Z M35.0897619,65.8142857 C45.3357143,65.4942857 53.6880952,61.325 59.9192857,52.9804762 C60.4607143,52.2554762 60.4959524,51.9235714 59.617381,51.4311905 C53.9164286,48.237381 47.8483333,46.2097619 41.3614286,45.3940476 C30.3419048,44.0078571 20.0152381,46.0707143 10.32,51.4640476 C9.46261905,51.9409524 9.52928571,52.2564286 10.0388095,52.9404762 C16.2592857,61.2907143 24.5992857,65.487619 35.0897619,65.8142857 Z" id="Shape" fill="#FFFFFF"></path>
                    <path d="M52.1414286,30.7505581 L52.1414286,24.7328571 L46.7388626,24.7328571 L46.7388626,27.1001481 C46.7388626,27.1001481 45.8895238,26.6207143 45.6188095,26.4321429 C42.6616667,24.3704762 39.7152381,22.2933333 36.7707143,20.2140476 C35.8333333,19.5521429 34.5152381,19.4761905 33.5361905,20.1795238 C25.9104762,25.6580952 18.2995238,31.157381 10.7104762,36.9102381 L17.6204762,36.9102381 C17.712381,36.9919048 17.8040476,37.0738095 17.8959524,37.1552381 C18.0028571,39.8454762 18.0142857,42.5354762 17.8885714,45.2254762 C17.8061905,45.3428571 17.7240476,45.4604762 17.6416667,45.5778571 C14.5947619,46.8033333 11.5547619,48.0483333 8.7547619,49.7892857 C8.11547619,50.1869048 8.02571429,49.702381 7.8352381,49.3392857 C6.10309524,46.0435714 4.97666667,42.547619 4.55357143,38.8521429 C2.85880952,24.0504762 11.2545238,10.7280952 25.2959524,5.88 C42.4778571,-0.0523809524 61.5335714,10.947381 65.0361905,28.7783333 C66.4333333,35.8902381 65.4916667,42.6445238 62.2914286,49.122381 C61.9188095,49.8766667 61.6457143,50.0819048 60.8309524,49.5692857 C58.1769048,47.8992857 55.2602381,46.7554762 52.3630952,45.5838095 C52.2983333,45.4711905 52.2333333,45.3585714 52.1685714,45.2459524 L52.1685714,37.1345238 C52.2385714,37.0611905 52.3083333,36.9883333 52.3780952,36.9152381 L60.2633333,36.9152381 C60.2814286,36.8385714 60.2997619,36.7614286 60.3178571,36.6847619 C57.6661905,34.8030952 52.1414286,30.7505581 52.1414286,30.7505581 Z" id="Shape" fill="#333333"></path>
                    <path d="M35.0897619,65.8142857 C24.5992857,65.487619 16.2592857,61.2907143 10.0392857,52.9404762 C9.5297619,52.2564286 9.46309524,51.9409524 10.3204762,51.4640476 C20.0154762,46.0707143 30.342381,44.0078571 41.3619048,45.3940476 C47.8488095,46.21 53.9166667,48.237381 59.6178571,51.4311905 C60.4961905,51.9233333 60.4611905,52.2554762 59.9197619,52.9804762 C53.6880952,61.3247619 45.3357143,65.4942857 35.0897619,65.8142857 Z" id="Shape" fill="#01ACEB"></path>
                    <path d="M34.3016667,37.1007143 C34.1142857,37.185 31.3271429,37.1002381 30.0530952,37.1007143 C30.0509524,36.9252381 30.0542857,34.0609524 30.0530952,32.8666667 C30.125,32.792381 33.03,32.8666667 34.3016667,32.8666667 C34.3745238,32.9416667 34.3033333,35.9066667 34.3016667,37.1007143 Z" id="Shape" fill="#333333"></path>
                    <path d="M39.3016667,37.1007143 C39.1142857,37.185 36.3271429,37.1002381 35.0530952,37.1007143 C35.0509524,36.9252381 35.0542857,34.0609524 35.0530952,32.8666667 C35.125,32.792381 38.03,32.8666667 39.3016667,32.8666667 C39.3745238,32.9416667 39.3033333,35.9066667 39.3016667,37.1007143 Z" id="Shape" fill="#333333"></path>
                    <path d="M34.3016667,42.1007143 C34.1142857,42.185 31.3271429,42.1002381 30.0530952,42.1007143 C30.0509524,41.9252381 30.0542857,39.0609524 30.0530952,37.8666667 C30.125,37.792381 33.03,37.8666667 34.3016667,37.8666667 C34.3745238,37.9416667 34.3033333,40.9066667 34.3016667,42.1007143 Z" id="Shape" fill="#333333"></path>
                    <path d="M39.3016667,42.1007143 C39.1142857,42.185 36.3271429,42.1002381 35.0530952,42.1007143 C35.0509524,41.9252381 35.0542857,39.0609524 35.0530952,37.8666667 C35.125,37.792381 38.03,37.8666667 39.3016667,37.8666667 C39.3745238,37.9416667 39.3033333,40.9066667 39.3016667,42.1007143 Z" id="Shape" fill="#333333"></path>
                </g>
            </g>
        </g>
    </g>
</svg>