<?xml version="1.0" encoding="UTF-8" standalone="no"?>
<svg width="18px" height="20px" viewBox="0 0 18 20" version="1.1" xmlns="http://www.w3.org/2000/svg" xmlns:xlink="http://www.w3.org/1999/xlink">
    <!-- Generator: sketchtool 41.2 (35397) - http://www.bohemiancoding.com/sketch -->
    <title>26417917-B554-4781-85C7-B704B04FA78A</title>
    <desc>Created with sketchtool.</desc>
    <defs></defs>
    <g id="Designs---Flows" stroke="none" stroke-width="1" fill="none" fill-rule="evenodd">
        <g id="Apply-Verify-Step1-1-(m)" transform="translate(-283.000000, -160.000000)" fill="#3EC19D">
            <path d="M298.604483,167.800767 L296.792609,167.800767 L296.792609,163.931502 C296.792609,161.763691 294.616398,160 291.941544,160 C289.26669,160 287.090829,161.763691 287.090829,163.931502 L287.090829,167.800767 L285.279306,167.800767 C284.022532,167.800767 283,168.629469 283,169.64801 L283,177.905757 C283,178.924298 284.022532,179.753 285.279306,179.753 L298.604483,179.753 C299.861257,179.753 300.883789,178.924298 300.883789,177.905757 L300.883789,169.64801 C300.883789,168.629469 299.861257,167.800767 298.604483,167.800767 Z M288.844142,163.931502 C288.844142,162.547207 290.233817,161.420956 291.941544,161.420956 C293.649621,161.420956 295.039297,162.547207 295.039297,163.931502 L295.039297,167.800767 L288.844142,167.800767 L288.844142,163.931502 Z M299.130476,177.905757 C299.130476,178.140783 298.894481,178.332044 298.604483,178.332044 L285.279306,178.332044 C284.989309,178.332044 284.753313,178.140783 284.753313,177.905757 L284.753313,169.64801 C284.753313,169.412984 284.989309,169.221723 285.279306,169.221723 L298.604483,169.221723 C298.894481,169.221723 299.130476,169.412984 299.130476,169.64801 L299.130476,177.905757 Z M292.246878,171.274437 C291.514517,171.274437 290.920557,171.868397 290.920557,172.601042 C290.920557,173.040117 291.136543,173.426049 291.465352,173.667612 L291.465352,175.714358 C291.465352,176.146328 291.815191,176.495884 292.246878,176.495884 C292.678565,176.495884 293.028404,176.146328 293.028404,175.714358 L293.028404,173.667612 C293.357213,173.426049 293.573199,173.040117 293.573199,172.601042 C293.573199,171.868397 292.979239,171.274437 292.246878,171.274437 Z" id="Shape"></path>
        </g>
    </g>
</svg>