<svg width="18" height="15" viewBox="0 0 18 15" xmlns="http://www.w3.org/2000/svg"><title>9E3EBD1E-317B-4958-B10A-68E127980AAB</title><path d="M2.33 10.447c2.213-2.217 4.987-3.415 8.319-3.03a.53.53 0 0 1 .469.525v2.101l5.484-4.219-5.484-4.218v1.571a.53.53 0 0 1-.53.53c-3.953 0-6.559 1.861-8.13 5.001-.43.862-.757 1.774-.993 2.698.266-.327.555-.648.866-.96zm.75.748a12.175 12.175 0 0 0-1.57 1.94 8.34 8.34 0 0 0-.503.86c-.25.52-1.035.321-1.006-.256.004-.093.018-.26.044-.488.043-.377.107-.794.197-1.244a15.042 15.042 0 0 1 1.27-3.772c1.668-3.336 4.453-5.413 8.547-5.577V.53a.53.53 0 0 1 .852-.42l6.882 5.295a.53.53 0 0 1 0 .84l-6.882 5.293a.53.53 0 0 1-.852-.42V8.426c-2.77-.185-5.085.871-6.979 2.77z" fill-rule="nonzero" fill="#9E9E9E"/></svg>