<?xml version="1.0" encoding="UTF-8"?>
<svg width="18px" height="15px" viewBox="0 0 18 15" version="1.1" xmlns="http://www.w3.org/2000/svg" xmlns:xlink="http://www.w3.org/1999/xlink">
    <!-- Generator: sketchtool 42 (36781) - http://www.bohemiancoding.com/sketch -->
    <title>A339A32C-3378-4A6C-8774-CE7CCF056165</title>
    <desc>Created with sketchtool.</desc>
    <defs></defs>
    <g id="Symbols" stroke="none" stroke-width="1" fill="none" fill-rule="evenodd">
        <g id="share-white" fill-rule="nonzero" fill="#FFFFFF">
            <g id="share-icon">
                <path d="M2.33058564,10.4468466 C4.54278257,8.22962956 7.31673458,7.03169324 10.6489655,7.41618143 C10.9160998,7.44700461 11.1176909,7.67319382 11.1176909,7.94210045 L11.1176909,10.0433949 L16.6022973,5.82446689 L11.1176909,1.60553892 L11.1176909,3.17742494 C11.1176909,3.46980912 10.8806667,3.70683333 10.5882825,3.70683333 C6.63476605,3.70683333 4.02899968,5.56809502 2.45891346,8.70826747 C2.0281824,9.56972958 1.70130103,10.4819795 1.46450174,11.4060214 C1.73149665,11.0793107 2.02007946,10.7580574 2.33058564,10.4468466 Z M3.08013023,11.1946941 C2.4648102,11.8114105 1.94143114,12.4733781 1.50989245,13.1346604 C1.25299435,13.5283265 1.08562993,13.8304489 1.006797,13.9946842 C0.756737117,14.5156423 -0.0280819131,14.3162988 0.00077525805,13.7391553 C0.00545704188,13.6455197 0.01875996,13.4792332 0.0448986236,13.2505199 C0.0878795254,12.874437 0.15215308,12.4566589 0.24201166,12.007366 C0.498806879,10.7233899 0.909914049,9.43867999 1.51187894,8.23475021 C3.17967453,4.89915903 5.96473515,2.82236566 10.0588741,2.65849429 L10.0588741,0.53038299 C10.0588741,0.0911469259 10.5629195,-0.157045755 10.9110685,0.1107612 L17.7933776,5.4048451 C18.0688741,5.61676551 18.0688741,6.03216827 17.7933776,6.24408868 L10.9110685,11.5381726 C10.5629195,11.8059795 10.0588741,11.5577869 10.0588741,11.1185508 L10.0588741,8.42521672 C7.28843943,8.23972155 4.97422778,9.2962983 3.08013023,11.1946941 Z" id="Path-2"></path>
            </g>
        </g>
    </g>
</svg>