<svg width="53" height="53" viewBox="0 0 53 53" xmlns="http://www.w3.org/2000/svg"><title>7C5C9B11-1FD0-4D85-ADF3-CD17AAAF6E20</title><g fill="#B0B5BC" fill-rule="evenodd"><path d="M24.09 32.523c0-1.17.03-1.123-2.516-4.799-1.55-2.238-2.27-3.788-2.301-5.451-.07-3.782 3.02-6.614 6.925-6.614 4.391 0 6.953 2.74 6.927 6.621a5.616 5.616 0 0 1-.176 1.313c-.284 1.145-.832 2.282-1.849 4.009-2 3.397-2.19 3.774-2.19 4.92h1.204c0-.809.223-1.25 2.024-4.31 1.073-1.82 1.66-3.04 1.98-4.33a6.81 6.81 0 0 0 .212-1.594c.03-4.533-3.055-7.833-8.132-7.833-4.552 0-8.212 3.354-8.13 7.84.036 1.967.84 3.694 2.516 6.115 2.245 3.243 2.302 3.337 2.302 4.113h1.205z"/><path d="M29.511 33.125v2.762l-2.056 2.056h-1.91l-2.056-2.056v-2.762h6.022zm1.205-1.205h-8.432v4.466l2.762 2.762h2.908l2.762-2.762V31.92zm-7.83 4.819h7.228v-1.205h-7.228v1.205z"/><circle cx="37.341" cy="30.114" r="1.205"/><circle cx="39.75" cy="22.886" r="1.205"/><ellipse cx="37.341" cy="16.864" rx="1.205" ry="1.205"/><ellipse transform="matrix(-1 0 0 1 31.318 0)" cx="15.659" cy="30.114" rx="1.205" ry="1.205"/><ellipse transform="matrix(-1 0 0 1 26.5 0)" cx="13.25" cy="22.886" rx="1.205" ry="1.205"/><ellipse transform="matrix(-1 0 0 1 31.318 0)" cx="15.659" cy="16.864" rx="1.205" ry="1.205"/><path d="M26.5 52.699c14.47 0 26.199-11.73 26.199-26.199C52.699 12.03 40.969.301 26.5.301 12.03.301.301 12.031.301 26.5c0 14.47 11.73 26.199 26.199 26.199zm0-1.807c-13.471 0-24.392-10.92-24.392-24.392 0-13.471 10.92-24.392 24.392-24.392 13.471 0 24.392 10.92 24.392 24.392 0 13.471-10.92 24.392-24.392 24.392z"/></g></svg>