<svg width="54" height="54" viewBox="0 0 54 54" xmlns="http://www.w3.org/2000/svg"><title>1450F80A-6243-4B37-9627-888F3B94530A</title><g fill="#F8D11C" fill-rule="evenodd"><path d="M24.545 33.136c0-1.19.03-1.144-2.564-4.888-1.58-2.281-2.314-3.86-2.345-5.555-.07-3.853 3.078-6.738 7.057-6.738 4.474 0 7.084 2.792 7.057 6.745a5.722 5.722 0 0 1-.18 1.338c-.289 1.167-.847 2.325-1.883 4.085-2.037 3.46-2.232 3.845-2.232 5.013h1.227c0-.824.228-1.274 2.063-4.39 1.092-1.857 1.69-3.099 2.016-4.413a6.939 6.939 0 0 0 .216-1.624c.032-4.619-3.112-7.982-8.284-7.982-4.638 0-8.368 3.418-8.284 7.989.037 2.004.855 3.764 2.563 6.23 2.288 3.304 2.346 3.4 2.346 4.19h1.227z" fill-rule="nonzero"/><path d="M30.068 33.75v2.814l-2.095 2.095h-1.946l-2.095-2.095V33.75h6.136zm1.227-1.227h-8.59v4.55l2.814 2.813h2.962l2.814-2.814v-4.55zm-7.977 4.909h7.364v-1.227h-7.364v1.227z" fill-rule="nonzero"/><circle cx="38.045" cy="30.682" r="1.227"/><ellipse cx="40.5" cy="23.318" rx="1.227" ry="1.227"/><ellipse cx="38.045" cy="17.182" rx="1.227" ry="1.227"/><ellipse transform="matrix(-1 0 0 1 31.91 0)" cx="15.955" cy="30.682" rx="1.227" ry="1.227"/><ellipse transform="matrix(-1 0 0 1 27 0)" cx="13.5" cy="23.318" rx="1.227" ry="1.227"/><ellipse transform="matrix(-1 0 0 1 31.91 0)" cx="15.955" cy="17.182" rx="1.227" ry="1.227"/><path d="M27 53.693c14.742 0 26.693-11.95 26.693-26.693C53.693 12.258 41.743.307 27 .307 12.258.307.307 12.257.307 27c0 14.742 11.95 26.693 26.693 26.693zm0-1.84C13.274 51.852 2.148 40.725 2.148 27S13.274 2.148 27 2.148 51.852 13.274 51.852 27 40.726 51.852 27 51.852z" fill-rule="nonzero"/></g></svg>