<svg width="19" height="19" viewBox="0 0 19 19" xmlns="http://www.w3.org/2000/svg"><title>9AAB821C-25AE-49A5-8F4A-8B904C1A07F8</title><g transform="translate(1 1)" fill="none" fill-rule="evenodd"><circle stroke="#768589" stroke-width="1.05" cx="8.5" cy="8.5" r="8.5"/><path d="M7.642 10.429v-.322c0-.464.075-.846.225-1.146.15-.3.43-.616.84-.95.568-.455.926-.799 1.074-1.029.149-.23.223-.508.223-.833 0-.405-.137-.717-.41-.938-.274-.22-.668-.33-1.182-.33-.33 0-.651.037-.965.11a5.4 5.4 0 0 0-1.077.402L6 4.589A5.487 5.487 0 0 1 8.475 4c.798 0 1.418.187 1.86.56.444.373.665.898.665 1.577 0 .29-.04.545-.122.765-.082.22-.202.428-.36.625-.16.196-.502.513-1.028.95-.422.34-.7.624-.836.85-.136.227-.204.528-.204.905v.197h-.808zm-.307 1.767c0-.54.25-.81.751-.81.243 0 .43.07.561.21.132.138.198.339.198.6 0 .254-.067.452-.2.593-.135.14-.32.211-.559.211a.786.786 0 0 1-.538-.188c-.142-.125-.213-.33-.213-.616z" fill="#758589"/></g></svg>