<svg width="14" height="17" viewBox="0 0 14 17" xmlns="http://www.w3.org/2000/svg"><title>0AE6F277-F687-4C8A-A439-219714F777BF</title><path d="M13.371 2.354h-3.157V.684a.505.505 0 0 0-.5-.51H4.286c-.276 0-.5.229-.5.51v1.67H.629c-.276 0-.5.228-.5.51v2.18c0 .281.224.51.5.51h.443v10.762c0 .281.224.51.5.51h10.856c.276 0 .5-.229.5-.51V5.553h.443c.276 0 .5-.228.5-.51v-2.18a.505.505 0 0 0-.5-.51zm-8.585-1.16h4.428v1.16H4.786v-1.16zm-3.657 2.18h11.742v1.16H1.129v-1.16zm10.799 12.432H2.072V5.553h1.714v6.855c0 .281.224.51.5.51s.5-.229.5-.51V5.553H6.5v6.855c0 .281.224.51.5.51s.5-.229.5-.51V5.553h1.714v6.855c0 .281.224.51.5.51s.5-.229.5-.51V5.553h1.714v10.253z" fill="#FFF" fill-rule="evenodd"/></svg>