<svg width="14" height="17" viewBox="0 0 14 17" xmlns="http://www.w3.org/2000/svg"><title>EC1BB821-629D-4013-BDD2-7AEAA18B98ED</title><path d="M13.242 2.18h-3.157V.51a.505.505 0 0 0-.5-.51H4.157c-.276 0-.5.228-.5.51v1.67H.5c-.276 0-.5.228-.5.51v2.179c0 .282.224.51.5.51h.443V16.14c0 .282.224.51.5.51H12.3c.276 0 .5-.228.5-.51V5.38h.443c.276 0 .5-.228.5-.51v-2.18a.505.505 0 0 0-.5-.51zM4.657 1.02h4.428v1.16H4.657V1.02zM1 3.2h11.742v1.159H1v-1.16zM11.799 15.63H1.943V5.38h1.714v6.854c0 .282.224.51.5.51s.5-.228.5-.51V5.38h1.714v6.854c0 .282.224.51.5.51s.5-.228.5-.51V5.38h1.714v6.854c0 .282.224.51.5.51s.5-.228.5-.51V5.38h1.714V15.63z" fill="#4571CC" fill-rule="evenodd"/></svg>