<?xml version="1.0" encoding="UTF-8" standalone="no"?>
<svg width="157px" height="104px" viewBox="0 0 157 104" version="1.1" xmlns="http://www.w3.org/2000/svg" xmlns:xlink="http://www.w3.org/1999/xlink">
    <!-- Generator: sketchtool 41.2 (35397) - http://www.bohemiancoding.com/sketch -->
    <title>A896E553-BE45-4EAE-8D9B-6ACC5C4EF6A7</title>
    <desc>Created with sketchtool.</desc>
    <defs></defs>
    <g id="Design" stroke="none" stroke-width="1" fill="none" fill-rule="evenodd" opacity="0.493936567">
        <g id="View-Application-Order-Reports-Processing" transform="translate(-644.000000, -435.000000)">
            <g id="truck-illustration" transform="translate(644.000000, 435.000000)">
                <g id="Group-7">
                    <g id="Group-5-Copy">
                        <polygon id="Path" stroke="#979797" fill="#FFFFFF" points="133.833368 26.8320748 153.039552 56.1534468 153.039552 85.3016448 105.214692 85.2882039 105.214692 26.8320748"></polygon>
                        <path d="M133.833368,26.8320748 L153.039552,56.1534468 L153.039552,85.3016448 L105.214692,85.2882039 L105.214692,26.8320748 L133.833368,26.8320748 Z M103.301697,22.9989213 C102.24518,22.9989213 101.388703,23.8570019 101.388703,24.915498 L101.388703,87.2042431 C101.388703,88.2625292 102.244853,89.1205229 103.301161,89.1208198 L154.952009,89.135336 C156.008736,89.135633 156.86554,88.2774654 156.86554,87.2187593 L156.86554,55.5807264 C156.86554,55.2070758 156.756524,54.841574 156.551901,54.5291842 L136.46546,23.8639558 C136.111835,23.3240894 135.510634,22.9989213 134.866105,22.9989213 L103.301697,22.9989213 Z" id="Combined-Shape" fill="#979797"></path>
                        <path d="M140.537782,37.373247 L151.378083,53.6641496 L129.127122,53.6641496 L129.127122,37.373247 L140.537782,37.373247 Z M127.214127,33.5400935 C126.15761,33.5400935 125.301133,34.3981741 125.301133,35.4566703 L125.301133,55.5807264 C125.301133,56.6392225 126.15761,57.4973031 127.214127,57.4973031 L154.952546,57.4973031 C156.480446,57.4973031 157.39178,55.791271 156.544253,54.5176008 L143.153293,34.3935448 C142.798498,33.8603556 142.201201,33.5400935 141.561585,33.5400935 L127.214127,33.5400935 Z" id="Path-19" fill="#979797"></path>
                        <path d="M3.82598879,5.74775553 C3.82598879,4.69284784 4.68426801,3.83315354 5.73307109,3.83315354 L99.4816206,3.83315354 C100.535354,3.83315354 101.388703,4.68864477 101.388703,5.74775553 L101.388703,84.3313527 C101.388703,85.3862604 100.530424,86.2459547 99.4816206,86.2459547 L5.73307109,86.2459547 C4.67933757,86.2459547 3.82598879,85.3904635 3.82598879,84.3313527 L3.82598879,5.74775553 Z M0,5.74775553 L0,84.3313527 C0,87.5069097 2.56575691,90.0791082 5.73307109,90.0791082 L99.4816206,90.0791082 C102.643268,90.0791082 105.214692,87.5034445 105.214692,84.3313527 L105.214692,5.74775553 C105.214692,2.57219856 102.648935,0 99.4816206,0 L5.73307109,0 C2.57142416,0 0,2.57566377 0,5.74775553 Z" id="Combined-Shape" fill="#979797"></path>
                        <g id="Group-4" transform="translate(30.473451, 24.915498)" fill="#979797">
                            <path d="M8.8288965,1.34850492 L0.220421724,29.1388681 C-0.161639791,30.3722606 0.758444189,31.6235167 2.04745406,31.6235167 L50.8288111,31.6235167 C51.6669139,31.6235167 52.4074304,31.0769527 52.6558435,30.2750118 L61.2643182,2.48464862 C61.6463797,1.25125612 60.7262958,0 59.4372859,0 L10.6559288,0 C9.81782603,0 9.07730951,0.546564035 8.8288965,1.34850492 Z M56.840597,3.83315354 L49.4194981,27.7903632 L4.64414295,27.7903632 L12.0652419,3.83315354 L56.840597,3.83315354 Z" id="Path-16"></path>
                            <path d="M10.6485426,3.12738729 C9.73122846,2.60222615 8.56266691,2.92152156 8.03848738,3.84055356 C7.51430784,4.75958556 7.83300645,5.93033542 8.75032063,6.45549657 L28.8367618,17.9549572 C29.3503243,18.2489711 29.9707572,18.2884349 30.5173096,18.0618518 L58.2557283,6.56239112 C59.2319684,6.15767323 59.6958919,5.0367036 59.2919305,4.05863536 C58.8879691,3.08056713 57.7690947,2.61577484 56.7928547,3.02049273 L29.9208585,14.1607623 L10.6485426,3.12738729 Z" id="Path-17"></path>
                            <polygon id="Path-20" points="32.9563122 14.113863 49.2167645 29.4464772 50.5278633 28.050826 34.267411 12.7182118"></polygon>
                            <polygon id="Path-20" points="25.4373804 13.5716533 3.43794486 27.9459791 4.48295206 29.5513241 26.4823876 15.1769983"></polygon>
                        </g>
                        <g id="Group-6" transform="translate(121.156312, 76.024212)">
                            <path d="M13.0721284,24.915498 C19.5873204,24.915498 24.8689271,19.6240007 24.8689271,13.0966079 C24.8689271,6.56921518 19.5873204,1.27771785 13.0721284,1.27771785 C6.55693631,1.27771785 1.2753296,6.56921518 1.2753296,13.0966079 C1.2753296,19.6240007 6.55693631,24.915498 13.0721284,24.915498 Z" id="Path-Copy-2" fill="#FFFFFF"></path>
                            <path d="M13.0721284,26.1932159 C20.2916655,26.1932159 26.1442567,20.3296648 26.1442567,13.0966079 C26.1442567,5.8635511 20.2916655,0 13.0721284,0 C5.85259122,0 0,5.8635511 0,13.0966079 C0,20.3296648 5.85259122,26.1932159 13.0721284,26.1932159 Z M13.0721284,23.6377802 C7.26128139,23.6377802 2.55065919,18.9183366 2.55065919,13.0966079 C2.55065919,7.27487926 7.26128139,2.55543569 13.0721284,2.55543569 C18.8829753,2.55543569 23.5935975,7.27487926 23.5935975,13.0966079 C23.5935975,18.9183366 18.8829753,23.6377802 13.0721284,23.6377802 Z" id="Path" fill="#979797"></path>
                        </g>
                        <g id="Group-5" transform="translate(23.593598, 77.301930)">
                            <path d="M13.0721284,24.915498 C19.5873204,24.915498 24.8689271,19.6240007 24.8689271,13.0966079 C24.8689271,6.56921518 19.5873204,1.27771785 13.0721284,1.27771785 C6.55693631,1.27771785 1.2753296,6.56921518 1.2753296,13.0966079 C1.2753296,19.6240007 6.55693631,24.915498 13.0721284,24.915498 Z" id="Path-Copy-2" fill="#FFFFFF"></path>
                            <path d="M13.0721284,26.1932159 C20.2916655,26.1932159 26.1442567,20.3296648 26.1442567,13.0966079 C26.1442567,5.8635511 20.2916655,0 13.0721284,0 C5.85259122,0 0,5.8635511 0,13.0966079 C0,20.3296648 5.85259122,26.1932159 13.0721284,26.1932159 Z M13.0721284,23.6377802 C7.26128139,23.6377802 2.55065919,18.9183366 2.55065919,13.0966079 C2.55065919,7.27487926 7.26128139,2.55543569 13.0721284,2.55543569 C18.8829753,2.55543569 23.5935975,7.27487926 23.5935975,13.0966079 C23.5935975,18.9183366 18.8829753,23.6377802 13.0721284,23.6377802 Z" id="Path-Copy" fill="#979797"></path>
                        </g>
                        <path d="M14.347458,38.3315354 L31.5644075,38.3315354 C32.0926663,38.3315354 32.5209047,37.9024951 32.5209047,37.373247 C32.5209047,36.843999 32.0926663,36.4149586 31.5644075,36.4149586 L14.347458,36.4149586 C13.8191991,36.4149586 13.3909608,36.843999 13.3909608,37.373247 C13.3909608,37.9024951 13.8191991,38.3315354 14.347458,38.3315354 Z" id="Line" fill="#979797"></path>
                        <path d="M20.0864411,44.0812657 L27.7384187,44.0812657 C28.2666775,44.0812657 28.6949159,43.6522254 28.6949159,43.1229773 C28.6949159,42.5937293 28.2666775,42.164689 27.7384187,42.164689 L20.0864411,42.164689 C19.5581823,42.164689 19.1299439,42.5937293 19.1299439,43.1229773 C19.1299439,43.6522254 19.5581823,44.0812657 20.0864411,44.0812657 Z" id="Line" fill="#979797"></path>
                        <path d="M21.9994355,32.5818051 L33.4774019,32.5818051 C34.0056607,32.5818051 34.4338991,32.1527648 34.4338991,31.6235167 C34.4338991,31.0942687 34.0056607,30.6652283 33.4774019,30.6652283 L21.9994355,30.6652283 C21.4711767,30.6652283 21.0429383,31.0942687 21.0429383,31.6235167 C21.0429383,32.1527648 21.4711767,32.5818051 21.9994355,32.5818051 Z" id="Line-Copy" fill="#979797"></path>
                    </g>
                </g>
            </g>
        </g>
    </g>
</svg>