<?xml version="1.0" encoding="UTF-8"?>
<svg width="30px" height="30px" viewBox="0 0 30 30" version="1.1" xmlns="http://www.w3.org/2000/svg" xmlns:xlink="http://www.w3.org/1999/xlink">
    <!-- Generator: sketchtool 42 (36781) - http://www.bohemiancoding.com/sketch -->
    <title>AFD93555-E9A7-429B-B262-2504DB7877EF</title>
    <desc>Created with sketchtool.</desc>
    <defs></defs>
    <g id="Page-1" stroke="none" stroke-width="1" fill="none" fill-rule="evenodd">
        <g id="Dash-Applicants-Grouped-Ungroup-(m)" transform="translate(-175.000000, -171.000000)" fill="#4571CC">
            <g id="UnGroup-Icon-v.2" transform="translate(176.000000, 172.000000)">
                <g id="Group-Icon-v.2" transform="translate(-0.848485, -0.848485)">
                    <path d="M17.3518623,11.1600017 C17.4405593,10.9042455 17.4715815,10.6789052 17.4478228,10.5398188 C17.0201003,10.3423441 16.8088596,9.91539489 16.9388459,9.51958815 C16.9675803,9.43209236 17.0494683,9.04162409 17.1214418,8.6074766 C17.2184992,8.02202136 17.2934951,7.4057426 17.3303038,6.83343672 C17.3741705,6.15139089 17.3613678,5.5677886 17.286455,5.13574149 C17.250049,4.92577555 17.2007102,4.76342053 17.1455635,4.65703701 C16.9484467,4.51080368 16.8264459,4.42326956 16.7228696,4.27586333 C16.509405,3.97206779 16.5306286,3.57385904 16.7642946,3.2954167 C16.9424674,3.0873517 17.1110547,3.02240607 17.3702667,2.96601947 C17.5793774,2.92053145 17.887385,2.89145845 18.0283926,2.90251105 L17.9687195,3.66381232 L17.363443,4.12940963 C17.1059057,3.79461123 16.9198336,3.53441838 16.7757928,3.31318942 C16.679776,3.16402126 16.5431011,2.93637952 16.5490234,2.94571381 C16.1220818,2.46031047 15.7201434,2.16949518 15.2781833,1.96717105 C14.4589457,1.5921337 13.568939,1.53994059 12.757685,1.68043447 C12.6381412,1.70113719 12.371268,1.76479637 12.3236145,1.7686555 C9.69899418,1.9812055 8.4333675,3.31205008 8.09312992,5.50712773 C7.96470377,6.33568222 7.98287717,7.2390063 8.11142495,8.13542643 C8.19779823,8.7377453 8.33966675,9.31983145 8.39847126,9.45704198 C8.54796892,9.80586987 8.4186088,10.2115528 8.09477688,10.4094501 C7.83008046,10.571209 7.76146434,10.9046593 7.91693196,11.3710621 C7.99079076,11.5926386 8.10828396,11.7979812 8.22672096,11.9268466 C8.84772541,12.211263 8.84772541,12.211263 8.92110139,12.346524 C8.98931677,12.5152749 8.98931677,12.5152749 8.99829424,12.5775383 C9.00823125,12.7766751 9.00326784,12.8749999 8.99152636,13.0745702 C8.98810974,13.1326426 8.98935574,13.193754 8.99534837,13.2579054 C9.03117732,13.6414558 9.23136844,14.1015384 9.55596342,14.5943457 C9.74894357,14.8873325 10.2467084,15.5162947 10.2342108,15.4975483 C10.3178379,15.6229889 10.3624633,15.7703766 10.3624633,15.9211375 L10.3624633,18.3560154 C10.3624633,18.4321383 10.3510813,18.5078333 10.3286946,18.58059 C10.2632604,18.7932511 10.1028464,19.0802524 9.81055252,19.4072336 C9.37811014,19.8909951 8.74295522,20.3570284 7.87159674,20.778715 C7.23438624,21.0870877 6.48571664,21.3637699 5.61671306,21.6031893 C4.37963466,21.944017 3.41891156,22.6646116 2.68876941,23.6645107 C2.36720352,24.1048817 2.10863963,24.5751805 1.90761623,25.0492479 C2.69048625,25.0543598 3.5604112,25.060037 4.49627045,25.0661404 C7.23074572,25.0839739 9.96997636,25.1018075 12.5332479,25.1184521 C13.5980882,25.1253661 14.5064075,25.1312572 15.3683606,25.1368402 C15.7900965,25.1395719 16.1297665,25.4836708 16.1270349,25.9054066 C16.1243032,26.3271425 15.7802043,26.6668125 15.3584684,26.6640809 C14.4965069,26.6584978 13.5881796,26.6526066 12.6389712,26.6464435 C9.96004319,26.6290479 7.22079876,26.6112143 4.48631019,26.5933806 C3.52923937,26.5871389 2.64112515,26.5813429 1.84455669,26.5761415 C1.02539848,26.5707914 1.02539848,26.5707914 0.843493868,26.5696025 C0.359476311,26.5664389 0.000477237597,26.1195212 0.101750499,25.6462066 C0.114009307,25.5889134 0.137112854,25.4958974 0.172730171,25.3721041 C0.229739317,25.1739603 0.302579085,24.9552884 0.393016898,24.7210235 C0.650256776,24.054684 0.999013883,23.3887561 1.45533791,22.7638394 C2.3780737,21.5001915 3.6190562,20.569387 5.21104843,20.1307769 C5.99338066,19.9152364 6.65530967,19.6706105 7.20629773,19.4039644 C7.90373268,19.0664466 8.37720267,18.7190467 8.67190177,18.3893748 C8.74314267,18.3096796 8.79665645,18.2388746 8.83519062,18.1782432 L8.83519062,16.190017 C8.68147285,15.9937266 8.43054684,15.6622424 8.28050503,15.4344456 C7.83057436,14.7513509 7.53815745,14.0793134 7.47469596,13.3999555 C7.46092317,13.1839009 7.46105731,13.0840095 7.46689006,12.9848701 C7.47771387,12.7947772 7.4800289,12.7493774 7.48103863,12.7253604 C7.50005854,12.8867556 7.50005854,12.8867556 7.56796706,13.0547538 C7.64118163,13.1897479 7.64118163,13.1897479 7.89693177,13.3804647 C8.17136936,13.4544975 8.26588698,13.4799947 8.39006941,13.4492358 C8.91166433,13.1007281 8.91166433,13.1007281 8.94255096,13.0090614 C8.8583691,13.2140857 8.8583691,13.2140857 8.62028341,13.4155512 C8.39872685,13.521031 8.39872685,13.521031 8.07821184,13.5063296 C7.79846735,13.4034104 7.79279071,13.3977366 7.66083589,13.2658469 C7.52189711,13.0602473 7.52189711,13.0602473 7.49728524,12.9697295 C7.46630385,12.7846052 7.46557185,12.7575883 7.46557185,12.7253604 L8.22920821,12.7253604 L8.3948642,13.4708124 C7.84028362,13.4748154 7.64622686,13.4008801 7.46623675,13.2844517 C7.02642586,12.9999555 6.67060447,12.4617401 6.46803383,11.8540282 C6.18088577,10.992584 6.26802728,10.1236743 6.81251662,9.5093564 C6.53488353,8.46405813 6.35917037,6.72292764 6.58387952,5.27319354 C7.02392525,2.43419335 8.80507213,0.545130341 12.1318938,0.252150676 C13.585898,-0.0130026733 14.7740287,0.0566734588 15.9139031,0.578494564 C16.5414043,0.865757222 17.112451,1.27892782 17.6100611,1.82748598 C17.6697794,1.89331855 17.7208395,1.95637876 17.7682677,2.02275225 C17.8478514,2.14203222 17.9916184,2.3814616 18.0556848,2.47985967 C18.17656,2.66550916 18.3396521,2.893568 18.573996,3.19821501 C18.7977569,3.48910428 18.7715748,3.85074779 18.5913008,4.10629047 C18.4466188,4.31138066 18.2026841,4.44812981 17.9090463,4.42511358 C18.1351442,4.04266424 18.16092,3.68815224 17.9877924,3.42048186 C17.9225198,3.32667523 17.8699775,3.2775639 17.8169654,3.24046785 C18.2560919,3.5236402 18.4513628,3.78017974 18.5913008,4.10629047 C18.8767268,4.77144538 18.9319564,5.72603117 18.8544274,6.93146286 C18.8012421,7.75839511 18.6608836,8.74735903 18.5312398,9.40536154 C19.0633049,9.92342338 19.1024842,10.7732931 18.7948239,11.6604253 C18.5730859,12.2998026 18.2187979,12.8830522 17.7916597,13.2113127 C17.6592045,13.313106 17.5197438,13.3903792 17.375058,13.4372022 C17.1995448,13.480841 17.0556403,12.7251344 17.0556403,12.7251344 L17.8192766,12.7251344 C17.800105,12.8935263 17.7860225,12.9446692 17.7615584,13.0335141 C17.7181746,13.1354471 17.7181746,13.1354471 17.5759522,13.3028864 C17.319378,13.4663629 17.2687054,13.4805252 17.1955193,13.487799 C17.6653283,13.2033206 17.6653283,13.2033206 17.7265504,13.0912847 C17.7880176,12.942796 17.7880176,12.942796 17.7982221,12.8850414 C17.8080989,12.9846601 17.8025275,13.0982151 17.7916597,13.2113127 C17.722361,13.9324858 17.4377104,14.6350584 17.0090199,15.3070048 C16.8413952,15.5697465 16.6625115,15.8096427 16.4829342,16.0233688 C16.4716137,16.036842 16.4496579,18.279702 16.4496579,18.279702 C16.4785814,18.357654 16.5332239,18.4529569 16.6263511,18.5672191 C16.8927982,18.8941358 16.8437779,19.3751522 16.5168612,19.6415993 C16.1899444,19.9080464 15.708928,19.8590261 15.4424809,19.5321094 C15.087752,19.0968756 14.9391954,18.6967307 14.9234304,18.3957303 C14.9227337,18.3824281 14.9223851,15.7687317 14.9223851,15.7687317 C14.9223851,15.5664042 15.0026799,15.3723465 15.1456381,15.2291704 C15.1733143,15.2014521 15.2329057,15.1369522 15.3136216,15.0408872 C15.4524289,14.8756839 15.5919298,14.6886031 15.7214641,14.485566 C16.07457,13.9320936 16.2808261,13.3753525 16.2808261,12.870694 C16.2859577,12.679054 16.2893162,12.644583 16.2977763,12.6000427 C16.3373287,12.4692404 16.3510689,12.4360558 16.3714675,12.3867903 C16.4332067,12.2738767 16.4332067,12.2738767 16.6154283,12.1101205 C16.9547913,11.9727558 17.026305,11.9759932 17.167407,11.9939597 C16.7951703,11.9979846 16.7901858,12.0015821 16.53285,12.1873149 C16.3908775,12.3544659 16.3908775,12.3544659 16.3477292,12.4558905 C16.313888,12.5787545 16.3002154,12.6283943 16.2951059,12.655835 C16.300142,12.5998491 16.3112204,12.5456054 16.327684,12.4937606 C16.4079704,12.2409348 16.616323,12.0451603 16.8765317,11.9826189 C17.1250679,11.6757911 17.262426,11.4178895 17.3518623,11.1600017 Z" id="Path-Copy-6" fill-rule="nonzero"></path>
                    <g id="Group-14" transform="translate(16.121212, 16.121212)">
                        <path d="M6.61818182,13.4821477 C2.95991421,13.4821477 0,10.4609899 0,6.74107383 C0,3.0211578 2.95991421,0 6.61818182,0 C10.2764494,0 13.2363636,3.0211578 13.2363636,6.74107383 C13.2363636,10.4609899 10.2764494,13.4821477 6.61818182,13.4821477 Z M6.61818182,12.1245719 C9.5203876,12.1245719 11.8787879,9.71737395 11.8787879,6.74107383 C11.8787879,3.7647737 9.5203876,1.35757576 6.61818182,1.35757576 C3.71597604,1.35757576 1.35757576,3.7647737 1.35757576,6.74107383 C1.35757576,9.71737395 3.71597604,12.1245719 6.61818182,12.1245719 Z" id="Oval-6-Copy-4" fill-rule="nonzero"></path>
                        <polyline id="Combined-Shape-Copy-2" points="10.3515152 6.10909091 3.22424242 6.10909091 3.22424242 7.2969697 10.3515152 7.2969697"></polyline>
                    </g>
                </g>
            </g>
        </g>
    </g>
</svg>