<svg width="16" height="20" viewBox="0 0 16 20" xmlns="http://www.w3.org/2000/svg"><title>20E8ADF6-49E5-461D-8DB9-52FFD54B07D4</title><g fill="#9E9E9E" fill-rule="evenodd"><path d="M2.319 6.553v2.026h-.533c-.216.018-.356.178-.355.368v.61L.259 11.113a.378.378 0 0 0-.072.23v6.632a.371.371 0 0 0 .176.323c.11.067.248.067.358 0a.371.371 0 0 0 .177-.323V11.71h14.214v7.368H.542a.353.353 0 0 0-.312.183.38.38 0 0 0 0 .371.353.353 0 0 0 .312.183h14.925a.362.362 0 0 0 .355-.369v-8.105a.378.378 0 0 0-.072-.23l-1.166-1.549c-.002-.002-.005-.616-.005-.616a.362.362 0 0 0-.356-.368h-.533V6.553a.362.362 0 0 0-.355-.369H2.675c-.217.018-.357.178-.356.369zm.71.368h9.95V8.58H3.03V6.92zm-.888 2.395h11.727v1.658H2.14V9.316zm-.71 1.439v.219H1.27l.16-.22zm13.148 0l.16.219h-.16v-.22zm-8.351 1.692c-.683 0-1.244.582-1.244 1.29 0 .708.561 1.29 1.244 1.29H9.78c.683 0 1.244-.582 1.244-1.29 0-.708-.56-1.29-1.244-1.29H6.228zm0 .737H9.78c.302 0 .533.24.533.553a.534.534 0 0 1-.533.552H6.228a.534.534 0 0 1-.533-.552c0-.313.231-.553.533-.553z"/><path d="M15.12 11.636v7.455H.88v-7.455h14.24zM.528 10.91a.358.358 0 0 0-.351.364v8.182c0 .2.157.363.351.363h14.946a.358.358 0 0 0 .351-.363v-8.182c0-.201-.157-.364-.351-.364H.527zM7.5 9V1h1v8z"/><path d="M4.854 4.854l-.708-.708L8 .293l3.854 3.853-.708.708L8 1.707z"/></g></svg>