<?xml version="1.0" encoding="UTF-8"?>
<svg width="16px" height="20px" viewBox="0 0 16 20" version="1.1" xmlns="http://www.w3.org/2000/svg" xmlns:xlink="http://www.w3.org/1999/xlink">
    <!-- Generator: sketchtool 42 (36781) - http://www.bohemiancoding.com/sketch -->
    <title>3588E7FD-6BC4-4727-87D8-83072E3F41F2</title>
    <desc>Created with sketchtool.</desc>
    <defs></defs>
    <g id="Symbols" stroke="none" stroke-width="1" fill="none" fill-rule="evenodd">
        <g id="unarchive-white" fill="#FFFFFF">
            <g id="unarchive-icon">
                <path d="M2.31902834,6.55263158 L2.31902834,8.57894737 L1.78600347,8.57894737 C1.56955785,8.59684185 1.4298604,8.75666095 1.43065356,8.94736842 L1.43065356,9.55756579 C1.42878239,9.55946339 0.259109312,11.1118421 0.259109312,11.1118421 C0.210718176,11.1779752 0.185284171,11.2591123 0.186928861,11.3421053 L0.186928861,17.9736842 C0.185116473,18.1065501 0.252446606,18.2301352 0.363137235,18.2971165 C0.473827863,18.3640978 0.610729684,18.3640978 0.721420313,18.2971165 C0.832110942,18.2301352 0.899441075,18.1065501 0.897628687,17.9736842 L0.897628687,11.7105263 L15.1116252,11.7105263 L15.1116252,19.0789474 L0.542278774,19.0789474 C0.414126832,19.0770683 0.294926321,19.1468751 0.230321448,19.2616374 C0.165716575,19.3763996 0.165716575,19.5183372 0.230321448,19.6330995 C0.294926321,19.7478617 0.414126832,19.8176685 0.542278774,19.8157895 L15.4669751,19.8157895 C15.6632213,19.8157691 15.8223054,19.6508333 15.822325,19.4473684 L15.822325,11.3421053 C15.8239697,11.2591123 15.7985357,11.1779752 15.7501446,11.1118421 L14.5841527,9.56332237 C14.5823224,9.56138237 14.5786003,8.94736842 14.5786003,8.94736842 C14.5785807,8.74390351 14.4194967,8.57896769 14.2232504,8.57894737 L13.6902256,8.57894737 L13.6902256,6.55263158 C13.690206,6.34916667 13.5311219,6.18423085 13.3348757,6.18421053 L2.67437825,6.18421053 C2.45793263,6.20210501 2.31823518,6.36192411 2.31902834,6.55263158 Z M3.02972817,6.92105263 L12.9795257,6.92105263 L12.9795257,8.57894737 L3.02972817,8.57894737 L3.02972817,6.92105263 Z M2.14135338,9.31578947 L13.8679005,9.31578947 L13.8679005,10.9736842 L2.14135338,10.9736842 L2.14135338,9.31578947 Z M1.43065356,10.7549342 L1.43065356,10.9736842 L1.26963563,10.9736842 L1.43065356,10.7549342 Z M14.5786003,10.7549342 L14.7396183,10.9736842 L14.5786003,10.9736842 L14.5786003,10.7549342 Z M6.22787739,12.4473684 C5.54500039,12.4473684 4.98415269,13.0288474 4.98415269,13.7368421 C4.98415269,14.4448368 5.54500039,15.0263158 6.22787739,15.0263158 L9.78137652,15.0263158 C10.4642535,15.0263158 11.0251012,14.4448368 11.0251012,13.7368421 C11.0251012,13.0288474 10.4642535,12.4473684 9.78137652,12.4473684 L6.22787739,12.4473684 Z M6.22787739,13.1842105 L9.78137652,13.1842105 C10.0828188,13.1842105 10.3144014,13.4243105 10.3144014,13.7368421 C10.3144014,14.0493737 10.0828188,14.2894737 9.78137652,14.2894737 L6.22787739,14.2894737 C5.92643512,14.2894737 5.69485252,14.0493737 5.69485252,13.7368421 C5.69485252,13.4243105 5.92643512,13.1842105 6.22787739,13.1842105 Z" id="Shape"></path>
                <path d="M15.1208791,11.6363636 L15.1208791,19.0909091 L0.879120879,19.0909091 L0.879120879,11.6363636 L15.1208791,11.6363636 Z M0.527472527,10.9090909 C0.333262506,10.9090909 0.175824176,11.0718965 0.175824176,11.2727273 L0.175824176,19.4545455 C0.175824176,19.6553763 0.333262506,19.8181818 0.527472527,19.8181818 L15.4725275,19.8181818 C15.6667375,19.8181818 15.8241758,19.6553763 15.8241758,19.4545455 L15.8241758,11.2727273 C15.8241758,11.0718965 15.6667375,10.9090909 15.4725275,10.9090909 L0.527472527,10.9090909 Z" id="Rectangle-12" fill-rule="nonzero"></path>
                <g id="arrow-up" transform="translate(8.000000, 4.500000) scale(1, -1) translate(-8.000000, -4.500000) translate(4.000000, 0.000000)" fill-rule="nonzero">
                    <polygon id="Path-10" points="3.5 4.22942105e-17 3.5 8 4.5 8 4.5 0"></polygon>
                    <polygon id="Path-11" points="0.853553391 4.14644661 0.146446609 4.85355339 4 8.70710678 7.85355339 4.85355339 7.14644661 4.14644661 4 7.29289322"></polygon>
                </g>
            </g>
        </g>
    </g>
</svg>