<?xml version="1.0" encoding="UTF-8"?>
<svg width="26px" height="26px" viewBox="0 0 26 26" version="1.1" xmlns="http://www.w3.org/2000/svg" xmlns:xlink="http://www.w3.org/1999/xlink">
    <!-- Generator: sketchtool 42 (36781) - http://www.bohemiancoding.com/sketch -->
    <title>4B9F54E9-1F2C-4C94-ABAE-6E0B75D18012</title>
    <desc>Created with sketchtool.</desc>
    <defs></defs>
    <g id="Page-1" stroke="none" stroke-width="1" fill="none" fill-rule="evenodd">
        <g id="Dash-Applicants-Grouped-Ungroup" transform="translate(-512.000000, -132.000000)" fill="#FFFFFF">
            <g id="Ungroup-icon-white" transform="translate(512.000000, 132.000000)">
                <g id="UnGroup-Icon-v.2">
                    <g id="Group-Icon-v.2" transform="translate(0.272727, 0.272727)">
                        <path d="M14.8730248,9.56571574 C14.9490509,9.34649617 14.9756413,9.15334735 14.9552767,9.03413037 C14.5886574,8.86486633 14.4075939,8.4989099 14.5190108,8.15964698 C14.5436402,8.08465059 14.61383,7.74996351 14.6755215,7.37783709 C14.7587136,6.87601831 14.8229958,6.34777937 14.8545461,5.85723147 C14.8921461,5.27262076 14.8811724,4.77239023 14.8169615,4.40206413 C14.7857563,4.22209332 14.7434659,4.08293188 14.6961973,3.99174601 C14.52724,3.86640316 14.4226679,3.79137391 14.3338882,3.66502571 C14.1509186,3.40462954 14.1691102,3.06330775 14.3693954,2.82464288 C14.5221149,2.64630146 14.6666183,2.59063377 14.8888,2.5423024 C15.0680378,2.50331267 15.3320443,2.47839296 15.4529079,2.48786662 L15.4017595,3.14041056 L14.8829511,3.53949396 C14.6622049,3.25252391 14.5027145,3.02950147 14.379251,2.83987665 C14.2969509,2.71201822 14.179801,2.51689674 14.1848772,2.52489755 C13.8189273,2.10883754 13.4744087,1.8595673 13.0955857,1.68614661 C12.393382,1.36468603 11.6305191,1.31994908 10.9351586,1.4403724 C10.8326925,1.45811759 10.603944,1.5126826 10.5630981,1.51599043 C8.31342358,1.69817614 7.22860072,2.83890007 6.9369685,4.7203952 C6.82688894,5.43058476 6.84246614,6.20486254 6.95264995,6.97322265 C7.0266842,7.48949597 7.14828578,7.98842696 7.19868965,8.10603598 C7.32683051,8.40503132 7.2159504,8.75275957 6.93838018,8.92238582 C6.71149754,9.06103632 6.65268372,9.34685082 6.78594168,9.74662469 C6.84924922,9.93654733 6.94995768,10.1125553 7.05147511,10.2230114 C7.58376463,10.4667969 7.58376463,10.4667969 7.64665834,10.5827348 C7.70512866,10.7273785 7.70512866,10.7273785 7.71282363,10.7807471 C7.72134107,10.9514358 7.71708672,11.0357142 7.7070226,11.2067745 C7.70409407,11.2565508 7.70516206,11.308932 7.71029861,11.3639189 C7.74100913,11.6926764 7.91260152,12.0870329 8.19082579,12.5094392 C8.35623734,12.7605707 8.78289294,13.2996812 8.77218072,13.2836128 C8.84386109,13.3911334 8.88211144,13.5174657 8.88211144,13.6466893 L8.88211144,15.7337274 C8.88211144,15.7989756 8.87235536,15.8638571 8.85316679,15.92622 C8.79708034,16.108501 8.65958262,16.3545021 8.40904502,16.6347716 C8.03838012,17.0494243 7.49396161,17.4488815 6.74708292,17.8103271 C6.20090249,18.0746466 5.55918569,18.3118028 4.81432548,18.5170194 C3.75397257,18.8091574 2.93049562,19.42681 2.3046595,20.2838663 C2.02903159,20.6613272 1.8074054,21.0644404 1.63509962,21.470784 C2.30613107,21.4751656 3.05178103,21.4800317 3.8539461,21.4852632 C6.19778205,21.5005491 8.54569403,21.515835 10.7427839,21.5301018 C11.6555042,21.536028 12.4340635,21.5410776 13.1728805,21.545863 C13.5343684,21.5482044 13.8255142,21.8431464 13.8231727,22.2046343 C13.8208313,22.5661222 13.5258894,22.8572679 13.1644015,22.8549265 C12.4255773,22.850141 11.6470111,22.8450914 10.8334039,22.8398087 C8.53717987,22.8248982 6.18925608,22.8096122 3.84540874,22.7943263 C3.02506232,22.7889762 2.26382156,22.7840082 1.58104859,22.7795498 C0.878912985,22.774964 0.878912985,22.774964 0.722994744,22.773945 C0.308122552,22.7712334 0.000409060797,22.388161 0.0872147132,21.9824628 C0.0977222634,21.9333543 0.117525304,21.8536264 0.148054432,21.7475178 C0.196919414,21.5776803 0.259353502,21.3902472 0.336871627,21.1894487 C0.557362951,20.6183006 0.856297614,20.0475052 1.24743249,19.5118624 C2.03834889,18.4287355 3.10204817,17.6309032 4.46661294,17.2549516 C5.13718342,17.0702026 5.70455115,16.8605232 6.17682663,16.6319695 C6.77462801,16.3426685 7.18045943,16.0448971 7.43305866,15.7623213 C7.49412229,15.6940111 7.53999125,15.6333211 7.57302053,15.5813513 L7.57302053,13.8771574 C7.44126244,13.7089085 7.226183,13.4247792 7.09757574,13.2295248 C6.71192088,12.6440151 6.46127781,12.0679829 6.40688225,11.4856762 C6.395077,11.3004865 6.39519198,11.2148653 6.40019148,11.1298886 C6.40946903,10.9669519 6.41145334,10.9280378 6.41231882,10.9074518 C6.42862161,11.0457905 6.42862161,11.0457905 6.48682891,11.189789 C6.54958425,11.3054982 6.54958425,11.3054982 6.76879866,11.4689697 C7.00403088,11.5324264 7.08504599,11.5542812 7.19148806,11.5279164 C7.63856943,11.2291955 7.63856943,11.2291955 7.66504368,11.150624 C7.5928878,11.3263591 7.5928878,11.3263591 7.38881435,11.4990439 C7.19890873,11.5894551 7.19890873,11.5894551 6.92418157,11.576854 C6.68440059,11.4886375 6.67953489,11.4837742 6.56643076,11.3707259 C6.44734038,11.1944977 6.44734038,11.1944977 6.42624449,11.116911 C6.39968902,10.958233 6.39906158,10.9350757 6.39906158,10.9074518 L7.05360704,10.9074518 L7.19559788,11.5464106 C6.7202431,11.5498418 6.55390874,11.4864687 6.3996315,11.3866729 C6.02265074,11.142819 5.71766097,10.6814915 5.544029,10.1605956 C5.29790209,9.42221486 5.37259481,8.67743513 5.83929996,8.15087692 C5.60132874,7.25490697 5.45071746,5.7625094 5.6433253,4.51988018 C6.02050736,2.08645145 7.54720468,0.467254578 10.3987661,0.216129151 C11.6450554,-0.0111451486 12.6634531,0.0485772504 13.6404884,0.495852483 C14.1783465,0.742077619 14.6678152,1.09622385 15.0943381,1.56641655 C15.1455252,1.62284447 15.189291,1.67689608 15.2299437,1.73378765 C15.2981583,1.83602762 15.4213872,2.0412528 15.4763013,2.125594 C15.5799086,2.28472213 15.7197018,2.48020114 15.920568,2.74132715 C16.1123631,2.99066081 16.0899213,3.30064096 15.9354007,3.51967755 C15.8113876,3.69546914 15.6023006,3.81268269 15.3506111,3.7929545 C15.5444093,3.46514078 15.5665028,3.16127335 15.4181078,2.93184159 C15.3621598,2.85143591 15.3171235,2.80934048 15.2716846,2.77754387 C15.6480788,3.02026303 15.8154538,3.24015406 15.9354007,3.51967755 C16.1800515,4.08981032 16.2273912,4.90802672 16.1609378,5.94125388 C16.1153504,6.65005295 15.9950431,7.49773631 15.8839198,8.06173846 C16.3399757,8.50579147 16.3735578,9.23425122 16.1098491,9.99465027 C15.9197879,10.5426879 15.6161125,11.0426162 15.2499941,11.3239823 C15.136461,11.4112337 15.0169233,11.4774679 14.8929069,11.5176019 C14.742467,11.5550065 14.6191202,10.9072581 14.6191202,10.9072581 L15.2736657,10.9072581 C15.2572329,11.051594 15.2451621,11.0954307 15.2241929,11.1715835 C15.1870068,11.2589547 15.1870068,11.2589547 15.0651019,11.4024741 C14.8451811,11.5425968 14.8017475,11.5547359 14.7390165,11.5609706 C15.1417099,11.317132 15.1417099,11.317132 15.194186,11.2211011 C15.2468722,11.0938252 15.2468722,11.0938252 15.255619,11.0443212 C15.2640847,11.1297087 15.2593093,11.2270415 15.2499941,11.3239823 C15.1905952,11.9421307 14.9466089,12.5443357 14.5791599,13.1202899 C14.4354816,13.345497 14.2821527,13.5511223 14.1282293,13.7343161 C14.1185261,13.7458645 14.0997067,15.668316 14.0997067,15.668316 C14.1244984,15.735132 14.1713348,15.8168202 14.251158,15.9147592 C14.4795413,16.1949735 14.4375239,16.6072733 14.1573096,16.8356566 C13.8770952,17.0640398 13.4647954,17.0220224 13.2364122,16.7418081 C12.9323589,16.3687505 12.8050246,16.0257692 12.7915118,15.7677689 C12.7909146,15.7563669 12.7906158,13.5160557 12.7906158,13.5160557 C12.7906158,13.3426321 12.8594399,13.176297 12.9819756,13.0535747 C13.005698,13.0298161 13.0567764,12.9745305 13.1259614,12.892189 C13.2449391,12.7505862 13.3645113,12.5902312 13.4755406,12.4161994 C13.7782029,11.9417946 13.9549938,11.4645878 13.9549938,11.0320235 C13.9593923,10.8677606 13.962271,10.838214 13.9695225,10.8000366 C14.0034246,10.6879204 14.0152019,10.6594764 14.0326864,10.6172488 C14.0856058,10.5204657 14.0856058,10.5204657 14.2417957,10.3801033 C14.5326782,10.2623621 14.5939757,10.2651371 14.7149203,10.2805369 C14.3958602,10.2839868 14.3915878,10.2870704 14.1710143,10.4462699 C14.0493236,10.5895422 14.0493236,10.5895422 14.0123393,10.6764776 C13.9833326,10.7817895 13.9716132,10.8243379 13.9672337,10.8478585 C13.9715503,10.7998707 13.9810461,10.753376 13.9951577,10.7089377 C14.0639746,10.4922298 14.2425626,10.3244231 14.4655986,10.2708162 C14.6786296,10.007821 14.7963652,9.78676241 14.8730248,9.56571574 Z" id="Path-Copy-6" fill-rule="nonzero"></path>
                        <g id="Group-14" transform="translate(13.818182, 13.818182)">
                            <path d="M5.67272727,11.5561266 C2.53706932,11.5561266 0,8.96656273 0,5.77806328 C0,2.58956383 2.53706932,0 5.67272727,0 C8.80838522,0 11.3454545,2.58956383 11.3454545,5.77806328 C11.3454545,8.96656273 8.80838522,11.5561266 5.67272727,11.5561266 Z M5.67272727,10.3924902 C8.16033223,10.3924902 10.1818182,8.32917767 10.1818182,5.77806328 C10.1818182,3.22694888 8.16033223,1.16363636 5.67272727,1.16363636 C3.18512232,1.16363636 1.16363636,3.22694888 1.16363636,5.77806328 C1.16363636,8.32917767 3.18512232,10.3924902 5.67272727,10.3924902 Z" id="Oval-6-Copy-4" fill-rule="nonzero"></path>
                            <polyline id="Combined-Shape-Copy-2" points="8.87272727 5.23636364 2.76363636 5.23636364 2.76363636 6.25454545 8.87272727 6.25454545"></polyline>
                        </g>
                    </g>
                </g>
            </g>
        </g>
    </g>
</svg>