<svg xmlns="http://www.w3.org/2000/svg" width="68" height="58" viewBox="0 0 68 58"><g fill="none" fill-rule="evenodd"><path fill="#58686F" d="M25.84 29c0-4.8.52-9 1.56-12.6 1.04-3.6 2.48-6.613 4.32-9.04 1.84-2.427 4.027-4.253 6.56-5.48C40.813.653 43.573.04 46.56.04c6.4 0 11.467 2.413 15.2 7.24 3.733 4.827 5.6 12.067 5.6 21.72 0 4.8-.52 9-1.56 12.6-1.04 3.6-2.507 6.613-4.4 9.04-1.893 2.427-4.147 4.253-6.76 5.48-2.613 1.227-5.467 1.84-8.56 1.84-3.253 0-6.133-.653-8.64-1.96-2.507-1.307-4.627-3.2-6.36-5.68-1.733-2.48-3.04-5.507-3.92-9.08-.88-3.573-1.32-7.653-1.32-12.24zm12 0c0 3.84.12 7.28.36 10.32s.68 5.613 1.32 7.72c.64 2.107 1.48 3.72 2.52 4.84C43.08 53 44.4 53.56 46 53.56c1.867 0 3.4-.453 4.6-1.36 1.2-.907 2.16-2.347 2.88-4.32.72-1.973 1.213-4.507 1.48-7.6.267-3.093.4-6.853.4-11.28 0-3.84-.107-7.28-.32-10.32-.213-3.04-.627-5.613-1.24-7.72-.613-2.107-1.493-3.72-2.64-4.84-1.147-1.12-2.68-1.68-4.6-1.68-1.707 0-3.12.453-4.24 1.36s-2.013 2.347-2.68 4.32c-.667 1.973-1.133 4.52-1.4 7.64-.267 3.12-.4 6.867-.4 11.24z"/><path fill="#747474" d="M6.17 30.36a10.953 10.953 0 0 1-3.285-.495c-.47-.15-.89-.315-1.26-.495s-.655-.36-.855-.54c.02-.2.04-.465.06-.795.02-.33.05-.665.09-1.005.04-.34.085-.67.135-.99.05-.32.115-.57.195-.75H2l1.8 2.91c.26.16.6.295 1.02.405.42.11.87.175 1.35.195v-8.55c-.08 0-.14-.02-.18-.06l-.96-.45c-.58-.26-1.14-.55-1.68-.87a6.168 6.168 0 0 1-1.425-1.155c-.41-.45-.74-.975-.99-1.575S.56 14.83.56 14.01c0-.72.14-1.39.42-2.01.28-.62.665-1.17 1.155-1.65s1.08-.865 1.77-1.155A7.154 7.154 0 0 1 6.17 8.67V7.2h1.56v1.47c.96.06 1.795.19 2.505.39s1.325.42 1.845.66c-.02.64-.105 1.17-.255 1.59-.15.42-.305.79-.465 1.11h-.78l-1.5-2.04c-.22-.04-.43-.07-.63-.09-.2-.02-.44-.04-.72-.06v8.01l.87.39c.62.3 1.225.615 1.815.945.59.33 1.115.72 1.575 1.17.46.45.83.995 1.11 1.635.28.64.42 1.43.42 2.37 0 1.46-.51 2.69-1.53 3.69s-2.44 1.61-4.26 1.83v1.83H6.17v-1.74zm4.65-5.4c0-1.04-.3-1.865-.9-2.475-.6-.61-1.33-1.115-2.19-1.515v7.68c.9-.24 1.64-.675 2.22-1.305.58-.63.87-1.425.87-2.385zM3.26 13.47c0 .54.075 1.015.225 1.425.15.41.355.775.615 1.095.26.32.565.605.915.855.35.25.735.485 1.155.705v-7.32c-.9.1-1.61.455-2.13 1.065-.52.61-.78 1.335-.78 2.175z"/></g></svg>