<svg xmlns="http://www.w3.org/2000/svg" xmlns:xlink="http://www.w3.org/1999/xlink" width="246" height="92" viewBox="0 0 246 92"><defs><rect id="a" width="246" height="32" rx="4"/></defs><g fill="none" fill-rule="evenodd"><g transform="translate(0 60)"><use fill="#FAFAFA" xlink:href="#a"/><rect width="245" height="31" x=".5" y=".5" stroke="#E4E4E4" rx="4"/></g><path fill="#283C46" fill-opacity=".877" d="M28.735 80h-1.407l-2.024-5.852h1.276l1.452 4.422 1.451-4.422h1.276l1.453 4.422 1.451-4.422h1.277L32.916 80h-1.408l-1.386-4.004L28.735 80zm10.032 0H37.36l-2.023-5.852h1.276l1.451 4.422 1.453-4.422h1.276l1.451 4.422 1.453-4.422h1.276L42.947 80H41.54l-1.386-4.004L38.767 80zM48.8 80h-1.407l-2.025-5.852h1.277l1.452 4.422 1.452-4.422h1.276l1.452 4.422 1.451-4.422h1.277L52.98 80h-1.408l-1.387-4.004L48.8 80zm7.129-.737c0-.227.078-.42.236-.578a.786.786 0 0 1 .578-.236c.227 0 .421.079.583.237a.78.78 0 0 1 .241.577c0 .227-.08.422-.242.583a.795.795 0 0 1-.582.242.777.777 0 0 1-.578-.242.804.804 0 0 1-.236-.583zm6.314-3.96c-.61 0-1.067.198-1.375.594-.309.396-.462.928-.462 1.595V80h-1.233v-5.852h1.233v1.177a2.55 2.55 0 0 1 .808-.902 1.948 1.948 0 0 1 1.084-.363l.01 1.243h-.066zm6.742 2.31h-4.587c.03.425.224.768.584 1.029.359.26.77.39 1.232.39.733 0 1.29-.231 1.672-.693l.703.77c-.63.653-1.451.979-2.463.979-.822 0-1.52-.273-2.096-.82-.576-.546-.863-1.28-.863-2.2 0-.92.293-1.651.88-2.194a2.953 2.953 0 0 1 2.073-.814c.796 0 1.472.24 2.03.72.557.48.835 1.143.835 1.986v.847zm-4.587-.968h3.355c0-.491-.153-.869-.462-1.133-.308-.264-.687-.396-1.138-.396-.451 0-.856.137-1.216.412-.359.276-.539.648-.539 1.117zm7.172.187V80h-1.231v-5.852h1.232v1.067c.198-.36.47-.642.819-.847a2.182 2.182 0 0 1 1.127-.308c.66 0 1.194.202 1.601.605.407.403.61.986.61 1.749V80h-1.231v-3.212c0-1.078-.448-1.617-1.343-1.617-.425 0-.795.141-1.11.424-.316.282-.474.694-.474 1.237zm7.392-1.694v2.97c0 .279.074.5.22.665.147.166.352.248.617.248.264 0 .516-.128.758-.385l.507.869c-.433.389-.912.583-1.436.583-.524 0-.972-.181-1.342-.545-.37-.363-.555-.852-.555-1.468v-2.937h-.737v-.99h.737v-1.837h1.231v1.837h1.54v.99h-1.54zM86.784 80H85.66v-.781c-.484.58-1.132.869-1.947.869-.608 0-1.112-.172-1.512-.517-.4-.345-.6-.805-.6-1.38 0-.576.213-1.007.639-1.293.425-.286 1-.429 1.727-.429h1.594v-.22c0-.777-.432-1.166-1.298-1.166-.542 0-1.107.198-1.694.594l-.55-.77a3.789 3.789 0 0 1 2.42-.847c.69 0 1.253.174 1.689.522.436.349.654.897.654 1.645V80zm-1.233-2.178v-.495h-1.385c-.888 0-1.332.279-1.332.836 0 .286.11.504.33.654.22.15.527.226.919.226s.735-.11 1.029-.33c.293-.22.44-.517.44-.891zm8.097-2.948c.557.543.835 1.265.835 2.167 0 .902-.276 1.635-.83 2.2-.554.565-1.199.847-1.936.847-.737 0-1.399-.323-1.985-.968v3.014H88.5v-7.986h1.232v1.023c.484-.74 1.118-1.111 1.903-1.111.784 0 1.455.271 2.013.814zm-3.433 3.58c.338.356.748.534 1.233.534a1.75 1.75 0 0 0 1.264-.528c.36-.352.54-.808.54-1.37 0-.56-.176-1.026-.529-1.396a1.684 1.684 0 0 0-1.264-.556c-.492 0-.906.185-1.243.556-.338.37-.507.834-.507 1.391s.17 1.014.507 1.37zm10.825-3.58c.557.543.835 1.265.835 2.167 0 .902-.276 1.635-.83 2.2-.554.565-1.199.847-1.936.847-.737 0-1.399-.323-1.986-.968v3.014h-1.231v-7.986h1.231v1.023c.485-.74 1.119-1.111 1.903-1.111a2.78 2.78 0 0 1 2.013.814zm-3.433 3.58c.338.356.748.534 1.233.534a1.75 1.75 0 0 0 1.264-.528c.36-.352.54-.808.54-1.37 0-.56-.176-1.026-.528-1.396a1.684 1.684 0 0 0-1.265-.556c-.492 0-.906.185-1.243.556-.338.37-.507.834-.507 1.391s.17 1.014.507 1.37zM104.516 80h-1.233v-8.162h1.233V80zm3.013 0h-1.232v-5.852h1.232V80zm-1.386-7.568c0-.213.077-.396.232-.55a.751.751 0 0 1 .55-.231c.212 0 .395.077.55.231a.751.751 0 0 1 .23.55.751.751 0 0 1-.23.55.751.751 0 0 1-.55.231.751.751 0 0 1-.55-.231.751.751 0 0 1-.231-.55zm5.764 7.656a2.955 2.955 0 0 1-2.1-.83c-.587-.554-.88-1.278-.88-2.173s.306-1.622.918-2.183c.612-.562 1.358-.842 2.239-.842.88 0 1.624.304 2.233.913l-.727.891c-.506-.44-1.015-.66-1.528-.66-.514 0-.96.17-1.337.512-.378.34-.567.78-.567 1.32 0 .539.187.995.562 1.369.374.374.834.561 1.38.561.546 0 1.061-.25 1.545-.748l.727.792c-.712.719-1.533 1.078-2.465 1.078zm8.481-.088h-1.121v-.781c-.485.58-1.133.869-1.948.869-.608 0-1.112-.172-1.512-.517-.4-.345-.6-.805-.6-1.38 0-.576.213-1.007.638-1.293.426-.286 1.001-.429 1.728-.429h1.594v-.22c0-.777-.432-1.166-1.297-1.166-.543 0-1.108.198-1.695.594l-.55-.77a3.789 3.789 0 0 1 2.42-.847c.69 0 1.253.174 1.689.522.436.349.654.897.654 1.645V80zm-1.231-2.178v-.495h-1.387c-.887 0-1.33.279-1.33.836 0 .286.11.504.33.654.22.15.526.226.918.226s.735-.11 1.029-.33c.293-.22.44-.517.44-.891zm4.465-2.684v2.97c0 .279.074.5.22.665.147.166.352.248.617.248.264 0 .516-.128.758-.385l.507.869c-.433.389-.912.583-1.436.583-.524 0-.972-.181-1.342-.544-.37-.364-.555-.853-.555-1.469v-2.937h-.737v-.99h.736v-1.837h1.233v1.837h1.54v.99h-1.54zM127.934 80H126.7v-5.852h1.233V80zm-1.386-7.568a.75.75 0 0 1 .23-.55.751.751 0 0 1 .55-.231.75.75 0 0 1 .55.231.751.751 0 0 1 .231.55.751.751 0 0 1-.23.55.751.751 0 0 1-.55.231.751.751 0 0 1-.55-.231.751.751 0 0 1-.231-.55zm5.863 6.556c.535 0 .977-.178 1.325-.534.348-.355.523-.815.523-1.38s-.175-1.025-.523-1.38c-.348-.356-.79-.534-1.325-.534-.536 0-.978.178-1.326.534-.348.355-.523.815-.523 1.38s.175 1.025.523 1.38c.348.356.79.534 1.326.534zm0 1.1c-.88 0-1.614-.291-2.2-.875-.587-.583-.88-1.296-.88-2.139 0-.843.293-1.556.88-2.14.586-.583 1.32-.874 2.2-.874.88 0 1.613.291 2.2.874.586.584.88 1.297.88 2.14 0 .843-.294 1.556-.88 2.14-.587.583-1.32.874-2.2.874zm5.708-3.256V80h-1.232v-5.852h1.232v1.067c.199-.36.472-.642.82-.847a2.182 2.182 0 0 1 1.127-.308c.66 0 1.194.202 1.601.605.407.403.61.986.61 1.749V80h-1.231v-3.212c0-1.078-.448-1.617-1.343-1.617-.425 0-.795.141-1.11.424-.316.282-.474.694-.474 1.237zm5.71 2.431c0-.227.078-.42.236-.578a.786.786 0 0 1 .578-.236c.227 0 .421.079.583.236.16.158.242.35.242.578a.796.796 0 0 1-.242.583.795.795 0 0 1-.583.242.777.777 0 0 1-.578-.242.804.804 0 0 1-.237-.583zm4.476-2.431V80h-1.232v-5.852h1.232v1.067c.199-.36.472-.642.82-.847a2.182 2.182 0 0 1 1.127-.308c.66 0 1.194.202 1.601.605.407.403.61.986.61 1.749V80h-1.231v-3.212c0-1.078-.448-1.617-1.343-1.617-.425 0-.795.141-1.11.424-.316.282-.474.694-.474 1.237zm11.32.781h-4.588c.03.425.224.768.583 1.029.36.26.77.39 1.232.39.734 0 1.291-.231 1.672-.693l.704.77c-.63.653-1.451.979-2.464.979-.82 0-1.52-.273-2.095-.82-.576-.546-.864-1.28-.864-2.2 0-.92.294-1.651.88-2.194a2.953 2.953 0 0 1 2.074-.814c.796 0 1.472.24 2.03.72.557.48.836 1.143.836 1.986v.847zm-4.588-.968h3.356c0-.491-.154-.869-.463-1.133-.308-.264-.687-.396-1.138-.396-.451 0-.856.137-1.215.412-.36.276-.54.648-.54 1.117zm7.458-1.507v2.97c0 .279.074.5.22.665.147.166.352.248.617.248.264 0 .516-.128.758-.385l.506.869c-.432.389-.91.583-1.435.583-.524 0-.972-.181-1.342-.545-.37-.363-.555-.852-.555-1.468v-2.937h-.738v-.99h.737v-1.837h1.232v1.837h1.54v.99h-1.54zm7.26-4.059h1.1l-4.762 10.208h-1.1l4.763-10.208zm1.706 1.232h2.793V80h-1.231v-6.534h-1.563v-1.155zm7.952 3.003c.22-.3.33-.605.33-.913 0-.308-.117-.57-.351-.787-.235-.216-.532-.324-.892-.324-.63 0-1.154.323-1.572.968l-1.046-.605c.338-.506.71-.887 1.117-1.144.407-.257.931-.385 1.573-.385.642 0 1.204.203 1.689.61.484.408.726.963.726 1.667 0 .396-.103.774-.308 1.133-.206.36-.583.821-1.133 1.386l-1.804 1.837h3.487V80h-5.259v-1.1l2.333-2.343c.52-.528.89-.942 1.11-1.243zm3.245-1.848v-1.155h4.5v1.012l-1.86 2.079c.705.022 1.254.244 1.65.665.397.422.594.926.594 1.513 0 .785-.265 1.4-.797 1.848-.532.447-1.215.671-2.052.671-.836 0-1.653-.268-2.453-.803l.55-1.045c.631.44 1.291.66 1.98.66.448 0 .816-.104 1.106-.314.29-.209.434-.51.434-.902s-.16-.705-.483-.94c-.323-.235-.77-.352-1.343-.352-.286 0-.56.04-.825.121v-.99l1.782-2.068h-2.782zm9.967 6.121c-.404.334-.92.501-1.552.501-.425 0-.867-.077-1.325-.231a3.983 3.983 0 0 1-1.215-.649l.594-.957c.682.513 1.341.77 1.98.77.278 0 .498-.064.66-.193a.6.6 0 0 0 .242-.489c0-.293-.39-.557-1.166-.792a1.35 1.35 0 0 0-.132-.044c-1.218-.33-1.827-.88-1.827-1.65 0-.543.211-.977.633-1.303.422-.327.97-.49 1.644-.49.675 0 1.313.198 1.915.594l-.463.913a2.756 2.756 0 0 0-1.55-.473c-.294 0-.532.053-.715.16a.519.519 0 0 0-.276.478c0 .19.096.33.286.418.133.066.318.128.556.187.238.059.45.117.633.176.183.059.36.125.533.198.172.073.357.176.555.308.397.264.595.675.595 1.232 0 .557-.202 1.003-.605 1.336zm3.52-4.449v2.97c0 .279.073.5.22.665.146.166.351.248.615.248.265 0 .517-.128.76-.385l.505.869c-.432.389-.91.583-1.435.583-.524 0-.972-.181-1.342-.545-.37-.363-.555-.852-.555-1.468v-2.937h-.738v-.99h.737v-1.837h1.232v1.837h1.54v.99h-1.54zm6.148.165c-.608 0-1.066.198-1.375.594-.308.396-.462.928-.462 1.595V80h-1.231v-5.852h1.232v1.177a2.55 2.55 0 0 1 .808-.902 1.948 1.948 0 0 1 1.084-.363l.01 1.243h-.066zm6.743 2.31h-4.587c.03.425.224.768.583 1.029.36.26.77.39 1.232.39.734 0 1.291-.231 1.672-.693l.704.77c-.63.653-1.451.979-2.463.979-.822 0-1.52-.273-2.096-.82-.576-.546-.863-1.28-.863-2.2 0-.92.293-1.651.88-2.194a2.953 2.953 0 0 1 2.073-.814c.796 0 1.472.24 2.03.72.557.48.835 1.143.835 1.986v.847zm-4.587-.968h3.355c0-.491-.153-.869-.462-1.133-.308-.264-.687-.396-1.138-.396-.451 0-.856.137-1.216.412-.359.276-.538.648-.538 1.117zm11.385.968h-4.587c.03.425.224.768.583 1.029.36.26.77.39 1.232.39.734 0 1.291-.231 1.672-.693l.704.77c-.63.653-1.451.979-2.463.979-.822 0-1.52-.273-2.096-.82-.576-.546-.863-1.28-.863-2.2 0-.92.293-1.651.88-2.194a2.953 2.953 0 0 1 2.073-.814c.796 0 1.472.24 2.03.72.557.48.835 1.143.835 1.986v.847zm-4.587-.968h3.355c0-.491-.153-.869-.462-1.133-.308-.264-.687-.396-1.138-.396-.451 0-.856.137-1.216.412-.359.276-.538.648-.538 1.117zm7.458-1.507v2.97c0 .279.074.5.22.665.147.166.352.248.617.248.264 0 .516-.128.758-.385l.506.869c-.432.389-.91.583-1.435.583-.524 0-.972-.181-1.342-.545-.37-.363-.555-.852-.555-1.468v-2.937h-.737v-.99h.737v-1.837h1.232v1.837h1.54v.99h-1.54z"/><path fill="#3EC19D" fill-rule="nonzero" d="M84.524 27.728a19.62 19.62 0 0 0 1.65 3.758l.867-.499a18.628 18.628 0 0 1-1.565-3.566l-.952.307zm4.122 7.058a15.739 15.739 0 0 0 3.235 2.569l.514-.858a14.753 14.753 0 0 1-3.03-2.406l-.72.695zm7.068 4.242c1.292.381 2.648.62 4.047.715l.068-.998a17.743 17.743 0 0 1-3.831-.676l-.284.959zm8.152.592l-.123-.993a23.331 23.331 0 0 0 3.83-.812l.288.957a24.33 24.33 0 0 1-3.995.848zm7.781-2.69a18.827 18.827 0 0 0 3.081-2.72l-.737-.676a17.83 17.83 0 0 1-2.915 2.575l.571.82zm5.558-6.032c.75-1.254 1.322-2.534 1.677-3.774l-.96-.276c-.331 1.153-.868 2.354-1.575 3.536l.858.514zm1.96-8a5.72 5.72 0 0 0-1.406-2.796c-.275-.298-.56-.576-.851-.834l-.662.75c.266.235.526.489.779.763.595.645.98 1.421 1.16 2.314l.98-.198zm-5.987-5.688a8.251 8.251 0 0 0-4.256-.013l.251.968a7.251 7.251 0 0 1 3.744.01l.26-.965zm-7.937 1.904a11.94 11.94 0 0 0-2.684 3.198l.864.505a10.94 10.94 0 0 1 2.457-2.932l-.637-.77zm-4.26 7.19a11.633 11.633 0 0 0-.188 4.174l.991-.13a10.635 10.635 0 0 1 .171-3.817l-.974-.226zm.938 8.157l.919-.395a20.213 20.213 0 0 0 1.9 3.41l-.825.564a21.207 21.207 0 0 1-1.994-3.58zm4.56 6.781c.911.988 1.9 1.932 2.932 2.81l.648-.763a32.515 32.515 0 0 1-2.845-2.725l-.735.678zm6.212 5.261c1.294.84 2.535 1.496 3.608 1.906l.36-.933c-1.005-.384-2.185-1.007-3.424-1.812l-.544.84zm7.475 3.146c1.366.348 2.698.588 4.01.722l.1-.995a26.544 26.544 0 0 1-3.863-.696l-.247.969zm8.104.8a26.046 26.046 0 0 0 4.035-.59l-.219-.976a25.047 25.047 0 0 1-3.88.568l.064.998zm7.98-1.75a36.096 36.096 0 0 0 3.734-1.586l-.442-.897a35.096 35.096 0 0 1-3.63 1.543l.339.94zm7.293-3.586a40.63 40.63 0 0 0 3.307-2.339l-.616-.787a39.894 39.894 0 0 1-3.227 2.281l.536.845zm6.378-4.98a49.374 49.374 0 0 0 2.826-2.888l-.743-.67c-.89.986-1.812 1.93-2.768 2.83l.685.728zm5.42-5.991a60.02 60.02 0 0 0 2.363-3.27l-.83-.558a59.022 59.022 0 0 1-2.323 3.214l.79.614zm4.515-6.687c.407-.692.78-1.348 1.186-2.085.052-.093.653-1.192.777-1.411l-.87-.492a248.47 248.47 0 0 0-.782 1.42c-.403.73-.77 1.378-1.173 2.06l.862.508zm3.573-7.249c.077-.228.137-.411.272-.822.366-1.113.533-1.603.764-2.2l-.933-.36c-.239.619-.41 1.12-.78 2.248l-.27.816.947.318z"/><path fill="#3EC19D" d="M172.731 30.798C176.789 16.404 181 .47 181 .257c0-.42-.44-.193-.435-.214.01-.04-15.734 8.464-31.432 17.197-.235.13-.108.495 0 .53.107.035 8.8 2.35 8.8 2.35v9.824l6.094-6.835s4.08 4.11 8.269 7.81c.164.145.376.09.435-.12z"/><path fill="#329E80" d="M159.21 20.895L171 11l-12 16z"/></g></svg>