<svg xmlns="http://www.w3.org/2000/svg" width="124" height="40" viewBox="0 0 124 40"><g fill="none" fill-rule="evenodd" transform="translate(1 1)"><rect width="122.405" height="38" fill="#FFF" stroke="#4571CC" rx="2"/><g fill="#4571CC"><text font-family="OpenSans-Semibold, Open Sans" font-size="14" font-weight="500" transform="translate(22.908 10)"><tspan x="26.115" y="15">Share…</tspan></text><path fill-rule="nonzero" d="M25.367 23.621c2.212-2.217 4.986-3.415 8.318-3.03a.53.53 0 0 1 .47.526v2.1L39.638 19l-5.485-4.219v1.572a.53.53 0 0 1-.53.53c-3.953 0-6.558 1.86-8.129 5-.43.862-.757 1.774-.994 2.698.267-.326.556-.648.866-.959zm.75.748a12.175 12.175 0 0 0-1.57 1.94 8.34 8.34 0 0 0-.504.86c-.25.521-1.035.322-1.006-.255.005-.094.018-.26.044-.49.043-.375.108-.793.198-1.242a15.042 15.042 0 0 1 1.27-3.773c1.667-3.335 4.452-5.412 8.546-5.576v-2.128a.53.53 0 0 1 .853-.42l6.882 5.294a.53.53 0 0 1 0 .84l-6.882 5.294a.53.53 0 0 1-.853-.42V21.6c-2.77-.186-5.084.87-6.978 2.77z"/></g></g></svg>