<svg xmlns="http://www.w3.org/2000/svg" xmlns:xlink="http://www.w3.org/1999/xlink" width="105" height="106" viewBox="0 0 105 106"><defs><path id="a" d="M44 97c31.223-20.292 44.89-47.625 41-82-2.5-.5-8.283-1.328-20-7-2.149-1.575-5.131-3.191-7-4-8.68-4.853-17.982-5.594-27 0-2.602 1.134-4.805 2.46-7 4-14.033 7.169-21 7.5-23 8-2.211 33.708 12.122 60.708 43 81z"/><circle id="c" cx="81.5" cy="2.5" r="2.5"/><circle id="d" cx="14.5" cy="87.5" r="2.5"/><circle id="e" cx="96.5" cy="44.5" r="2.5"/></defs><g fill="none" fill-rule="evenodd"><g transform="translate(6 5)"><mask id="b" fill="#fff"><use xlink:href="#a"/></mask><use fill="#DAF3F7" stroke="#4EC6E6" stroke-linecap="square" stroke-width="3" opacity=".49" xlink:href="#a"/><path fill="#FFF" stroke="#98E6F9" stroke-linecap="square" stroke-width="3" d="M44 83c23.056-15.062 33.39-35.395 31-61-3-.5-6.88-.852-15-5-2.157-1.23-4.368-2.43-6-3-6.187-3.633-13.08-4.183-20 0-1.693.811-3.326 1.795-5 3-10.354 5.26-15 5.5-17 6-1.639 24.938 9.028 44.938 32 60z" mask="url(#b)"/><path fill="#87CDDE" d="M43 0h87v119H44z" mask="url(#b)" opacity=".109" style="mix-blend-mode:multiply"/><path fill="#FAFAFA" d="M1 0h87v119H2z" mask="url(#b)" opacity=".435"/><path stroke="#92DB92" stroke-linecap="square" stroke-width="3" d="M32 45.5l9 9.5 17-19" mask="url(#b)" transform="rotate(-10 45 45.5)"/></g><use fill="#FAFAFA" xlink:href="#c"/><circle cx="81.5" cy="2.5" r="2" stroke="#E4E4E4"/><use fill="#FAFAFA" xlink:href="#d"/><circle cx="14.5" cy="87.5" r="2" stroke="#E4E4E4"/><circle cx="90" cy="83" r="1" fill="#E4E4E4"/><circle cx="81" cy="9" r="1" fill="#E4E4E4"/><path d="M9 76h3m-1.5-1.5v3M89.51 71.866l2.298 1.928m-.185-2.113l-1.928 2.298M67 3.5h3M68.5 2v3" stroke="#E4E4E4" stroke-linecap="square"/><use fill="#FAFAFA" xlink:href="#e"/><circle cx="96.5" cy="44.5" r="2" stroke="#E4E4E4"/><circle cx="95" cy="62" r="1" fill="#E4E4E4"/><circle cx="5" cy="59" r="1" fill="#E4E4E4"/></g></svg>