<?xml version="1.0" encoding="utf-8"?>
<!-- Generator: Adobe Illustrator 16.0.0, SVG Export Plug-In . SVG Version: 6.00 Build 0)  -->
<!DOCTYPE svg PUBLIC "-//W3C//DTD SVG 1.1//EN" "http://www.w3.org/Graphics/SVG/1.1/DTD/svg11.dtd">
<svg version="1.1" id="Layer_1" xmlns="http://www.w3.org/2000/svg" xmlns:xlink="http://www.w3.org/1999/xlink" x="0px" y="0px"
	 width="25px" height="25px" viewBox="0.5 0 25 25" enable-background="new 0.5 0 25 25" xml:space="preserve">
<title>late-30-symbol</title>
<desc>Created with Sketch.</desc>
<g id="Final-Reports">
	<g id="Artboard" transform="translate(-23.000000, -103.000000)">
		<g id="late-30-symbol" transform="translate(23.500000, 103.000000)">
			<path id="Oval" fill="#F6A623" d="M12.5,25C19.403,25,25,19.403,25,12.5S19.403,0,12.5,0S0,5.597,0,12.5S5.597,25,12.5,25z
				 M12.5,23.295c-5.962,0-10.795-4.833-10.795-10.795S6.538,1.705,12.5,1.705S23.295,6.538,23.295,12.5S18.462,23.295,12.5,23.295z
				"/>
			<path id="_x33_0" fill="#F6A623" d="M8.708,7c0.462,0,0.879,0.066,1.251,0.197c0.372,0.132,0.689,0.314,0.953,0.548
				c0.264,0.233,0.466,0.507,0.606,0.821c0.141,0.314,0.211,0.653,0.211,1.019c0,0.319-0.036,0.6-0.107,0.842
				c-0.072,0.243-0.175,0.454-0.312,0.634c-0.136,0.18-0.302,0.333-0.499,0.458c-0.197,0.125-0.419,0.229-0.669,0.312
				c0.601,0.189,1.049,0.479,1.344,0.866c0.296,0.388,0.444,0.876,0.444,1.462c0,0.5-0.093,0.94-0.277,1.324
				c-0.185,0.383-0.434,0.705-0.749,0.967c-0.314,0.261-0.678,0.459-1.091,0.592c-0.414,0.135-0.852,0.201-1.313,0.201
				c-0.503,0-0.942-0.058-1.316-0.173c-0.375-0.116-0.7-0.286-0.977-0.513c-0.277-0.227-0.513-0.504-0.707-0.832
				C5.305,15.396,5.139,15.018,5,14.588l0.755-0.312c0.129-0.056,0.261-0.083,0.395-0.083c0.12,0,0.228,0.025,0.322,0.076
				s0.167,0.125,0.218,0.222c0.083,0.161,0.174,0.321,0.274,0.479c0.099,0.157,0.218,0.297,0.357,0.419
				c0.138,0.123,0.301,0.222,0.488,0.298c0.187,0.077,0.41,0.114,0.669,0.114c0.291,0,0.545-0.047,0.762-0.142
				s0.398-0.218,0.544-0.371c0.146-0.152,0.254-0.322,0.326-0.509c0.072-0.188,0.107-0.376,0.107-0.565
				c0-0.24-0.025-0.458-0.076-0.655c-0.051-0.195-0.157-0.363-0.319-0.502s-0.394-0.247-0.696-0.326
				c-0.303-0.079-0.708-0.118-1.216-0.118v-1.22c0.42-0.004,0.769-0.044,1.046-0.118s0.498-0.177,0.662-0.309
				c0.164-0.131,0.278-0.29,0.343-0.475c0.064-0.185,0.097-0.388,0.097-0.61c0-0.476-0.129-0.835-0.388-1.078
				S9.059,8.441,8.61,8.441c-0.406,0-0.744,0.107-1.012,0.322S7.144,9.254,7.038,9.592C6.982,9.768,6.906,9.893,6.809,9.97
				c-0.097,0.076-0.224,0.114-0.381,0.114c-0.074,0-0.153-0.007-0.236-0.021L5.291,9.904c0.069-0.48,0.203-0.902,0.402-1.265
				C5.892,8.276,6.14,7.974,6.438,7.731c0.298-0.242,0.64-0.425,1.025-0.547C7.85,7.061,8.264,7,8.708,7z M20.107,12.121
				c0,0.874-0.094,1.633-0.281,2.277c-0.187,0.645-0.445,1.176-0.775,1.597s-0.721,0.733-1.172,0.938
				c-0.45,0.206-0.936,0.309-1.459,0.309c-0.521,0-1.006-0.103-1.451-0.309c-0.445-0.205-0.832-0.518-1.16-0.938
				s-0.585-0.952-0.77-1.597c-0.185-0.645-0.277-1.404-0.277-2.277c0-0.877,0.092-1.638,0.277-2.28
				c0.185-0.642,0.441-1.173,0.77-1.594s0.715-0.733,1.16-0.939C15.414,7.103,15.898,7,16.42,7c0.523,0,1.009,0.103,1.459,0.309
				c0.451,0.206,0.842,0.519,1.172,0.939s0.589,0.952,0.775,1.594C20.014,10.483,20.107,11.244,20.107,12.121z M18.34,12.121
				c0-0.725-0.053-1.326-0.159-1.802c-0.106-0.476-0.248-0.854-0.426-1.136c-0.179-0.282-0.382-0.479-0.613-0.593
				S16.67,8.421,16.42,8.421c-0.244,0-0.48,0.056-0.709,0.169c-0.229,0.113-0.432,0.311-0.607,0.593s-0.314,0.661-0.419,1.136
				c-0.104,0.476-0.155,1.077-0.155,1.802c0,0.726,0.051,1.326,0.155,1.802s0.243,0.854,0.419,1.137s0.378,0.479,0.607,0.593
				c0.229,0.113,0.465,0.17,0.709,0.17c0.25,0,0.49-0.057,0.722-0.17s0.435-0.311,0.613-0.593c0.178-0.282,0.319-0.661,0.426-1.137
				S18.34,12.847,18.34,12.121z"/>
		</g>
	</g>
</g>
</svg>
