<?xml version="1.0" encoding="utf-8"?>
<!-- Generator: Adobe Illustrator 16.0.0, SVG Export Plug-In . SVG Version: 6.00 Build 0)  -->
<!DOCTYPE svg PUBLIC "-//W3C//DTD SVG 1.1//EN" "http://www.w3.org/Graphics/SVG/1.1/DTD/svg11.dtd">
<svg version="1.1" id="Layer_1" xmlns="http://www.w3.org/2000/svg" xmlns:xlink="http://www.w3.org/1999/xlink" x="0px" y="0px"
	 width="25px" height="25px" viewBox="0.5 0 25 25" enable-background="new 0.5 0 25 25" xml:space="preserve">
<title>na-symbol</title>
<desc>Created with Sketch.</desc>
<g id="Final-Reports">
	<g id="Artboard" transform="translate(-23.000000, -193.000000)">
		<g id="na-symbol" transform="translate(23.500000, 193.000000)">
			<path id="Oval" fill="#B0B5BC" d="M12.5,25C19.403,25,25,19.403,25,12.5S19.403,0,12.5,0S0,5.597,0,12.5S5.597,25,12.5,25z
				 M12.5,23.295c-5.962,0-10.795-4.833-10.795-10.795S6.538,1.705,12.5,1.705S23.295,6.538,23.295,12.5S18.462,23.295,12.5,23.295z
				"/>
			<path id="N_x2F_A" fill="#B0B5BC" d="M3.782,8.222c0.066,0,0.122,0.003,0.167,0.008c0.044,0.005,0.084,0.017,0.119,0.033
				S4.137,8.304,4.17,8.335S4.24,8.408,4.281,8.46l4.208,5.361c-0.015-0.13-0.025-0.256-0.031-0.38S8.45,13.202,8.45,13.095V8.222
				h1.314v8.017H8.993c-0.118,0-0.216-0.019-0.294-0.055c-0.078-0.037-0.153-0.104-0.228-0.2l-4.191-5.339
				c0.011,0.118,0.02,0.235,0.025,0.352c0.005,0.116,0.008,0.223,0.008,0.319v4.923H3V8.222H3.782z M11.782,16.255
				c-0.033,0.085-0.076,0.159-0.127,0.222s-0.111,0.115-0.178,0.158c-0.066,0.043-0.137,0.074-0.21,0.098
				c-0.074,0.021-0.146,0.033-0.216,0.033h-0.577l3.238-8.283c0.062-0.155,0.153-0.274,0.271-0.357C14.102,8.042,14.243,8,14.41,8
				h0.582L11.782,16.255z M21.783,16.238H20.63c-0.13,0-0.235-0.032-0.319-0.097c-0.082-0.065-0.143-0.146-0.18-0.241l-0.599-1.636
				h-3.321L15.613,15.9c-0.03,0.085-0.088,0.162-0.176,0.232c-0.086,0.07-0.193,0.105-0.318,0.105h-1.158l3.148-8.017h1.525
				L21.783,16.238z M16.594,13.211h2.557l-0.977-2.666c-0.045-0.119-0.094-0.258-0.146-0.419c-0.054-0.161-0.106-0.335-0.158-0.524
				c-0.052,0.188-0.103,0.364-0.152,0.527c-0.051,0.163-0.1,0.305-0.146,0.427L16.594,13.211z"/>
		</g>
	</g>
</g>
</svg>
