<svg xmlns="http://www.w3.org/2000/svg" width="60" height="60" viewBox="0 0 60 60"><path fill="#9DB4E3" fill-rule="evenodd" d="M28.309 58h-12.07V24.953l.116-5.43.196-5.937c-2.005 2.005-3.399 3.32-4.18 3.945L5.81 22.805l-5.82-7.266L18.386.891h9.922V58zm17.187-5.586c0-2.187.586-3.841 1.758-4.96 1.172-1.12 2.877-1.68 5.117-1.68 2.162 0 3.835.572 5.02 1.718 1.185 1.146 1.777 2.787 1.777 4.922 0 2.057-.599 3.678-1.797 4.863-1.198 1.185-2.864 1.778-5 1.778-2.187 0-3.88-.58-5.078-1.739-1.198-1.158-1.797-2.793-1.797-4.902z" opacity=".267"/></svg>