<svg xmlns="http://www.w3.org/2000/svg" width="62" height="60" viewBox="0 0 62 60"><path fill="#9DB4E3" fill-rule="evenodd" d="M40.387 58H.465v-8.398L14.8 35.109c4.245-4.349 7.018-7.363 8.32-9.043 1.302-1.68 2.24-3.235 2.813-4.668.573-1.432.859-2.916.859-4.453 0-2.291-.632-3.997-1.895-5.117s-2.949-1.68-5.058-1.68c-2.214 0-4.362.508-6.445 1.524-2.084 1.016-4.258 2.46-6.524 4.336L.31 8.234C3.12 5.84 5.452 4.146 7.3 3.156c1.849-.99 3.867-1.751 6.054-2.285 2.188-.534 4.636-.8 7.344-.8 3.568 0 6.719.65 9.453 1.952 2.735 1.303 4.857 3.125 6.368 5.47 1.51 2.343 2.265 5.025 2.265 8.046 0 2.63-.462 5.098-1.387 7.402-.924 2.305-2.356 4.668-4.296 7.09-1.94 2.422-5.358 5.873-10.254 10.352l-7.344 6.914v.547h24.883V58zm7.11-5.586c0-2.187.585-3.841 1.757-4.96 1.172-1.12 2.877-1.68 5.117-1.68 2.162 0 3.835.572 5.02 1.718 1.185 1.146 1.777 2.787 1.777 4.922 0 2.057-.599 3.678-1.797 4.863-1.198 1.185-2.864 1.778-5 1.778-2.187 0-3.88-.58-5.078-1.739-1.198-1.158-1.797-2.793-1.797-4.902z" opacity=".267"/></svg>