<svg xmlns="http://www.w3.org/2000/svg" width="62" height="60" viewBox="0 0 62 60"><path fill="#9DB4E3" fill-rule="evenodd" d="M38.16 13.664c0 3.568-1.08 6.602-3.242 9.102s-5.195 4.218-9.102 5.156v.234c4.61.573 8.1 1.973 10.47 4.2 2.369 2.226 3.554 5.227 3.554 9.003 0 5.495-1.992 9.772-5.977 12.832-3.984 3.06-9.674 4.59-17.07 4.59-6.198 0-11.693-1.028-16.484-3.086V45.422c2.213 1.12 4.648 2.031 7.304 2.734 2.657.703 5.287 1.055 7.89 1.055 3.985 0 6.928-.677 8.829-2.031 1.901-1.354 2.852-3.529 2.852-6.524 0-2.682-1.094-4.583-3.282-5.703-2.187-1.12-5.677-1.68-10.468-1.68H9.098v-9.257h4.414c4.427 0 7.662-.58 9.707-1.739 2.044-1.159 3.066-3.144 3.066-5.957 0-4.323-2.708-6.484-8.125-6.484-1.875 0-3.782.312-5.723.937-1.94.625-4.095 1.706-6.464 3.243L.387 5.696C5.595 1.945 11.806.07 19.02.07c5.911 0 10.579 1.198 14.003 3.594 3.425 2.396 5.137 5.73 5.137 10zm9.336 38.75c0-2.187.586-3.841 1.758-4.96 1.172-1.12 2.877-1.68 5.117-1.68 2.162 0 3.835.572 5.02 1.718 1.185 1.146 1.777 2.787 1.777 4.922 0 2.057-.599 3.678-1.797 4.863-1.198 1.185-2.864 1.778-5 1.778-2.187 0-3.88-.58-5.078-1.739-1.198-1.158-1.797-2.793-1.797-4.902z" opacity=".267"/></svg>