<svg xmlns="http://www.w3.org/2000/svg" width="64" height="60" viewBox="0 0 64 60"><path fill="#9DB4E3" fill-rule="evenodd" d="M43.676 46.164H36.8V58H25.004V46.164H.629v-8.398L25.668.89h11.133v35.898h6.875v9.375zM25.004 36.79v-9.687c0-1.615.065-3.959.195-7.032s.235-4.856.313-5.351h-.313a43.562 43.562 0 0 1-3.476 6.25l-10.47 15.82h13.75zm24.492 15.625c0-2.187.586-3.841 1.758-4.96 1.172-1.12 2.877-1.68 5.117-1.68 2.162 0 3.835.572 5.02 1.718 1.185 1.146 1.777 2.787 1.777 4.922 0 2.057-.599 3.678-1.797 4.863-1.198 1.185-2.864 1.778-5 1.778-2.187 0-3.88-.58-5.078-1.739-1.198-1.158-1.797-2.793-1.797-4.902z" opacity=".267"/></svg>