<svg xmlns="http://www.w3.org/2000/svg" width="64" height="63" viewBox="0 0 64 63"><path fill="#9DB4E3" fill-rule="evenodd" d="M21.473 22.33c5.881 0 10.563 1.65 14.044 4.952 3.482 3.3 5.222 7.823 5.222 13.565 0 6.796-2.094 12.026-6.283 15.687-4.189 3.662-10.18 5.493-17.976 5.493-6.769 0-12.234-1.096-16.395-3.287V47.63c2.192 1.165 4.744 2.115 7.656 2.85 2.913.735 5.673 1.103 8.281 1.103 7.85 0 11.776-3.218 11.776-9.654 0-6.131-4.064-9.196-12.192-9.196-1.47 0-3.093.145-4.869.437-1.775.29-3.217.603-4.327.936L1.292 31.36 3.58.36h32.998v10.9H14.857l-1.124 11.943 1.457-.292c1.692-.388 3.787-.582 6.283-.582zm27.963 32.914c0-2.33.624-4.091 1.873-5.284 1.248-1.193 3.065-1.79 5.45-1.79 2.303 0 4.085.61 5.348 1.831C63.369 51.222 64 52.97 64 55.244c0 2.192-.638 3.919-1.914 5.181-1.276 1.262-3.052 1.893-5.326 1.893-2.33 0-4.134-.617-5.41-1.851-1.276-1.235-1.914-2.976-1.914-5.223z" opacity=".267"/></svg>