<svg xmlns="http://www.w3.org/2000/svg" width="97" height="51" viewBox="0 0 97 51"><g fill="none" fill-rule="evenodd"><path fill="#3EC19D" fill-rule="nonzero" d="M.524 27.728a19.62 19.62 0 0 0 1.65 3.758l.867-.499a18.628 18.628 0 0 1-1.565-3.566l-.952.307zm4.122 7.058a15.739 15.739 0 0 0 3.235 2.569l.514-.858a14.753 14.753 0 0 1-3.03-2.406l-.72.695zm7.068 4.242c1.292.381 2.648.62 4.047.715l.068-.998a17.743 17.743 0 0 1-3.831-.676l-.284.959zm8.152.592l-.123-.993a23.331 23.331 0 0 0 3.83-.812l.288.957a24.33 24.33 0 0 1-3.995.848zm7.781-2.69a18.827 18.827 0 0 0 3.081-2.72l-.737-.676a17.83 17.83 0 0 1-2.915 2.575l.571.82zm5.558-6.032c.75-1.254 1.322-2.534 1.677-3.774l-.96-.276c-.331 1.153-.868 2.354-1.575 3.536l.858.514zm1.96-8a5.72 5.72 0 0 0-1.406-2.796c-.275-.298-.56-.576-.851-.834l-.662.75c.266.235.526.489.779.763.595.645.98 1.421 1.16 2.314l.98-.198zm-5.987-5.688a8.251 8.251 0 0 0-4.256-.013l.251.968a7.251 7.251 0 0 1 3.744.01l.26-.965zm-7.937 1.904a11.94 11.94 0 0 0-2.684 3.198l.864.505a10.94 10.94 0 0 1 2.457-2.932l-.637-.77zm-4.26 7.19a11.633 11.633 0 0 0-.188 4.174l.991-.13a10.635 10.635 0 0 1 .171-3.817l-.974-.226zm.938 8.157l.919-.395a20.213 20.213 0 0 0 1.9 3.41l-.825.564a21.207 21.207 0 0 1-1.994-3.58zm4.56 6.781c.911.988 1.9 1.932 2.932 2.81l.648-.763a32.515 32.515 0 0 1-2.845-2.725l-.735.678zm6.212 5.261c1.294.84 2.535 1.496 3.608 1.906l.36-.933c-1.005-.384-2.185-1.007-3.424-1.812l-.544.84zm7.475 3.146c1.366.348 2.698.588 4.01.722l.1-.995a26.544 26.544 0 0 1-3.863-.696l-.247.969zm8.104.8a26.046 26.046 0 0 0 4.035-.59l-.219-.976a25.047 25.047 0 0 1-3.88.568l.064.998zm7.98-1.75a36.096 36.096 0 0 0 3.734-1.586l-.442-.897a35.096 35.096 0 0 1-3.63 1.543l.339.94zm7.293-3.586a40.63 40.63 0 0 0 3.307-2.339l-.616-.787a39.894 39.894 0 0 1-3.227 2.281l.536.845zm6.378-4.98a49.374 49.374 0 0 0 2.826-2.888l-.743-.67c-.89.986-1.812 1.93-2.768 2.83l.685.728zm5.42-5.991a60.02 60.02 0 0 0 2.363-3.27l-.83-.558a59.022 59.022 0 0 1-2.323 3.214l.79.614zm4.515-6.687c.407-.692.78-1.348 1.186-2.085.052-.093.653-1.192.777-1.411l-.87-.492a248.47 248.47 0 0 0-.782 1.42c-.403.73-.77 1.378-1.173 2.06l.862.508zm3.573-7.249c.077-.228.137-.411.272-.822.366-1.113.533-1.603.764-2.2l-.933-.36c-.239.619-.41 1.12-.78 2.248l-.27.816.947.318z"/><path fill="#3EC19D" d="M88.731 30.798C92.789 16.404 97 .47 97 .257c0-.42-.44-.193-.435-.214.01-.04-15.734 8.464-31.432 17.197-.235.13-.108.495 0 .53.107.035 8.8 2.35 8.8 2.35v9.824l6.094-6.835s4.08 4.11 8.269 7.81c.164.145.376.09.435-.12z"/><path fill="#329E80" d="M75.21 20.895L87 11 75 27z"/></g></svg>