<svg xmlns="http://www.w3.org/2000/svg" xmlns:xlink="http://www.w3.org/1999/xlink" width="78" height="85" viewBox="0 0 78 85"><defs><linearGradient id="a" x1="50%" x2="50%" y1="0%" y2="100%"><stop offset="0%" stop-color="#FFF"/><stop offset="100%" stop-color="#FFF" stop-opacity=".022"/></linearGradient><ellipse id="b" cx="11.5" cy="12" rx="11.5" ry="12"/></defs><g fill="none" fill-rule="evenodd"><path fill="#898A8A" fill-rule="nonzero" d="M61.834 69.566L61.4 70H1.597l-.434-.434c-.77-.77-1.15-1.624-1.146-2.605-.336-4.368 4.21-10.16 11.346-13.612 9.67-4.58 11.797-6.88 11.8-13.64-1.205-1.004-2.058-2.253-2.907-4.102a47.129 47.129 0 0 1-.939-2.228c-.108-.27-.681-1.725-.97-2.452a28.208 28.208 0 0 1-1.747-2.234 18.317 18.317 0 0 1-1.128-1.802c-.686-1.27-1.042-2.39-.94-3.42.103-1.037.658-1.819 1.545-2.27l-.031-.278c-.206-1.898-.278-3.855-.134-5.705.35-4.516 1.931-7.634 5.217-8.2.35-.917.942-1.981 1.856-3.041C25.132 1.487 28.362 0 32.765 0c4.424 0 7.426 2.002 10.204 5.76.287.388 2.232 3.247 2.705 3.797.291.339.536.56.652.63 1.123.562 1.946 1.972 1.462 3.229-.715 2.891-1.081 5.544-.835 7.616 1.14.409 1.858 1.26 1.961 2.457.09 1.047-.306 2.172-1.052 3.447a18.666 18.666 0 0 1-1.2 1.777 29.043 29.043 0 0 1-1.876 2.236c-.529 1.356-1.58 4.242-1.766 4.705-.717 1.783-1.435 2.96-2.564 4.003 0 6.844 2.096 9.141 11.715 13.697 6.987 3.38 11.122 9.057 10.813 13.553-.014 1.065-.394 1.903-1.15 2.66zm-18.406-58.08c-.601-.7-2.64-3.697-2.84-3.966-2.274-3.077-4.498-4.56-7.823-4.56-3.54 0-5.952 1.11-7.538 2.95a7.63 7.63 0 0 0-1.244 1.994 4.922 4.922 0 0 0-.278.802l-.245 1.18h-1.205c-2.006 0-3.108 1.908-3.391 5.561-.128 1.643-.062 3.427.125 5.157.071.656.142 1.144.186 1.404l.27 1.566-1.581.158c-.426.043-.383.005-.385.03-.03.3.17.928.599 1.723.254.47.574.979.945 1.507a25.29 25.29 0 0 0 1.703 2.157l.177.196.099.246c.234.586.947 2.396 1.065 2.691.36.904.626 1.536.88 2.089.789 1.718 1.48 2.648 2.545 3.394l.632.442v1.487c0 8.176-2.894 11.31-13.482 16.325-6.14 2.97-9.9 7.761-9.668 10.829 0 .05 19.012.113 57.037.192a3.49 3.49 0 0 0 .017-.306c.242-3.149-3.136-7.807-9.135-10.71-10.53-4.987-13.398-8.13-13.398-16.33v-1.428l.556-.444c1.013-.81 1.569-1.648 2.221-3.272.175-.436 1.363-3.7 1.867-4.959l.109-.27.202-.21a26.129 26.129 0 0 0 1.848-2.18c.394-.523.736-1.025 1.009-1.491.462-.79.682-1.413.657-1.696 0 .002.04.035-.44-.011l-1.063-.101-.24-1.04c-.636-2.755-.244-6.08.675-9.814-.516-.305-.987-.732-1.468-1.292z" opacity=".376"/><g transform="rotate(-5 507.527 -323.46)"><path fill="#515050" d="M27.79 31.883a1.209 1.209 0 0 1 0-1.698l1.022-1.032a1.18 1.18 0 0 1 1.682 0l12.898 13.02c.465.47.466 1.23.001 1.7l-1.022 1.031a1.18 1.18 0 0 1-1.682 0L27.79 31.882z"/><ellipse cx="16.615" cy="16.775" stroke="#515050" stroke-width="2.8" rx="16.251" ry="16.46"/><ellipse cx="16.615" cy="16.775" fill="url(#a)" stroke="#515050" stroke-width="2.8" opacity=".647" rx="16.251" ry="16.46"/><path stroke="#979797" stroke-linecap="round" stroke-linejoin="round" stroke-opacity=".536" stroke-width="2.45" d="M9.219 9.431s-7.23 6.571 0 15.583" opacity=".647"/></g><path stroke="#94C959" stroke-linecap="round" stroke-linejoin="round" stroke-width="1.5" d="M42.476 58.952l4.832 5.334 6.12-9.143"/><g transform="translate(37 46)"><use fill="#FFF" xlink:href="#b"/><ellipse cx="11.5" cy="12" stroke="#94C959" stroke-width="1.5" rx="10.75" ry="11.25"/></g><path stroke="#94C959" stroke-linecap="round" stroke-linejoin="round" stroke-width="1.5" d="M43.571 57.81l4.832 5.333L54.523 54"/></g></svg>