<svg xmlns="http://www.w3.org/2000/svg" width="197" height="27" viewBox="0 0 197 27"><g fill="none" fill-rule="evenodd"><path fill="#FFF" d="M48.863 16.063V22h-1.66V7.723h3.916c1.751 0 3.045.335 3.882 1.006.837.67 1.255 1.68 1.255 3.027 0 1.888-.957 3.164-2.871 3.828L57.262 22h-1.963l-3.457-5.938h-2.979zm0-1.426h2.276c1.172 0 2.03-.233 2.578-.699.547-.465.82-1.163.82-2.094 0-.944-.278-1.625-.835-2.041-.556-.417-1.45-.625-2.68-.625h-2.159v5.459zm14.98 7.558c-1.581 0-2.83-.481-3.744-1.445-.915-.964-1.372-2.301-1.372-4.014 0-1.725.424-3.095 1.274-4.111.85-1.016 1.99-1.523 3.423-1.523 1.341 0 2.402.44 3.183 1.323.782.882 1.172 2.046 1.172 3.491v1.025h-7.373c.033 1.257.35 2.21.952 2.862.603.65 1.45.976 2.544.976a8.62 8.62 0 0 0 3.418-.722v1.445a8.579 8.579 0 0 1-1.626.532c-.51.108-1.128.161-1.85.161zm-.439-9.736c-.86 0-1.544.28-2.055.84-.511.56-.813 1.334-.904 2.324h5.596c0-1.022-.228-1.805-.684-2.349-.455-.543-1.106-.815-1.953-.815zM77.867 22v-6.924c0-.872-.198-1.523-.596-1.953-.397-.43-1.018-.644-1.865-.644-1.12 0-1.94.302-2.46.908-.522.605-.782 1.605-.782 2.998V22h-1.621V11.297h1.318l.264 1.465h.078a3.31 3.31 0 0 1 1.397-1.226c.599-.29 1.266-.434 2.002-.434 1.289 0 2.259.31 2.91.932.65.622.976 1.616.976 2.984V22h-1.62zm8.408-1.143c.287 0 .564-.02.83-.063.267-.042.479-.086.635-.132v1.24c-.176.085-.434.155-.776.21a5.83 5.83 0 0 1-.923.083c-2.07 0-3.105-1.09-3.105-3.271v-6.367h-1.534v-.782l1.534-.673.683-2.286h.938v2.48h3.105v1.26h-3.105v6.3c0 .644.153 1.139.459 1.484.306.345.726.517 1.26.517zM104.293 22l-1.777-4.541h-5.723L95.035 22h-1.68L99 7.664h1.396L106.012 22h-1.719zm-2.295-6.035l-1.66-4.424a23.695 23.695 0 0 1-.664-2.06 18.503 18.503 0 0 1-.615 2.06l-1.68 4.424h4.619zm10.713 6.23a4.632 4.632 0 0 1-1.91-.385 3.59 3.59 0 0 1-1.45-1.187h-.117c.079.625.118 1.217.118 1.777v4.405h-1.622V11.297h1.319l.224 1.465h.079c.416-.586.901-1.01 1.455-1.27.553-.26 1.188-.39 1.904-.39 1.42 0 2.515.485 3.286 1.455.772.97 1.157 2.33 1.157 4.082 0 1.757-.392 3.123-1.176 4.096-.785.974-1.874 1.46-3.267 1.46zm-.234-9.716c-1.094 0-1.885.302-2.373.908-.489.605-.74 1.569-.752 2.89v.362c0 1.504.25 2.58.752 3.227.5.648 1.305.972 2.412.972.924 0 1.648-.374 2.172-1.123.525-.749.787-1.78.787-3.096 0-1.335-.262-2.358-.787-3.071-.524-.713-1.26-1.07-2.211-1.07zm12.49 9.716a4.632 4.632 0 0 1-1.91-.385 3.59 3.59 0 0 1-1.45-1.187h-.117c.078.625.117 1.217.117 1.777v4.405h-1.62V11.297h1.318l.224 1.465h.078c.417-.586.902-1.01 1.456-1.27.553-.26 1.188-.39 1.904-.39 1.42 0 2.514.485 3.286 1.455.771.97 1.157 2.33 1.157 4.082 0 1.757-.392 3.123-1.177 4.096-.784.974-1.873 1.46-3.266 1.46zm-.235-9.716c-1.093 0-1.884.302-2.373.908-.488.605-.739 1.569-.752 2.89v.362c0 1.504.251 2.58.752 3.227.502.648 1.306.972 2.412.972.925 0 1.65-.374 2.173-1.123.524-.749.786-1.78.786-3.096 0-1.335-.262-2.358-.786-3.071-.524-.713-1.261-1.07-2.212-1.07zM133.863 22h-1.62V6.805h1.62V22zm5.059 0H137.3V11.297h1.62V22zm-1.758-13.604c0-.37.091-.642.274-.815a.956.956 0 0 1 .683-.259c.26 0 .485.088.674.264.189.176.283.446.283.81 0 .365-.094.637-.283.816a.946.946 0 0 1-.674.268.936.936 0 0 1-.684-.268c-.182-.18-.273-.45-.273-.816zm9.473 13.8c-1.55 0-2.75-.478-3.599-1.431-.85-.954-1.274-2.303-1.274-4.048 0-1.79.431-3.174 1.294-4.15.862-.977 2.091-1.465 3.686-1.465.514 0 1.029.055 1.543.166.514.11.918.24 1.211.39L149 13.035a7.622 7.622 0 0 0-1.172-.356 5.232 5.232 0 0 0-1.123-.142c-2.174 0-3.262 1.387-3.262 4.16 0 1.315.266 2.324.796 3.028.53.703 1.317 1.054 2.359 1.054.892 0 1.806-.192 2.744-.576v1.436c-.716.37-1.618.556-2.705.556zM158.463 22l-.322-1.523h-.078c-.534.67-1.067 1.124-1.597 1.362-.53.237-1.193.356-1.987.356-1.062 0-1.893-.273-2.496-.82-.602-.547-.903-1.325-.903-2.334 0-2.161 1.729-3.294 5.186-3.398l1.816-.059v-.664c0-.84-.18-1.46-.542-1.86-.361-.4-.94-.601-1.733-.601-.892 0-1.901.273-3.028.82l-.498-1.24a7.618 7.618 0 0 1 1.734-.674 7.507 7.507 0 0 1 1.89-.244c1.275 0 2.221.283 2.836.85.615.566.923 1.474.923 2.724V22h-1.201zm-3.662-1.143c1.009 0 1.802-.276 2.378-.83.576-.553.864-1.328.864-2.324v-.967l-1.621.069c-1.29.045-2.219.245-2.788.6-.57.355-.855.907-.855 1.656 0 .585.178 1.031.533 1.337.354.306.85.46 1.489.46zm11.66 0c.286 0 .563-.02.83-.063.267-.042.479-.086.635-.132v1.24c-.176.085-.435.155-.777.21a5.83 5.83 0 0 1-.922.083c-2.07 0-3.106-1.09-3.106-3.271v-6.367h-1.533v-.782l1.533-.673.684-2.286h.937v2.48h3.106v1.26h-3.106v6.3c0 .644.153 1.139.46 1.484.305.345.725.517 1.259.517zM171.686 22h-1.622V11.297h1.622V22zm-1.758-13.604c0-.37.09-.642.273-.815a.956.956 0 0 1 .684-.259c.26 0 .485.088.674.264.188.176.283.446.283.81 0 .365-.095.637-.283.816a.946.946 0 0 1-.674.268.936.936 0 0 1-.684-.268c-.182-.18-.273-.45-.273-.816zm14.433 8.243c0 1.744-.44 3.107-1.318 4.087-.879.98-2.093 1.47-3.643 1.47-.957 0-1.806-.225-2.548-.675-.743-.449-1.316-1.093-1.72-1.933-.403-.84-.605-1.823-.605-2.95 0-1.744.437-3.103 1.309-4.076.872-.974 2.083-1.46 3.633-1.46 1.497 0 2.687.498 3.57 1.494.881.996 1.322 2.343 1.322 4.043zm-8.154 0c0 1.367.273 2.409.82 3.125.547.716 1.351 1.074 2.412 1.074 1.062 0 1.867-.357 2.417-1.07.55-.712.826-1.756.826-3.13 0-1.36-.275-2.394-.826-3.1-.55-.706-1.362-1.06-2.436-1.06-1.061 0-1.862.349-2.402 1.045-.54.697-.811 1.735-.811 3.116zM194.527 22v-6.924c0-.872-.198-1.523-.595-1.953-.397-.43-1.02-.644-1.866-.644-1.12 0-1.94.302-2.46.908-.521.605-.782 1.605-.782 2.998V22h-1.62V11.297h1.317l.264 1.465h.078a3.31 3.31 0 0 1 1.397-1.226c.599-.29 1.266-.434 2.002-.434 1.289 0 2.259.31 2.91.932.65.622.976 1.616.976 2.984V22h-1.62z"/><path fill="#FAFAFA" d="M1.74 24.5A16.93 16.93 0 0 1 0 17C0 7.611 7.611 0 17 0s17 7.611 17 17c0 2.624-.595 5.11-1.657 7.329-2.065-1.397-4.46-2.03-7.446-2.32v-4.95H28c-3.408-2.796-6.827-5.468-10.252-8.13-.44-.342-1.031-.305-1.452.016a810.812 810.812 0 0 1-3.974 3.022c-.122.091-.503.324-.503.324v-1.15H9.392v2.924s-2.481 1.97-3.672 2.884l.024.112h3.542c.026.03.084 3.852.101 5.059-3.425.408-5.87 1.179-7.647 2.38z"/></g></svg>