<?xml version="1.0" encoding="UTF-8"?>
<svg width="561px" height="329px" viewBox="0 0 561 329" version="1.1" xmlns="http://www.w3.org/2000/svg" xmlns:xlink="http://www.w3.org/1999/xlink">
    <!-- Generator: Sketch 47.1 (45422) - http://www.bohemiancoding.com/sketch -->
    <title>Path 1</title>
    <desc>Created with Sketch.</desc>
    <defs></defs>
    <g id="Page-1" stroke="none" stroke-width="1" fill="none" fill-rule="evenodd">
        <g id="Landing-Page" transform="translate(-319.000000, -1732.000000)" fill-rule="nonzero" fill="#E4E4E4">
            <g id="dotted-lines" transform="translate(319.000000, 1732.000000)">
                <path d="M3.76784767,326.972631 C4.42931895,323.711694 5.20409934,320.510664 6.09216643,317.369463 L6.50024508,315.926039 L3.61339779,315.109882 L3.20531915,316.553306 C2.29664116,319.76741 1.5041177,323.041746 0.827726357,326.376237 L0.529529,327.846297 L3.46965031,328.442692 L3.76784767,326.972631 Z M9.15990513,307.952979 C10.3090468,304.852086 11.5777144,301.814039 12.9659304,298.838736 L13.6001615,297.479416 L10.8815215,296.210953 L10.2472904,297.570273 C8.82447982,300.619721 7.52432716,303.733166 6.34685481,306.910507 L5.82561881,308.317032 L8.63866913,309.359504 L9.15990513,307.952979 Z M17.5150613,290.055772 C19.1453825,287.203507 20.8956327,284.413833 22.7658795,281.686673 L23.6142319,280.44962 L21.1401274,278.752916 L20.291775,279.989968 C18.3753008,282.784536 16.5815236,285.643587 14.910511,288.567042 L14.1661459,289.869317 L16.7706962,291.358048 L17.5150613,290.055772 Z M28.6660727,273.779798 C30.7212227,271.241023 32.8906276,268.7615 35.174365,266.341199 L36.2037993,265.250207 L34.021814,263.191338 L32.9923796,264.282331 C30.6568064,266.757567 28.4374262,269.29421 26.3343164,271.89223 L25.3905325,273.058108 L27.7222888,274.945676 L28.6660727,273.779798 Z M42.2476735,259.368903 C44.6487497,257.164045 47.1546647,255.013369 49.7654751,252.916885 L50.935064,251.977704 L49.0567012,249.638526 L47.8871123,250.577707 C45.2249734,252.715408 42.6687719,254.909242 40.2185642,257.159217 L39.1137208,258.173771 L41.1428302,260.383458 L42.2476735,259.368903 Z M57.6410179,246.981869 C60.2986252,245.100921 63.0498441,243.268322 65.8947052,241.484096 L67.1654589,240.687111 L65.5714888,238.145604 L64.3007352,238.942589 C61.4089935,240.756217 58.6113718,242.619725 55.9079006,244.533134 L54.683533,245.399693 L56.4166502,247.848428 L57.6410179,246.981869 Z M74.4572234,236.417604 C77.3020372,234.829156 80.2295617,233.28347 83.2398095,231.780566 L84.5818461,231.110538 L83.2417895,228.426465 L81.8997529,229.096493 C78.8485038,230.619867 75.8801393,232.187116 72.9946722,233.798264 L71.685002,234.529539 L73.1475531,237.14888 L74.4572234,236.417604 Z M92.229501,227.529534 C95.2073275,226.195983 98.2580981,224.900203 101.381816,223.642211 L102.773221,223.081861 L101.652521,220.299051 L100.261116,220.859401 C97.1022407,222.131552 94.0163199,223.442261 91.0033569,224.791547 L89.6343636,225.404619 L90.8605077,228.142606 L92.229501,227.529534 Z M110.699317,220.08031 C113.770816,218.966201 116.906823,217.885547 120.107337,216.838362 L121.532966,216.371906 L120.600055,213.520648 L119.174426,213.987103 C115.943956,215.04409 112.777934,216.135086 109.676358,217.260105 L108.266256,217.771585 L109.289215,220.591789 L110.699317,220.08031 Z M129.650286,213.871548 C132.789598,212.944811 135.986343,212.047905 139.240519,211.180836 L140.68995,210.794638 L139.917554,207.895776 L138.468123,208.281974 C135.188372,209.155856 131.965969,210.059962 128.800911,210.994299 L127.362286,211.418986 L128.211661,214.296236 L129.650286,213.871548 Z M148.91845,208.730802 C152.106512,207.964688 155.346067,207.225352 158.637114,206.512799 L160.103145,206.195385 L159.468317,203.263322 L158.002285,203.580736 C154.689281,204.298043 151.427682,205.04241 148.217484,205.813843 L146.759005,206.164326 L147.459971,209.081285 L148.91845,208.730802 Z M168.285814,204.529218 C171.506355,203.901318 174.773345,203.297597 178.086782,202.718057 L179.564351,202.459621 L179.04748,199.504483 L177.56991,199.762918 C174.237483,200.34578 170.951421,200.953026 167.711722,201.58466 L166.239444,201.871706 L166.813535,204.816264 L168.285814,204.529218 Z M187.931463,201.088677 C191.178083,200.58103 194.466936,200.095383 197.798018,199.63174 L199.283696,199.424953 L198.870122,196.453597 L197.384444,196.660384 C194.03681,197.126331 190.731332,197.614432 187.468009,198.124691 L185.986016,198.356418 L186.44947,201.320403 L187.931463,201.088677 Z M207.706278,198.332863 C210.971965,197.930565 214.276285,197.548405 217.619236,197.186387 L219.110518,197.024892 L218.787527,194.04233 L217.296246,194.203825 C213.938758,194.567417 210.619838,194.951265 207.339482,195.355371 L205.850736,195.538769 L206.217532,198.516261 L207.706278,198.332863 Z M227.55692,196.180265 C230.8355,195.870933 234.149602,195.580128 237.499224,195.307852 L238.994293,195.186324 L238.751237,192.196186 L237.256168,192.317714 C233.89369,192.591036 230.566676,192.882973 227.275124,193.193529 L225.781756,193.334427 L226.063552,196.321163 L227.55692,196.180265 Z M247.452102,194.56056 C250.74029,194.333655 254.061321,194.123885 257.415192,193.931254 L258.912724,193.845242 L258.740701,190.850178 L257.243169,190.93619 C253.877846,191.129479 250.545315,191.339975 247.245574,191.567678 L245.749132,191.670942 L245.95566,194.663824 L247.452102,194.56056 Z M267.412994,193.412305 C270.708174,193.25914 274.033861,193.121899 277.390056,193.000584 L278.889077,192.9464 L278.780708,189.948358 L277.281687,190.002542 C273.915227,190.124228 270.579232,190.261894 267.2737,190.41554 L265.775318,190.485188 L265.914612,193.481952 L267.412994,193.412305 Z M287.350925,192.68965 C290.650095,192.602649 293.977715,192.530502 297.333786,192.473212 L298.833567,192.447609 L298.782363,189.448046 L297.282581,189.473649 C293.917255,189.531097 290.580342,189.603445 287.27184,189.690693 L285.772361,189.730235 L285.851446,192.729193 L287.350925,192.68965 Z M307.352983,192.347001 C310.564858,192.320675 313.801935,192.307512 317.064216,192.307512 C317.201789,192.307498 317.201789,192.307498 317.339311,192.307433 L318.83931,192.306573 L318.837591,189.306573 L317.337591,189.307433 C317.200929,189.307499 317.200929,189.307499 317.064216,189.307512 C313.79377,189.307512 310.548497,189.320708 307.328394,189.347102 L305.828445,189.359396 L305.853034,192.359296 L307.352983,192.347001 Z M327.372534,192.194536 C330.748473,192.119743 334.088468,192.007813 337.392522,191.858741 L338.890998,191.791133 L338.755782,188.794182 L337.257306,188.86179 C333.976286,189.009823 330.659212,189.120985 327.306086,189.195272 L325.806454,189.228496 L325.872902,192.22776 L327.372534,192.194536 Z M347.40989,191.285316 C350.783534,191.050361 354.117996,190.774896 357.413276,190.458917 L358.906427,190.315741 L358.620075,187.329438 L357.126924,187.472614 C353.85773,187.786092 350.549242,188.059411 347.201462,188.292565 L345.705086,188.396779 L345.913514,191.38953 L347.40989,191.285316 Z M367.413924,189.360674 C370.774618,188.943631 374.092512,188.482312 377.367605,187.976708 L378.850044,187.747852 L378.392331,184.782974 L376.909892,185.011831 C373.66432,185.512877 370.375848,185.970105 367.044475,186.383509 L365.555893,186.568234 L365.925342,189.545398 L367.413924,189.360674 Z M387.260668,186.290424 C390.591336,185.667704 393.875288,184.996631 397.112522,184.277194 L398.576797,183.951776 L397.925961,181.023225 L396.461686,181.348643 C393.257681,182.060695 390.006895,182.724991 386.709326,183.341522 L385.234875,183.617193 L385.786217,186.566095 L387.260668,186.290424 Z M406.883363,181.921962 C410.163019,181.067847 413.391769,180.161021 416.569606,179.201474 L418.005572,178.767884 L417.138392,175.895951 L415.702426,176.329541 C412.561618,177.277907 409.369911,178.174329 406.127297,179.018797 L404.675715,179.39683 L405.431781,182.299995 L406.883363,181.921962 Z M426.15431,176.093943 C429.355118,174.982492 432.500704,173.81386 435.591054,172.588039 L436.985369,172.034969 L435.879229,169.246339 L434.484914,169.799409 C431.435112,171.009147 428.330221,172.16266 425.170228,173.259938 L423.753226,173.75198 L424.737308,176.585984 L426.15431,176.093943 Z M444.841565,168.673638 C447.928713,167.282415 450.956474,165.829733 453.924826,164.315587 L455.261027,163.633996 L453.897844,160.961594 L452.561643,161.643185 C449.636493,163.135294 446.652283,164.567081 443.608992,165.93854 L442.241443,166.554826 L443.474015,169.289925 L444.841565,168.673638 Z M462.795193,159.506195 C465.723783,157.820382 468.589476,156.069567 471.392247,154.253754 L472.65114,153.438163 L471.019958,150.920377 L469.761065,151.735968 C467.002538,153.523118 464.181702,155.246526 461.29853,156.906196 L459.99853,157.654528 L461.495194,160.254527 L462.795193,159.506195 Z M479.719373,148.533039 C482.44523,146.548617 485.105682,144.496747 487.700702,142.377444 L488.862492,141.428632 L486.964869,139.105052 L485.803079,140.053864 C483.251162,142.137966 480.634714,144.155897 477.953705,146.10767 L476.741021,146.990504 L478.506688,149.415873 L479.719373,148.533039 Z M495.351489,135.760449 C497.832178,133.488984 500.246412,131.149174 502.594166,128.741042 L503.641276,127.667003 L501.493198,125.572783 L500.446087,126.646822 C498.137914,129.014356 495.764402,131.314699 493.325527,133.547877 L492.219241,134.560858 L494.245202,136.77343 L495.351489,135.760449 Z M509.436348,121.31356 C511.637407,118.784632 513.77274,116.1883 515.842335,113.524594 L516.762642,112.340096 L514.393647,110.499481 L513.47334,111.683979 C511.437843,114.303799 509.337873,116.857133 507.173414,119.34401 L506.188639,120.475477 L508.451573,122.445027 L509.436348,121.31356 Z M521.835872,105.357384 C523.739028,102.610403 525.578778,99.7985511 527.35512,96.9218556 L528.143218,95.6455712 L525.590649,94.0693755 L524.802551,95.3456599 C523.053821,98.1776393 521.242933,100.945378 519.369884,103.648905 L518.515644,104.881899 L520.981633,106.590378 L521.835872,105.357384 Z M532.374627,88.3143676 C533.981286,85.3945807 535.527995,82.4135543 537.01476,79.3713095 L537.673376,78.0236359 L534.978029,76.7064027 L534.319412,78.0540763 C532.853849,81.0529401 531.329468,83.9909324 529.746274,86.8680747 L529.023128,88.1822509 L531.65148,89.6285438 L532.374627,88.3143676 Z M541.231032,70.2094109 C542.551066,67.1592414 543.815348,64.0521637 545.023885,60.888192 L545.559121,59.4869346 L542.756606,58.4164624 L542.22137,59.8177199 C541.028307,62.9411794 539.780449,66.0078965 538.477804,69.0178849 L537.882041,70.394499 L540.635269,71.586025 L541.231032,70.2094109 Z M548.420289,51.410564 C549.476067,48.2642301 550.480422,45.0654156 551.433364,41.8141284 L551.855261,40.374683 L548.97637,39.530889 L548.554473,40.9703343 C547.612343,44.184732 546.619563,47.3466807 545.576143,50.4561882 L545.098956,51.8782613 L547.943102,52.832637 L548.420289,51.410564 Z M554.089393,32.0943297 C554.905525,28.881623 555.674501,25.6207771 556.396332,22.3117957 L556.716028,20.8462602 L553.784957,20.2068678 L553.465261,21.6724034 C552.750637,24.948351 551.989462,28.176113 551.181745,31.3556931 L550.812427,32.809517 L553.720075,33.5481537 L554.089393,32.0943297 Z M558.384454,12.4351494 C558.986759,9.17796144 559.545893,5.87667773 560.061862,2.53129918 L560.290509,1.04882802 L557.325566,0.591534825 L557.09692,2.07400598 C556.585472,5.39006867 556.031318,8.6619497 555.434465,11.8896499 L555.161716,13.364644 L558.111704,13.9101435 L558.384454,12.4351494 Z" id="Path-1"></path>
            </g>
        </g>
    </g>
</svg>