<?xml version="1.0" encoding="UTF-8"?>
<svg width="575px" height="255px" viewBox="0 0 575 255" version="1.1" xmlns="http://www.w3.org/2000/svg" xmlns:xlink="http://www.w3.org/1999/xlink">
    <!-- Generator: Sketch 47.1 (45422) - http://www.bohemiancoding.com/sketch -->
    <title>Path 3</title>
    <desc>Created with Sketch.</desc>
    <defs></defs>
    <g id="Page-1" stroke="none" stroke-width="1" fill="none" fill-rule="evenodd">
        <g id="Landing-Page" transform="translate(-362.000000, -2828.000000)" fill-rule="nonzero" fill="#E4E4E4">
            <g id="Group-2" transform="translate(362.000000, 2650.000000)">
                <path d="M3.84194337,431.366373 C4.64056577,428.15898 5.60193061,425.021576 6.72605729,421.953931 L7.24216538,420.545516 L4.42533564,419.5133 L3.90922755,420.921714 C2.74809568,424.090344 1.75528945,427.330357 0.930828283,430.641522 L0.56840279,432.097079 L3.47951788,432.82193 L3.84194337,431.366373 Z M10.6079281,412.917262 C12.0585652,409.990817 13.6720585,407.133398 15.4485629,404.344836 L16.2545105,403.079748 L13.7243338,401.467852 L12.9183862,402.732941 C11.084532,405.611524 9.41836455,408.562226 7.92003859,411.584877 L7.25384605,412.928822 L9.94173555,414.261207 L10.6079281,412.917262 Z M21.1531805,396.329663 C23.1604704,393.789407 25.3174588,391.311909 27.6243018,388.897144 L28.6604476,387.812523 L26.4912065,385.740232 L25.4550607,386.824852 C23.0838881,389.306957 20.8652674,391.855245 18.7993548,394.469688 L17.8693677,395.646601 L20.2231934,397.506575 L21.1531805,396.329663 Z M34.7793636,382.030454 C37.2020927,379.89272 39.7552427,377.809495 42.4388958,375.780822 L43.6354772,374.876282 L41.8263969,372.483119 L40.6298155,373.387659 C37.8863578,375.46154 35.2745525,377.592625 32.7944818,379.780955 L31.6697324,380.773396 L33.6546143,383.022895 L34.7793636,382.030454 Z M50.5702509,370.061881 C53.2766809,368.288613 56.0940447,366.561794 59.0223706,364.881471 L60.3233947,364.134922 L58.8302957,361.532874 L57.5292716,362.279423 C54.5502241,363.988851 51.6824953,365.746539 48.9261137,367.552536 L47.6714412,368.374604 L49.3155783,370.88395 L50.5702509,370.061881 Z M67.6955431,360.204797 C70.5881835,358.738428 73.5749537,357.311599 76.6558586,355.924341 L78.0235996,355.308481 L76.7918781,352.572999 L75.4241371,353.188859 C72.3016185,354.594854 69.2732665,356.041548 66.339086,357.528975 L65.0011749,358.207204 L66.357632,360.883026 L67.6955431,360.204797 Z M85.8159613,352.027697 C88.833776,350.814869 91.9320952,349.635959 95.1109158,348.490989 L96.5221627,347.982676 L95.5055367,345.160182 L94.0942897,345.668495 C90.8815273,346.825691 87.749184,348.017547 84.6972566,349.244085 L83.3054502,349.803437 L84.4241549,352.58705 L85.8159613,352.027697 Z M104.562212,345.263457 C107.664636,344.259307 110.836695,343.284568 114.078385,342.339253 L115.518406,341.919326 L114.678551,339.039284 L113.23853,339.459211 C109.968969,340.412654 106.768926,341.395992 103.638398,342.409238 L102.211288,342.871145 L103.135102,345.725364 L104.562212,345.263457 Z M123.685506,339.677435 C126.846043,338.845891 130.067553,338.040147 133.350032,337.260212 L134.809402,336.913458 L134.115894,333.994718 L132.656524,334.341472 C129.350884,335.12691 126.106104,335.938474 122.922177,336.776171 L121.471546,337.157836 L122.234874,340.059099 L123.685506,339.677435 Z M143.102912,335.057285 C146.304026,334.37048 149.559121,333.706549 152.868196,333.065498 L154.340817,332.780215 L153.77025,329.834972 L152.297628,330.120256 C148.969066,330.765082 145.694383,331.433008 142.473578,332.124038 L141.006954,332.438706 L141.636288,335.371953 L143.102912,335.057285 Z M162.581224,331.276648 C165.813614,330.711283 169.094399,330.166447 172.423575,329.642145 L173.905313,329.40879 L173.438603,326.445315 L171.956866,326.67867 C168.611055,327.205592 165.313552,327.753204 162.064353,328.321509 L160.586783,328.579945 L161.103655,331.535084 L162.581224,331.276648 Z M182.292794,328.168056 C185.54521,327.707967 188.841287,327.266414 192.181023,326.843401 L193.669134,326.654916 L193.292163,323.678694 L191.804053,323.867179 C188.449981,324.292009 185.139496,324.735491 181.872595,325.19763 L180.387382,325.407729 L180.807581,328.378155 L182.292794,328.168056 Z M202.094278,325.656699 C205.363607,325.287495 208.672703,324.935187 212.021564,324.599774 L213.514097,324.450287 L213.215121,321.465222 L211.722589,321.614709 C208.361231,321.951373 205.039579,322.305019 201.75763,322.675647 L200.267104,322.843972 L200.603753,325.825023 L202.094278,325.656699 Z M221.97481,323.662962 C225.255696,323.373513 228.573024,323.099555 231.926795,322.841089 L233.422361,322.72583 L233.191842,319.7347 L231.696277,319.849959 C228.331517,320.109272 225.003147,320.384141 221.711166,320.674569 L220.21697,320.806391 L220.480614,323.794784 L221.97481,323.662962 Z M241.895916,322.125566 C245.184216,321.906595 248.506096,321.701903 251.861554,321.511491 L253.359145,321.426508 L253.189178,318.431327 L251.691587,318.51631 C248.326385,318.707275 244.994718,318.91257 241.696585,319.132196 L240.1999,319.231861 L240.399231,322.225232 L241.895916,322.125566 Z M261.840246,320.992023 C265.134572,320.835678 268.460023,320.692573 271.816599,320.562709 L273.315478,320.504718 L273.199496,317.50696 L271.700617,317.564951 C268.335334,317.695153 265.001138,317.838634 261.698029,317.995396 L260.199715,318.066504 L260.341932,321.063132 L261.840246,320.992023 Z M281.809904,320.217984 C285.10899,320.117768 288.437072,320.029891 291.794149,319.954351 L293.293769,319.920607 L293.226281,316.921366 L291.726661,316.95511 C288.36175,317.030826 285.025802,317.118912 281.718816,317.219367 L280.219508,317.264911 L280.310596,320.263528 L281.809904,320.217984 Z M301.790468,319.767166 C305.092914,319.717589 308.422485,319.679556 311.779181,319.653068 L313.279135,319.641232 L313.255462,316.641325 L311.755509,316.653162 C308.391721,316.679706 305.055031,316.71782 301.745436,316.767504 L300.245605,316.79002 L300.290637,319.789682 L301.790468,319.767166 Z M321.779671,319.608396 C322.331972,319.60779 322.884985,319.607487 323.438709,319.607487 C326.247589,319.607487 329.03356,319.589318 331.796623,319.552979 L333.296493,319.533253 L333.257041,316.533513 L331.757171,316.553239 C329.007313,316.589404 326.234492,316.607487 323.438709,316.607487 C322.883889,316.607487 322.32978,316.607791 321.776381,316.608397 L320.276382,316.610042 L320.279672,319.610041 L321.779671,319.608396 Z M341.81013,319.338754 C345.18233,319.238243 348.518993,319.109535 351.820122,318.952629 L353.318431,318.881412 L353.175998,315.884796 L351.67769,315.956012 C348.394332,316.112074 345.075352,316.240099 341.720752,316.340086 L340.221418,316.384775 L340.310796,319.383443 L341.81013,319.338754 Z M361.842174,318.382384 C365.213656,318.158255 368.546396,317.903368 371.840396,317.617721 L373.334788,317.488132 L373.075608,314.499348 L371.581217,314.628938 C368.307372,314.912837 364.994692,315.16619 361.643179,315.388992 L360.146483,315.488489 L360.345478,318.481882 L361.842174,318.382384 Z M381.828801,316.644411 C385.194498,316.27945 388.517747,315.880766 391.79855,315.448355 L393.285689,315.252349 L392.893678,312.278072 L391.406539,312.474077 C388.148703,312.903461 384.848319,313.299402 381.50539,313.661894 L380.014132,313.8236 L380.337543,316.806116 L381.828801,316.644411 Z M401.717487,314.017992 C405.062555,313.492993 408.361086,312.930996 411.613082,312.331993 L413.088266,312.060271 L412.544822,309.109904 L411.069638,309.381626 C407.843838,309.975803 404.571405,310.533354 401.25234,311.054272 L399.77048,311.286846 L400.235627,314.250566 L401.717487,314.017992 Z M421.477867,310.370943 C424.79095,309.662497 428.052784,308.913272 431.263368,308.123259 L432.71992,307.764852 L432.003106,304.851747 L430.546554,305.210154 C427.365881,305.992807 424.133879,306.73518 420.850549,307.437264 L419.38371,307.750923 L420.011027,310.684602 L421.477867,310.370943 Z M441.007843,305.555985 C444.272459,304.637175 447.480441,303.673265 450.631785,302.664246 L452.060344,302.20684 L451.145532,299.349723 L449.716974,299.807129 C446.599675,300.805247 443.425713,301.758934 440.195084,302.668179 L438.751181,303.074559 L439.56394,305.962364 L441.007843,305.555985 Z M460.1257,299.425832 C463.317765,298.267682 466.447207,297.05963 469.514014,295.801663 L470.9018,295.23241 L469.763294,292.456837 L468.375508,293.02609 C465.347061,294.268322 462.256062,295.461535 459.102501,296.605714 L457.692442,297.117314 L458.715641,299.937431 L460.1257,299.425832 Z M478.758654,291.77069 C481.840707,290.343661 484.853836,288.861695 487.798021,287.324781 L489.127746,286.630642 L487.739468,283.97119 L486.409742,284.66533 C483.507893,286.180144 480.537376,287.641151 477.498172,289.04834 L476.136998,289.678581 L477.397479,292.400931 L478.758654,291.77069 Z M496.611835,282.438648 C499.536714,280.717773 502.386494,278.937072 505.161147,277.096539 L506.411139,276.267372 L504.752804,273.767387 L503.502811,274.596554 C500.773279,276.407157 497.969199,278.159302 495.09054,279.852983 L493.797708,280.613631 L495.319003,283.199295 L496.611835,282.438648 Z M513.415799,271.278699 C516.12685,269.248988 518.75747,267.155307 521.307619,264.997663 L522.452737,264.028795 L520.515002,261.738559 L519.369884,262.707427 C516.865367,264.826462 514.281362,266.883043 511.617828,268.877178 L510.417068,269.776163 L512.215039,272.177684 L513.415799,271.278699 Z M528.835389,258.219108 C531.274033,255.881437 533.628545,253.477045 535.898887,251.005958 L536.913731,249.901381 L534.704576,247.871692 L533.689732,248.97627 C531.462395,251.40055 529.15229,253.759593 526.759378,256.053426 L525.676537,257.091432 L527.752548,259.257114 L528.835389,258.219108 Z M542.512652,243.324086 C544.62468,240.704143 546.651504,238.016875 548.593095,235.262325 L549.457288,234.036287 L547.005212,232.3079 L546.141018,233.533938 C544.236569,236.235795 542.24859,238.871561 540.177052,241.441277 L539.235647,242.609077 L541.571248,244.491886 L542.512652,243.324086 Z M554.097564,226.902118 C555.850776,224.047176 557.520589,221.126573 559.106993,218.140354 L559.810717,216.815676 L557.161361,215.408227 L556.457637,216.732905 C554.900438,219.664148 553.261603,222.530569 551.541121,225.332214 L550.756168,226.610436 L553.312611,228.18034 L554.097564,226.902118 Z M563.573203,209.07874 C564.95791,206.042777 566.263409,202.944626 567.489707,199.784322 L568.032335,198.385911 L565.235512,197.300655 L564.692884,198.699066 C563.487403,201.805722 562.204341,204.850625 560.843706,207.833812 L560.221242,209.198561 L562.950739,210.443488 L563.573203,209.07874 Z M570.877742,190.280565 C571.909077,187.11825 572.866903,183.89831 573.751235,180.620767 L574.141985,179.172556 L571.245564,178.391056 L570.854814,179.839267 C569.983885,183.067132 569.040806,186.237497 568.025591,189.350385 L567.560501,190.77646 L570.412652,191.70664 L570.877742,190.280565 Z" id="Path-3"></path>
            </g>
        </g>
    </g>
</svg>