<svg xmlns="http://www.w3.org/2000/svg" width="519" height="286" viewBox="0 0 519 286"><path fill="#E4E4E4" d="M515.998 1.502a99.13 99.13 0 0 1-.487 9.857l-.149 1.494 2.988.298.149-1.494c.333-3.343.501-6.728.501-10.155V0h-3.002v1.502zM514.033 21.1a95.524 95.524 0 0 1-2.474 9.543l-.451 1.432 2.863.903.451-1.432a98.528 98.528 0 0 0 2.553-9.843l.301-1.47-2.941-.604-.302 1.471zm-5.905 18.776a103.179 103.179 0 0 1-4.33 8.869l-.721 1.316 2.632 1.444.722-1.317a106.18 106.18 0 0 0 4.455-9.127l.593-1.38-2.759-1.185-.592 1.38zm-9.48 17.333a121.637 121.637 0 0 1-5.843 7.982l-.935 1.175 2.35 1.87.935-1.175a124.641 124.641 0 0 0 5.987-8.18l.836-1.246-2.494-1.673-.836 1.247zm-12.292 15.495a149.6 149.6 0 0 1-6.96 7.046l-1.09 1.033 2.067 2.18 1.089-1.034a152.606 152.606 0 0 0 7.1-7.188l1.018-1.103-2.206-2.038-1.018 1.104zm-14.35 13.643a185.311 185.311 0 0 1-7.772 6.186l-1.2.904 1.808 2.399 1.199-.904a188.09 188.09 0 0 0 7.898-6.287l1.148-.967-1.933-2.298-1.148.967zm-15.867 11.981a226.636 226.636 0 0 1-8.347 5.411l-1.277.79 1.578 2.555 1.277-.79a229.65 229.65 0 0 0 8.458-5.483l1.241-.844-1.688-2.484-1.242.845zm-16.945 10.486a270.745 270.745 0 0 1-8.762 4.728l-1.334.688 1.377 2.67 1.334-.69a273.74 273.74 0 0 0 8.86-4.78l1.307-.737-1.474-2.616-1.308.737zM421.5 117.96a313.727 313.727 0 0 1-9.064 4.12l-1.377.599 1.199 2.754 1.376-.6a316.715 316.715 0 0 0 9.152-4.158l1.356-.643-1.285-2.715-1.357.643zm-18.225 7.947a350.58 350.58 0 0 1-9.304 3.573l-1.41.519 1.037 2.819 1.41-.519a353.585 353.585 0 0 0 9.383-3.604l1.394-.558-1.117-2.788-1.393.558zm-18.715 6.89a374.3 374.3 0 0 1-9.488 3.059l-1.435.441.883 2.87 1.435-.44a377.3 377.3 0 0 0 9.564-3.084l1.423-.48-.96-2.846-1.422.48zm-19.056 5.866c-3.222.9-6.437 1.75-9.636 2.552l-1.456.365.73 2.914 1.456-.365a377.961 377.961 0 0 0 9.713-2.573l1.446-.404-.807-2.893-1.446.404zm-19.349 4.846c-3.3.731-6.557 1.404-9.758 2.015l-1.474.281.563 2.95 1.474-.281a342 342 0 0 0 9.845-2.032l1.465-.325-.649-2.932-1.466.324zm-19.579 3.726c-3.409.535-6.704.987-9.855 1.354l-1.491.174.347 2.983 1.491-.174a254.44 254.44 0 0 0 9.974-1.37l1.483-.233-.465-2.967-1.484.233zm-19.752 2.255c-1.223.076-2.407.135-3.549.176-1.952.07-4.112.19-6.465.357l-1.498.106.213 2.996 1.497-.107c2.32-.164 4.446-.281 6.361-.35 1.17-.043 2.38-.103 3.628-.18l1.498-.094-.186-2.997-1.499.093zm-20.03 1.416c-3.147.323-6.48.702-9.97 1.136l-1.49.185.37 2.98 1.49-.185c3.469-.43 6.782-.808 9.907-1.129l1.493-.153-.306-2.988-1.494.154zm-19.921 2.458c-3.23.456-6.545.948-9.93 1.475l-1.483.23.462 2.968 1.483-.23c3.37-.525 6.671-1.015 9.887-1.47l1.487-.209-.42-2.974-1.486.21zm-19.823 3.08c-3.253.55-6.545 1.126-9.87 1.729l-1.477.267.536 2.955 1.477-.267a829.67 829.67 0 0 1 9.834-1.722l1.48-.25-.5-2.961-1.48.25zm-19.732 3.576a849.13 849.13 0 0 0-9.831 1.958l-1.47.301.602 2.942 1.471-.301a877.787 877.787 0 0 1 9.797-1.952l1.474-.284-.57-2.95-1.473.286zm-19.638 4.027a873.526 873.526 0 0 0-9.779 2.18l-1.463.335.67 2.928 1.463-.335a870.497 870.497 0 0 1 9.746-2.173l1.467-.318-.637-2.935-1.467.318zm-19.539 4.475c-3.257.787-6.502 1.59-9.731 2.411l-1.455.37.74 2.911 1.455-.37c3.217-.818 6.45-1.619 9.696-2.402l1.459-.352-.704-2.92-1.46.352zm-19.439 4.944a759.355 759.355 0 0 0-9.663 2.655l-1.445.407.814 2.89 1.445-.407a756.218 756.218 0 0 1 9.626-2.644l1.45-.388-.776-2.901-1.45.388zm-19.319 5.449a675.07 675.07 0 0 0-9.6 2.928l-1.433.45.898 2.865 1.432-.449a676.553 676.553 0 0 1 9.558-2.915l1.439-.428-.855-2.879-1.439.428zm-19.139 6a583.242 583.242 0 0 0-9.494 3.23l-1.417.496.992 2.835 1.417-.496a580.297 580.297 0 0 1 9.445-3.214l1.426-.472-.943-2.851-1.426.471zM111.3 191.55a488.803 488.803 0 0 0-9.373 3.588l-1.396.551 1.102 2.794 1.397-.551a485.866 485.866 0 0 1 9.315-3.566l1.408-.523-1.045-2.815-1.408.522zm-18.662 7.376a396.075 396.075 0 0 0-9.208 4.014l-1.368.618 1.235 2.737 1.368-.617a393.136 393.136 0 0 1 9.138-3.984l1.384-.583-1.166-2.768-1.383.583zm-18.34 8.292a308.33 308.33 0 0 0-8.971 4.543l-1.328.7 1.4 2.657 1.328-.7a305.326 305.326 0 0 1 8.885-4.499l1.35-.657-1.313-2.7-1.35.656zm-17.786 9.402a228.858 228.858 0 0 0-8.616 5.218l-1.266.806 1.612 2.534 1.267-.807a225.847 225.847 0 0 1 8.503-5.149l1.3-.75-1.5-2.602-1.3.75zm-16.98 10.848a160.403 160.403 0 0 0-8.042 6.112l-1.165.947 1.893 2.331 1.165-.947c2.488-2.021 5.12-4.02 7.892-5.998l1.223-.871-1.743-2.446-1.222.872zm-15.67 12.798a105.928 105.928 0 0 0-7.03 7.327l-.984 1.133 2.266 1.97.985-1.134a102.93 102.93 0 0 1 6.831-7.118l1.089-1.034-2.068-2.178-1.088 1.034zM10.6 255.67a68.856 68.856 0 0 0-5.112 8.865l-.649 1.354 2.709 1.297.648-1.355a65.858 65.858 0 0 1 4.89-8.478l.842-1.243-2.487-1.684-.841 1.244zm-8.724 18.46A52.58 52.58 0 0 0 .11 284.283L0 285.779l2.994.221.11-1.498a49.576 49.576 0 0 1 1.667-9.573l.4-1.447-2.895-.8-.4 1.448z"/></svg>