<?xml version="1.0" encoding="utf-8"?>
<!-- Generator: Adobe Illustrator 19.2.0, SVG Export Plug-In . SVG Version: 6.00 Build 0)  -->
<svg version="1.1" id="Layer_1" xmlns="http://www.w3.org/2000/svg" xmlns:xlink="http://www.w3.org/1999/xlink" x="0px" y="0px"
	 viewBox="0 0 487 20" style="enable-background:new 0 0 487 20;" xml:space="preserve">
<style type="text/css">
	.st0{fill:#ED4949;}
	.st1{filter:url(#Adobe_OpacityMaskFilter);}
	.st2{fill:#FFFFFF;}
	.st3{mask:url(#mask-2);}
	.st4{fill:#F6A623;}
	.st5{fill:#F8E81C;}
	.st6{fill:#D9F144;}
	.st7{fill:#7ED321;}
	.st8{fill:#5AB275;}
</style>
<g id="Credit-Reports">
	<g id="_x2D_g-Credit-Report-Desktop" transform="translate(-271.000000, -675.000000)">
		<g id="Credit-Score-Graph" transform="translate(271.000000, 676.000000)">
			<g id="Mask">
				<path id="path-1_1_" class="st0" d="M8-1h471c4.4,0,8,3.6,8,8v4c0,4.4-3.6,8-8,8H8c-4.4,0-8-3.6-8-8V7C0,2.6,3.6-1,8-1z"/>
			</g>
			<defs>
				<filter id="Adobe_OpacityMaskFilter" filterUnits="userSpaceOnUse" x="-7" y="-35.5" width="516" height="82">
					<feColorMatrix  type="matrix" values="1 0 0 0 0  0 1 0 0 0  0 0 1 0 0  0 0 0 1 0"/>
				</filter>
			</defs>
			<mask maskUnits="userSpaceOnUse" x="-7" y="-35.5" width="516" height="82" id="mask-2">
				<g class="st1">
					<path id="path-1" class="st2" d="M8-1h471c4.4,0,8,3.6,8,8v4c0,4.4-3.6,8-8,8H8c-4.4,0-8-3.6-8-8V7C0,2.6,3.6-1,8-1z"/>
				</g>
			</mask>
			<g id="Group-16" class="st3">
				<g transform="translate(-7.000000, -24.000000)">
					<rect id="Rectangle-2-Copy-3" y="-11.5" class="st0" width="103" height="82"/>
					<rect id="Rectangle-2" x="97" y="-11.5" class="st4" width="103" height="82"/>
					<rect id="Rectangle-2-Copy-2" x="180" y="-11.5" class="st5" width="103" height="82"/>
					<rect id="Rectangle-2-Copy-4" x="248" y="-11.5" class="st6" width="103" height="82"/>
					<rect id="Rectangle-2-Copy-5" x="309" y="-11.5" class="st7" width="105" height="82"/>
					<rect id="Rectangle-2-Copy-6" x="413" y="-11.5" class="st8" width="103" height="82"/>
				</g>
			</g>
		</g>
	</g>
</g>
</svg>
