<?xml version="1.0" encoding="utf-8"?>
<!-- Generator: Adobe Illustrator 16.0.0, SVG Export Plug-In . SVG Version: 6.00 Build 0)  -->
<!DOCTYPE svg PUBLIC "-//W3C//DTD SVG 1.1//EN" "http://www.w3.org/Graphics/SVG/1.1/DTD/svg11.dtd">
<svg version="1.1" id="Layer_1" xmlns="http://www.w3.org/2000/svg" xmlns:xlink="http://www.w3.org/1999/xlink" x="0px" y="0px"
	 width="25px" height="25px" viewBox="0.5 0 25 25" enable-background="new 0.5 0 25 25" xml:space="preserve">
<title>late-90-symbol</title>
<desc>Created with Sketch.</desc>
<g id="Final-Reports">
	<g id="Artboard" transform="translate(-23.000000, -163.000000)">
		<g id="late-90-symbol" transform="translate(23.500000, 163.000000)">
			<path id="Oval" fill="#9A1F2E" d="M12.5,25C19.403,25,25,19.403,25,12.5S19.403,0,12.5,0S0,5.597,0,12.5S5.597,25,12.5,25z
				 M12.5,23.295c-5.962,0-10.795-4.833-10.795-10.795S6.538,1.705,12.5,1.705S23.295,6.538,23.295,12.5S18.462,23.295,12.5,23.295z
				"/>
			<path id="_x39_0" fill="#9A1F2E" d="M7.772,13.133c-0.347,0-0.686-0.06-1.019-0.18s-0.629-0.302-0.891-0.544
				c-0.261-0.242-0.47-0.542-0.627-0.901C5.079,11.15,5,10.73,5,10.25c0-0.448,0.083-0.868,0.25-1.261
				c0.167-0.393,0.399-0.737,0.7-1.032c0.3-0.296,0.661-0.529,1.081-0.7S7.915,7,8.423,7c0.513,0,0.974,0.081,1.383,0.243
				c0.409,0.162,0.757,0.388,1.046,0.679c0.289,0.291,0.51,0.64,0.665,1.046c0.155,0.406,0.232,0.852,0.232,1.337
				c0,0.31-0.027,0.603-0.08,0.88c-0.053,0.277-0.129,0.544-0.229,0.801c-0.099,0.256-0.218,0.506-0.357,0.748
				c-0.139,0.243-0.293,0.486-0.464,0.731l-2.294,3.271c-0.078,0.111-0.195,0.205-0.35,0.281s-0.332,0.114-0.53,0.114H5.873
				l3.112-3.888c0.079-0.098,0.152-0.191,0.222-0.284s0.136-0.185,0.201-0.277c-0.231,0.148-0.485,0.26-0.763,0.336
				C8.368,13.095,8.077,13.133,7.772,13.133z M10.107,10.132c0-0.272-0.042-0.516-0.125-0.731C9.899,9.187,9.782,9.005,9.629,8.857
				c-0.153-0.148-0.334-0.261-0.544-0.34C8.875,8.439,8.645,8.4,8.396,8.4c-0.258,0-0.492,0.042-0.7,0.128
				c-0.208,0.085-0.385,0.204-0.53,0.356C7.02,9.038,6.908,9.219,6.83,9.429c-0.079,0.21-0.118,0.44-0.118,0.69
				c0,0.559,0.144,0.985,0.433,1.278c0.289,0.293,0.699,0.44,1.23,0.44c0.277,0,0.523-0.043,0.738-0.131s0.396-0.208,0.544-0.36
				c0.148-0.153,0.26-0.333,0.336-0.541S10.107,10.373,10.107,10.132z M19.83,12.121c0,0.874-0.094,1.633-0.281,2.277
				c-0.187,0.645-0.445,1.176-0.775,1.597s-0.721,0.733-1.172,0.938c-0.449,0.206-0.936,0.309-1.458,0.309s-1.007-0.103-1.452-0.309
				c-0.445-0.205-0.832-0.518-1.16-0.938s-0.585-0.952-0.77-1.597c-0.185-0.645-0.277-1.404-0.277-2.277
				c0-0.877,0.092-1.638,0.277-2.28c0.185-0.642,0.441-1.173,0.77-1.594s0.715-0.733,1.16-0.939C15.137,7.103,15.621,7,16.144,7
				s1.009,0.103,1.458,0.309c0.451,0.206,0.842,0.519,1.172,0.939s0.589,0.952,0.775,1.594C19.736,10.483,19.83,11.244,19.83,12.121
				z M18.062,12.121c0-0.725-0.053-1.326-0.158-1.802c-0.107-0.476-0.249-0.854-0.427-1.136s-0.382-0.479-0.613-0.593
				s-0.472-0.169-0.721-0.169c-0.245,0-0.481,0.056-0.71,0.169s-0.432,0.311-0.607,0.593c-0.175,0.282-0.314,0.661-0.419,1.136
				c-0.104,0.476-0.155,1.077-0.155,1.802c0,0.726,0.052,1.326,0.155,1.802c0.104,0.476,0.244,0.854,0.419,1.137
				c0.176,0.282,0.379,0.479,0.607,0.593s0.465,0.17,0.71,0.17c0.249,0,0.489-0.057,0.721-0.17s0.436-0.311,0.613-0.593
				s0.319-0.661,0.427-1.137C18.01,13.447,18.062,12.847,18.062,12.121z"/>
		</g>
	</g>
</g>
</svg>
