<?xml version="1.0" encoding="utf-8"?>
<!-- Generator: Adobe Illustrator 16.0.0, SVG Export Plug-In . SVG Version: 6.00 Build 0)  -->
<!DOCTYPE svg PUBLIC "-//W3C//DTD SVG 1.1//EN" "http://www.w3.org/Graphics/SVG/1.1/DTD/svg11.dtd">
<svg version="1.1" id="Layer_1" xmlns="http://www.w3.org/2000/svg" xmlns:xlink="http://www.w3.org/1999/xlink" x="0px" y="0px"
	 width="25px" height="25px" viewBox="0.5 0 25 25" enable-background="new 0.5 0 25 25" xml:space="preserve">
<title>late-60-symbol</title>
<desc>Created with Sketch.</desc>
<g id="Final-Reports">
	<g id="Artboard" transform="translate(-23.000000, -133.000000)">
		<g id="late-60-symbol" transform="translate(23.500000, 133.000000)">
			<path id="Oval" fill="#ED4949" d="M12.5,25C19.403,25,25,19.403,25,12.5S19.403,0,12.5,0S0,5.597,0,12.5S5.597,25,12.5,25z
				 M12.5,23.295c-5.962,0-10.795-4.833-10.795-10.795S6.538,1.705,12.5,1.705S23.295,6.538,23.295,12.5S18.462,23.295,12.5,23.295z
				"/>
			<path id="_x36_0" fill="#ED4949" d="M9.04,10.874c0.379,0,0.748,0.062,1.105,0.187c0.358,0.125,0.673,0.313,0.946,0.565
				c0.273,0.251,0.492,0.564,0.659,0.939c0.166,0.374,0.25,0.81,0.25,1.31c0,0.467-0.085,0.904-0.257,1.312
				c-0.171,0.409-0.411,0.766-0.721,1.07c-0.31,0.306-0.683,0.546-1.119,0.721c-0.437,0.176-0.918,0.264-1.445,0.264
				c-0.536,0-1.016-0.085-1.441-0.256c-0.425-0.171-0.788-0.41-1.088-0.717c-0.3-0.308-0.53-0.678-0.689-1.109
				C5.08,14.729,5,14.249,5,13.723c0-0.472,0.096-0.956,0.288-1.452c0.192-0.497,0.489-1.013,0.891-1.549l2.391-3.209
				c0.083-0.111,0.205-0.206,0.364-0.284c0.16-0.078,0.343-0.118,0.551-0.118h1.524l-2.973,3.638
				c-0.064,0.079-0.125,0.152-0.184,0.222c-0.058,0.069-0.114,0.141-0.169,0.215c0.194-0.097,0.403-0.173,0.627-0.229
				S8.777,10.874,9.04,10.874z M6.643,13.985c0,0.277,0.038,0.53,0.114,0.759s0.189,0.424,0.339,0.586
				c0.15,0.162,0.336,0.287,0.558,0.377c0.222,0.091,0.478,0.136,0.769,0.136c0.272,0,0.523-0.046,0.752-0.139
				s0.425-0.222,0.589-0.388c0.164-0.167,0.292-0.361,0.385-0.586s0.139-0.468,0.139-0.73c0-0.287-0.044-0.545-0.132-0.773
				c-0.087-0.229-0.212-0.423-0.374-0.582S9.426,12.364,9.2,12.281c-0.227-0.083-0.476-0.125-0.749-0.125s-0.52,0.046-0.742,0.139
				c-0.222,0.092-0.412,0.221-0.572,0.385c-0.159,0.164-0.282,0.358-0.367,0.583C6.685,13.485,6.643,13.727,6.643,13.985z
				 M20.129,12.121c0,0.874-0.094,1.633-0.281,2.277s-0.445,1.176-0.776,1.597c-0.33,0.421-0.721,0.733-1.171,0.938
				c-0.451,0.206-0.938,0.309-1.459,0.309s-1.006-0.103-1.451-0.309c-0.446-0.205-0.834-0.518-1.162-0.938
				c-0.327-0.421-0.584-0.952-0.769-1.597s-0.277-1.404-0.277-2.277c0-0.877,0.093-1.638,0.277-2.28s0.441-1.173,0.769-1.594
				c0.328-0.42,0.716-0.733,1.162-0.939C15.436,7.103,15.92,7,16.441,7s1.008,0.103,1.459,0.309c0.45,0.206,0.841,0.519,1.171,0.939
				c0.331,0.42,0.589,0.952,0.776,1.594S20.129,11.244,20.129,12.121z M18.361,12.121c0-0.725-0.053-1.326-0.16-1.802
				c-0.105-0.476-0.248-0.854-0.426-1.136s-0.383-0.479-0.613-0.593s-0.471-0.169-0.721-0.169c-0.244,0-0.481,0.056-0.711,0.169
				c-0.229,0.113-0.43,0.311-0.605,0.593s-0.315,0.661-0.42,1.136c-0.104,0.476-0.156,1.077-0.156,1.802
				c0,0.726,0.053,1.326,0.156,1.802c0.104,0.476,0.244,0.854,0.42,1.137s0.377,0.479,0.605,0.593
				c0.229,0.113,0.467,0.17,0.711,0.17c0.25,0,0.49-0.057,0.721-0.17s0.436-0.311,0.613-0.593s0.32-0.661,0.426-1.137
				C18.309,13.447,18.361,12.847,18.361,12.121z"/>
		</g>
	</g>
</g>
</svg>
