<?xml version="1.0" encoding="utf-8"?>
<!-- Generator: Adobe Illustrator 16.0.0, SVG Export Plug-In . SVG Version: 6.00 Build 0)  -->
<!DOCTYPE svg PUBLIC "-//W3C//DTD SVG 1.1//EN" "http://www.w3.org/Graphics/SVG/1.1/DTD/svg11.dtd">
<svg version="1.1" id="Layer_1" xmlns="http://www.w3.org/2000/svg" xmlns:xlink="http://www.w3.org/1999/xlink" x="0px" y="0px"
	 width="25px" height="25px" viewBox="0.5 0 25 25" enable-background="new 0.5 0 25 25" xml:space="preserve">
<title>paid</title>
<desc>Created with Sketch.</desc>
<g id="Final-Reports">
	<g id="Artboard" transform="translate(-23.000000, -73.000000)">
		<g id="paid" transform="translate(23.500000, 73.000000)">
			<path id="Oval" fill="#5AAC00" d="M12.5,25C19.403,25,25,19.403,25,12.5S19.403,0,12.5,0S0,5.597,0,12.5S5.597,25,12.5,25z
				 M12.5,23.138c-5.875,0-10.638-4.763-10.638-10.638S6.625,1.862,12.5,1.862S23.138,6.625,23.138,12.5S18.375,23.138,12.5,23.138z
				"/>
			<path id="P" fill="#5AAC00" d="M11.051,14.143v3.881H9V7h3.59c0.737,0,1.375,0.086,1.914,0.259s0.983,0.414,1.334,0.724
				s0.609,0.681,0.777,1.113c0.168,0.432,0.252,0.905,0.252,1.418c0,0.534-0.09,1.023-0.268,1.467
				c-0.178,0.445-0.444,0.827-0.8,1.147c-0.356,0.32-0.8,0.569-1.334,0.747s-1.159,0.267-1.875,0.267H11.051z M11.051,12.542h1.54
				c0.376,0,0.705-0.047,0.984-0.141s0.51-0.229,0.693-0.404c0.183-0.176,0.32-0.389,0.412-0.641
				c0.091-0.251,0.137-0.532,0.137-0.842c0-0.295-0.046-0.562-0.137-0.8c-0.092-0.239-0.229-0.442-0.412-0.61
				c-0.184-0.168-0.414-0.296-0.693-0.385c-0.279-0.089-0.608-0.133-0.984-0.133h-1.54V12.542z"/>
		</g>
	</g>
</g>
</svg>
