<?xml version="1.0" encoding="utf-8"?>
<!-- Generator: Adobe Illustrator 16.0.0, SVG Export Plug-In . SVG Version: 6.00 Build 0)  -->
<!DOCTYPE svg PUBLIC "-//W3C//DTD SVG 1.1//EN" "http://www.w3.org/Graphics/SVG/1.1/DTD/svg11.dtd">
<svg version="1.1" id="Layer_1" xmlns="http://www.w3.org/2000/svg" xmlns:xlink="http://www.w3.org/1999/xlink" x="0px" y="0px"
	 width="20px" height="20px" viewBox="0 0 20 20" enable-background="new 0 0 20 20" xml:space="preserve">
<title>tooltip</title>
<desc>Created with Sketch.</desc>
<g id="Final-Reports">
	<g id="Artboard" transform="translate(-158.000000, -92.000000)">
		<g id="tooltip" transform="translate(158.000000, 92.000000)">
			<path id="Oval-5" fill="#979797" d="M10,20c5.523,0,10-4.477,10-10c0-5.523-4.477-10-10-10C4.477,0,0,4.477,0,10
				C0,15.523,4.477,20,10,20z M10,19.048c-4.997,0-9.048-4.051-9.048-9.048S5.003,0.952,10,0.952S19.048,5.003,19.048,10
				S14.997,19.048,10,19.048z"/>
			<path id="_x3F_" fill="#818183" d="M7,6.029c0.159-0.14,0.333-0.273,0.521-0.399s0.393-0.235,0.612-0.329
				c0.22-0.093,0.458-0.167,0.714-0.22C9.104,5.027,9.382,5,9.681,5c0.406,0,0.776,0.056,1.11,0.168
				c0.333,0.112,0.619,0.272,0.857,0.479S12.07,6.106,12.201,6.4s0.195,0.623,0.195,0.987c0,0.354-0.051,0.661-0.153,0.92
				c-0.103,0.259-0.232,0.484-0.389,0.675S11.529,9.34,11.348,9.48c-0.183,0.14-0.355,0.272-0.519,0.396s-0.305,0.245-0.424,0.364
				c-0.119,0.119-0.19,0.253-0.213,0.403l-0.161,1.021H8.848l-0.119-1.141c-0.005-0.024-0.007-0.043-0.007-0.06v-0.06
				c0-0.205,0.051-0.384,0.154-0.535c0.103-0.152,0.231-0.294,0.385-0.427c0.154-0.133,0.319-0.262,0.497-0.389
				c0.178-0.126,0.343-0.262,0.497-0.409c0.154-0.147,0.282-0.314,0.386-0.5c0.102-0.187,0.153-0.406,0.153-0.658
				c0-0.168-0.031-0.318-0.095-0.451c-0.062-0.133-0.15-0.248-0.262-0.343s-0.246-0.169-0.402-0.221
				C9.878,6.418,9.709,6.393,9.527,6.393c-0.266,0-0.491,0.029-0.675,0.087C8.667,6.539,8.511,6.604,8.382,6.677
				C8.254,6.749,8.146,6.814,8.057,6.873C7.968,6.931,7.889,6.96,7.819,6.96c-0.168,0-0.289-0.07-0.364-0.21L7,6.029z M8.323,14.282
				c0-0.146,0.026-0.282,0.08-0.413s0.128-0.242,0.224-0.336s0.209-0.168,0.339-0.225c0.131-0.056,0.271-0.084,0.42-0.084
				c0.145,0,0.282,0.028,0.413,0.084c0.131,0.057,0.243,0.131,0.336,0.225c0.093,0.094,0.168,0.205,0.224,0.336
				c0.056,0.131,0.084,0.268,0.084,0.413c0,0.149-0.028,0.288-0.084,0.416c-0.056,0.128-0.13,0.239-0.224,0.333
				c-0.094,0.094-0.206,0.166-0.336,0.221c-0.13,0.053-0.268,0.08-0.413,0.08c-0.149,0-0.29-0.027-0.42-0.08
				c-0.13-0.055-0.244-0.127-0.339-0.221s-0.17-0.205-0.224-0.333S8.323,14.432,8.323,14.282z"/>
		</g>
	</g>
</g>
</svg>
