<svg xmlns="http://www.w3.org/2000/svg" width="42" height="42" viewBox="0 0 42 42"><g fill="none" fill-rule="evenodd"><path fill="#FFF" d="M20.961 41.86c11.052.316 20.801-9.236 20.947-20.58C42.056 9.735 32.363.405 21.667.09 9.71-.26.187 9.799.075 20.718c-.12 11.868 9.979 21.462 20.886 21.142z"/><path fill="#08AEEB" d="M20.961 41.86C10.054 42.18-.045 32.584.075 20.716.186 9.798 9.71-.261 21.666.09c10.697.314 20.39 9.644 20.242 21.19-.146 11.343-9.895 20.895-20.947 20.578zm.034-1.082c10.887 0 19.613-8.73 19.745-19.504.137-11.204-9.076-20.008-19.67-20.039C10.347 1.204 1.42 9.997 1.25 20.697c-.175 10.89 8.699 20.21 19.745 20.081z"/><path fill="#FFF" d="M20.995 40.778c-11.046.13-19.92-9.19-19.745-20.081.171-10.7 9.097-19.493 19.82-19.462 10.594.031 19.807 8.835 19.67 20.039-.132 10.774-8.858 19.504-19.745 19.504zM10.738 22.293c.023-.137-.056-.16-.166-.147H6.426c4.554-3.451 9.12-6.751 13.696-10.038.587-.422 1.378-.377 1.94.02a1079.36 1079.36 0 0 0 5.31 3.731c.162.113.322.38.543.24.193-.123.099-.402.073-.596-.069-.527.104-.708.653-.667.71.054 1.429.039 2.141.004.422-.021.51.136.503.524-.018 1.023.008 2.046.016 3.07-.016.097.024.16.117.19l4.772 3.387-.032.138h-4.731c-.108-.018-.137.038-.126.132v4.867c-.014.097.012.173.117.202 1.738.703 3.488 1.39 5.08 2.392.49.307.653.184.877-.269 1.92-3.886 2.485-7.939 1.646-12.206C36.92 6.568 25.486-.031 15.177 3.528 6.752 6.437 1.715 14.43 2.732 23.311c.254 2.218.93 4.315 1.969 6.293.114.217.168.508.552.27 1.68-1.045 3.504-1.792 5.332-2.527.108-.03.175-.088.148-.212.076-1.614.069-3.228.005-4.842zM21.054 39.49c6.147-.192 11.159-2.694 14.898-7.7.324-.436.346-.635-.182-.93-3.42-1.917-7.061-3.133-10.953-3.623-6.612-.831-12.808.406-18.625 3.642-.514.287-.474.476-.169.886 3.733 5.01 8.737 7.529 15.03 7.725z"/><path fill="#333" d="M31.285 18.45v-3.61h-3.242v1.42s-.51-.288-.672-.4a1079.36 1079.36 0 0 1-5.309-3.732c-.562-.397-1.353-.442-1.94-.02-4.576 3.287-9.142 6.586-13.696 10.038h4.146l.166.147a56.022 56.022 0 0 1-.005 4.842l-.148.212c-1.828.735-3.652 1.482-5.332 2.527-.384.238-.438-.053-.552-.27-1.04-1.978-1.715-4.075-1.969-6.293-1.017-8.88 4.02-16.874 12.446-19.783 10.309-3.56 21.742 3.04 23.844 13.739.838 4.267.273 8.32-1.647 12.206-.224.453-.388.576-.876.269-1.593-1.002-3.343-1.689-5.081-2.392l-.117-.202V22.28l.126-.132h4.731l.033-.138c-1.591-1.13-4.906-3.56-4.906-3.56z"/><path fill="#01ACEB" d="M21.054 39.489c-6.294-.196-11.298-2.715-15.03-7.725-.306-.41-.346-.6.168-.886 5.817-3.236 12.013-4.473 18.625-3.642 3.892.49 7.533 1.706 10.954 3.623.527.295.506.494.18.93-3.738 5.006-8.75 7.508-14.897 7.7z"/><path fill="#333" d="M20.581 22.26c-.112.051-1.785 0-2.55 0 0-.105.002-1.823 0-2.54.044-.045 1.787 0 2.55 0 .044.045.001 1.824 0 2.54zm3 0c-.112.051-1.785 0-2.55 0 0-.105.002-1.823 0-2.54.044-.045 1.787 0 2.55 0 .044.045.001 1.824 0 2.54zm-3 3c-.112.051-1.785 0-2.55 0 0-.105.002-1.823 0-2.54.044-.045 1.787 0 2.55 0 .044.045.001 1.824 0 2.54zm3 0c-.112.051-1.785 0-2.55 0 0-.105.002-1.823 0-2.54.044-.045 1.787 0 2.55 0 .044.045.001 1.824 0 2.54z"/></g></svg>