<svg xmlns="http://www.w3.org/2000/svg" width="141" height="120" viewBox="0 0 141 120"><g fill="none" fill-rule="evenodd"><g fill="#D9E5FE" transform="translate(0 50)"><rect width="19.847" height="2.337" x="8.07" y="11.018" rx="1.169"/><rect width="47.917" height="2.337" x="16.586" y="5.008" rx="1.169"/><rect width="35.308" height="2.337" y="16.694" rx="1.169"/><rect width="22.698" height="2.337" x="20.176" y="22.036" rx="1.169"/><rect width="15.132" height="2.337" x="17.994" y="29.715" rx="1.169"/><rect width="15.132" height="2.337" x="29.562" y="36.392" rx="1.169"/><rect width="5.044" height="2.337" x="21.302" y="36.392" rx="1.169"/><rect width="5.044" height="2.337" y="11.018" rx="1.169"/><rect width="5.044" height="2.337" x="30.102" rx="1.169"/></g><g transform="rotate(-11 191.612 -122.735)"><g fill-rule="nonzero"><path fill="#FFF" d="M1.955 7.698l4.912 70.244L90.15 72.12 85.238 1.875z"/><path fill="#A3A2A2" d="M1.955 7.698l4.912 70.244L90.15 72.12 85.238 1.875 1.955 7.698zM.898 6.776L86.157.814l5.05 72.227-85.259 5.962L.898 6.776z"/></g><path fill="#FFF" fill-rule="nonzero" d="M8.819 4.686V75.1h83.486V4.686z"/><path fill="#A3A2A2" fill-rule="nonzero" d="M9.18 4.862v70.416h83.486V4.862H9.18zm-.99-.994h85.467v72.403H8.19V3.868z"/><rect width="29.814" height="30.223" x="11.803" y="41.886" fill="#D8D8D8" fill-opacity=".377" opacity=".657" rx="1.75"/><rect width="43.065" height="65.096" x="45.593" y="7.678" fill="#D8D8D8" fill-opacity=".377" opacity=".657" rx="1.75"/><rect width="26.502" height="2.928" x="50.562" y="21.2" fill="#D8D8D8" rx="1.4"/><rect width="33.127" height="2.928" x="50.562" y="43.832" fill="#D8D8D8" rx="1.4"/><rect width="33.127" height="2.928" x="50.562" y="28.744" fill="#D8D8D8" rx="1.4"/><rect width="23.189" height="2.928" x="50.562" y="51.376" fill="#D8D8D8" rx="1.4"/><rect width="33.127" height="2.928" x="50.562" y="58.92" fill="#D8D8D8" rx="1.4"/><rect width="33.127" height="2.928" x="50.562" y="66.463" fill="#D8D8D8" rx="1.4"/><rect width="19.876" height="2.928" x="17.104" y="58.493" fill="#D8D8D8" rx="1.4"/><rect width="23.189" height="2.928" x="50.562" y="13.656" fill="#B0B4BC" rx="1.4"/><rect width="23.189" height="2.928" x="50.562" y="36.288" fill="#B0B4BC" rx="1.4"/><path fill="#898A8A" fill-rule="nonzero" d="M37.061 38.466l-.15.15H16.315l-.149-.15c-.265-.266-.396-.561-.395-.9-.115-1.51 1.45-3.51 3.908-4.703 3.33-1.583 4.063-2.377 4.064-4.713-.415-.346-.709-.778-1.001-1.417a16.31 16.31 0 0 1-.324-.77l-.334-.847a9.742 9.742 0 0 1-.602-.772 6.332 6.332 0 0 1-.388-.622c-.236-.439-.359-.826-.323-1.182a.952.952 0 0 1 .531-.784l-.01-.096a10.833 10.833 0 0 1-.046-1.97c.12-1.561.665-2.638 1.797-2.834.12-.317.324-.684.639-1.05.74-.86 1.852-1.375 3.368-1.375 1.524 0 2.558.692 3.515 1.99.098.134.768 1.122.931 1.312.1.117.185.193.225.218.387.194.67.681.503 1.115-.246 1-.372 1.916-.287 2.632.392.14.64.435.675.849.031.361-.105.75-.362 1.19a6.415 6.415 0 0 1-.414.615 10.028 10.028 0 0 1-.646.772c-.182.468-.544 1.465-.608 1.625-.247.616-.494 1.023-.883 1.383 0 2.365.722 3.159 4.035 4.733 2.406 1.168 3.83 3.129 3.724 4.682a1.256 1.256 0 0 1-.396.919z" opacity=".163"/><path fill="#D8D8D8" fill-rule="nonzero" d="M13.787 10.331v26.91c0 .18.151.332.334.332H39.3a.328.328 0 0 0 .333-.333V10.331A.337.337 0 0 0 39.3 10H14.12a.328.328 0 0 0-.333.332zm-1.321 0a1.65 1.65 0 0 1 1.655-1.657H39.3a1.66 1.66 0 0 1 1.654 1.657v26.91a1.65 1.65 0 0 1-1.655 1.656H14.12a1.66 1.66 0 0 1-1.654-1.657V10.331z"/><path fill="#B0B4BC" d="M16.006 48.906v-2.67h6.003v1.407l-3.364 6.927h-2.02l3.209-6.737h-2.092v1.073h-1.736zm10.532-1.263c-.515 0-.913.173-1.195.518-.281.346-.453.817-.517 1.413a2.965 2.965 0 0 1 1.64-.5c.777 0 1.425.254 1.944.762.519.51.779 1.187.779 2.033 0 .847-.28 1.524-.838 2.033-.56.509-1.262.763-2.11.763-.587 0-1.096-.113-1.528-.34a2.464 2.464 0 0 1-1.004-.948c-.476-.786-.713-1.772-.713-2.956 0-.763.093-1.433.279-2.01.186-.576.442-1.03.767-1.364.634-.668 1.418-1.002 2.353-1.002.388 0 .759.058 1.112.173.352.115.624.232.814.352.19.119.4.27.63.453l-.88 1.311a4.319 4.319 0 0 0-.208-.19c-.09-.08-.271-.183-.54-.31a1.827 1.827 0 0 0-.785-.191zm-1.171 3.332a1.08 1.08 0 0 0-.374.853c0 .35.118.65.356.9s.535.375.892.375c.356 0 .653-.111.891-.334.238-.222.357-.51.357-.864s-.107-.652-.321-.894c-.214-.243-.505-.364-.874-.364-.368 0-.677.11-.927.328zm6.936-.614c0 .835.13 1.506.392 2.015.262.509.67.763 1.225.763.554 0 .962-.254 1.224-.763.261-.509.392-1.18.392-2.015 0-.835-.13-1.506-.392-2.015-.262-.509-.67-.763-1.224-.763-.555 0-.963.254-1.225.763-.261.509-.392 1.18-.392 2.015zm-.963 3.13c-.57-.783-.856-1.828-.856-3.136 0-1.307.286-2.353.856-3.136.57-.782 1.43-1.174 2.58-1.174 1.149 0 2.008.392 2.579 1.174.57.783.856 1.829.856 3.136 0 1.308-.285 2.353-.856 3.136-.57.783-1.43 1.174-2.58 1.174-1.149 0-2.008-.391-2.579-1.174z"/><rect width="19.876" height="2.928" x="17.104" y="65.799" fill="#D8D8D8" rx="1.4"/></g><path fill="#36D488" fill-rule="nonzero" d="M76.12 8.423a1.77 1.77 0 0 0-2.484-.227 1.752 1.752 0 0 0-.228 2.474l5.594 6.697a1.77 1.77 0 0 0 2.633.089L95.512 2.97a1.752 1.752 0 0 0-.058-2.484 1.77 1.77 0 0 0-2.495.058l-12.51 13.06-4.328-5.181z"/><g transform="rotate(5 -557.25 1164.807)"><path fill="#515050" d="M24.18 27.044a1.053 1.053 0 0 1-.001-1.49l.906-.906a1.053 1.053 0 0 1 1.491 0L38.01 36.077a1.053 1.053 0 0 1 0 1.49l-.906.906a1.053 1.053 0 0 1-1.49 0L24.18 27.043z"/><ellipse cx="14.404" cy="14.446" stroke="#515050" stroke-width="2.8" rx="14.404" ry="14.446"/><ellipse cx="14.404" cy="14.446" fill="#FFF" stroke="#515050" stroke-width="2.8" opacity=".647" rx="14.404" ry="14.446"/><path stroke="#979797" stroke-linecap="round" stroke-linejoin="round" stroke-width="2.45" d="M7.584 7.588s-6.407 5.768 0 13.677" opacity=".647"/></g></g></svg>