<svg id="bike" xmlns="http://www.w3.org/2000/svg" viewBox="0 0 874.53 494.22"><title>bike</title><path d="M203.12,726.4C114.7,726.4,42.77,654.47,42.77,566S114.7,405.7,203.12,405.7,363.46,477.63,363.46,566,291.54,726.4,203.12,726.4Zm0-281.37a121,121,0,1,0,121,121A121.16,121.16,0,0,0,203.12,445Z" transform="translate(-42.77 -232.18)" fill="#009857"/><path d="M757,726.4C668.53,726.4,596.6,654.47,596.6,566S668.53,405.7,757,405.7,917.3,477.63,917.3,566,845.37,726.4,757,726.4ZM757,445A121,121,0,1,0,878,566,121.17,121.17,0,0,0,757,445Z" transform="translate(-42.77 -232.18)" fill="#00ef32"/><path d="M203.11,585.72a19.68,19.68,0,0,1-18.19-27.14l129-314.2a19.67,19.67,0,0,1,18.2-12.2H411.8a19.67,19.67,0,0,1,0,39.33H345.27l-124,302A19.68,19.68,0,0,1,203.11,585.72Z" transform="translate(-42.77 -232.18)" fill="#02cb4f"/><path d="M648,299.65H569.48a19.67,19.67,0,0,1,0-39.33H648A19.67,19.67,0,0,1,648,299.65Z" transform="translate(-42.77 -232.18)" fill="#02cb4f"/><path d="M757,585.71h-266a19.67,19.67,0,0,1-15.18-7.16L283.67,345.29a19.67,19.67,0,0,1,15.18-32.17h317.4a19.67,19.67,0,0,1,16.84,9.51L773.8,555.89A19.67,19.67,0,0,1,757,585.71ZM500.21,546.38H722.13l-117-193.93H340.53Z" transform="translate(-42.77 -232.18)" fill="#00ef32"/><path d="M648,280" transform="translate(-42.77 -232.18)" fill="none" stroke="#00ef32" stroke-linecap="round" stroke-linejoin="round" stroke-width="4.4"/><path d="M490.92,585.72a19.67,19.67,0,0,1-17.22-29.13L630.8,270.52a19.66,19.66,0,1,1,34.47,18.93L508.17,575.51A19.65,19.65,0,0,1,490.92,585.72Z" transform="translate(-42.77 -232.18)" fill="#02cb4f"/><path d="M522.59,667.78H490.93a19.66,19.66,0,0,1-19.66-19.67V566a19.66,19.66,0,1,1,39.32,0v62.4h12A19.67,19.67,0,0,1,522.59,667.78Z" transform="translate(-42.77 -232.18)" fill="#02cb4f"/></svg>