<svg id="cake" xmlns="http://www.w3.org/2000/svg" viewBox="0 0 365.62 720.75"><title>cake</title><path d="M449.44,698.41c-104.22,0-182.81-40.7-182.81-94.67,0-16.45,7.45-40.57,43-62a15.67,15.67,0,1,1,16.22,26.81C315.42,574.8,298,587.74,298,603.74c0,30,62.21,63.34,151.47,63.34A15.67,15.67,0,0,1,449.44,698.41Z" transform="translate(-266.63 -99.11)" fill="#009857"/><path d="M449.44,819.86a15.67,15.67,0,1,1,0-31.34c89.26,0,151.47-33.38,151.47-63.34V603.74a15.67,15.67,0,1,1,31.34,0V725.19C632.25,779.16,553.66,819.86,449.44,819.86Z" transform="translate(-266.63 -99.11)" fill="#009857"/><path d="M282.29,740.85a15.66,15.66,0,0,1-15.67-15.67V613.09a15.67,15.67,0,1,1,31.34,0V725.19A15.66,15.66,0,0,1,282.29,740.85Z" transform="translate(-266.63 -99.11)" fill="#009857"/><path d="M449.44,819.86c-104.22,0-182.81-40.7-182.81-94.67a15.67,15.67,0,0,1,31.34,0c0,30,62.21,63.34,151.47,63.34A15.67,15.67,0,0,1,449.44,819.86Z" transform="translate(-266.63 -99.11)" fill="#02cb4f"/><path d="M580,535.59" transform="translate(-266.63 -99.11)" fill="none" stroke="#009857" stroke-linecap="round" stroke-linejoin="round" stroke-width="4.4"/><path d="M449.44,698.41a15.67,15.67,0,0,1,0-31.34c89.26,0,151.47-33.38,151.47-63.34,0-16.36-18.12-29.48-28.91-35.85a15.67,15.67,0,1,1,15.92-27c28.58,16.86,44.32,39.18,44.32,62.84C632.25,657.71,553.66,698.41,449.44,698.41Z" transform="translate(-266.63 -99.11)" fill="#00ef32"/><path d="M449.44,631.79c-78.62,0-137.9-33.25-137.9-77.36V466.2a15.67,15.67,0,0,1,31.34,0v88.23c0,21.72,45.58,46,106.56,46S556,576.16,556,554.44V458.89a15.67,15.67,0,1,1,31.34,0v95.54C587.34,598.54,528.05,631.79,449.44,631.79Z" transform="translate(-266.63 -99.11)" fill="#02cb4f"/><path d="M449.44,517.45c-78.62,0-137.9-33.25-137.9-77.36,0-21.61,14.47-41.38,40.76-55.7a15.67,15.67,0,1,1,15,27.52c-15.51,8.44-24.41,18.71-24.41,28.17,0,21.72,45.58,46,106.56,46A15.67,15.67,0,0,1,449.44,517.45Z" transform="translate(-266.63 -99.11)" fill="#02cb4f"/><path d="M540.43,398.9" transform="translate(-266.63 -99.11)" fill="none" stroke="#02cb4f" stroke-linecap="round" stroke-linejoin="round" stroke-width="4.4"/><path d="M449.44,517.45a15.67,15.67,0,0,1,0-31.34c61,0,106.56-24.3,106.56-46,0-9.19-8.48-19.22-23.25-27.53a15.67,15.67,0,1,1,15.37-27.32c25.29,14.23,39.22,33.71,39.22,54.85C587.34,484.2,528.05,517.45,449.44,517.45Z" transform="translate(-266.63 -99.11)" fill="#009857"/><path d="M449.44,371.79c-60,0-105.31-26.18-105.31-60.91S389.4,250,449.44,250a15.67,15.67,0,1,1,0,31.34c-44.46,0-74,17.8-74,29.58s29.51,29.58,74,29.58A15.67,15.67,0,0,1,449.44,371.79Z" transform="translate(-266.63 -99.11)" fill="#00ef32"/><path d="M449.44,452.45c-60,0-105.31-26.18-105.31-60.91V310.88a15.67,15.67,0,0,1,31.34,0v80.66c0,11.77,29.51,29.58,74,29.58s74-17.8,74-29.58V310.88a15.67,15.67,0,1,1,31.34,0v80.66C554.75,426.26,509.48,452.45,449.44,452.45Z" transform="translate(-266.63 -99.11)" fill="#00ef32"/><path d="M449.44,371.79a15.67,15.67,0,0,1,0-31.34c44.47,0,74-17.8,74-29.58s-29.51-29.58-74-29.58a15.67,15.67,0,0,1,0-31.34c60,0,105.31,26.18,105.31,60.91S509.48,371.79,449.44,371.79Z" transform="translate(-266.63 -99.11)" fill="#02cb4f"/><path d="M449.44,281.3a15.62,15.62,0,0,1-10.86-4.37l-75-72.13a15.67,15.67,0,0,1,21.72-22.6l75,72.13A15.67,15.67,0,0,1,449.44,281.3Z" transform="translate(-266.63 -99.11)" fill="#02cb4f"/><path d="M449.44,281.3a15.67,15.67,0,0,1-10.78-27l76.13-72.13a15.67,15.67,0,1,1,21.56,22.75L460.22,277A15.61,15.61,0,0,1,449.44,281.3Z" transform="translate(-266.63 -99.11)" fill="#009857"/><path d="M525.57,209.17A15.67,15.67,0,0,1,515,181.89,29.55,29.55,0,1,0,465.65,160a15.67,15.67,0,1,1-31.34,0,60.89,60.89,0,1,1,101.77,45.12A15.6,15.6,0,0,1,525.57,209.17Z" transform="translate(-266.63 -99.11)" fill="#00ef32"/><path d="M374.39,209.17a15.63,15.63,0,0,1-10.52-4.06A60.89,60.89,0,1,1,465.65,160a15.67,15.67,0,1,1-31.34,0,29.55,29.55,0,1,0-49.39,21.9A15.67,15.67,0,0,1,374.39,209.17Z" transform="translate(-266.63 -99.11)" fill="#00ef32"/></svg>