<svg id="camera" xmlns="http://www.w3.org/2000/svg" viewBox="0 0 805.24 532.53"><title>camera</title><path d="M516.12,275.27h-75a19.48,19.48,0,0,1,0-39h75A19.48,19.48,0,0,1,516.12,275.27Z" transform="translate(-78.07 -173.4)" fill="#02cb4f"/><path d="M786.31,275.27h-75a19.48,19.48,0,1,1,0-39h75A19.48,19.48,0,0,1,786.31,275.27Z" transform="translate(-78.07 -173.4)" fill="#02cb4f"/><path d="M857.15,343.89H97.55a19.48,19.48,0,1,1,0-39h759.6A19.48,19.48,0,0,1,857.15,343.89Z" transform="translate(-78.07 -173.4)" fill="#02cb4f"/><path d="M480.68,578.51a95.73,95.73,0,1,1,95.74-95.73A95.83,95.83,0,0,1,480.68,578.51Zm0-152.5a56.76,56.76,0,1,0,56.77,56.77A56.83,56.83,0,0,0,480.68,426Z" transform="translate(-78.07 -173.4)" fill="#00ef32"/><path d="M480.68,660.63c-98.07,0-177.85-79.78-177.85-177.85s79.78-177.86,177.85-177.86S658.54,384.7,658.54,482.78,578.76,660.63,480.68,660.63Zm0-316.74c-76.58,0-138.88,62.3-138.88,138.89s62.3,138.88,138.88,138.88,138.89-62.3,138.89-138.88S557.27,343.89,480.68,343.89Z" transform="translate(-78.07 -173.4)" fill="#02cb4f"/><path d="M97.55,705.93a19.48,19.48,0,0,1-19.48-19.48V255.78A19.48,19.48,0,0,1,97.55,236.3H278.22V192.88A19.48,19.48,0,0,1,297.7,173.4H863.82a19.48,19.48,0,0,1,0,39H317.19v43.42a19.48,19.48,0,0,1-19.48,19.48H117V686.45A19.48,19.48,0,0,1,97.55,705.93Z" transform="translate(-78.07 -173.4)" fill="#00ef32"/><path d="M229.55,275.27a19.48,19.48,0,0,1-19.48-19.48V212.36H144.67v43.42a19.48,19.48,0,1,1-39,0v-62.9a19.48,19.48,0,0,1,19.48-19.48H229.55A19.48,19.48,0,0,1,249,192.88v62.9A19.48,19.48,0,0,1,229.55,275.27Z" transform="translate(-78.07 -173.4)" fill="#00ef32"/><path d="M863.82,705.93H97.55a19.48,19.48,0,1,1,0-39H844.34V192.88a19.48,19.48,0,1,1,39,0V686.45A19.48,19.48,0,0,1,863.82,705.93Z" transform="translate(-78.07 -173.4)" fill="#009857"/></svg>