<svg id="family" xmlns="http://www.w3.org/2000/svg" viewBox="0 0 677.42 651.71"><title>family</title><path d="M514.88,785.42a16.11,16.11,0,0,1-16.11-16.11V564.88a16.11,16.11,0,0,1,32.23,0V769.31A16.11,16.11,0,0,1,514.88,785.42Z" transform="translate(-110.44 -133.71)" fill="#02cb4f"/><path d="M475.58,269.53a67.91,67.91,0,1,1,67.92-67.91A68,68,0,0,1,475.58,269.53Zm0-103.6a35.69,35.69,0,1,0,35.69,35.69A35.73,35.73,0,0,0,475.58,165.93Z" transform="translate(-110.44 -133.71)" fill="#00ef32"/><path d="M694.39,437.48a51.12,51.12,0,1,1,51.12-51.12A51.17,51.17,0,0,1,694.39,437.48Zm0-70a18.89,18.89,0,1,0,18.89,18.89A18.91,18.91,0,0,0,694.39,367.48Z" transform="translate(-110.44 -133.71)" fill="#00ef32"/><path d="M231.2,317.24a67.91,67.91,0,1,1,67.91-67.92A68,68,0,0,1,231.2,317.24Zm0-103.6a35.69,35.69,0,1,0,35.68,35.68A35.72,35.72,0,0,0,231.2,213.64Z" transform="translate(-110.44 -133.71)" fill="#00ef32"/><path d="M411.36,581a46.21,46.21,0,0,1-46.15-46.15V349a46.21,46.21,0,0,1,46.15-46.15H539.81A46.21,46.21,0,0,1,586,349a16.11,16.11,0,1,1-32.23,0,14,14,0,0,0-13.92-13.92H411.36A14,14,0,0,0,397.43,349V534.84a14,14,0,0,0,13.92,13.92A16.11,16.11,0,0,1,411.36,581Z" transform="translate(-110.44 -133.71)" fill="#00ef32"/><path d="M539.81,581H436.29a16.11,16.11,0,0,1,0-32.23H539.81a14,14,0,0,0,13.92-13.92V349A16.11,16.11,0,0,1,586,349V534.84A46.21,46.21,0,0,1,539.81,581Z" transform="translate(-110.44 -133.71)" fill="#009857"/><path d="M436.29,785.42a16.11,16.11,0,0,1-16.11-16.11V564.88a16.11,16.11,0,0,1,32.23,0V769.31A16.11,16.11,0,0,1,436.29,785.42Z" transform="translate(-110.44 -133.71)" fill="#009857"/><path d="M189.11,785.42A16.11,16.11,0,0,1,173,769.31V638.15a16.11,16.11,0,1,1,32.23,0V769.31A16.11,16.11,0,0,1,189.11,785.42Z" transform="translate(-110.44 -133.71)" fill="#02cb4f"/><path d="M664.37,785.42a16.11,16.11,0,0,1-16.11-16.11V675.44a16.11,16.11,0,1,1,32.23,0v93.87A16.11,16.11,0,0,1,664.37,785.42Z" transform="translate(-110.44 -133.71)" fill="#02cb4f"/><path d="M723.61,785.42a16.11,16.11,0,0,1-16.11-16.11V675.44a16.11,16.11,0,0,1,32.23,0v93.87A16.11,16.11,0,0,1,723.61,785.42Z" transform="translate(-110.44 -133.71)" fill="#009857"/><path d="M126.56,638.15" transform="translate(-110.44 -133.71)" fill="none" stroke="#00ef32" stroke-linecap="round" stroke-linejoin="round" stroke-width="4.4"/><path d="M126.56,654.27a16.13,16.13,0,0,1-15.1-21.75L216.1,351.9a16.11,16.11,0,1,1,30.2,11.26L141.65,643.78A16.11,16.11,0,0,1,126.56,654.27Z" transform="translate(-110.44 -133.71)" fill="#00ef32"/><path d="M617,691.56a16.13,16.13,0,0,1-15.1-21.75l46.47-124.62V502.72A44.82,44.82,0,0,1,693.17,458h2.39a16.11,16.11,0,0,1,0,32.23h-2.39a12.56,12.56,0,0,0-12.54,12.54v43.13a15.77,15.77,0,0,1-.89,7.53L632.14,681.07A16.11,16.11,0,0,1,617,691.56Z" transform="translate(-110.44 -133.71)" fill="#00ef32"/><path d="M771.74,691.55H617a16.11,16.11,0,0,1,0-32.23H748.53L709.12,553.61a16.09,16.09,0,0,1-1-5.63V502.72a12.56,12.56,0,0,0-12.54-12.54,16.11,16.11,0,0,1,0-32.23,44.82,44.82,0,0,1,44.76,44.76v42.36l46.51,124.73A16.11,16.11,0,0,1,771.74,691.55Z" transform="translate(-110.44 -133.71)" fill="#009857"/><path d="M335.84,654.27a16.11,16.11,0,0,1-15.1-10.49L216.1,363.16a16.11,16.11,0,1,1,30.2-11.26L350.94,632.52A16.13,16.13,0,0,1,335.84,654.27Z" transform="translate(-110.44 -133.71)" fill="#02cb4f"/><path d="M267.7,785.42a16.11,16.11,0,0,1-16.11-16.11V638.15a16.11,16.11,0,1,1,32.23,0V769.31A16.11,16.11,0,0,1,267.7,785.42Z" transform="translate(-110.44 -133.71)" fill="#009857"/><path d="M335.84,654.27H126.56a16.11,16.11,0,0,1,0-32.23H335.84A16.11,16.11,0,0,1,335.84,654.27Z" transform="translate(-110.44 -133.71)" fill="#009857"/></svg>