<svg id="furniture" xmlns="http://www.w3.org/2000/svg" viewBox="0 0 720.4 604.45"><title>furniture</title><path d="M805.91,777.77H620.72a15.15,15.15,0,0,1-15.15-15.15V708.74a15.15,15.15,0,1,1,30.3,0v38.72h170A15.15,15.15,0,0,1,805.91,777.77Z" transform="translate(-120.16 -177.83)" fill="#00ef32"/><path d="M162.37,782.28a15.15,15.15,0,0,1-15.15-15.15V713.25a15.15,15.15,0,1,1,30.3,0v53.88A15.15,15.15,0,0,1,162.37,782.28Z" transform="translate(-120.16 -177.83)" fill="#009857"/><path d="M647.78,723.89H584.63a15.15,15.15,0,0,1,0-30.31h48V573.49H599.78v66.86a15.15,15.15,0,1,1-30.3,0V566.64a23.34,23.34,0,0,1,23.18-23.45H639.2a23.61,23.61,0,0,1,23.72,23.45v142.1A15.15,15.15,0,0,1,647.78,723.89Z" transform="translate(-120.16 -177.83)" fill="#02cb4f"/><path d="M542.6,723.89H135.31a15.15,15.15,0,0,1-15.15-15.15V566.64c0-12.71,11.07-23.45,24.17-23.45h45.1c12.88,0,24.17,11.29,24.17,24.17v73a15.15,15.15,0,1,1-30.3,0V573.49H150.46V693.58H542.6A15.15,15.15,0,0,1,542.6,723.89Z" transform="translate(-120.16 -177.83)" fill="#02cb4f"/><path d="M584.63,618.59H198.45a15.15,15.15,0,0,1,0-30.31H584.63A15.15,15.15,0,0,1,584.63,618.59Z" transform="translate(-120.16 -177.83)" fill="#009857"/><path d="M584.63,655.5a15.15,15.15,0,0,1-15.15-15.15V566.64a23.34,23.34,0,0,1,23.18-23.45h12.9V462.69H177.52v80.49h11.91c12.88,0,24.17,11.29,24.17,24.17v73a15.15,15.15,0,1,1-30.3,0V573.49H162.37a15.15,15.15,0,0,1-15.15-15.15V462.18a28.65,28.65,0,0,1,8.21-20.78,29.79,29.79,0,0,1,21.31-9H606.07a29.83,29.83,0,0,1,29.8,29.8v96.15a15.15,15.15,0,0,1-15.15,15.15H599.78v66.86A15.15,15.15,0,0,1,584.63,655.5Z" transform="translate(-120.16 -177.83)" fill="#00ef32"/><path d="M695.46,430.44a15.15,15.15,0,0,1-15.15-15.15v-72a15.15,15.15,0,1,1,30.3,0v72A15.15,15.15,0,0,1,695.46,430.44Z" transform="translate(-120.16 -177.83)" fill="#02cb4f"/><path d="M647.78,329.09a15.15,15.15,0,0,1-15.15-15.15V222.26a15.15,15.15,0,1,1,30.3,0v91.68A15.15,15.15,0,0,1,647.78,329.09Z" transform="translate(-120.16 -177.83)" fill="#009857"/><path d="M736.6,358.44a15.15,15.15,0,0,1,0-30.31c43.83,0,69.31-10.71,73.75-15.75a15.15,15.15,0,0,1,30.23,1.56C840.57,344.68,788.35,358.44,736.6,358.44Z" transform="translate(-120.16 -177.83)" fill="#009857"/><path d="M736.6,358.44c-51.75,0-104-13.76-104-44.5a15.15,15.15,0,0,1,30.23-1.56c4.44,5,29.91,15.75,73.75,15.75A15.15,15.15,0,0,1,736.6,358.44Z" transform="translate(-120.16 -177.83)" fill="#00ef32"/><path d="M825.42,329.09a15.15,15.15,0,0,1-15.15-15.15V222.26a15.15,15.15,0,1,1,30.3,0v91.68A15.15,15.15,0,0,1,825.42,329.09Z" transform="translate(-120.16 -177.83)" fill="#009857"/><path d="M736.79,266.7C685.13,266.7,633,253,633,222.26s52.12-44.43,103.78-44.43,103.78,13.74,103.78,44.43S788.45,266.7,736.79,266.7Zm-71.72-44.44c7.61,5.39,32.18,14.13,71.72,14.13s64.12-8.74,71.73-14.13c-7.61-5.39-32.18-14.13-71.73-14.13S672.67,216.88,665.06,222.26Z" transform="translate(-120.16 -177.83)" fill="#02cb4f"/><path d="M736.6,777.77a15.15,15.15,0,0,1-15.15-15.15V343.29a15.15,15.15,0,1,1,30.3,0V762.61A15.15,15.15,0,0,1,736.6,777.77Z" transform="translate(-120.16 -177.83)" fill="#00ef32"/></svg>