<svg id="Layer_1" data-name="Layer 1" xmlns="http://www.w3.org/2000/svg" viewBox="0 0 707.08 605.03"><title>heart</title><path d="M246.18,503.18" transform="translate(-119 -187.73)" fill="none" stroke="#44ea00" stroke-linecap="round" stroke-linejoin="round" stroke-width="4.4"/><path d="M470.7,792.76a46,46,0,0,1-32-12.86L183.65,534.72a46.15,46.15,0,1,1,64-66.54L502.68,713.36A46.13,46.13,0,0,1,470.7,792.76Z" transform="translate(-119 -187.73)" fill="#02cb4f"/><path d="M470.7,792.76A46.13,46.13,0,0,1,439,713.14L697.74,468a46.14,46.14,0,0,1,63.47,67L502.43,780.13A46,46,0,0,1,470.7,792.76Z" transform="translate(-119 -187.73)" fill="#009857"/><path d="M729.49,547.6a46.13,46.13,0,0,1-31-80.29,107.59,107.59,0,1,0-179.81-79.74,46.12,46.12,0,1,1-92.25,0c0-110.18,89.65-199.83,199.83-199.83s199.83,89.65,199.83,199.83a200.27,200.27,0,0,1-65.61,148.08A46,46,0,0,1,729.49,547.6Z" transform="translate(-119 -187.73)" fill="#00ef32"/><path d="M215.61,547.6a45.9,45.9,0,0,1-31-12A200.25,200.25,0,0,1,119,387.56c0-110.18,89.65-199.83,199.83-199.83s199.83,89.65,199.83,199.83a46.12,46.12,0,1,1-92.25,0A107.58,107.58,0,1,0,246.63,467.3,46.13,46.13,0,0,1,215.61,547.6Z" transform="translate(-119 -187.73)" fill="#00ef32"/></svg>