<svg id="house" xmlns="http://www.w3.org/2000/svg" viewBox="0 0 688.72 723.63"><title>house</title><path d="M303.65,488.71a22.3,22.3,0,0,1-15.82-6.56A151.9,151.9,0,1,1,502.63,267.33,22.38,22.38,0,1,1,471,299,107.13,107.13,0,1,0,319.47,450.5,22.39,22.39,0,0,1,303.65,488.71Z" transform="translate(-135.87 -118)" fill="#00ef32"/><path d="M802.2,841.63a22.38,22.38,0,0,1-22.38-22.39V533a22.38,22.38,0,1,1,44.76,0V819.24A22.38,22.38,0,0,1,802.2,841.63Z" transform="translate(-135.87 -118)" fill="#02cb4f"/><path d="M370.29,555.35a22.39,22.39,0,0,1-15.57-38.47L570.4,308.15a22.4,22.4,0,0,1,35.77,6.44L817.67,516.78a22.39,22.39,0,1,1-30.93,32.36L585,356.31,385.85,549.05A22.31,22.31,0,0,1,370.29,555.35Z" transform="translate(-135.87 -118)" fill="#02cb4f"/><path d="M700.12,841.63H370.29a22.38,22.38,0,0,1-22.38-22.39V533a22.38,22.38,0,1,1,44.76,0V796.86H700.12A22.39,22.39,0,0,1,700.12,841.63Z" transform="translate(-135.87 -118)" fill="#009857"/><path d="M486.81,305.55A22.39,22.39,0,0,1,471,267.33l74.7-74.7a22.38,22.38,0,0,1,31.65,31.66L502.63,299A22.3,22.3,0,0,1,486.81,305.55Z" transform="translate(-135.87 -118)" fill="#00ef32"/><path d="M395,261.6a22.38,22.38,0,0,1-22.38-22.39V140.39a22.38,22.38,0,1,1,44.76,0v98.83A22.38,22.38,0,0,1,395,261.6Z" transform="translate(-135.87 -118)" fill="#00ef32"/><path d="M296.56,299.76a22.3,22.3,0,0,1-15.82-6.56l-76.31-76.31a22.38,22.38,0,1,1,31.65-31.66l76.31,76.31A22.39,22.39,0,0,1,296.56,299.76Z" transform="translate(-135.87 -118)" fill="#00ef32"/><path d="M258.4,398.86H158.25a22.39,22.39,0,0,1,0-44.77H258.4A22.39,22.39,0,0,1,258.4,398.86Z" transform="translate(-135.87 -118)" fill="#00ef32"/></svg>