<svg id="plane" xmlns="http://www.w3.org/2000/svg" viewBox="0 0 77.93 73.79"><defs><style>.cls-1,.cls-2,.cls-3{fill:none;stroke-linecap:round;stroke-linejoin:round;stroke-width:4.4px;}.cls-1{stroke:#02cb4f;}.cls-2{stroke:#009857;}.cls-3{stroke:#00ef32;}</style></defs><title>plane</title><path class="cls-1" d="M84.76,26.15m-8.43-9.41a6.54,6.54,0,0,1,9.11.49m-57.65,9,30.15,5.16m0.26,0L76.33,16.75" transform="translate(-11.22 -12.93)"/><line class="cls-2" x1="2.33" y1="41.13" x2="13.08" y2="53.52"/><line class="cls-2" x1="2.2" y1="41.04" x2="19.29" y2="42.97"/><polyline class="cls-2" points="19.29 42.97 32.61 31.35 16.58 13.32"/><path class="cls-1" d="M76.43,16.82m8.94,0.34a6.54,6.54,0,0,1-.55,9.11M68.15,42.86L69.84,73.4m15-47.14L68.16,42.59" transform="translate(-11.22 -12.93)"/><line class="cls-3" x1="29.36" y1="71.46" x2="17.85" y2="58.41"/><line class="cls-3" x1="29.44" y1="71.59" x2="29.47" y2="54.4"/><polyline class="cls-3" points="29.47 54.4 42.53 42.48 58.62 60.47"/></svg>