<svg id="q" xmlns="http://www.w3.org/2000/svg" viewBox="0 0 880.05 808.56"><defs><style>.cls-1{fill:#02cb4f;}.cls-2{fill:#009b4b;}.cls-3{fill:#00ef32;}</style></defs><title>q</title><path class="cls-1" d="M430.73,64.67a84.07,84.07,0,0,0,0,168.14C547.21,232.81,642,338.74,642,468.95a84.07,84.07,0,1,0,168.14,0C810.11,246,639.92,64.67,430.73,64.67Z" transform="translate(-51.35 -64.67)"/><path class="cls-2" d="M430.73,64.67C221.54,64.67,51.35,246,51.35,468.95a84.07,84.07,0,1,0,168.14,0c0-130.21,94.76-236.14,211.24-236.14A84.07,84.07,0,0,0,430.73,64.67Z" transform="translate(-51.35 -64.67)"/><path class="cls-1" d="M430.73,705.09c-116.48,0-211.24-105.93-211.24-236.14a84.07,84.07,0,0,0-168.14,0c0,222.92,170.19,404.28,379.38,404.28A84.07,84.07,0,0,0,430.73,705.09Z" transform="translate(-51.35 -64.67)"/><path class="cls-3" d="M847.33,705.09H738.46c46.35-68.54,71.65-151.45,71.65-236.14a84.07,84.07,0,0,0-168.14,0c0,130.21-94.76,236.14-211.23,236.14a84.77,84.77,0,0,0-16.93,1.71,84.08,84.08,0,0,0,16.93,166.43h416.6A84.07,84.07,0,1,0,847.33,705.09Z" transform="translate(-51.35 -64.67)"/></svg>
