<?xml version="1.0" encoding="UTF-8"?>
<svg width="121px" height="47px" viewBox="0 0 121 47" version="1.1" xmlns="http://www.w3.org/2000/svg" xmlns:xlink="http://www.w3.org/1999/xlink">
    <!-- Generator: Sketch 41 (35326) - http://www.bohemiancoding.com/sketch -->
    <title>quilt-white</title>
    <desc>Created with Sketch.</desc>
    <defs></defs>
    <g id="Page-1" stroke="none" stroke-width="1" fill="none" fill-rule="evenodd">
        <g id="quilt-beta" fill="#FFFFFF">
            <path d="M6.77,26.72 C6.77,19.18 12.33,13.05 19.18,13.05 C26.03,13.05 31.59,19.18 31.59,26.72 C31.59,34.26 26.02,40.39 19.18,40.39 C12.34,40.39 6.77,34.25 6.77,26.72 Z M40.25,40.72 L33.04,40.72 C36.4824012,36.8717841 38.3745125,31.8831668 38.35,26.72 C38.35,15.53 29.75,6.43 19.17,6.43 C8.59,6.43 0,15.53 0,26.72 C0,37.91 8.6,47.01 19.17,47.01 L40.25,47.01 C41.4159187,47.0757704 42.5225498,46.4911359 43.1253282,45.4909607 C43.7281065,44.4907855 43.7281065,43.2392145 43.1253282,42.2390393 C42.5225498,41.2388641 41.4159187,40.6542296 40.25,40.72 Z" id="Shape"></path>
            <path d="M80.36,3.47 C78.0459269,3.47 76.17,5.3459269 76.17,7.66 C76.17,9.9740731 78.0459269,11.85 80.36,11.85 C82.6740731,11.85 84.55,9.9740731 84.55,7.66 C84.55,5.3459269 82.6740731,3.47 80.36,3.47 L80.36,3.47 Z" id="Shape"></path>
            <path d="M93.19,0 C91.3619375,0 89.88,1.48193748 89.88,3.31 L89.88,43.7 C89.88,45.5280625 91.3619375,47.01 93.19,47.01 C95.0180625,47.01 96.5,45.5280625 96.5,43.7 L96.5,3.31 C96.5,1.48193748 95.0180625,-4.4408921e-16 93.19,-4.4408921e-16 L93.19,0 Z" id="Shape"></path>
            <path d="M80.35,16.4 C78.5219375,16.4 77.04,17.8819375 77.04,19.71 L77.04,43.71 C77.04,45.5380625 78.5219375,47.02 80.35,47.02 C82.1780625,47.02 83.66,45.5380625 83.66,43.71 L83.66,19.71 C83.66,17.8819375 82.1780625,16.4 80.35,16.4 L80.35,16.4 Z" id="Shape"></path>
            <path d="M117.8,40.79 L115.34,40.79 C113.782557,40.79 112.52,39.527443 112.52,37.97 L112.52,23.16 L117.73,23.16 C119.387297,23.0662116 120.683153,21.6949489 120.683153,20.035 C120.683153,18.3750511 119.387297,17.0037884 117.73,16.91 L112.52,16.91 L112.52,10.51 C112.52,8.68193748 111.038063,7.2 109.21,7.2 C107.381937,7.2 105.9,8.68193748 105.9,10.51 L105.9,16.91 L103.09,16.91 C101.432703,17.0037884 100.136847,18.3750511 100.136847,20.035 C100.136847,21.6949489 101.432703,23.0662116 103.09,23.16 L105.94,23.16 L105.94,37.56 C105.945512,42.7712833 110.168717,46.9944883 115.38,47 L117.83,47 C118.707867,47 119.549778,46.6512689 120.170523,46.0305234 C120.791269,45.409778 121.14,44.5678666 121.14,43.69 C121.117419,42.8492869 120.742983,42.0566575 120.107938,41.5052714 C119.472893,40.9538853 118.635563,40.6943816 117.8,40.79 L117.8,40.79 Z" id="Shape"></path>
            <path d="M67.76,16.64 C65.9319375,16.64 64.45,18.1219375 64.45,19.95 L64.45,33.95 C64.3090529,37.6449918 61.2726791,40.5677501 57.575,40.5677501 C53.8773209,40.5677501 50.8409471,37.6449918 50.7,33.95 L50.7,19.95 C50.7,18.1219375 49.2180625,16.64 47.39,16.64 C45.5619375,16.64 44.08,18.1219375 44.08,19.95 L44.08,33.95 C44.0800002,41.405844 50.124156,47.4499996 57.58,47.4499996 C65.035844,47.4499996 71.0799998,41.405844 71.08,33.95 L71.08,19.95 C71.08,18.1219375 69.5980625,16.64 67.77,16.64 L67.76,16.64 Z" id="Shape"></path>
        </g>
    </g>
</svg>