<svg id="Layer_1" data-name="Layer 1" xmlns="http://www.w3.org/2000/svg" viewBox="0 0 690 690"><defs><style>.cls-1{fill:#fff;}.cls-2{fill:#02cb4f;}</style></defs><title>twitter</title><circle class="cls-1" cx="345" cy="345" r="345"/><path class="cls-2" d="M493.33,277.27c.23,3.17.23,6.34.23,9.52,0,96.74-73.63,208.21-208.21,208.21A206.79,206.79,0,0,1,173,462.15a151.3,151.3,0,0,0,17.67.91,146.56,146.56,0,0,0,90.85-31.27A73.31,73.31,0,0,1,213.07,381a92.22,92.22,0,0,0,13.82,1.13,77.36,77.36,0,0,0,19.26-2.49,73.19,73.19,0,0,1-58.68-71.82V307a73.71,73.71,0,0,0,33.08,9.29,73.29,73.29,0,0,1-22.66-97.87,208,208,0,0,0,150.89,76.58A82.6,82.6,0,0,1,347,278.18a73.25,73.25,0,0,1,126.65-50.07,144.07,144.07,0,0,0,46.45-17.67,73,73,0,0,1-32.17,40.33A146.72,146.72,0,0,0,530,239.44,157.32,157.32,0,0,1,493.33,277.27Z" transform="translate(-5 -5)"/></svg>