<svg id="umbrella" xmlns="http://www.w3.org/2000/svg" viewBox="0 0 731.97 577.1"><title>umbrella</title><path d="M119.69,588.14a18.54,18.54,0,0,1-17.49-12.35C49.12,426.37,127.5,261.64,276.91,208.57A287.55,287.55,0,0,1,644.14,383.28,18.55,18.55,0,0,1,632.86,407l-507,180.09A18.49,18.49,0,0,1,119.69,588.14ZM373.35,229a250.69,250.69,0,0,0-84,14.57C165.1,287.68,97.27,420.46,131.61,545.64l470.7-167.21A251,251,0,0,0,373.35,229Z" transform="translate(-85.59 -171.11)" fill="#00ef32"/><line x1="177.56" y1="18.57" x2="377.58" y2="558.53" fill="#fff"/><path d="M463.17,748.21a18.57,18.57,0,0,1-17.41-12.12l-200-540a18.56,18.56,0,0,1,34.82-12.9l200,540A18.58,18.58,0,0,1,463.17,748.21Z" transform="translate(-85.59 -171.11)" fill="#02cb4f"/><path d="M261.87,525.75c-67.1-160,15.24-297.47,15.24-297.47" transform="translate(-85.59 -171.11)" fill="#fff"/><path d="M261.88,544.32a18.56,18.56,0,0,1-17.13-11.39c-69.93-166.75,12.87-308.24,16.43-314.18A18.56,18.56,0,0,1,293,237.82c-0.75,1.27-76.51,131.77-14,280.75A18.58,18.58,0,0,1,261.88,544.32Z" transform="translate(-85.59 -171.11)" fill="#02cb4f"/><path d="M481,464a18.57,18.57,0,0,1-17.7-13c-48.64-154-190.82-204.64-192.24-205.13a18.56,18.56,0,0,1,12-35.14c6.56,2.23,161.21,56.65,215.65,229.08A18.57,18.57,0,0,1,481,464Z" transform="translate(-85.59 -171.11)" fill="#009857"/><path d="M799,748.2H268.48a18.56,18.56,0,1,1,0-37.12H799A18.56,18.56,0,0,1,799,748.2Z" transform="translate(-85.59 -171.11)" fill="#009857"/></svg>