<?xml version="1.0" encoding="UTF-8"?>
<svg width="151px" height="218px" viewBox="0 0 151 218" version="1.1" xmlns="http://www.w3.org/2000/svg" xmlns:xlink="http://www.w3.org/1999/xlink">
    <!-- Generator: Sketch 47.1 (45422) - http://www.bohemiancoding.com/sketch -->
    <title>2</title>
    <desc>Created with Sketch.</desc>
    <defs></defs>
    <g id="Landing-Page" stroke="none" stroke-width="1" fill="none" fill-rule="evenodd" opacity="0.83799819">
        <g id="Landing---Rocket-Lease-" transform="translate(-709.000000, -1844.000000)" fill="#16242F">
            <g id="numbers-gradient-outlines" transform="translate(709.000000, 1399.000000)">
                <path d="M150.292969,662.236328 L0.5859375,662.236328 L0.5859375,630.742188 L54.3457031,576.396484 C70.2637515,560.087809 80.6640381,548.784211 85.546875,542.485352 C90.4297119,536.186492 93.9453018,530.351589 96.09375,524.980469 C98.2421982,519.609348 99.3164062,514.042998 99.3164062,508.28125 C99.3164062,499.687457 96.9482659,493.291037 92.2119141,489.091797 C87.4755623,484.892557 81.1523833,482.792969 73.2421875,482.792969 C64.9413647,482.792969 56.8848047,484.697247 49.0722656,488.505859 C41.2597266,492.314472 33.1055112,497.73434 24.609375,504.765625 L0,475.615234 C10.5469277,466.630814 19.2870747,460.283222 26.2207031,456.572266 C33.1543315,452.86131 40.7226152,450.004893 48.9257812,448.00293 C57.1289473,446.000967 66.308543,445 76.4648438,445 C89.8438169,445 101.660105,447.441382 111.914062,452.324219 C122.16802,457.207056 130.126925,464.042925 135.791016,472.832031 C141.455106,481.621138 144.287109,491.679631 144.287109,503.007812 C144.287109,512.871143 142.553728,522.12398 139.086914,530.766602 C135.6201,539.409223 130.24906,548.271439 122.973633,557.353516 C115.698206,566.435592 102.880951,579.374916 84.5214844,596.171875 L56.9824219,622.099609 L56.9824219,624.150391 L150.292969,624.150391 L150.292969,662.236328 Z" id="2" opacity="0.0475769942"></path>
            </g>
        </g>
    </g>
</svg>