<svg xmlns="http://www.w3.org/2000/svg" width="151" height="218" viewBox="0 0 151 218"><path fill="#EFF4FB" fill-rule="evenodd" d="M150.293 217.236H.586v-31.494l53.76-54.346c15.918-16.308 26.318-27.612 31.2-33.91 4.884-6.3 8.4-12.134 10.548-17.506a44.565 44.565 0 0 0 3.222-16.699c0-8.594-2.368-14.99-7.104-19.19-4.736-4.198-11.06-6.298-18.97-6.298-8.3 0-16.357 1.904-24.17 5.713-7.812 3.808-15.966 9.228-24.463 16.26L0 30.616c10.547-8.985 19.287-15.333 26.22-19.044 6.934-3.71 14.503-6.567 22.706-8.57C57.129 1.002 66.309 0 76.465 0c13.379 0 25.195 2.441 35.45 7.324 10.253 4.883 18.212 11.719 23.876 20.508 5.664 8.79 8.496 18.848 8.496 30.176 0 9.863-1.733 19.116-5.2 27.759-3.467 8.642-8.838 17.504-16.113 26.587-7.276 9.082-20.093 22.02-38.453 38.818L56.982 177.1v2.05h93.311v38.086z" opacity=".838"/></svg>