<?xml version="1.0" encoding="UTF-8"?>
<svg width="149px" height="221px" viewBox="0 0 149 221" version="1.1" xmlns="http://www.w3.org/2000/svg" xmlns:xlink="http://www.w3.org/1999/xlink">
    <!-- Generator: Sketch 47.1 (45422) - http://www.bohemiancoding.com/sketch -->
    <title>3</title>
    <desc>Created with Sketch.</desc>
    <defs></defs>
    <g id="Landing-Page" stroke="none" stroke-width="1" fill="none" fill-rule="evenodd" opacity="0.83799819">
        <g id="Landing---Rocket-Lease-" transform="translate(-709.000000, -2294.000000)" fill="#16242F">
            <g id="numbers-gradient-outlines" transform="translate(709.000000, 1399.000000)">
                <path d="M141.943359,945.976562 C141.943359,959.355536 137.890666,970.732375 129.785156,980.107422 C121.679647,989.482469 110.302808,995.927717 95.6542969,999.443359 L95.6542969,1000.32227 C112.93954,1002.47071 126.025346,1007.71968 134.912109,1016.06934 C143.798873,1024.41899 148.242188,1035.67376 148.242188,1049.83398 C148.242188,1070.43956 140.771559,1086.47943 125.830078,1097.9541 C110.888597,1109.42877 89.5509199,1115.16602 61.8164062,1115.16602 C38.5741025,1115.16602 17.9688398,1111.30863 0,1103.59375 L0,1065.06836 C8.30082275,1069.2676 17.4315908,1072.68553 27.3925781,1075.32227 C37.3535654,1077.959 47.216748,1079.27734 56.9824219,1079.27734 C71.9239028,1079.27734 82.9589487,1076.73831 90.0878906,1071.66016 C97.2168325,1066.58201 100.78125,1058.42779 100.78125,1047.19727 C100.78125,1037.13862 96.6797285,1030.00979 88.4765625,1025.81055 C80.2733965,1021.61131 67.1875898,1019.51172 49.21875,1019.51172 L32.9589844,1019.51172 L32.9589844,984.794922 L49.5117188,984.794922 C66.1133643,984.794922 78.247032,982.622092 85.9130859,978.276367 C93.5791399,973.930642 97.4121094,966.484428 97.4121094,955.9375 C97.4121094,939.726481 87.2559609,931.621094 66.9433594,931.621094 C59.9120742,931.621094 52.7588254,932.792957 45.4833984,935.136719 C38.2079714,937.48048 30.1269976,941.533174 21.2402344,947.294922 L0.29296875,916.09375 C19.8243164,902.03118 43.1150991,895 70.1660156,895 C92.3340952,895 109.838803,899.492143 122.680664,908.476562 C135.522525,917.460982 141.943359,929.960857 141.943359,945.976562 Z" id="3" opacity="0.0475769942"></path>
            </g>
        </g>
    </g>
</svg>