<svg xmlns="http://www.w3.org/2000/svg" width="149" height="221" viewBox="0 0 149 221"><path fill="#EFF4FB" fill-rule="evenodd" d="M141.943 50.977c0 13.379-4.052 24.755-12.158 34.13-8.105 9.375-19.482 15.82-34.13 19.336v.88c17.285 2.148 30.37 7.397 39.257 15.746 8.887 8.35 13.33 19.605 13.33 33.765 0 20.606-7.47 36.645-22.412 48.12-14.941 11.475-36.28 17.212-64.014 17.212-23.242 0-43.847-3.857-61.816-11.572v-38.526c8.3 4.2 17.432 7.618 27.393 10.254 9.96 2.637 19.824 3.955 29.59 3.955 14.94 0 25.976-2.539 33.105-7.617 7.129-5.078 10.693-13.232 10.693-24.463 0-10.058-4.101-17.187-12.304-21.386-8.204-4.2-21.29-6.3-39.258-6.3h-16.26V89.796h16.553c16.601 0 28.735-2.173 36.401-6.519 7.666-4.345 11.5-11.792 11.5-22.338 0-16.212-10.157-24.317-30.47-24.317-7.03 0-14.184 1.172-21.46 3.516-7.275 2.343-15.356 6.396-24.243 12.158L.293 21.094C19.824 7.03 43.115 0 70.166 0c22.168 0 39.673 4.492 52.515 13.477 12.842 8.984 19.262 21.484 19.262 37.5z" opacity=".838"/></svg>