<svg xmlns="http://www.w3.org/2000/svg" xmlns:xlink="http://www.w3.org/1999/xlink" width="1440" height="390" viewBox="0 0 1440 390"><defs><linearGradient id="b" x1="8.495%" x2="81.528%" y1="14.101%" y2="77.971%"><stop offset="0%" stop-color="#FFF"/><stop offset="100%" stop-color="#01C3DA"/></linearGradient><path id="a" d="M0 0h1440v390H0z"/><linearGradient id="e" x1="90.43%" x2="15.047%" y1="22.841%" y2="32.557%"><stop offset="0%" stop-color="#C3E6FF" stop-opacity=".97"/><stop offset="100%" stop-color="#4571CC"/></linearGradient><path id="d" d="M1440 0H0v1033c621.022-316.667 1101.022-488.833 1440-516.5V0z"/><linearGradient id="f" x1="90.43%" x2="17.019%" y1="22.841%" y2="32.303%"><stop offset="0%" stop-color="#9EBEED" stop-opacity=".97"/><stop offset="100%" stop-color="#4571CC"/></linearGradient><linearGradient id="h" x1="93.869%" x2="15.047%" y1="22.398%" y2="32.557%"><stop offset="0%" stop-color="#458FD8"/><stop offset="100%" stop-color="#4571CC"/></linearGradient><linearGradient id="i" x1="19.05%" x2="44.138%" y1="24.059%" y2="55.562%"><stop offset="0%" stop-color="#C6CDDB"/><stop offset="99.761%" stop-color="#16284D"/></linearGradient><linearGradient id="j" x1="8.495%" x2="83.261%" y1="14.101%" y2="79.486%"><stop offset="0%" stop-color="#3C3DC5"/><stop offset="100%" stop-color="#A2BBDC"/></linearGradient></defs><g fill="none" fill-rule="evenodd"><mask id="c" fill="#fff"><use xlink:href="#a"/></mask><use fill="url(#b)" opacity=".386" xlink:href="#a"/><g transform="translate(0 -22)" mask="url(#c)"><mask id="g" fill="#fff"><use xlink:href="#d"/></mask><use fill="url(#e)" xlink:href="#d"/><path fill="url(#f)" d="M1440-60H0V973c621.022-316.667 1101.022-488.833 1440-516.5V-60z" mask="url(#g)" opacity=".612"/><path fill="url(#h)" d="M1440-65L42 9.5c586.667 328.333 1052.667 478.667 1398 451V-65z" mask="url(#g)"/><path fill="url(#i)" fill-opacity=".3" d="M5-300C1033.667-183.333 1742.333-73.833 2131 28.5 2030.333 64.833 1307 213-39 473L5-300z" mask="url(#g)" style="mix-blend-mode:soft-light"/></g><path fill="url(#b)" d="M0 0h1440v390H0z" mask="url(#c)" opacity=".386"/><path fill="url(#j)" d="M2 0h1440v390H2z" mask="url(#c)" opacity=".625"/></g></svg>