<svg xmlns="http://www.w3.org/2000/svg" width="52" height="44" viewBox="0 0 52 44"><path fill="#E4E4E4" fill-rule="evenodd" d="M.571 43.4v-7.314c2.781-.762 4.905-1.829 6.372-3.2 1.467-1.372 2.638-3.115 3.514-5.229.876-2.114 1.314-4.695 1.314-7.743-3.619 0-6.285-1.028-8-3.085C2.057 14.77 1.2 12.58 1.2 10.257c0-2.705.952-4.99 2.857-6.857C5.962 1.533 8.19.6 10.743.6c3.276 0 6.105 1.419 8.486 4.257 2.38 2.838 3.571 6.714 3.571 11.629 0 4.343-.933 8.41-2.8 12.2a29.454 29.454 0 0 1-7.629 9.714c-3.219 2.686-7.152 4.352-11.8 5zm28.629 0v-7.314c2.781-.762 4.914-1.829 6.4-3.2 1.486-1.372 2.667-3.115 3.543-5.229.876-2.114 1.314-4.695 1.314-7.743-3.619 0-6.295-1.028-8.028-3.085-1.734-2.058-2.6-4.248-2.6-6.572 0-2.705.952-4.99 2.857-6.857C34.59 1.533 36.8.6 39.314.6c3.353 0 6.22 1.419 8.6 4.257 2.381 2.838 3.572 6.714 3.572 11.629 0 4.343-.943 8.41-2.829 12.2-1.886 3.79-4.438 7.028-7.657 9.714-3.22 2.686-7.152 4.352-11.8 5z"/></svg>