<svg xmlns="http://www.w3.org/2000/svg" width="52" height="44" viewBox="0 0 52 44"><path fill="#E4E4E4" fill-rule="evenodd" d="M51.486.6v7.314c-2.82.762-4.962 1.829-6.429 3.2-1.467 1.372-2.638 3.115-3.514 5.229-.876 2.114-1.314 4.695-1.314 7.743 3.58 0 6.238 1.028 7.971 3.085 1.733 2.058 2.6 4.248 2.6 6.572 0 2.705-.952 4.99-2.857 6.857-1.905 1.867-4.133 2.8-6.686 2.8-3.314 0-6.152-1.419-8.514-4.257-2.362-2.838-3.543-6.714-3.543-11.629 0-4.343.933-8.41 2.8-12.2A29.291 29.291 0 0 1 39.657 5.6c3.238-2.686 7.181-4.352 11.829-5zM22.8.6v7.314c-2.82.762-4.962 1.829-6.429 3.2-1.466 1.372-2.638 3.115-3.514 5.229-.876 2.114-1.314 4.695-1.314 7.743 3.657 0 6.343 1.028 8.057 3.085 1.714 2.058 2.571 4.248 2.571 6.572 0 2.705-.961 4.99-2.885 6.857s-4.143 2.8-6.657 2.8c-3.277 0-6.105-1.419-8.486-4.257C1.762 36.305.57 32.429.57 27.514c0-4.343.934-8.41 2.8-12.2A29.454 29.454 0 0 1 11 5.6c3.22-2.686 7.152-4.352 11.8-5z"/></svg>