<svg xmlns="http://www.w3.org/2000/svg" width="69" height="67" viewBox="0 0 69 67"><path d="M18.299 26.23c0 1.771-.664 3.233-1.992 4.385-1.328 1.153-3.184 1.878-5.567 2.178v4.531H8.22V32.97c-1.458 0-2.87-.114-4.238-.342-1.367-.228-2.487-.544-3.359-.947v-3.047c1.08.482 2.328.875 3.74 1.181 1.413.306 2.699.46 3.858.46V21.68c-2.67-.847-4.541-1.83-5.616-2.95-1.074-1.12-1.61-2.565-1.61-4.335 0-1.706.66-3.106 1.982-4.2 1.321-1.093 3.07-1.757 5.244-1.992V4.648h2.52v3.516c2.395.065 4.706.547 6.933 1.445l-1.016 2.559a19.834 19.834 0 0 0-5.918-1.367v8.476c2.045.651 3.574 1.286 4.59 1.905 1.016.618 1.764 1.328 2.246 2.129.482.8.723 1.774.723 2.92zm-3.32.254c0-.937-.29-1.696-.87-2.275-.58-.58-1.702-1.156-3.369-1.729v7.598c2.826-.39 4.239-1.588 4.239-3.594zM4.295 14.355c0 .99.293 1.784.879 2.383.586.6 1.601 1.166 3.047 1.7v-7.56c-1.29.21-2.266.616-2.93 1.222a2.929 2.929 0 0 0-.996 2.255zM26.165 33.5c0-10.8 1.8-18.93 5.4-24.39 3.6-5.46 8.76-8.19 15.48-8.19 7.26 0 12.57 2.685 15.93 8.055 3.36 5.37 5.04 13.545 5.04 24.525 0 10.8-1.815 18.93-5.445 24.39-3.63 5.46-8.985 8.19-16.065 8.19-3.66 0-6.78-.735-9.36-2.205-2.58-1.47-4.68-3.6-6.3-6.39-1.62-2.79-2.805-6.195-3.555-10.215s-1.125-8.61-1.125-13.77zm8.64 0c0 4.32.21 8.25.63 11.79.42 3.54 1.095 6.585 2.025 9.135.93 2.55 2.13 4.515 3.6 5.895 1.47 1.38 3.255 2.07 5.355 2.07 4.74 0 8.085-2.34 10.035-7.02 1.95-4.68 2.925-11.97 2.925-21.87 0-4.32-.18-8.25-.54-11.79-.36-3.54-1.02-6.57-1.98-9.09-.96-2.52-2.235-4.47-3.825-5.85-1.59-1.38-3.585-2.07-5.985-2.07-4.5 0-7.665 2.325-9.495 6.975-1.83 4.65-2.745 11.925-2.745 21.825z" fill="#FFF" fill-rule="evenodd"/></svg>