<svg id="Слой_1" xmlns="http://www.w3.org/2000/svg" viewBox="0 0 36.3 27"><style>.st0{fill:#fff}.st1{fill:#fafafa}</style><path class="st0" d="M48.9 16.1V22h-1.7V7.7h3.9c1.8 0 3 .3 3.9 1 .8.7 1.3 1.7 1.3 3 0 1.9-1 3.2-2.9 3.8l3.9 6.4h-2L51.8 16l-2.9.1zm0-1.5h2.3c1.2 0 2-.2 2.6-.7.5-.5.8-1.2.8-2.1 0-.9-.3-1.6-.8-2-.6-.4-1.5-.6-2.7-.6h-2.2v5.4zm14.9 7.6c-1.6 0-2.8-.5-3.7-1.4-.9-1-1.4-2.3-1.4-4 0-1.7.4-3.1 1.3-4.1s2-1.5 3.4-1.5c1.3 0 2.4.4 3.2 1.3.8.9 1.2 2 1.2 3.5v1h-7.4c0 1.3.3 2.2 1 2.9.6.6 1.5 1 2.5 1 1.2 0 2.3-.3 3.4-.7v1.4c-.5.2-1.1.4-1.6.5-.5 0-1.1.1-1.9.1zm-.4-9.7c-.9 0-1.5.3-2.1.8s-.8 1.3-.9 2.3H66c0-1-.2-1.8-.7-2.3-.4-.6-1-.8-1.9-.8zM77.9 22v-6.9c0-.9-.2-1.5-.6-2-.4-.4-1-.6-1.9-.6-1.1 0-1.9.3-2.5.9-.5.6-.8 1.6-.8 3V22h-1.6V11.3h1.3l.3 1.5h.1c.3-.5.8-1 1.4-1.2.6-.3 1.3-.4 2-.4 1.3 0 2.3.3 2.9.9.7.6 1 1.6 1 3v7h-1.6V22zm8.4-1.1c.3 0 .6 0 .8-.1.3 0 .5-.1.6-.1v1.2c-.2.1-.4.2-.8.2-.3.1-.6.1-.9.1-2.1 0-3.1-1.1-3.1-3.3v-6.4h-1.5v-.8l1.5-.7.7-2.3h.9v2.5h3.1v1.3h-3.1v6.3c0 .6.2 1.1.5 1.5s.7.6 1.3.6zm18 1.1l-1.8-4.5h-5.7L95 22h-1.7L99 7.7h1.4L106 22h-1.7zm-2.3-6l-1.7-4.4c-.3-.7-.5-1.4-.7-2.1l-.6 2.1-1.6 4.4h4.6zm10.7 6.2c-.7 0-1.3-.1-1.9-.4-.6-.3-1.1-.7-1.4-1.2h-.1c.1.6.1 1.2.1 1.8v4.4h-1.6V11.3h1.3l.2 1.5h.1c.4-.6.9-1 1.5-1.3.6-.3 1.2-.4 1.9-.4 1.4 0 2.5.5 3.3 1.5.8 1 1.2 2.3 1.2 4.1 0 1.8-.4 3.1-1.2 4.1-.9.9-2 1.4-3.4 1.4zm-.2-9.7c-1.1 0-1.9.3-2.4.9-.5.6-.7 1.6-.8 2.9v.4c0 1.5.2 2.6.8 3.2.5.6 1.3 1 2.4 1 .9 0 1.6-.4 2.2-1.1.5-.7.8-1.8.8-3.1s-.3-2.4-.8-3.1c-.5-.8-1.3-1.1-2.2-1.1zm12.5 9.7c-.7 0-1.3-.1-1.9-.4-.6-.3-1.1-.7-1.4-1.2h-.1c.1.6.1 1.2.1 1.8v4.4H120V11.3h1.3l.2 1.5h.1c.4-.6.9-1 1.5-1.3.6-.3 1.2-.4 1.9-.4 1.4 0 2.5.5 3.3 1.5.8 1 1.2 2.3 1.2 4.1 0 1.8-.4 3.1-1.2 4.1-.9.9-1.9 1.4-3.3 1.4zm-.3-9.7c-1.1 0-1.9.3-2.4.9-.5.6-.7 1.6-.8 2.9v.4c0 1.5.3 2.6.8 3.2.5.6 1.3 1 2.4 1 .9 0 1.7-.4 2.2-1.1.5-.7.8-1.8.8-3.1s-.3-2.4-.8-3.1-1.2-1.1-2.2-1.1zm9.2 9.5h-1.6V6.8h1.6V22zm5 0h-1.6V11.3h1.6V22zm-1.7-13.6c0-.4.1-.6.3-.8.2-.2.4-.3.7-.3.3 0 .5.1.7.3s.3.4.3.8-.1.6-.3.8c-.2.2-.4.3-.7.3-.3 0-.5-.1-.7-.3-.2-.2-.3-.4-.3-.8zm9.4 13.8c-1.6 0-2.8-.5-3.6-1.4-.9-1-1.3-2.3-1.3-4 0-1.8.4-3.2 1.3-4.1.9-1 2.1-1.5 3.7-1.5.5 0 1 .1 1.5.2s.9.2 1.2.4L149 13c-.4-.1-.8-.3-1.2-.4-.4-.1-.7-.1-1.1-.1-2.2 0-3.3 1.4-3.3 4.2 0 1.3.3 2.3.8 3 .5.7 1.3 1.1 2.4 1.1.9 0 1.8-.2 2.7-.6v1.4c-.7.4-1.6.6-2.7.6zm11.9-.2l-.3-1.5h-.1c-.5.7-1.1 1.1-1.6 1.4-.5.2-1.2.4-2 .4-1.1 0-1.9-.3-2.5-.8-.6-.5-.9-1.3-.9-2.3 0-2.2 1.7-3.3 5.2-3.4l1.8-.1V15c0-.8-.2-1.5-.5-1.9-.4-.4-.9-.6-1.7-.6-.9 0-1.9.3-3 .8l-.5-1.2c.5-.3 1.1-.5 1.7-.7.6-.2 1.3-.2 1.9-.2 1.3 0 2.2.3 2.8.9.6.6.9 1.5.9 2.7V22h-1.2zm-3.7-1.1c1 0 1.8-.3 2.4-.8.6-.6.9-1.3.9-2.3v-1l-1.6.1c-1.3 0-2.2.2-2.8.6-.6.4-.9.9-.9 1.7 0 .6.2 1 .5 1.3.4.2.9.4 1.5.4zm11.7 0c.3 0 .6 0 .8-.1.3 0 .5-.1.6-.1v1.2c-.2.1-.4.2-.8.2-.3.1-.6.1-.9.1-2.1 0-3.1-1.1-3.1-3.3v-6.4h-1.5v-.8l1.5-.7.7-2.3h.9v2.5h3.1v1.3h-3.1v6.3c0 .6.2 1.1.5 1.5.3.4.7.6 1.3.6zm5.2 1.1h-1.6V11.3h1.6V22zm-1.8-13.6c0-.4.1-.6.3-.8.2-.2.4-.3.7-.3.3 0 .5.1.7.3.2.2.3.4.3.8s-.1.6-.3.8c-.2.2-.4.3-.7.3-.3 0-.5-.1-.7-.3-.2-.2-.3-.4-.3-.8zm14.5 8.2c0 1.7-.4 3.1-1.3 4.1-.9 1-2.1 1.5-3.6 1.5-1 0-1.8-.2-2.5-.7-.7-.4-1.3-1.1-1.7-1.9-.4-.8-.6-1.8-.6-3 0-1.7.4-3.1 1.3-4.1.9-1 2.1-1.5 3.6-1.5s2.7.5 3.6 1.5c.7 1.1 1.2 2.4 1.2 4.1zm-8.2 0c0 1.4.3 2.4.8 3.1.5.7 1.4 1.1 2.4 1.1 1.1 0 1.9-.4 2.4-1.1.6-.7.8-1.8.8-3.1 0-1.4-.3-2.4-.8-3.1-.6-.7-1.4-1.1-2.4-1.1-1.1 0-1.9.3-2.4 1-.5.8-.8 1.9-.8 3.2zm18.3 5.4v-6.9c0-.9-.2-1.5-.6-2s-1-.6-1.9-.6c-1.1 0-1.9.3-2.5.9-.5.6-.8 1.6-.8 3V22h-1.6V11.3h1.3l.3 1.5h.1c.3-.5.8-1 1.4-1.2.6-.3 1.3-.4 2-.4 1.3 0 2.3.3 2.9.9.6.6 1 1.6 1 3v7h-1.6V22z"/><path class="st1" d="M1.7 24.5C.6 22.2 0 19.6 0 17 0 7.6 7.6 0 17 0s17 7.6 17 17c0 2.6-.6 5.1-1.7 7.3-2.1-1.4-4.5-2-7.4-2.3v-4.9H28c-3.4-2.8-6.8-5.5-10.3-8.1-.4-.3-1-.3-1.5 0-1.3 1-2.6 2-4 3-.1.1-.5.3-.5.3v-1.1H9.4v2.9s-2.5 2-3.7 2.9v.1h3.5s.1 3.9.1 5.1c-3.3.3-5.8 1.1-7.6 2.3z"/></svg>