<svg xmlns="http://www.w3.org/2000/svg" xmlns:xlink="http://www.w3.org/1999/xlink" width="1439" height="866" viewBox="0 0 1439 866"><defs><path id="a" d="M0 0h1440v463.849C928 591.398 448 725.449 0 866V0z"/><linearGradient id="b" x1="83.261%" x2="99.316%" y1="79.486%" y2="101.751%"><stop offset="0%" stop-color="#4372CF"/><stop offset="100%" stop-color="#C2DBFD"/></linearGradient><linearGradient id="e" x1="90.43%" x2="15.047%" y1="22.841%" y2="32.557%"><stop offset="0%" stop-color="#C3E6FF" stop-opacity=".97"/><stop offset="100%" stop-color="#4571CC"/></linearGradient><path id="d" d="M1441.512 0H0v1229.323c615.675-376.85 1096.18-581.737 1441.512-614.662V0z"/><linearGradient id="f" x1="90.43%" x2="17.019%" y1="22.841%" y2="32.303%"><stop offset="0%" stop-color="#9EBEED" stop-opacity=".97"/><stop offset="100%" stop-color="#4571CC"/></linearGradient><linearGradient id="h" x1="19.05%" x2="44.138%" y1="24.059%" y2="55.562%"><stop offset="0%" stop-color="#C6CDDB"/><stop offset="99.761%" stop-color="#16284D"/></linearGradient><linearGradient id="i" x1="8.495%" x2="83.261%" y1="14.101%" y2="79.486%"><stop offset="0%" stop-color="#3C3DC5"/><stop offset="100%" stop-color="#A2BBDC"/></linearGradient><linearGradient id="j" x1="86.36%" x2="17.375%" y1="29.426%" y2="32.257%"><stop offset="0%" stop-color="#03A9FF" stop-opacity=".97"/><stop offset="100%" stop-color="#FFF"/></linearGradient><linearGradient id="k" x1="86.36%" x2="17.375%" y1="23.366%" y2="32.257%"><stop offset="0%" stop-color="#0903FF" stop-opacity=".97"/><stop offset="100%" stop-color="#FFF"/></linearGradient><linearGradient id="l" x1="51.815%" x2="51.815%" y1="3.757%" y2="89.257%"><stop offset="0%" stop-color="#3C3DC5"/><stop offset="100%" stop-color="#BED7F8"/></linearGradient><linearGradient id="m" x1="20.178%" x2="42.804%" y1="25.476%" y2="53.887%"><stop offset="0%" stop-color="#7F9FED"/><stop offset="100%" stop-color="#E6E8ED"/></linearGradient><linearGradient id="n" x1="8.495%" x2="95.509%" y1="14.101%" y2="62.844%"><stop offset="0%" stop-color="#FFF"/><stop offset="100%" stop-color="#01C0DA"/></linearGradient></defs><g fill="none" fill-rule="evenodd"><mask id="c" fill="#fff"><use xlink:href="#a"/></mask><use fill="#D8D8D8" xlink:href="#a"/><path fill="url(#b)" d="M-1 0h1440v885H-1z" mask="url(#c)" opacity=".888"/><g transform="translate(-1 -283)" mask="url(#c)"><mask id="g" fill="#fff"><use xlink:href="#d"/></mask><use fill="url(#e)" xlink:href="#d"/><path fill="url(#f)" d="M1441.512 0H0v1229.323c615.675-376.85 1096.18-581.737 1441.512-614.662V0z" mask="url(#g)" opacity=".612"/><path fill="url(#h)" fill-opacity=".46" d="M-104 336.577c408 116.625 806.333 235.828 1195 357.61C990.333 737.426 627.5 900.661 2.5 1183.893L-104 336.577z" mask="url(#g)" style="mix-blend-mode:overlay"/><path fill="url(#i)" d="M1441.512 0H0v1229.323c615.675-376.85 1096.18-581.737 1441.512-614.662V0z" mask="url(#g)" opacity=".476"/></g><path fill="url(#j)" d="M1442-228H0v1313c615.883-362.813 1096.55-560.068 1442-591.767V-228z" mask="url(#c)" opacity=".224"/><path fill="url(#i)" d="M0-3h1440v885H0z" mask="url(#c)" opacity=".293"/><path fill="url(#k)" d="M1441.512-649H0V462.38c654 118.75 1153.667 162.288 1499 130.618 0-61.052-19.162-475.051-57.488-1241.998z" mask="url(#c)" opacity=".109"/><path fill="url(#l)" d="M0 0h1440v970H0z" mask="url(#c)" opacity=".411"/><ellipse cx="783" cy="559.5" fill="url(#m)" fill-opacity=".46" mask="url(#c)" opacity=".384" rx="795" ry="903.5" style="mix-blend-mode:overlay" transform="rotate(26 783 559.5)"/><path fill="url(#n)" d="M0 0h1440v885H0z" mask="url(#c)" opacity=".335"/></g></svg>