<svg xmlns="http://www.w3.org/2000/svg" xmlns:xlink="http://www.w3.org/1999/xlink" width="1440" height="522" viewBox="0 0 1440 522"><defs><path id="a" d="M0 0h1440v522H0z"/><linearGradient id="b" x1="83.261%" x2="99.316%" y1="79.486%" y2="101.751%"><stop offset="0%" stop-color="#4372CF"/><stop offset="100%" stop-color="#C2DBFD"/></linearGradient><linearGradient id="e" x1="90.43%" x2="15.047%" y1="22.841%" y2="32.557%"><stop offset="0%" stop-color="#C3E6FF" stop-opacity=".97"/><stop offset="100%" stop-color="#4571CC"/></linearGradient><path id="d" d="M1441.512 0H0v1082.404c615.675-331.812 1096.18-512.212 1441.512-541.202V0z"/><linearGradient id="f" x1="90.43%" x2="17.019%" y1="22.841%" y2="32.303%"><stop offset="0%" stop-color="#9EBEED" stop-opacity=".97"/><stop offset="100%" stop-color="#4571CC"/></linearGradient><linearGradient id="h" x1="19.05%" x2="44.138%" y1="24.059%" y2="55.562%"><stop offset="0%" stop-color="#C6CDDB"/><stop offset="99.761%" stop-color="#16284D"/></linearGradient><linearGradient id="i" x1="8.495%" x2="83.261%" y1="14.101%" y2="79.486%"><stop offset="0%" stop-color="#3C3DC5"/><stop offset="100%" stop-color="#A2BBDC"/></linearGradient><linearGradient id="j" x1="8.495%" x2="81.528%" y1="14.101%" y2="77.971%"><stop offset="0%" stop-color="#FFF"/><stop offset="100%" stop-color="#01C3DA"/></linearGradient><linearGradient id="k" x1="19.05%" x2="44.078%" y1="24.059%" y2="55.486%"><stop offset="0%" stop-color="#C5CAFA"/><stop offset="100%" stop-color="#16284D"/></linearGradient></defs><g fill="none" fill-rule="evenodd"><mask id="c" fill="#fff"><use xlink:href="#a"/></mask><use fill="#D8D8D8" xlink:href="#a"/><path fill="url(#b)" d="M-1 0h1440v522H-1z" mask="url(#c)" opacity=".888"/><g transform="translate(-1 -233.665)" mask="url(#c)"><mask id="g" fill="#fff"><use xlink:href="#d"/></mask><use fill="url(#e)" xlink:href="#d"/><path fill="url(#f)" d="M1441.512 0H0v1082.404c615.675-331.812 1096.18-512.212 1441.512-541.202V0z" mask="url(#g)" opacity=".612"/><path fill="url(#h)" fill-opacity=".46" d="M-104 336.352c408 102.687 806.333 207.644 1195 314.871-100.667 38.071-463.5 181.798-1088.5 431.18L-104 336.353z" mask="url(#g)" style="mix-blend-mode:overlay"/><path fill="url(#i)" d="M1441.512 0H0v1082.404c615.675-331.812 1096.18-512.212 1441.512-541.202V0z" mask="url(#g)" opacity=".476"/></g><path fill="url(#j)" d="M0 0h1440v522H0z" mask="url(#c)" opacity=".256"/><path fill="url(#i)" d="M0 0h1440v522H0z" mask="url(#c)" opacity=".293"/><circle cx="1054.197" cy=".197" r="857.184" fill="url(#k)" fill-opacity=".46" mask="url(#c)" opacity=".168" style="mix-blend-mode:overlay" transform="rotate(26 1054.197 .197)"/></g></svg>