<svg xmlns="http://www.w3.org/2000/svg" xmlns:xlink="http://www.w3.org/1999/xlink" width="1440" height="522" viewBox="0 0 1440 522"><defs><linearGradient id="b" x1="83.261%" y1="79.486%" y2="102.7%"><stop offset="0%" stop-color="#4372CF"/><stop offset="100%" stop-color="#C2DBFD"/></linearGradient><path id="a" d="M0 0h1440v522H0z"/><linearGradient id="e" x1="90.43%" x2="15.047%" y1="22.841%" y2="32.557%"><stop offset="0%" stop-color="#C3E6FF" stop-opacity=".97"/><stop offset="100%" stop-color="#4571CC"/></linearGradient><path id="d" d="M1441.512 0H0v1155c615.675-316.667 1096.18-488.833 1441.512-516.5V0z"/><linearGradient id="f" x1="8.495%" x2="81.528%" y1="14.101%" y2="77.971%"><stop offset="0%" stop-color="#FFF"/><stop offset="100%" stop-color="#01CBDA"/></linearGradient><linearGradient id="h" x1="8.495%" x2="83.261%" y1="14.101%" y2="79.486%"><stop offset="0%" stop-color="#3C3DC5"/><stop offset="100%" stop-color="#A2BBDC"/></linearGradient><linearGradient id="i" x1="86.36%" x2="17.019%" y1="23.366%" y2="32.303%"><stop offset="0%" stop-color="#03A9FF" stop-opacity=".97"/><stop offset="100%" stop-color="#4571CC"/></linearGradient><linearGradient id="j" x1="93.869%" x2="15.047%" y1="22.398%" y2="32.557%"><stop offset="0%" stop-color="#A1E2FF"/><stop offset="100%" stop-color="#4571CC"/></linearGradient><linearGradient id="k" x1="20.178%" x2="42.804%" y1="25.476%" y2="53.887%"><stop offset="0%" stop-color="#7F9FED"/><stop offset="100%" stop-color="#E6E8ED"/></linearGradient><linearGradient id="l" x1="19.05%" x2="61.818%" y1="24.059%" y2="39.879%"><stop offset="0%" stop-color="#97B3EB"/><stop offset="100%" stop-color="#F8FDFF"/></linearGradient><linearGradient id="m" x1="51.815%" x2="51.815%" y1="3.757%" y2="89.257%"><stop offset="0%" stop-color="#3C3DC5"/><stop offset="100%" stop-color="#BED7F8"/></linearGradient><linearGradient id="n" x1="8.495%" x2="81.528%" y1="14.101%" y2="77.971%"><stop offset="0%" stop-color="#FFF"/><stop offset="100%" stop-color="#01C3DA"/></linearGradient></defs><g fill="none" fill-rule="evenodd"><mask id="c" fill="#fff"><use xlink:href="#a"/></mask><use fill="url(#b)" opacity=".888" xlink:href="#a"/><g mask="url(#c)"><mask id="g" fill="#fff"><use xlink:href="#d"/></mask><use fill="url(#e)" xlink:href="#d"/><path fill="url(#f)" d="M0 0h1440v522H0z" mask="url(#g)" opacity=".256"/><path fill="url(#h)" d="M0 0h1440v522H0z" mask="url(#g)" opacity=".293"/><path fill="url(#i)" d="M1441.512 0H0v1155c615.675-319.154 1096.18-492.672 1441.512-520.556V0z" mask="url(#g)" opacity=".319"/><path fill="url(#j)" d="M1441.512-14.5L-133.5-45c704.675 486.667 1229.68 716.167 1575.012 688.5v-658z" mask="url(#g)"/><circle cx="796" cy="356.193" r="675.46" fill="url(#k)" fill-opacity=".46" mask="url(#g)" opacity=".213" style="mix-blend-mode:overlay" transform="rotate(26 796 356.193)"/><path fill="url(#h)" d="M1441.512 0H0l1.512 522h1440z" mask="url(#g)" opacity=".322" transform="matrix(-1 0 0 1 1441.512 0)"/><path fill="url(#l)" d="M1881.5-43.5c75.687 15.151 167.854 150.985 276.5 407.5L-83 658.5C951.263 135.37 1606.096-98.63 1881.5-43.5z" mask="url(#g)" opacity=".089"/><path fill="url(#m)" d="M0 0h1440v522H0z" mask="url(#g)" opacity=".428"/></g><path fill="url(#n)" d="M0 0h1440v522H0z" mask="url(#c)" opacity=".07"/></g></svg>