<svg xmlns="http://www.w3.org/2000/svg" xmlns:xlink="http://www.w3.org/1999/xlink" width="176" height="99" viewBox="0 0 176 99"><defs><rect id="a" width="12" height="13" rx="2.4"/><rect id="b" width="12" height="13" rx="2.4"/><rect id="c" width="12" height="13" y="52" rx="2.4"/></defs><g fill="none" fill-rule="evenodd"><g transform="rotate(-15 88.872 16.617)"><path fill="#B0B4BC" fill-rule="nonzero" d="M1.564 9.514l9.87 69.525 49.97-6.954L51.537 2.56 1.564 9.514zM0 8.334L52.712 1l10.257 72.264-52.712 7.335L0 8.335z"/><path fill="#D9E5FE" d="M7.776 3.834L60.877.14l5.116 72.796-53.1 3.694z"/><path fill="#FFF" d="M18.383 2.383v70.208h50.464V2.383z"/><path fill="#B0B4BC" fill-rule="nonzero" d="M18.383 2.383v70.208h50.464V2.383H18.383zM17 1h53.23v72.974H17V1z"/><rect width="34.122" height="2.703" x="27" y="38" fill="#D8D8D8" rx="1.351"/><rect width="34.122" height="2.703" x="27" y="51" fill="#D8D8D8" rx="1.351"/><rect width="9.554" height="2.703" x="26" y="33" fill="#B0B4BC" rx="1.351"/><rect width="9.554" height="2.703" x="26" y="46" fill="#B0B4BC" rx="1.351"/><rect width="34.122" height="2.703" x="27" y="16" fill="#D8D8D8" rx="1.351"/><rect width="34.122" height="2.703" x="27" y="22" fill="#D8D8D8" rx="1.351"/><rect width="14.919" height="2.703" x="24" y="11" fill="#B0B4BC" rx="1.351"/></g><path stroke="#F8D11C" stroke-linecap="round" stroke-linejoin="bevel" stroke-width="3" d="M28.5 8.5V2M18 10l-2-7M9 14L4 9" opacity=".2"/><text fill="#283C46" font-family="OpenSans, Open Sans" font-size="12" transform="translate(107 9)"><tspan x="23.087" y="13">Credit</tspan></text><text fill="#283C46" font-family="OpenSans, Open Sans" font-size="12" transform="translate(107 9)"><tspan x="23.112" y="38">Criminal</tspan></text><text fill="#283C46" font-family="OpenSans, Open Sans" font-size="12" transform="translate(107 9)"><tspan x="23.341" y="62">Eviction</tspan></text><g opacity=".7" transform="translate(107 11)"><use fill="#FFF" xlink:href="#a"/><rect width="11.2" height="12.2" x=".4" y=".4" stroke="#D0D0D0" stroke-width=".8" rx="2.4"/></g><path stroke="#3EC19D" stroke-linecap="round" stroke-width="2.4" d="M109 15.861L113.566 21 121 11"/><g opacity=".7" transform="translate(107 36)"><use fill="#FFF" xlink:href="#b"/><rect width="11.2" height="12.2" x=".4" y=".4" stroke="#D0D0D0" stroke-width=".8" rx="2.4"/></g><path stroke="#3EC19D" stroke-linecap="round" stroke-width="2.4" d="M109 40.861L113.566 46 121 36"/><g opacity=".7" transform="translate(107 9)"><use fill="#FFF" xlink:href="#c"/><rect width="11.2" height="12.2" x=".4" y="52.4" stroke="#D0D0D0" stroke-width=".8" rx="2.4"/></g><path stroke="#3EC19D" stroke-linecap="round" stroke-width="2.4" d="M109 65.861L113.566 71 121 61"/></g></svg>