<svg xmlns="http://www.w3.org/2000/svg" width="95" height="96" viewBox="0 0 95 96"><g fill="none" fill-rule="evenodd"><path fill="#D3D3D3" d="M45.697 38h-5.394v-2.946c0-1.287.151-2.245.454-2.873.302-.628.962-1.457 1.98-2.487l3.485-3.525c.732-.805 1.098-1.803 1.098-2.994 0-1.191-.382-2.181-1.146-2.97-.764-.789-1.75-1.183-2.96-1.183-1.208 0-2.219.378-3.03 1.135-.812.756-1.281 1.763-1.408 3.018H33c.318-2.865 1.424-5.11 3.317-6.736C38.211 14.813 40.574 14 43.406 14c2.832 0 5.139.78 6.921 2.342C52.109 17.903 53 20.084 53 22.885c0 1.932-.525 3.542-1.575 4.83-.605.772-1.066 1.32-1.384 1.641-.319.322-.74.733-1.265 1.232-.525.499-.97.933-1.337 1.303-.366.37-.66.684-.883.942-.573.708-.86 1.706-.86 2.994V38zm-5.652 8.983c-.697-.678-1.045-1.498-1.045-2.46 0-.961.34-1.789 1.023-2.482.682-.694 1.5-1.041 2.454-1.041.955 0 1.78.339 2.478 1.017.697.678 1.045 1.498 1.045 2.46 0 .961-.34 1.789-1.023 2.482-.682.694-1.5 1.041-2.454 1.041-.955 0-1.78-.339-2.478-1.017z"/><path fill="#898A8A" fill-rule="nonzero" d="M83.427 93.418l-.585.582H2.155l-.585-.582C.53 92.384.018 91.236.024 89.92c-.454-5.866 5.68-13.644 15.308-18.28 13.047-6.15 15.916-9.238 15.92-18.317-1.626-1.348-2.776-3.025-3.923-5.508a63.125 63.125 0 0 1-1.266-2.992l-1.309-3.292a37.898 37.898 0 0 1-2.357-3 24.58 24.58 0 0 1-1.522-2.42c-.925-1.706-1.406-3.21-1.268-4.593.139-1.392.887-2.442 2.084-3.05l-.042-.371c-.278-2.549-.374-5.176-.18-7.66.472-6.066 2.605-10.253 7.038-11.012.473-1.232 1.271-2.661 2.504-4.085C33.908 1.997 38.266 0 44.207 0c5.969 0 10.02 2.688 13.768 7.736.386.52 3.01 4.359 3.649 5.098.392.455.722.75.879.846 1.516.755 2.626 2.648 1.974 4.336-.966 3.882-1.46 7.445-1.128 10.228 1.538.548 2.506 1.69 2.646 3.299.122 1.405-.412 2.916-1.42 4.628-.453.771-1 1.57-1.619 2.387a39.04 39.04 0 0 1-2.53 3.003c-.714 1.82-2.133 5.695-2.384 6.317-.966 2.394-1.936 3.975-3.459 5.376 0 9.19 2.828 12.275 15.807 18.393 9.427 4.54 15.005 12.161 14.588 18.199-.018 1.431-.53 2.556-1.551 3.572zM58.594 15.424c-.812-.94-3.564-4.964-3.832-5.326-3.068-4.131-6.069-6.123-10.555-6.123-4.776 0-8.03 1.492-10.17 3.961a10.24 10.24 0 0 0-1.68 2.677c-.224.526-.34.91-.375 1.079l-.33 1.585h-1.626c-2.706 0-4.192 2.56-4.575 7.467-.172 2.205-.084 4.6.17 6.925.095.88.19 1.536.25 1.884l.365 2.103-2.134.213c-.575.057-.516.007-.52.04-.04.403.23 1.246.809 2.313.343.633.775 1.315 1.276 2.025a33.98 33.98 0 0 0 2.297 2.895l.24.264.132.33c.316.788 1.278 3.218 1.437 3.614a59.656 59.656 0 0 0 1.187 2.805c1.064 2.307 1.996 3.556 3.435 4.558l.852.594v1.997c0 10.978-3.905 15.187-18.19 21.921C8.773 79.215 3.7 85.648 4.012 89.767c0 .066 25.652.152 76.955.258.008-.05.016-.187.023-.41.327-4.229-4.231-10.485-12.325-14.382-14.208-6.698-18.076-10.918-18.076-21.93v-1.917l.75-.596c1.367-1.09 2.116-2.214 2.996-4.394.237-.585 1.84-4.968 2.52-6.66l.146-.362.273-.281a35.122 35.122 0 0 0 2.493-2.928 20.92 20.92 0 0 0 1.36-2.003c.625-1.06.921-1.897.888-2.277 0 .002.054.046-.595-.015l-1.433-.136-.324-1.396c-.858-3.7-.329-8.166.912-13.18-.697-.41-1.332-.981-1.981-1.734z" opacity=".376"/><path fill="#FFF" d="M62 82c-13.256 0-24-10.747-24-24s10.744-24 24-24 24 10.747 24 24-10.744 24-24 24z" opacity=".705"/><path fill="#515050" fill-rule="nonzero" d="M62 82c-13.256 0-24-10.747-24-24s10.744-24 24-24 24 10.747 24 24-10.744 24-24 24zm0-4.24c10.905 0 19.748-8.846 19.748-19.76 0-10.914-8.843-19.76-19.748-19.76-10.905 0-19.748 8.846-19.748 19.76 0 10.914 8.843 19.76 19.748 19.76z"/><path fill="#515050" d="M73.471 78.12a1.605 1.605 0 0 1-.001-2.27l1.38-1.38a1.604 1.604 0 0 1 2.27.002l17.41 17.407c.627.628.628 1.643.001 2.27l-1.38 1.38a1.604 1.604 0 0 1-2.27 0L73.47 78.12z"/><path fill="#979797" fill-opacity=".536" fill-rule="nonzero" d="M48.932 46.468c-.654.584-1.566 1.614-2.468 3.055-3.595 5.747-3.595 12.62 2.27 19.801a1.848 1.848 0 0 0 2.585.27c.789-.634.91-1.782.271-2.565-4.816-5.897-4.816-11.085-2.003-15.584.411-.657.851-1.236 1.288-1.728.25-.283.434-.465.517-.539a1.813 1.813 0 0 0 .136-2.575 1.848 1.848 0 0 0-2.596-.135z" opacity=".382"/></g></svg>