<svg xmlns="http://www.w3.org/2000/svg" width="22" height="24" viewBox="0 0 22 24"><g fill="#9DB4E3"><path d="M13 15.5v7a.5.5 0 1 0 1 0V15a.5.5 0 0 0-.5-.5h-5a.5.5 0 0 0-.5.5v7.5a.5.5 0 1 0 1 0v-7h4zm8.138-3.155a.5.5 0 0 0 .724-.69l-10.5-11a.5.5 0 0 0-.724 0l-10.5 11a.5.5 0 0 0 .724.69L11 1.725l10.138 10.62z"/><path d="M3 22.01V10a.5.5 0 0 0-1 0v12.51a.5.5 0 0 0 .5.5l17-.01a.5.5 0 0 0 .5-.5V10a.5.5 0 1 0-1 0v12l-16 .01zM4.5 4h1v1.75a.5.5 0 0 0 1 0V3.5A.5.5 0 0 0 6 3H4a.5.5 0 0 0-.5.5V8a.5.5 0 0 0 1 0V4z"/></g></svg>