<svg xmlns="http://www.w3.org/2000/svg" width="185" height="100" viewBox="0 0 185 100"><g fill="none" fill-rule="evenodd"><g transform="rotate(-15 85.277 -14.766)"><path fill="#B0B4BC" fill-rule="nonzero" d="M1.564 9.514l9.87 69.525 49.97-6.954L51.537 2.56 1.564 9.514zM0 8.334L52.712 1l10.257 72.264-52.712 7.335L0 8.335z"/><path fill="#D9E5FE" d="M7.776 3.834L60.877.14l5.116 72.796-53.1 3.694z"/><path fill="#FFF" d="M18.383 2.383v70.208h50.464V2.383z"/><path fill="#B0B4BC" fill-rule="nonzero" d="M18.383 2.383v70.208h50.464V2.383H18.383zM17 1h53.23v72.974H17V1z"/><rect width="34.122" height="2.703" x="27" y="38" fill="#D8D8D8" rx="1.351"/><rect width="34.122" height="2.703" x="27" y="51" fill="#D8D8D8" rx="1.351"/><rect width="9.554" height="2.703" x="26" y="33" fill="#B0B4BC" rx="1.351"/><rect width="9.554" height="2.703" x="26" y="46" fill="#B0B4BC" rx="1.351"/><rect width="34.122" height="2.703" x="27" y="16" fill="#D8D8D8" rx="1.351"/><rect width="34.122" height="2.703" x="27" y="22" fill="#D8D8D8" rx="1.351"/><rect width="14.919" height="2.703" x="24" y="11" fill="#B0B4BC" rx="1.351"/></g><path fill="#283C46" d="M132.933 12.201c-.942 0-1.685.314-2.23.94-.545.628-.817 1.486-.817 2.576 0 1.12.262 1.987.788 2.598.525.612 1.274.917 2.247.917.598 0 1.28-.107 2.045-.322v.873c-.594.223-1.326.334-2.197.334-1.262 0-2.236-.383-2.921-1.148-.686-.766-1.029-1.854-1.029-3.264 0-.883.165-1.656.495-2.32a3.555 3.555 0 0 1 1.43-1.535c.623-.36 1.357-.54 2.2-.54.899 0 1.684.165 2.356.493l-.422.855a4.54 4.54 0 0 0-1.945-.457zm6.685 1.26c.285 0 .541.023.768.07l-.135.903a3.313 3.313 0 0 0-.703-.088c-.52 0-.964.21-1.333.633-.37.421-.554.947-.554 1.576V20h-.973v-6.422h.803l.112 1.19h.046c.239-.418.526-.74.862-.967.336-.227.705-.34 1.107-.34zm4.682 6.656c-.95 0-1.698-.289-2.247-.867-.55-.578-.824-1.38-.824-2.408 0-1.035.255-1.858.765-2.467.51-.61 1.194-.914 2.054-.914.805 0 1.441.265 1.91.794.469.53.703 1.227.703 2.095v.615h-4.424c.02.754.21 1.326.572 1.717.36.39.87.586 1.526.586a5.17 5.17 0 0 0 2.05-.434v.867a5.147 5.147 0 0 1-.975.32 5.483 5.483 0 0 1-1.11.096zm-.264-5.842c-.515 0-.927.168-1.233.504-.307.336-.488.801-.542 1.395h3.357c0-.613-.137-1.083-.41-1.41-.273-.326-.664-.489-1.172-.489zm8.654 4.864h-.052c-.45.652-1.121.978-2.016.978-.84 0-1.493-.287-1.96-.861-.467-.574-.7-1.39-.7-2.45 0-1.058.234-1.88.703-2.466.469-.586 1.121-.88 1.957-.88.871 0 1.54.317 2.004.95h.076l-.04-.463-.024-.45v-2.614h.972V20h-.79l-.13-.861zm-1.945.164c.664 0 1.146-.18 1.444-.542.3-.362.449-.945.449-1.75v-.204c0-.91-.152-1.56-.454-1.949-.303-.388-.787-.583-1.45-.583-.57 0-1.007.222-1.31.665-.303.444-.454 1.07-.454 1.878 0 .82.15 1.44.45 1.858.302.418.743.627 1.325.627zm5.9.697h-.972v-6.422h.973V20zm-1.054-8.162c0-.223.055-.386.164-.49a.573.573 0 0 1 .41-.155.57.57 0 0 1 .404.159c.114.105.17.267.17.486 0 .219-.056.382-.17.49a.567.567 0 0 1-.404.16.562.562 0 0 1-.41-.16c-.11-.108-.164-.271-.164-.49zm5.191 7.476c.172 0 .338-.012.498-.038.16-.025.287-.051.381-.079v.744c-.105.051-.26.093-.466.126a3.41 3.41 0 0 1-.553.05c-1.243 0-1.864-.654-1.864-1.963v-3.82h-.92v-.469l.92-.404.41-1.371h.563v1.488h1.863v.756h-1.863v3.78c0 .386.092.683.275.89.184.207.436.31.756.31zm-27.824 17.887c-.941 0-1.685.314-2.23.94-.544.628-.817 1.486-.817 2.576 0 1.12.263 1.987.788 2.598.526.612 1.275.917 2.247.917.598 0 1.28-.107 2.045-.322v.873c-.594.223-1.326.334-2.197.334-1.262 0-2.235-.383-2.921-1.148-.686-.766-1.028-1.854-1.028-3.264 0-.883.165-1.656.495-2.32a3.555 3.555 0 0 1 1.43-1.535c.623-.36 1.356-.54 2.2-.54.898 0 1.683.165 2.355.493l-.422.855a4.54 4.54 0 0 0-1.945-.457zm6.686 1.26c.285 0 .54.023.767.07l-.135.903a3.313 3.313 0 0 0-.703-.088c-.52 0-.964.21-1.333.633-.369.421-.553.947-.553 1.576V45h-.973v-6.422h.803l.11 1.19h.048c.238-.418.525-.74.861-.967.336-.227.705-.34 1.108-.34zM142.585 45h-.973v-6.422h.973V45zm-1.055-8.162c0-.223.055-.386.164-.49a.573.573 0 0 1 .41-.155c.157 0 .292.053.405.159.113.105.17.267.17.486 0 .219-.057.382-.17.49a.567.567 0 0 1-.405.16.562.562 0 0 1-.41-.16c-.109-.108-.164-.271-.164-.49zM152.833 45v-4.178c0-.511-.11-.895-.328-1.151-.219-.256-.559-.384-1.02-.384-.605 0-1.052.174-1.341.522-.29.347-.434.882-.434 1.605V45h-.973v-4.178c0-.511-.11-.895-.328-1.151-.219-.256-.56-.384-1.025-.384-.61 0-1.056.183-1.34.548-.282.365-.424.964-.424 1.796V45h-.973v-6.422h.791l.159.879h.047c.183-.312.442-.557.776-.732a2.372 2.372 0 0 1 1.122-.264c1.004 0 1.66.363 1.969 1.09h.047c.191-.336.468-.602.832-.797a2.582 2.582 0 0 1 1.242-.293c.726 0 1.27.186 1.632.56.361.373.542.97.542 1.79V45h-.973zm3.95 0h-.973v-6.422h.972V45zm-1.055-8.162c0-.223.054-.386.164-.49a.573.573 0 0 1 .41-.155c.156 0 .29.053.404.159.113.105.17.267.17.486 0 .219-.057.382-.17.49a.567.567 0 0 1-.404.16.562.562 0 0 1-.41-.16c-.11-.108-.164-.271-.164-.49zM163.239 45v-4.154c0-.524-.119-.914-.357-1.172-.238-.258-.611-.387-1.12-.387-.671 0-1.163.182-1.476.545-.312.363-.469.963-.469 1.799V45h-.972v-6.422h.79l.159.879h.047c.199-.316.478-.561.838-.735.36-.174.76-.261 1.2-.261.774 0 1.356.186 1.747.56.39.373.586.97.586 1.79V45h-.973zm6.92 0l-.193-.914h-.047c-.32.402-.64.675-.958.817-.318.143-.716.214-1.192.214-.637 0-1.136-.164-1.498-.492-.36-.328-.542-.795-.542-1.4 0-1.297 1.038-1.977 3.112-2.04l1.09-.035v-.398c0-.504-.109-.876-.326-1.116-.216-.24-.563-.36-1.04-.36-.535 0-1.14.163-1.816.492l-.299-.745a4.57 4.57 0 0 1 1.04-.404 4.504 4.504 0 0 1 1.134-.146c.766 0 1.333.17 1.702.51.37.34.554.884.554 1.634V45h-.72zm-2.197-.686c.605 0 1.081-.166 1.427-.498.345-.332.518-.796.518-1.394v-.58l-.972.04c-.774.028-1.331.148-1.673.361-.342.213-.513.544-.513.993 0 .352.106.62.32.803.212.184.51.275.893.275zm5.894.686h-.972v-9.117h.972V45zm-39.562 24h-4.775v-8.566h4.775v.884h-3.78v2.76h3.551v.879h-3.55v3.152h3.779V69zm3.158 0l-2.437-6.422h1.043l1.382 3.809c.313.89.497 1.468.551 1.734h.047c.043-.207.179-.636.407-1.286.229-.65.742-2.07 1.538-4.257h1.043L138.59 69h-1.137zm5.578 0h-.972v-6.422h.972V69zm-1.054-8.162c0-.223.054-.386.164-.49a.573.573 0 0 1 .41-.155c.156 0 .29.053.404.159.113.105.17.267.17.486 0 .219-.057.382-.17.49a.567.567 0 0 1-.404.16.562.562 0 0 1-.41-.16c-.11-.108-.164-.271-.164-.49zm5.683 8.28c-.93 0-1.65-.287-2.159-.86-.51-.571-.765-1.381-.765-2.428 0-1.074.26-1.904.777-2.49.517-.586 1.255-.88 2.212-.88.308 0 .617.034.925.1.309.067.551.145.727.235l-.299.826a4.573 4.573 0 0 0-.703-.214 3.14 3.14 0 0 0-.674-.085c-1.304 0-1.957.832-1.957 2.496 0 .79.16 1.395.478 1.817.318.422.79.633 1.415.633.535 0 1.084-.116 1.646-.346v.861c-.43.223-.97.334-1.623.334zm5.22-.804c.173 0 .339-.012.499-.038.16-.025.287-.051.38-.079v.744a1.75 1.75 0 0 1-.465.126c-.205.034-.39.05-.554.05-1.242 0-1.863-.654-1.863-1.963v-3.82h-.92v-.469l.92-.404.41-1.371h.563v1.488h1.863v.756h-1.863v3.78c0 .386.091.683.275.89.184.207.436.31.756.31zm3.136.686h-.973v-6.422h.973V69zm-1.055-8.162c0-.223.055-.386.164-.49a.573.573 0 0 1 .41-.155.57.57 0 0 1 .404.159c.114.105.17.267.17.486 0 .219-.056.382-.17.49a.567.567 0 0 1-.404.16.562.562 0 0 1-.41-.16c-.11-.108-.164-.271-.164-.49zm8.66 4.945c0 1.047-.264 1.864-.79 2.452-.528.588-1.257.882-2.186.882a2.902 2.902 0 0 1-1.53-.404 2.668 2.668 0 0 1-1.031-1.16c-.242-.504-.363-1.094-.363-1.77 0-1.047.261-1.862.785-2.446.523-.584 1.25-.876 2.18-.876.898 0 1.612.299 2.141.896.53.598.794 1.407.794 2.426zm-4.892 0c0 .82.164 1.446.492 1.875.328.43.81.645 1.447.645s1.12-.214 1.45-.642c.33-.428.495-1.054.495-1.878 0-.816-.165-1.436-.495-1.86-.33-.424-.817-.636-1.462-.636-.636 0-1.117.21-1.441.627-.324.418-.486 1.041-.486 1.87zM169.72 69v-4.154c0-.524-.12-.914-.358-1.172-.238-.258-.611-.387-1.119-.387-.672 0-1.164.182-1.476.545-.313.363-.47.963-.47 1.799V69h-.972v-6.422h.791l.158.879h.047c.2-.316.479-.561.838-.735.36-.174.76-.261 1.201-.261.774 0 1.356.186 1.746.56.391.373.586.97.586 1.79V69h-.972z"/><path fill="#D0D0D0" fill-rule="nonzero" d="M107.4 9.8a1.6 1.6 0 0 0-1.6 1.6v8.2a1.6 1.6 0 0 0 1.6 1.6h7.2a1.6 1.6 0 0 0 1.6-1.6v-8.2a1.6 1.6 0 0 0-1.6-1.6h-7.2zm0-.8h7.2a2.4 2.4 0 0 1 2.4 2.4v8.2a2.4 2.4 0 0 1-2.4 2.4h-7.2a2.4 2.4 0 0 1-2.4-2.4v-8.2a2.4 2.4 0 0 1 2.4-2.4z"/><path fill="#3EC19D" fill-rule="nonzero" d="M107.897 13.064a1.2 1.2 0 1 0-1.794 1.595l5.546 6.24 8.314-11.183a1.2 1.2 0 0 0-1.926-1.432l-6.554 8.816-3.586-4.036z"/><path fill="#D0D0D0" fill-rule="nonzero" d="M107.4 34.8a1.6 1.6 0 0 0-1.6 1.6v8.2a1.6 1.6 0 0 0 1.6 1.6h7.2a1.6 1.6 0 0 0 1.6-1.6v-8.2a1.6 1.6 0 0 0-1.6-1.6h-7.2zm0-.8h7.2a2.4 2.4 0 0 1 2.4 2.4v8.2a2.4 2.4 0 0 1-2.4 2.4h-7.2a2.4 2.4 0 0 1-2.4-2.4v-8.2a2.4 2.4 0 0 1 2.4-2.4z"/><path fill="#3EC19D" fill-rule="nonzero" d="M107.897 38.064a1.2 1.2 0 1 0-1.794 1.595l5.546 6.24 8.314-11.183a1.2 1.2 0 1 0-1.926-1.432l-6.554 8.816-3.586-4.036z"/><path fill="#D0D0D0" fill-rule="nonzero" d="M107.4 59.8a1.6 1.6 0 0 0-1.6 1.6v8.2a1.6 1.6 0 0 0 1.6 1.6h7.2a1.6 1.6 0 0 0 1.6-1.6v-8.2a1.6 1.6 0 0 0-1.6-1.6h-7.2zm0-.8h7.2a2.4 2.4 0 0 1 2.4 2.4v8.2a2.4 2.4 0 0 1-2.4 2.4h-7.2a2.4 2.4 0 0 1-2.4-2.4v-8.2a2.4 2.4 0 0 1 2.4-2.4z"/><path fill="#3EC19D" fill-rule="nonzero" d="M107.897 63.064a1.2 1.2 0 1 0-1.794 1.595l5.546 6.24 8.314-11.183a1.2 1.2 0 1 0-1.926-1.432l-6.554 8.816-3.586-4.036z"/><path d="M20.753 12.958l-3.186-6.546a1.5 1.5 0 1 0-2.697 1.313l3.185 6.546a1.5 1.5 0 1 0 2.698-1.313zM14.18 16.09l-6.51-2.763a1.5 1.5 0 1 0-1.172 2.761l6.51 2.763a1.5 1.5 0 0 0 1.171-2.761zm13.951-4.66l.227-6.497a1.5 1.5 0 0 0-2.998-.105l-.227 6.496a1.5 1.5 0 0 0 2.998.105z" fill="#FEF4CA" fill-rule="nonzero"/></g></svg>