<svg xmlns="http://www.w3.org/2000/svg" width="166" height="19" viewBox="0 0 166 19"><path fill="#9DB4E3" fill-rule="evenodd" d="M11.161 5.722c0 2.3-1.006 3.748-3.02 4.346l3.66 5.064h-3l-3.34-4.685h-3.1v4.685H0V1.196h5.2c2.134 0 3.661.36 4.581 1.077.92.718 1.38 1.867 1.38 3.449zm-3.14 1.974c.48-.412.72-1.074.72-1.984 0-.91-.247-1.535-.74-1.874-.493-.34-1.374-.509-2.64-.509h-3v4.985H5.3c1.333 0 2.24-.206 2.72-.618zm16.122 3.11h-8.341c.053.77.407 1.392 1.06 1.864.653.472 1.4.708 2.24.708 1.334 0 2.347-.419 3.04-1.256l1.28 1.395c-1.146 1.183-2.64 1.775-4.48 1.775-1.493 0-2.763-.495-3.81-1.486-1.047-.99-1.57-2.319-1.57-3.987 0-1.668.533-2.994 1.6-3.977 1.067-.984 2.323-1.476 3.77-1.476s2.677.435 3.69 1.306c1.014.87 1.52 2.07 1.52 3.599v1.535zM15.802 9.05h6.1c0-.89-.28-1.575-.84-2.053-.56-.479-1.25-.718-2.07-.718-.82 0-1.557.25-2.21.748s-.98 1.173-.98 2.023zm13.041.34v5.741h-2.24V4.526h2.24V6.46a3.98 3.98 0 0 1 1.49-1.536 3.978 3.978 0 0 1 2.05-.558c1.201 0 2.171.366 2.911 1.097.74.73 1.11 1.787 1.11 3.17v6.5h-2.24V9.31c0-1.954-.813-2.931-2.44-2.931-.774 0-1.447.256-2.02.767-.574.512-.86 1.26-.86 2.243zm13.442-3.07v5.383c0 .505.133.907.4 1.206.267.3.64.449 1.12.449.48 0 .94-.233 1.38-.698l.92 1.575c-.786.704-1.656 1.057-2.61 1.057-.953 0-1.767-.33-2.44-.987-.673-.658-1.01-1.545-1.01-2.662V6.32h-1.34V4.526h1.34v-3.33h2.24v3.33h2.8V6.32h-2.8zm13.382 5.642l-1.4 3.17h-2.52l6.16-13.936h2.52l6.161 13.936h-2.52l-1.4-3.17h-7.001zm6.04-2.173l-2.54-5.742-2.54 5.742h5.08zM77.57 5.842c1.014.983 1.52 2.292 1.52 3.927 0 1.635-.503 2.964-1.51 3.988-1.006 1.023-2.18 1.535-3.52 1.535-1.34 0-2.544-.585-3.61-1.755V19h-2.24V4.526h2.24V6.38c.88-1.343 2.033-2.014 3.46-2.014s2.647.492 3.66 1.476zm-6.24 6.49c.613.644 1.36.966 2.24.966.88 0 1.647-.319 2.3-.957.654-.638.98-1.465.98-2.482 0-1.017-.32-1.86-.96-2.532-.64-.671-1.407-1.007-2.3-1.007-.894 0-1.647.336-2.26 1.007-.614.671-.92 1.512-.92 2.522 0 1.01.306 1.837.92 2.482zm19.682-6.49c1.013.983 1.52 2.292 1.52 3.927 0 1.635-.503 2.964-1.51 3.988-1.007 1.023-2.18 1.535-3.52 1.535-1.34 0-2.544-.585-3.61-1.755V19H81.65V4.526h2.24V6.38c.88-1.343 2.034-2.014 3.46-2.014 1.427 0 2.648.492 3.661 1.476zm-6.24 6.49c.613.644 1.36.966 2.24.966.88 0 1.646-.319 2.3-.957.653-.638.98-1.465.98-2.482 0-1.017-.32-1.86-.96-2.532-.64-.671-1.407-1.007-2.3-1.007-.894 0-1.647.336-2.26 1.007-.614.671-.92 1.512-.92 2.522 0 1.01.306 1.837.92 2.482zm12.56 2.8h-2.24V.34h2.24v14.793zm5.481 0h-2.24V4.526h2.24v10.606zm-2.52-13.716c0-.386.14-.718.42-.997.28-.28.614-.419 1-.419.387 0 .72.14 1 .419.28.279.42.611.42.997 0 .385-.14.717-.42.996-.28.28-.613.42-1 .42-.386 0-.72-.14-1-.42a1.36 1.36 0 0 1-.42-.996zm10.481 13.876c-1.48 0-2.753-.502-3.82-1.506-1.067-1.003-1.6-2.316-1.6-3.937 0-1.622.556-2.94 1.67-3.958 1.113-1.016 2.47-1.525 4.07-1.525s2.954.552 4.06 1.655l-1.32 1.615c-.92-.798-1.846-1.196-2.78-1.196-.933 0-1.743.309-2.43.927-.687.618-1.03 1.415-1.03 2.392 0 .977.34 1.804 1.02 2.482.68.678 1.517 1.017 2.51 1.017.994 0 1.93-.452 2.81-1.356l1.32 1.436c-1.293 1.302-2.786 1.954-4.48 1.954zm15.422-.16h-2.04v-1.415c-.88 1.05-2.06 1.575-3.54 1.575-1.107 0-2.024-.313-2.75-.937-.728-.625-1.09-1.46-1.09-2.502 0-1.044.386-1.825 1.16-2.343.773-.518 1.82-.778 3.14-.778h2.9v-.398c0-1.41-.787-2.114-2.36-2.114-.987 0-2.014.36-3.08 1.077l-1-1.396c1.293-1.023 2.76-1.535 4.4-1.535 1.253 0 2.277.316 3.07.947.793.632 1.19 1.625 1.19 2.98v6.84zm-2.24-3.947v-.897h-2.52c-1.614 0-2.42.505-2.42 1.515 0 .518.2.914.6 1.186.4.272.956.409 1.67.409.713 0 1.336-.2 1.87-.598.533-.4.8-.937.8-1.615zm8.12-4.865v5.383c0 .505.134.907.401 1.206.267.3.64.449 1.12.449.48 0 .94-.233 1.38-.698l.92 1.575c-.786.704-1.656 1.057-2.61 1.057-.953 0-1.767-.33-2.44-.987-.674-.658-1.01-1.545-1.01-2.662V6.32h-1.34V4.526h1.34v-3.33h2.24v3.33h2.8V6.32h-2.8zm7.842 8.812h-2.24V4.526h2.24v10.606zm-2.52-13.716c0-.386.14-.718.42-.997.28-.28.613-.419 1-.419.386 0 .72.14 1 .419.28.279.42.611.42.997 0 .385-.14.717-.42.996-.28.28-.614.42-1 .42-.387 0-.72-.14-1-.42a1.36 1.36 0 0 1-.42-.996zm10.66 11.882c.974 0 1.778-.322 2.411-.967.634-.645.95-1.479.95-2.502 0-1.023-.316-1.858-.95-2.502-.633-.645-1.437-.967-2.41-.967-.974 0-1.777.322-2.41.967-.634.644-.95 1.479-.95 2.502 0 1.023.316 1.857.95 2.502.633.645 1.436.967 2.41.967zm0 1.994c-1.6 0-2.933-.529-4-1.585-1.066-1.057-1.6-2.35-1.6-3.878 0-1.529.534-2.821 1.6-3.878 1.067-1.056 2.4-1.585 4-1.585 1.601 0 2.935.529 4.001 1.585 1.067 1.057 1.6 2.35 1.6 3.878s-.533 2.821-1.6 3.878c-1.066 1.056-2.4 1.585-4 1.585zM158.44 9.39v5.742h-2.24V4.526h2.24V6.46a3.98 3.98 0 0 1 1.49-1.536 3.978 3.978 0 0 1 2.05-.558c1.2 0 2.17.366 2.91 1.097.741.73 1.111 1.787 1.111 3.17v6.5h-2.24V9.31c0-1.954-.814-2.931-2.44-2.931-.774 0-1.447.256-2.02.767-.574.512-.86 1.26-.86 2.243z"/></svg>