<svg xmlns="http://www.w3.org/2000/svg" width="157" height="21" viewBox="0 0 157 21"><path fill="#404040" fill-rule="evenodd" d="M3.114 8.363h1.621c1.088 0 1.875-.202 2.364-.605.488-.404.732-1.003.732-1.797 0-.807-.264-1.387-.791-1.738-.527-.352-1.322-.528-2.383-.528H3.114v4.668zm0 1.934V16H.78V1.723h4.033c1.843 0 3.207.345 4.092 1.035.886.69 1.328 1.732 1.328 3.125 0 1.777-.924 3.043-2.773 3.799L11.493 16H8.837l-3.418-5.703H3.114zm14.922 5.898c-1.68 0-2.993-.49-3.94-1.47-.948-.98-1.421-2.329-1.421-4.047 0-1.765.44-3.151 1.318-4.16.88-1.01 2.087-1.514 3.623-1.514 1.426 0 2.552.433 3.38 1.299.826.866 1.24 2.057 1.24 3.574v1.24h-7.198c.033 1.048.316 1.854.85 2.417.534.563 1.285.845 2.256.845.638 0 1.232-.06 1.782-.18a9.392 9.392 0 0 0 1.772-.601v1.865a7.046 7.046 0 0 1-1.699.566 10.42 10.42 0 0 1-1.963.166zm-.42-9.453c-.729 0-1.313.231-1.753.694-.44.462-.701 1.136-.786 2.021h4.902c-.013-.892-.227-1.567-.644-2.026-.417-.46-.99-.689-1.719-.689zM34.345 16H32.04V9.36c0-.834-.168-1.456-.503-1.866-.335-.41-.867-.615-1.597-.615-.97 0-1.68.286-2.128.86-.45.572-.674 1.532-.674 2.88V16h-2.295V5.2h1.797l.322 1.415h.117c.326-.514.788-.911 1.387-1.191a4.647 4.647 0 0 1 1.992-.42c2.591 0 3.887 1.318 3.887 3.955V16zm7.217-1.66c.56 0 1.12-.088 1.68-.264v1.729c-.255.11-.582.203-.982.278-.4.075-.816.112-1.245.112-2.175 0-3.262-1.146-3.262-3.437v-5.82h-1.475V5.921l1.582-.84.782-2.285h1.416v2.402h3.076v1.739h-3.076v5.78c0 .554.138.963.415 1.226.276.264.64.396 1.089.396zM59.696 16l-1.425-3.965h-5.46L51.416 16h-2.46l5.34-14.336h2.54L62.177 16h-2.48zm-2.04-5.977l-1.339-3.886c-.097-.26-.232-.67-.405-1.23-.172-.56-.291-.97-.356-1.231-.176.8-.433 1.676-.772 2.627l-1.289 3.72h4.16zm11.64 6.172c-1.367 0-2.428-.491-3.184-1.474h-.136c.09.911.136 1.465.136 1.66v4.424h-2.295V5.199h1.856c.052.202.16.684.322 1.446h.117c.716-1.094 1.79-1.641 3.223-1.641 1.348 0 2.397.488 3.15 1.465.751.976 1.127 2.347 1.127 4.111 0 1.764-.382 3.141-1.147 4.13-.765.99-1.821 1.485-3.17 1.485zm-.557-9.316c-.911 0-1.577.267-1.997.8-.42.535-.63 1.387-.63 2.56v.341c0 1.315.209 2.267.625 2.857.417.589 1.097.883 2.041.883.795 0 1.407-.325 1.836-.976.43-.651.645-1.579.645-2.783 0-1.211-.213-2.128-.64-2.75-.426-.621-1.053-.932-1.88-.932zm13.018 9.316c-1.367 0-2.429-.491-3.184-1.474h-.136c.09.911.136 1.465.136 1.66v4.424h-2.295V5.199h1.856c.052.202.16.684.322 1.446h.117c.716-1.094 1.79-1.641 3.223-1.641 1.348 0 2.397.488 3.15 1.465.751.976 1.127 2.347 1.127 4.111 0 1.764-.382 3.141-1.147 4.13-.765.99-1.822 1.485-3.17 1.485zM81.2 6.88c-.911 0-1.577.267-1.997.8-.42.535-.63 1.387-.63 2.56v.341c0 1.315.209 2.267.625 2.857.417.589 1.097.883 2.041.883.795 0 1.407-.325 1.836-.976.43-.651.645-1.579.645-2.783 0-1.211-.213-2.128-.64-2.75-.426-.621-1.053-.932-1.88-.932zM91.034 16H88.74V.805h2.295V16zm5.576 0h-2.295V5.2h2.295V16zM94.18 2.338c0-.41.112-.726.337-.947.224-.222.545-.332.962-.332.403 0 .717.11.942.332.225.221.337.537.337.947 0 .39-.112.698-.337.923-.225.224-.539.337-.942.337-.417 0-.738-.113-.962-.337-.225-.225-.337-.532-.337-.923zm10.068 13.857c-1.634 0-2.876-.477-3.726-1.43-.85-.954-1.274-2.323-1.274-4.107 0-1.816.444-3.213 1.333-4.19.889-.976 2.173-1.464 3.853-1.464 1.139 0 2.164.211 3.076.635l-.694 1.845c-.97-.377-1.77-.566-2.402-.566-1.868 0-2.803 1.24-2.803 3.72 0 1.212.233 2.121.699 2.73.465.609 1.147.913 2.045.913a5.87 5.87 0 0 0 2.9-.761v2.001c-.41.241-.847.414-1.313.518-.465.104-1.03.156-1.694.156zM116.552 16l-.46-1.504h-.077c-.521.658-1.045 1.105-1.573 1.343-.527.237-1.204.356-2.03.356-1.062 0-1.89-.286-2.486-.86-.596-.572-.894-1.383-.894-2.43 0-1.114.414-1.954 1.24-2.52.827-.567 2.087-.876 3.78-.928l1.865-.059v-.576c0-.69-.161-1.206-.483-1.548-.323-.341-.822-.512-1.5-.512-.553 0-1.083.081-1.591.244-.508.163-.996.355-1.465.576l-.742-1.64a7.987 7.987 0 0 1 1.924-.699 8.853 8.853 0 0 1 1.972-.24c1.374 0 2.41.3 3.11.9.7.598 1.05 1.54 1.05 2.822V16h-1.64zm-3.418-1.563c.833 0 1.502-.232 2.007-.698.504-.465.756-1.118.756-1.958v-.937l-1.386.058c-1.081.04-1.867.22-2.359.542-.491.323-.737.816-.737 1.48 0 .482.143.854.43 1.118.286.264.716.396 1.289.396zm12.285-.097c.56 0 1.12-.088 1.68-.264v1.729a4.68 4.68 0 0 1-.982.278c-.4.075-.815.112-1.245.112-2.174 0-3.262-1.146-3.262-3.437v-5.82h-1.474V5.921l1.582-.84.781-2.285h1.416v2.402h3.076v1.739h-3.076v5.78c0 .554.138.963.415 1.226.277.264.64.396 1.089.396zm6.133 1.66h-2.295V5.2h2.295V16zM129.12 2.338c0-.41.112-.726.337-.947.225-.222.545-.332.962-.332.404 0 .718.11.942.332.225.221.337.537.337.947 0 .39-.112.698-.337.923-.224.224-.538.337-.942.337-.417 0-.737-.113-.962-.337-.225-.225-.337-.532-.337-.923zm15.293 8.242c0 1.764-.452 3.141-1.357 4.13-.905.99-2.165 1.485-3.78 1.485-1.009 0-1.9-.228-2.675-.683-.775-.456-1.37-1.11-1.788-1.963-.416-.853-.625-1.843-.625-2.969 0-1.751.45-3.118 1.348-4.101.899-.984 2.165-1.475 3.799-1.475 1.562 0 2.8.503 3.71 1.509.912 1.006 1.368 2.361 1.368 4.067zm-7.861 0c0 2.494.921 3.74 2.763 3.74 1.823 0 2.735-1.246 2.735-3.74 0-2.467-.918-3.701-2.754-3.701-.964 0-1.662.319-2.095.957-.433.638-.65 1.553-.65 2.744zm20 5.42h-2.305V9.36c0-.834-.168-1.456-.503-1.866-.335-.41-.867-.615-1.597-.615-.97 0-1.68.286-2.128.86-.45.572-.674 1.532-.674 2.88V16h-2.295V5.2h1.797l.322 1.415h.117c.326-.514.788-.911 1.387-1.191a4.647 4.647 0 0 1 1.992-.42c2.591 0 3.887 1.318 3.887 3.955V16z"/></svg>