<svg xmlns="http://www.w3.org/2000/svg" width="146" height="114" viewBox="0 0 146 114"><g fill="none" fill-rule="evenodd"><g fill="#D9E5FE" transform="translate(0 46.576)"><rect width="21.069" height="2.457" x="8.567" y="11.583" rx="1.228"/><rect width="50.866" height="2.457" x="17.607" y="5.265" rx="1.228"/><rect width="37.48" height="2.457" y="17.55" rx="1.228"/><rect width="24.095" height="2.457" x="21.417" y="23.166" rx="1.228"/><rect width="16.063" height="2.457" x="19.101" y="31.238" rx="1.228"/><rect width="16.063" height="2.457" x="31.381" y="38.258" rx="1.228"/><rect width="5.354" height="2.457" x="22.613" y="38.258" rx="1.228"/><rect width="5.354" height="2.457" y="11.583" rx="1.228"/><rect width="5.354" height="2.457" x="31.954" rx="1.228"/></g><g transform="rotate(-11 169.076 -131.817)"><g fill-rule="nonzero"><path fill="#FFF" d="M2.08 8.145L7.271 82.38l88.28-6.173-5.19-74.235z"/><path fill="#A3A2A2" d="M2.08 8.145L7.271 82.38l88.28-6.173-5.19-74.235L2.08 8.145zM.96 7.17L91.334.85l5.338 76.33L6.297 83.5.96 7.17z"/></g><path fill="#FFF" fill-rule="nonzero" d="M9.348 4.952V79.37h88.495V4.952z"/><path fill="#A3A2A2" fill-rule="nonzero" d="M9.73 5.138v74.417h88.496V5.138H9.731zm-1.05-1.05h90.596v76.517H8.681V4.088z"/><rect width="31.603" height="31.94" x="12.512" y="44.266" fill="#D8D8D8" fill-opacity=".377" opacity=".657" rx="1.75"/><rect width="45.649" height="68.795" x="48.328" y="8.114" fill="#D8D8D8" fill-opacity=".377" opacity=".657" rx="1.75"/><rect width="28.092" height="3.095" x="53.596" y="22.404" fill="#D8D8D8" rx="1.4"/><rect width="35.115" height="3.095" x="53.596" y="46.322" fill="#D8D8D8" rx="1.4"/><rect width="35.115" height="3.095" x="53.596" y="30.377" fill="#D8D8D8" rx="1.4"/><rect width="24.58" height="3.095" x="53.596" y="54.295" fill="#D8D8D8" rx="1.4"/><rect width="35.115" height="3.095" x="53.596" y="62.267" fill="#D8D8D8" rx="1.4"/><rect width="35.115" height="3.095" x="53.596" y="70.24" fill="#D8D8D8" rx="1.4"/><rect width="21.069" height="3.095" x="18.13" y="61.816" fill="#D8D8D8" rx="1.4"/><rect width="24.58" height="3.095" x="53.596" y="14.432" fill="#B0B4BC" rx="1.4"/><rect width="24.58" height="3.095" x="53.596" y="38.35" fill="#B0B4BC" rx="1.4"/><path fill="#898A8A" fill-rule="nonzero" d="M39.285 40.651l-.159.159H17.293l-.158-.159c-.281-.28-.42-.593-.418-.95-.123-1.596 1.537-3.71 4.142-4.971 3.53-1.672 4.307-2.512 4.308-4.98-.44-.367-.752-.823-1.062-1.498a17.209 17.209 0 0 1-.342-.813l-.355-.896a10.3 10.3 0 0 1-.638-.816 6.688 6.688 0 0 1-.411-.657c-.25-.464-.38-.873-.343-1.249.037-.379.24-.664.564-.83a11.415 11.415 0 0 1-.06-2.184c.127-1.648.704-2.787 1.904-2.993a3.78 3.78 0 0 1 .678-1.11c.783-.91 1.963-1.453 3.57-1.453 1.615 0 2.711.731 3.726 2.104.104.141.814 1.185.987 1.386.106.123.195.204.238.23.41.205.71.72.534 1.179-.261 1.055-.395 2.024-.305 2.78.416.15.678.46.716.898.033.382-.112.793-.384 1.258-.123.21-.27.427-.438.65a10.604 10.604 0 0 1-.685.816c-.193.494-.577 1.548-.645 1.717-.262.651-.524 1.081-.936 1.462 0 2.499.765 3.337 4.277 5.001 2.55 1.234 4.06 3.307 3.947 4.948a1.32 1.32 0 0 1-.42.971z" opacity=".163"/><path fill="#D8D8D8" fill-rule="nonzero" d="M14.614 10.918v28.438c0 .19.16.351.354.351h26.69c.2 0 .354-.153.354-.351V10.918c0-.19-.16-.351-.354-.351h-26.69c-.2 0-.354.154-.354.351zm-1.4 0c0-.967.777-1.751 1.754-1.751h26.69c.97 0 1.754.79 1.754 1.751v28.438c0 .967-.776 1.751-1.754 1.751h-26.69c-.969 0-1.754-.79-1.754-1.751V10.918z"/><path fill="#B0B4BC" d="M16.966 51.685v-2.822h6.363v1.487l-3.565 7.32h-2.142l3.402-7.119h-2.218v1.134h-1.84zM28.13 50.35c-.546 0-.968.182-1.266.548-.298.365-.481.863-.548 1.493a3.15 3.15 0 0 1 1.738-.53c.824 0 1.51.27 2.06.807.55.538.826 1.254.826 2.148 0 .895-.296 1.611-.888 2.149-.593.537-1.338.806-2.237.806-.622 0-1.161-.12-1.619-.359a2.608 2.608 0 0 1-1.065-1.002c-.504-.831-.756-1.873-.756-3.125 0-.806.099-1.514.296-2.123.198-.609.469-1.09.813-1.442.672-.706 1.504-1.059 2.495-1.059.411 0 .804.061 1.178.183.374.122.661.246.863.372.202.126.424.285.668.478l-.933 1.386a4.573 4.573 0 0 0-.22-.201c-.097-.084-.288-.193-.573-.328a1.947 1.947 0 0 0-.832-.201zm-1.24 3.52a1.14 1.14 0 0 0-.397.901c0 .37.126.687.378.952.252.264.567.396.945.396s.693-.117.945-.352c.252-.236.378-.54.378-.914s-.113-.689-.34-.945c-.227-.256-.536-.384-.926-.384s-.718.115-.983.346zm7.352-.649c0 .882.139 1.592.416 2.13.277.537.71.806 1.298.806.588 0 1.02-.269 1.297-.806.278-.538.416-1.248.416-2.13 0-.882-.138-1.591-.416-2.129-.277-.538-.71-.806-1.297-.806-.588 0-1.02.268-1.298.806-.277.538-.416 1.247-.416 2.13zm-1.02 3.308c-.605-.827-.908-1.932-.908-3.314 0-1.382.303-2.486.907-3.314.605-.827 1.517-1.24 2.735-1.24s2.13.413 2.734 1.24c.605.828.907 1.932.907 3.314 0 1.382-.302 2.487-.907 3.314s-1.516 1.241-2.734 1.241-2.13-.414-2.735-1.241z"/><rect width="21.069" height="3.095" x="18.13" y="69.538" fill="#D8D8D8" rx="1.4"/></g><path fill="#36D488" fill-rule="nonzero" d="M76.12 8.423a1.77 1.77 0 0 0-2.484-.227 1.752 1.752 0 0 0-.228 2.474l5.594 6.697a1.77 1.77 0 0 0 2.633.089L95.512 2.97a1.752 1.752 0 0 0-.058-2.484 1.77 1.77 0 0 0-2.495.058l-12.51 13.06-4.328-5.181z"/></g></svg>